<?xml version="1.0" encoding="utf-8" ?>
<svg baseProfile="full" height="200mm" version="1.1" viewBox="0,0,200,200" width="200mm" xmlns="http://www.w3.org/2000/svg" xmlns:ev="http://www.w3.org/2001/xml-events" xmlns:xlink="http://www.w3.org/1999/xlink"><defs /><rect fill="#1a1a1a" height="200" width="200" x="0" y="0" /><rect fill="#1a1a1a" height="200" width="180" x="10" y="0" /><text alignment-baseline="middle" fill="#e1ed5e" style="dominant-baseline: central; font-size:9.0px; font-family:Arial;" text-anchor="middle" x="100.0" y="100.0">2023</text><line stroke="#e1ed5e" stroke-width="0.3" x1="100.0" x2="100.0" y1="15.0" y2="10.0" /><path d="M 100.0 14.0 a86.0,86.0 0 0,1 42.46469731375804,11.215312516191453" fill="none" id="id25" stroke="none" /><text fill="#e1ed5e" style="font-size:6.75px; font-family:Arial;" text-anchor="middle"><textPath startOffset="22.20632615414155" xlink:href="#id25">January</textPath></text><path d="M 100.36148047927253 79.00311137660856 l 0.3144321477484434 -18.26404789319303 a39.26675430995847,39.26675430995847 0 0,0 0.6757123395221962,0.017451656184273228 l -0.6287711224655074 18.255929444866396" fill="#ffbe11" stroke="none" /><path d="M 102.52436894288641 79.15227682838746 l 1.6329100470650848 -13.485531392425138 a34.58403298574801,34.58403298574801 0 0,0 0.590374593056642,0.07664756604302478 l -1.8647993686295727 13.455425503217977" fill="#ff7c0b" stroke="none" /><path d="M 103.2404852339499 79.25152402106235 l 5.882260173782202 -37.66347479041417 a59.120051390839286,59.120051390839286 0 0,0 1.0041140791752927,0.16568742664534916 l -6.529703459096369 37.5566411008292" fill="#4cff2c" stroke="none" /><path d="M 104.66035177308747 79.52364482259891 l 3.7442467182701358 -16.45123145378465 a37.87194119931877,37.87194119931877 0 0,0 0.6344024686984981,0.1501425676192353 l -4.026872873931158 16.384342974024545" fill="#ffab0f" stroke="none" /><path d="M 105.71112130821622 79.79150937346287 l 5.216219054107273 -18.457306047630603 a40.18022647823359,40.18022647823359 0 0,0 0.6639491258112012,0.1938249565080962 l -5.533158397641902 18.364782762203802" fill="#ffcb12" stroke="none" /><path d="M 106.74666289553966 80.11325718540242 l 6.230273917069952 -18.364613286841134 a40.39266186620455,40.39266186620455 0 0,0 0.6565115427963222,0.22904398633957845 l -6.545467463929548 18.254648447329348" fill="#ffcd13" stroke="none" /><path d="M 110.36928655335952 81.73862282372117 l 9.471257997435 -16.679856780404194 a40.18130210045116,40.18130210045116 0 0,0 0.5985163138485186,0.3466992805360105 l -9.756971043748846 16.514353342478135" fill="#ffcb12" stroke="none" /><line stroke="#e1ed5e" stroke-width="0.3" x1="143.23703022742887" x2="145.7803849466894" y1="26.81831364943548" y2="22.513508569990506" /><path d="M 143.74570117128098 25.957352633546492 a86.0,86.0 0 0,1 28.547481713284135,27.462654790039103" fill="none" id="id26" stroke="none" /><text fill="#e1ed5e" style="font-size:6.75px; font-family:Arial;" text-anchor="middle"><textPath startOffset="19.985693538727396" xlink:href="#id26">February</textPath></text><path d="M 111.90073688211348 82.69761687909136 l 11.013628261730302 -16.01262322017513 a40.43461113268995,40.43461113268995 0 0,0 0.570068059020654,0.39936910599361936 l -11.287627460334608 15.820669271417575" fill="#ffce13" stroke="none" /><path d="M 112.48926042617603 83.11751280151076 l 11.470642821725981 -15.505560296457382 a40.287250888882255,40.287250888882255 0 0,0 0.5539570785078931,0.4172289867975093 l -11.735846053992258 15.305814720154027" fill="#ffcc13" stroke="none" /><path d="M 113.34407831869373 83.78471172551755 l 17.152058599605727 -20.84262157722773 a47.992739550031374,47.992739550031374 0 0,0 0.6333726689035846,0.530431395383912 l -17.508288805468432 20.544289024450002" fill="#cdff1d" stroke="none" /><path d="M 113.89432698308785 84.25364557470407 l 6.120886251232543 -6.936762351004423 a30.251157787803642,30.251157787803642 0 0,0 0.3874870979723417,0.3478897424586175 l -6.239384336800875 6.830373599776507" fill="#ff3c05" stroke="none" /><path d="M 115.4437574822437 85.77008943001954 l 9.973317449552642 -9.189435638077729 a34.56144491917894,34.56144491917894 0 0,0 0.3993597332922559,0.44098299209671443 l -10.130020823460933 9.016399858711464" fill="#ff7b0b" stroke="none" /><path d="M 115.68641384162765 86.03803664274999 l 20.565758090713665 -18.304907914301086 a48.532164092144974,48.532164092144974 0 0,0 0.5500499967669285,0.6288022320608826 l -20.877799951058442 17.948190126037254" fill="#c7ff1e" stroke="none" /><path d="M 117.65298651832404 88.62581576622439 l 16.369642586497594 -10.547299202127277 a40.47333353252263,40.47333353252263 0 0,0 0.3723014822103125,0.5888915364623708 l -16.54877166495386 10.263960017950701" fill="#ffcf13" stroke="none" /><line stroke="#e1ed5e" stroke-width="0.3" x1="172.23445277983987" x2="176.4835382374775" y1="55.19839476539836" y2="52.563006222186495" /><path d="M 173.08426987136738 54.67131705675599 a86.0,86.0 0 0,1 12.851231095245387,41.99856678651699" fill="none" id="id27" stroke="none" /><text fill="#e1ed5e" style="font-size:6.75px; font-family:Arial;" text-anchor="middle"><textPath startOffset="22.20632615414155" xlink:href="#id27">March</textPath></text><path d="M 118.21658344932153 89.55222093294921 l 24.16939868686163 -13.861904366770966 a48.86238011294033,48.86238011294033 0 0,0 0.412171298346284,0.7332067484486516 l -24.404427626500347 13.443814108387521" fill="#c3ff1e" stroke="none" /><path d="M 118.56541770881063 90.18545643968196 l 12.072676303955438 -6.3821783777350225 a34.655830768771104,34.655830768771104 0 0,0 0.2742605790366262,0.5297841433097509 l -12.180746316152181 6.173421512164927" fill="#ff7d0b" stroke="none" /><path d="M 119.196687751892 91.48605970444005 l 17.952540686911927 -7.9621475088541995 a40.638979354029104,40.638979354029104 0 0,0 0.278104708365975,0.6419040102313734 l -18.086936105120586 7.651944354036224" fill="#ffd113" stroke="none" /><path d="M 119.85752413597 93.16781622104841 l 17.896207657581275 -6.1573728338768685 a39.92584182377723,39.92584182377723 0 0,0 0.21800024152164502,0.6517929745552404 l -17.99954519287469 5.8484067563993145" fill="#ffc712" stroke="none" /><path d="M 120.18372546131832 94.20196356495316 l 18.707613442715914 -5.374004148119957 a40.46419074367326,40.46419074367326 0 0,0 0.1865461420149374,0.6711057263009939 l -18.797346355297215 5.051187118400011" fill="#ffce13" stroke="none" /><path d="M 120.37134235888165 94.90015583598534 l 18.319104585102394 -4.586078666906134 a39.88443036840061,39.88443036840061 0 0,0 0.16099483216769778,0.667427517062288 l -18.395332217530914 4.27006591818444" fill="#ffc712" stroke="none" /><path d="M 120.67395015179393 96.31383870115 l 18.97932212195374 -3.384009450089667 a40.27864591114165,40.27864591114165 0 0,0 0.11582630700285355,0.6836134204821454 l -19.034760290476815 3.056810241291684" fill="#ffcc13" stroke="none" /><path d="M 120.73433829027371 96.67025291283417 l 37.652945198478946 -6.046722246094637 a59.135379007439724,59.135379007439724 0 0,0 0.15274980001842614,1.0064303307756948 l -37.75145089193667 5.39769280292686" fill="#4cff2c" stroke="none" /><path d="M 120.83666639777658 97.38593545837742 l 18.73408264091058 -2.3502848400287806 a39.88093459619349,39.88093459619349 0 0,0 0.07959028051492512,0.6818809184866802 l -18.771763274429095 2.0274601832172476" fill="#ffc612" stroke="none" /><path d="M 120.94382443527127 98.46500227214037 l 13.505321908692355 -0.9898210571772866 a34.541545908153815,34.541545908153815 0 0,0 0.03835659220819032,0.5933595044311499 l -13.520359091904963 0.7572024884931015" fill="#ff7b0b" stroke="none" /><path d="M 120.98425023603335 99.18683210126433 l 19.2359732361779 -0.7454198153688789 a40.250410827930324,40.250410827930324 0 0,0 0.020869465303824653,0.6925559528828231 l -19.24595439593737 0.4141937150610568" fill="#ffcc13" stroke="none" /><line stroke="#e1ed5e" stroke-width="0.3" x1="184.98032266829074" x2="189.97916517819016" y1="98.17113171792111" y2="98.06355123074" /><path d="M 185.9800911702706 98.14961562048488 a86.0,86.0 0 0,1 -9.607161424134198,41.387399972396054" fill="none" id="id28" stroke="none" /><text fill="#e1ed5e" style="font-size:6.75px; font-family:Arial;" text-anchor="middle"><textPath startOffset="21.466115282336823" xlink:href="#id28">April</textPath></text><path d="M 120.9904718944345 100.63252640178507 l 18.158210067810877 0.5471790884365575 a39.16645253816965,39.16645253816965 0 0,0 -0.026106990443759723,0.6737054195491861 l -18.14610094451591 -0.8596617549997497" fill="#ffbd11" stroke="none" /><path d="M 120.9764740272857 100.99374915477107 l 5.388739540667557 0.25528863224839726 a26.394783232244762,26.394783232244762 0 0,0 -0.025406423174110515,0.4536487528434595 l -5.383546766605917 -0.3480091014272801" fill="#ff0000" stroke="none" /><path d="M 120.70491114924044 103.5080841355445 l 21.80854619929407 3.695075742637971 a43.119364187755835,43.119364187755835 0 0,0 -0.13028938389453742,0.7307320568918034 l -21.741710373060343 -4.069926550262992" fill="#fff216" stroke="none" /><path d="M 120.41448212921028 104.9243191809786 l 55.75884550468638 13.449978828268776 a78.3580925632675,78.3580925632675 0 0,0 -0.3275692362131057,1.3084762676123742 l -55.51906495417821 -14.407782935278545" fill="#45fff3" stroke="none" /><path d="M 120.13307415673323 105.97154293290107 l 18.576106568083205 5.509740690065267 a40.37598972183214,40.37598972183214 0 0,0 -0.20336660695892378,0.6646138382548924 l -18.478513188618148 -5.828681500872217" fill="#ffcd13" stroke="none" /><path d="M 120.02730092923936 106.31721596034902 l 12.928419754046311 4.07801430162336 a34.55633571364547,34.55633571364547 0 0,0 -0.18381954646181942,0.5657383919565673 l -12.856307956568246 -4.299951593557722" fill="#ff7b0b" stroke="none" /><path d="M 119.79798401119884 107.00284435728193 l 53.69268225609002 18.991908304992265 a77.95258298724193,77.95258298724193 0 0,0 -0.4583453709952898,1.2611696094751348 l -53.357812624089505 -19.913325711473533" fill="#45ffee" stroke="none" /><path d="M 119.26925614724726 108.34839909993367 l 17.414897746954306 7.544998912523128 a39.979085123547165,39.979085123547165 0 0,0 -0.2790138737687227,0.6291026278369811 l -17.28244278845431 -7.843649876852797" fill="#ffc812" stroke="none" /><path d="M 119.12269723197855 108.67885076344098 l 34.5301145136184 15.67151888003902 a58.919985658370436,58.919985658370436 0 0,0 -0.4271008282208134,0.9199371873142268 l -34.255239068557756 -16.26357613463208" fill="#4eff2b" stroke="none" /><path d="M 118.81262510543309 109.33194174019688 l 17.37054038623249 8.616600286859692 a40.390241716215,40.390241716215 0 0,0 -0.3143155728056182,0.6201744442716032 l -17.219646143640603 -8.914328942833988" fill="#ffcd13" stroke="none" /><line stroke="#e1ed5e" stroke-width="0.3" x1="174.80103733775053" x2="179.2010983576182" y1="140.37084112569926" y2="142.7455964860345" /><path d="M 175.68104954172406 140.8457921977663 a86.0,86.0 0 0,1 -30.038265399797805,32.042727171017184" fill="none" id="id29" stroke="none" /><text fill="#e1ed5e" style="font-size:6.75px; font-family:Arial;" text-anchor="middle"><textPath startOffset="22.206326154141568" xlink:href="#id29">May</textPath></text><path d="M 118.48025628344425 109.97397251340804 l 16.58989572876149 8.953726694104798 a39.851892796318985,39.851892796318985 0 0,0 -0.33100524912797513,0.6008706741411775 l -16.433314070182007 -9.23796788664378" fill="#ffc612" stroke="none" /><path d="M 117.35343817320211 111.8261652097733 l 30.442494626400652 20.746204138693646 a57.83952314081687,57.83952314081687 0 0,0 -0.5677612776391724,0.8179024660762692 l -30.080872441599343 -21.267147866956936" fill="#5aff2a" stroke="none" /><path d="M 116.71984013943494 112.70617746262583 l 15.195605151415949 11.54784101377225 a40.085571723087035,40.085571723087035 0 0,0 -0.4222216758601437,0.5457784321039106 l -14.994576658337737 -11.807697439989413" fill="#ffc912" stroke="none" /><path d="M 116.498646956653 112.99209946851258 l 15.301968120653783 12.049757317061403 a40.47682930472975,40.47682930472975 0 0,0 -0.43576600393393217,0.5436850919937374 l -15.092284204664995 -12.31137024263339" fill="#ffcf13" stroke="none" /><path d="M 116.0416608686014 113.55231037782055 l 21.117985883546446 17.840889518393535 a48.645373330544686,48.645373330544686 0 0,0 -0.5458879333366061,0.634990992844731 l -20.807755440639063 -18.201757610399795" fill="#c5ff1e" stroke="none" /><path d="M 115.80600337817218 113.82643327865902 l 21.278326816124057 18.613393845716256 a49.27057874450985,49.27057874450985 0 0,0 -0.5638927416165538,0.633539472992109 l -20.954775224859166 -18.976907488449232" fill="#beff1f" stroke="none" /><path d="M 115.56566222782051 114.09645910891815 l 14.303310361365888 12.95325741238258 a40.29693148884042,40.29693148884042 0 0,0 -0.4700418149972267,0.5101375557935621 l -14.078222138372938 -13.197546222977477" fill="#ffcc13" stroke="none" /><path d="M 114.81725581225074 114.88116024355365 l 26.24343492605874 26.356618622529595 a58.19394066150767,58.19394066150767 0 0,0 -0.7159241591114625,0.7006824717520079 l -25.785860814571482 -26.804451197204173" fill="#56ff2b" stroke="none" /><path d="M 114.55890576462653 115.13401014063108 l 24.20477196318494 25.16090633902805 a55.91335265469539,55.91335265469539 0 0,0 -0.6993540057837183,0.6612828639446103 l -23.768082123010412 -25.573823839718578" fill="#6fff27" stroke="none" /><path d="M 114.29624159901734 115.38237550388516 l 12.878351825560593 13.856763841031789 a39.91723684603663,39.91723684603663 0 0,0 -0.5073299284878607,0.46343386099715733 l -12.637922347605867 -14.07639046861553" fill="#ffc712" stroke="none" /><path d="M 112.63410532772338 116.77436683061366 l 14.878426066015065 19.754163054652455 a45.73043712091787,45.73043712091787 0 0,0 -0.6328548731746444,0.46817090575137627 l -14.536186222421856 -20.0073439091436" fill="#eaff1a" stroke="none" /><path d="M 112.04921762599082 117.19931262002967 l 7.735202423497529 11.041394453194226 a34.48131106396964,34.48131106396964 0 0,0 -0.489048624265722,0.3363721031534032 l -7.543996914608924 -11.172907345712723" fill="#ff7a0b" stroke="none" /><path d="M 111.45004920935366 117.60387380957326 l 9.518892256188478 14.634817285149904 a38.45815530789686,38.45815530789686 0 0,0 -0.5580428467629337,0.35616934768757086 l -9.265567607378612 -14.796501061661283" fill="#ffb310" stroke="none" /><line stroke="#e1ed5e" stroke-width="0.3" x1="143.8653032363475" x2="146.44561519142675" y1="172.8068346515853" y2="177.08958963109032" /><path d="M 144.38136562736335 173.6633856474863 a86.0,86.0 0 0,1 -40.68145358897372,12.25698825130547" fill="none" id="id30" stroke="none" /><text fill="#e1ed5e" style="font-size:6.75px; font-family:Arial;" text-anchor="middle"><textPath startOffset="21.466115282336833" xlink:href="#id30">June</textPath></text><path d="M 110.5260780823613 118.17145234162733 l 13.479479493236257 23.269988811097463 a47.89216887268816,47.89216887268816 0 0,0 -0.7169029685689376,0.40707621557161305 l -13.07692775774612 -23.498568192463704" fill="#cfff1d" stroke="none" /><path d="M 108.92500713936063 119.00905698771935 l 7.5902350895366215 16.166173215803713 a38.85936239505214,38.85936239505214 0 0,0 -0.6079306767069833,0.27907115655941495 l -7.310836417062219 -16.294431442697203" fill="#ffb811" stroke="none" /><path d="M 107.59598834532513 119.57807347666477 l 6.95603743996696 17.92864942847344 a40.230780722459585,40.230780722459585 0 0,0 -0.6477726192536691,0.24493217690204183 l -6.646394599953016 -18.045729855482115" fill="#ffcb12" stroke="none" /><path d="M 106.91757812671514 119.82793768551818 l 6.240179094847274 17.88630066370628 a39.9435895903672,39.9435895903672 0 0,0 -0.6511380805674384,0.22090138988535582 l -5.931371281342608 -17.991065040489758" fill="#ffc712" stroke="none" /><path d="M 106.2309692047433 120.05430185196036 l 5.702189354183485 18.352430058357424 a40.217873255848694,40.217873255848694 0 0,0 -0.6628767813637897,0.19971933656375676 l -5.38543759837945 -18.447864764026903" fill="#ffcb12" stroke="none" /><path d="M 105.88484417918355 120.15858648285463 l 5.079870700910288 17.401142617887725 a39.12746123278258,39.12746123278258 0 0,0 -0.6481535349562094,0.18317466320929396 l -4.779585997849473 -17.48600607443554" fill="#ffbc11" stroke="none" /><path d="M 104.48393922423573 120.51570834832081 l 4.039570230718037 18.48255307699804 a39.91885027936299,39.91885027936299 0 0,0 -0.6725538132743278,0.1409401906898765 l -3.720824956014331 -18.54934924841446" fill="#ffc712" stroke="none" /><path d="M 104.13013068566511 120.58985236759428 l 5.440850399045446 27.124155383105432 a48.664465624906626,48.664465624906626 0 0,0 -0.8227362531620901,0.1576793610473006 l -4.973146531311651 -27.2137919425012" fill="#c5ff1e" stroke="none" /><path d="M 103.7750983002368 120.6578951692458 l 5.0886796891280435 27.84600643678159 a49.30714989990737,49.30714989990737 0 0,0 -0.8362281976492295,0.14538899099429012 l -4.608602520006764 -27.929474006296886" fill="#bdff1f" stroke="none" /><path d="M 103.41894727170886 120.7198165907248 l 4.585924630188742 27.7920393867044 a49.16785682273148,49.16785682273148 0 0,0 -0.8362378628719509,0.13060315608033887 l -4.106850903708275 -27.866860850131847" fill="#bfff1e" stroke="none" /><path d="M 102.70371172650421 120.8252237178851 l 3.5493551755937665 27.33875614821707 a48.56819743643372,48.56819743643372 0 0,0 -0.8299901986553483,0.10050025430299972 l -3.0782375538870377 -27.39580193124542" fill="#c6ff1e" stroke="none" /><path d="M 102.34483914955558 120.86867818915974 l 4.313045585525785 38.385387908834836 a59.62693836087126,59.62693836087126 0 0,0 -1.0209477808941076,0.10582541189329703 l -3.6516652080260745 -38.4539426891839" fill="#46ff2c" stroke="none" /><path d="M 101.98527174616119 120.90594882070398 l 1.864536772478488 19.634546462029256 a40.72287788699991,40.72287788699991 0 0,0 -0.6984083747104923,0.06026161331920027 l -1.526284080026454 -19.66373232762712" fill="#ffd213" stroke="none" /><path d="M 101.26447882468166 120.96189622390904 l 1.202184016289779 19.92920411130864 a40.965430697062956,40.965430697062956 0 0,0 -0.7042385363914493,0.03640108823222958 l -0.8589574114848502 -19.94694500630307" fill="#ffd513" stroke="none" /><line stroke="#e1ed5e" stroke-width="0.3" x1="102.19456741930631" x2="102.32365962044197" y1="184.97166512339345" y2="189.96999836594603" /><path d="M 102.22038585953345 185.97133177190398 a86.0,86.0 0 0,1 -42.740103519485714,-10.115201625700543" fill="none" id="id31" stroke="none" /><text fill="#e1ed5e" style="font-size:6.75px; font-family:Arial;" text-anchor="middle"><textPath startOffset="22.20632615414155" xlink:href="#id31">July</textPath></text><path d="M 100.54218724476979 120.99299961872073 l 0.7181551619065947 27.80631817793617 a48.815590546475846,48.815590546475846 0 0,0 -0.8401867707233703,0.014464577205080232 l -0.23940870129055636 -27.81456023242041" fill="#c3ff1e" stroke="none" /><path d="M 99.81925306533755 120.99922214144158 l -0.24496342753857753 28.45990965776659 a49.46096387702053,49.46096387702053 0 0,0 -0.8512945772341833,-0.014655808167591598 l 0.7348176946654288 -28.451476372319842" fill="#bbff1f" stroke="none" /><path d="M 99.45781275523022 120.99299961872073 l -0.5019240857505401 19.434046526236422 a40.440527054886616,40.440527054886616 0 0,0 -0.6957304472610247,-0.023962363328522 l 0.836374884686208 -19.422527364481805" fill="#ffce13" stroke="none" /><path d="M 99.09653310690486 120.98055641714683 l -1.6599661156262608 38.54818920938753 a59.58391347216828,59.58391347216828 0 0,0 -1.024309699717667,-0.05294511139309057 l 2.323263883757417 -38.51390429123224" fill="#47ff2c" stroke="none" /><path d="M 98.37488393609728 120.93702456842531 l -2.1020872089968083 27.08203587259191 a48.16349457707132,48.16349457707132 0 0,0 -0.8260169642550799,-0.07127221937404911 l 2.56794849099343 -27.041839400939196" fill="#cbff1d" stroke="none" /><path d="M 98.01472825383883 120.90594882070398 l -1.8438182849255407 19.416369962383012 a40.50371986016911,40.50371986016911 0 0,0 -0.6935151132350224,-0.0718856770990214 l 2.177765994766156 -19.381754916828232" fill="#ffcf13" stroke="none" /><path d="M 97.65516085044442 120.86867818915974 l -2.1021311879163567 18.70861772345321 a39.82634676865159,39.82634676865159 0 0,0 -0.6805992235864271,-0.08241108769679412 l 2.4238578345541733 -18.669661107031068" fill="#ffc612" stroke="none" /><path d="M 96.93821686468263 120.77559828337769 l -1.9814820493882122 13.445261550030203 a34.59048671905345,34.59048671905345 0 0,0 -0.5883086341129421,-0.09188170947029807 l 2.2126265471096715 -13.409161533212798" fill="#ff7c0b" stroke="none" /><path d="M 96.22490169976321 120.6578951692458 l -4.918860449207948 26.916730487657325 a48.3624846873226,48.3624846873226 0 0,0 -0.8176308716085721,-0.15670090252165422 l 5.381458935388214 -26.828072386787206" fill="#c9ff1d" stroke="none" /><path d="M 95.86986931433489 120.58985236759428 l -5.416099548652223 27.000765496839243 a48.538617825450416,48.538617825450416 0 0,0 -0.8177798779552442,-0.1713737245503451 l 5.880070888036855 -26.90353579156236" fill="#c7ff1e" stroke="none" /><path d="M 94.11515582081647 120.15858648285463 l -3.805080268238063 13.034336564561809 a34.57838596910574,34.57838596910574 0 0,0 -0.5699259393986557,-0.17171401036704523 l 4.028881182076964 -12.966907185089038" fill="#ff7c0b" stroke="none" /><path d="M 93.42475214034765 119.94407469862007 l -6.113908691565186 18.544738426266047 a40.52657683229257,40.52657683229257 0 0,0 -0.6606416128637501,-0.22412550402600884 l 6.432220037366162 -18.43674993534192" fill="#ffcf13" stroke="none" /><path d="M 92.7421414339146 119.70592522655815 l -12.200313935661494 33.125263046611416 a56.3005766530222,56.3005766530222 0 0,0 -0.9065191216550078,-0.34276796405211996 l 12.768703278076785 -32.91034683245266" fill="#6bff28" stroke="none" /><path d="M 91.7346041902142 119.30500536409082 l -15.159793525112812 35.40785003596781 a59.51668708356987,59.51668708356987 0 0,0 -0.9383211717254532,-0.4113324269670581 l 15.767035371496009 -35.1416530557063" fill="#48ff2c" stroke="none" /><path d="M 91.07499286063937 119.00905698771935 l -11.589636986071058 24.684357838058496 a48.269712271056804,48.269712271056804 0 0,0 -0.7490708451624133,-0.3595995266382587 l 12.012820499233714 -24.481204034920673" fill="#caff1d" stroke="none" /><path d="M 90.7491055286396 118.85261126421891 l -8.78839515667241 17.910073240812192 a40.95010308046252,40.95010308046252 0 0,0 -0.6301364662114103,-0.31596350557685626 l 9.095385530566581 -17.756141894326035" fill="#ffd513" stroke="none" /><path d="M 90.42595943632237 118.69057910512821 l -16.160583914803702 31.548923365818275 a56.447130180166724,56.447130180166724 0 0,0 -0.8609775868085054,-0.4504227811044644 l 16.701252404138703 -31.266071165769095" fill="#69ff28" stroke="none" /><line stroke="#e1ed5e" stroke-width="0.3" x1="58.666819895761336" x2="56.23545636021788" y1="174.27360380694188" y2="178.64263932499728" /><path d="M 58.180547188652646 175.14741091055294 a86.0,86.0 0 0,1 -31.652253787137756,-30.449443065178592" fill="none" id="id32" stroke="none" /><text fill="#e1ed5e" style="font-size:6.75px; font-family:Arial;" text-anchor="middle"><textPath startOffset="22.20632615414155" xlink:href="#id32">August</textPath></text><path d="M 89.4739219176387 118.17145234162733 l -13.73543945121533 23.71185938638569 a48.40282052048164,48.40282052048164 0 0,0 -0.717357756134315,-0.42382760677693154 l 14.141565078378026 -23.47191320731501" fill="#c8ff1d" stroke="none" /><path d="M 89.1626897886671 117.98757091392108 l -18.206198228328397 30.218317582392352 a56.27906420867071,56.27906420867071 0 0,0 -0.8254820183150343,-0.5070784773517493 l 18.723659446575738 -29.900450638212224" fill="#6bff28" stroke="none" /><path d="M 88.54995079064634 117.60387380957326 l -10.403293132446953 15.994539076564719 a40.080193611999164,40.080193611999164 0 0,0 -0.5751036387950622,-0.38114733235044435 l 10.677071469981977 -15.813093723122956" fill="#ffc912" stroke="none" /><path d="M 88.24862548938628 117.40417183066458 l -10.636442771554872 15.752921285588698 a40.007589112312886,40.007589112312886 0 0,0 -0.5674278561875526,-0.3902820535692282 l 10.906027512365316 -15.567498442654369" fill="#ffc812" stroke="none" /><path d="M 87.65650970185807 116.9893568818739 l -16.026363826399287 22.058397421549202 a48.265678687740895,48.265678687740895 0 0,0 -0.6679396018859948,-0.49412574929463643 l 16.403688398703846 -21.7792617235148" fill="#caff1d" stroke="none" /><path d="M 86.51685102203217 116.09983520530335 l -12.612234342746383 15.059901423672342 a40.64355074845379,40.64355074845379 0 0,0 -0.5324973316853356,-0.4538057783451485 l 12.869597151008776 -14.840571255104242" fill="#ffd113" stroke="none" /><path d="M 86.24171649860922 115.8653595955263 l -23.109779689029107 26.649034009422305 a56.27368609758284,56.27368609758284 0 0,0 -0.7263529974706701,-0.6409220686529663 l 23.565075039406366 -26.247288798997047" fill="#6bff28" stroke="none" /><path d="M 85.97065885151581 115.62618273729859 l -13.042305682187168 14.526801347872576 a40.52254324897666,40.52254324897666 0 0,0 -0.5150230976143209,-0.4704613885908963 l 13.290428329268343 -14.300147192695103" fill="#ffcf13" stroke="none" /><path d="M 85.70375840098266 115.38237550388516 l -23.92917822397124 25.7471589572058 a56.14998954256178,56.14998954256178 0 0,0 -0.7023138167695877,-0.6640815499738354 l 24.368827875131643 -25.331442770486035" fill="#6dff28" stroke="none" /><path d="M 85.18274418774928 114.88116024355367 l -19.224934525889264 19.307848563635535 a48.24685529893334,48.24685529893334 0 0,0 -0.5834638673692021,-0.5910458171995211 l 19.554439018314 -18.974062252455347" fill="#caff1d" stroke="none" /><path d="M 84.43433777217949 114.09645910891817 l -14.437252538353906 13.07455712923605 a40.47763602139293,40.47763602139293 0 0,0 -0.46325912404273506,-0.5204765368382729 l 14.66017051204498 -12.824106422656913" fill="#ffcf13" stroke="none" /><path d="M 84.19399662182784 113.82643327865904 l -26.024115036499158 22.76481167182397 a55.5758761839314,55.5758761839314 0 0,0 -0.6236605480909714,-0.7254581141037569 l 26.412118094160906 -22.313476458558686" fill="#73ff27" stroke="none" /><path d="M 83.95833913139862 113.55231037782056 l -27.006791308366815 22.815868077375974 a56.35435776390092,56.35435776390092 0 0,0 -0.6196403157674032,-0.7463966773625123 l 27.395527624027753 -22.3476101428997" fill="#6aff28" stroke="none" /><path d="M 83.50135304334701 112.99209946851258 l -12.141434597459236 9.560949233901967 a36.454002211001225,36.454002211001225 0 0,0 -0.38397032258052055,-0.49633340165568535 l 12.304211737257825 -9.350537838133029" fill="#ff970d" stroke="none" /><path d="M 83.28015986056508 112.70617746262583 l -15.636647019847317 11.883009065739444 a40.63951716513789,40.63951716513789 0 0,0 -0.41846846256727455,-0.5606068907476593 l 15.838876749109676 -11.612089295482477" fill="#ffd113" stroke="none" /><path d="M 82.6465618267979 111.8261652097733 l -18.378424524925318 12.524681423808644 a43.240371687232965,43.240371687232965 0 0,0 -0.4138657347628382,-0.6186731194301558 l 18.591293365098885 -12.206471390172666" fill="#fff417" stroke="none" /><path d="M 82.44556493220864 111.52570212397912 l -21.472137982448167 14.097945356541327 a46.68666527234157,46.68666527234157 0 0,0 -0.43528676216515505,-0.6755747213315256 l 21.711629607990368 -13.726249035288353" fill="#deff1b" stroke="none" /><path d="M 82.05923443525364 110.91462005526583 l -16.717595943537425 10.170480590845616 a40.56825719322358,40.56825719322358 0 0,0 -0.35781033675132273,-0.5997107056073352 l 16.890187155986983 -9.88120779135217" fill="#ffd013" stroke="none" /><line stroke="#e1ed5e" stroke-width="0.3" x1="26.63291911575756" x2="22.317208475507996" y1="142.92168965132927" y2="145.44649492493687" /><path d="M 25.769776987707644 143.4266507060508 a86.0,86.0 0 0,1 -11.730757126820373,-40.83630448921669" fill="none" id="id33" stroke="none" /><text fill="#e1ed5e" style="font-size:6.75px; font-family:Arial;" text-anchor="middle"><textPath startOffset="21.46611528233685" xlink:href="#id33">September</textPath></text><path d="M 81.69416730710424 110.29060199501025 l -46.92704348101568 26.379981471866202 a74.83354746183035,74.83354746183035 0 0,0 -0.621558859132038,-1.128309873299585 l 47.37417874959924 -25.568301080168794" fill="#41ffcd" stroke="none" /><path d="M 81.51974371655577 109.97397251340807 l -17.188358717636007 9.276722939923875 a40.53195494338044,40.53195494338044 0 0,0 -0.3260843868774312,-0.6168287718623834 l 17.345495612738326 -8.979479152975367" fill="#ffcf13" stroke="none" /><path d="M 81.35079622478065 109.6543875284942 l -8.623196070434101 4.4640874538988164 a30.710179569153546,30.710179569153546 0 0,0 -0.238985637918747,-0.4715413361870387 l 8.698760378139115 -4.314991906009093" fill="#ff4306" stroke="none" /><path d="M 81.18737489456691 109.33194174019688 l -31.426108699256112 15.588819415630464 a56.08007409841943,56.08007409841943 0 0,0 -0.42152652691622655,-0.8684694974805321 l 31.689788482787055 -15.045560962184648" fill="#6dff28" stroke="none" /><path d="M 80.87730276802145 108.67885076344099 l -24.575306013613844 11.153521429046902 a47.987899250052294,47.987899250052294 0 0,0 -0.33490735524344245,-0.7551276731143187 l 24.76365445358857 -10.728845419439889" fill="#cdff1d" stroke="none" /><path d="M 80.73074385275274 108.34839909993369 l -32.25305486041359 13.973625764752443 a56.14998954256178,56.14998954256178 0 0,0 -0.3766033777681939,-0.8901791382046477 l 32.48880921937409 -13.416372100881636" fill="#6dff28" stroke="none" /><path d="M 80.45479744820244 107.68017299344265 l -38.13718406597465 14.985783356975857 a61.97582837849951,61.97582837849951 0 0,0 -0.3816109112509963,-0.9962656707892485 l 38.38948925681916 -14.327094119353449" fill="#30ff31" stroke="none" /><path d="M 80.20201598880116 107.00284435728193 l -33.03917398521644 11.686452165066616 a56.04511637634826,56.04511637634826 0 0,0 -0.31387712222439895,-0.9122738398082336 l 33.23544193838407 -11.116005622169084" fill="#6eff28" stroke="none" /><path d="M 80.0844068197444 106.66101706037122 l -12.809639352119945 4.284342700184562 a34.50712599719143,34.50712599719143 0 0,0 -0.18355777947832944,-0.5649327560209024 l 12.881489382614523 -4.063211044185857" fill="#ff7b0b" stroke="none" /><path d="M 79.86692584326677 105.97154293290107 l -18.08756695325401 5.364838065574619 a39.86641369625624,39.86641369625624 0 0,0 -0.18947436323004954,-0.6595851151050199 l 18.177233953370163 -5.052695474965003" fill="#ffc612" stroke="none" /><path d="M 79.67330655649465 105.27499134158121 l -32.875151189569145 8.531448479809653 a54.96411604768592,54.96411604768592 0 0,0 -0.22977273851239186,-0.9178278728597384 l 33.0171352423766 -7.9642927675525215" fill="#7aff26" stroke="none" /><path d="M 79.58551787078972 104.9243191809786 l -26.30809936893061 6.34595957504838 a48.06265499417371,48.06265499417371 0 0,0 -0.1870768675761303,-0.8059222492614592 l 26.413436802437293 -5.892168668438347" fill="#ccff1d" stroke="none" /><path d="M 79.23777060512086 103.15116336523772 l -26.76634323895856 4.062430803157764 a48.07287340524067,48.07287340524067 0 0,0 -0.11712829467323992,-0.8191950201418263 l 26.832305584648395 -3.601090311035537" fill="#ccff1d" stroke="none" /><path d="M 79.18660465613746 102.79330883721812 l -37.06305822651552 4.974131628599665 a58.39535092174849,58.39535092174849 0 0,0 -0.12512869802282658,-0.9973988384660758 l 37.1431884337852 -4.3354150358461805" fill="#54ff2b" stroke="none" /><path d="M 79.10278846688536 102.07522291339032 l -27.277522687467382 2.7088274438843 a48.41169440377662,48.41169440377662 0 0,0 -0.07521195594447928,-0.8299576665361338 l 27.320109239688936 -2.2388883887996" fill="#c8ff1d" stroke="none" /><path d="M 79.04373962182676 101.35467743843564 l -34.23283127384693 2.212916013811093 a55.30428157399385,55.30428157399385 0 0,0 -0.053233397245421976,-0.9505180679906325 l 34.26585102197988 -1.6233262294850228" fill="#76ff27" stroke="none" /><path d="M 79.0235259727143 100.99374915477108 l -27.120439335167074 1.2848162008202848 a48.150856016014814,48.150856016014814 0 0,0 -0.032095680267291954,-0.828246893749406 l 27.138537148285565 -0.817792060056882" fill="#cbff1d" stroke="none" /><path d="M 79.0095281055655 100.63252640178507 l -57.397382490795515 1.7296114161402314 a78.42343661298514,78.42343661298514 0 0,0 -0.029046313047718555,-1.3496680320319103 l 57.418650866528246 -0.7413535683181922" fill="#46fff3" stroke="none" /><line stroke="#e1ed5e" stroke-width="0.3" x1="15.007084014347285" x2="10.007500721073583" y1="101.09737516637583" y2="101.16192664675087" /><path d="M 14.007167355692545 101.11028546245083 a86.0,86.0 0 0,1 10.666146001902534,-42.60595125391555" fill="none" id="id34" stroke="none" /><text fill="#e1ed5e" style="font-size:6.75px; font-family:Arial;" text-anchor="middle"><textPath startOffset="22.20632615414155" xlink:href="#id34">October</textPath></text><path d="M 79.00175016825051 100.2711162175752 l -13.518637802882017 0.1745441633114039 a34.51976455824793,34.51976455824793 0 0,0 -0.0025572614899516248,-0.5942175096403484 l 13.519639361661472 0.05818282453261989" fill="#ff7b0b" stroke="none" /><path d="M 79.00019446554 99.90962569577889 l -34.17247030887487 -0.14706389650197643 a55.172786757895366,55.172786757895366 0 0,0 0.01226147633785216,-0.9496648549876429 l 34.1648758254193 0.7352650095500912" fill="#78ff26" stroke="none" /><path d="M 79.01574976396665 99.18683210126434 l -35.01480237478827 -1.3568706506777237 a56.04108279303236,56.04108279303236 0 0,0 0.04565051034650193,-0.9636101223516372 l 34.98625825620827 1.9593918796523702" fill="#6eff28" stroke="none" /><path d="M 79.03285615573316 98.82574320788736 l -56.67849013258266 -3.1742569469266644 a77.76730706026473,77.76730706026473 0 0,0 0.08635655427731903,-1.335897672354441 l 56.61545298730093 4.149413683534117" fill="#45ffed" stroke="none" /><path d="M 79.12142395522702 97.74499172005258 l -32.404243707482536 -3.499847772621499 a53.592697720278466,53.592697720278466 0 0,0 0.10695481157343979,-0.9163235093585186 l 32.33919854290551 4.057115020304879" fill="#8aff24" stroke="none" /><path d="M 79.16333360222342 97.38593545837743 l -33.770655992537854 -4.236698553029896 a55.03537601960023,55.03537601960023 0 0,0 0.12601528916090118,-0.9389602745427265 l 33.69272470431912 4.8173771696372825" fill="#79ff26" stroke="none" /><path d="M 79.21141760316559 97.0276538004421 l -38.18428940318912 -5.459579942674257 a59.57261943888374,59.57261943888374 0 0,0 0.1538792150925098,-1.0138717649802458 l 38.084654294657305 6.116050820046595" fill="#47ff2c" stroke="none" /><path d="M 79.3925641242962 95.95851677861259 l -33.23948805610773 -6.518852421841087 a54.87268815919209,54.87268815919209 0 0,0 0.18975682138845093,-0.9253216518535301 l 33.122351938804286 7.09004972985802" fill="#7bff26" stroke="none" /><path d="M 79.91906864156998 93.8553929516997 l -13.178263878978056 -4.032445092798761 a34.78140966267292,34.78140966267292 0 0,0 0.18010893179177556,-0.5709945329838662 l 13.106899463418078 4.258689792209041" fill="#ff7f0b" stroke="none" /><path d="M 80.02781315780177 93.51064311812611 l -32.29156411216553 -10.492165202210238 a54.95335982551018,54.95335982551018 0 0,0 0.30005242637745516,-0.8971185634748939 l 32.10617439201631 11.046456868607454" fill="#7aff26" stroke="none" /><path d="M 80.2630227832202 92.82701384747504 l -40.09474973287903 -14.571587202238174 a63.660521676775524,63.660521676775524 0 0,0 0.38316180159700475,-1.026683132217426 l 39.8379833427804 15.259593471484942" fill="#32ff47" stroke="none" /><path d="M 80.38941819471856 92.48833698450439 l -31.77471223346918 -12.1710275137215 a55.025964325196455,55.025964325196455 0 0,0 0.3464184479890919,-0.8815971644658367 l 31.5605002355984 12.716173683083099" fill="#79ff26" stroke="none" /><path d="M 80.52162464483688 92.15188598940014 l -11.796371428005108 -4.752925548989728 a33.717888195046164,33.717888195046164 0 0,0 0.22153987309105663,-0.5364763750750964 l 11.712809868027852 4.955276494518135" fill="#ff6f0a" stroke="none" /><path d="M 80.803312248108 91.48605970444005 l -31.38529763756422 -13.919721657100146 a55.333592279422746,55.333592279422746 0 0,0 0.393652880030492,-0.8673619404805843 l 31.141042440570377 14.457905606422802" fill="#76ff27" stroke="none" /><path d="M 80.95270993114464 91.15688171328213 l -11.36822804184702 -5.277946884886058 a33.53368789028654,33.53368789028654 0 0,0 0.24757731131700045,-0.5214609577198243 l 11.275692536688268 5.472850258246415" fill="#ff6c0a" stroke="none" /><path d="M 81.10775173730289 90.83032412892265 l -16.93531122143021 -8.219843002114143 a39.82473333532523,39.82473333532523 0 0,0 0.3046402212914493,-0.6141360967252784 l 16.791310987185348 8.510138687338383" fill="#ffc612" stroke="none" /><path d="M 81.26839172434947 90.50648371742162 l -56.19482482695157 -28.480548847735136 a84.0,84.0 0 0,0 0.6647622673595439,-1.284109110958658 l 55.69625312643191 29.44363068095413" fill="#4dd2ff" stroke="none" /><path d="M 81.6062741919709 89.86733742301443 l -30.449595648792318 -16.773952245182468 a55.764110072006936,55.764110072006936 0 0,0 0.47038980901827776,-0.8367709827381501 l 30.15634819848161 17.2956067378554" fill="#71ff27" stroke="none" /><line stroke="#e1ed5e" stroke-width="0.3" x1="26.266209847984243" x2="21.928928074336255" y1="57.711370442889674" y2="55.22380399835377" /><path d="M 25.398753493254645 57.213857153982495 a86.0,86.0 0 0,1 29.58750427330803,-30.492523968695096" fill="none" id="id35" stroke="none" /><text fill="#e1ed5e" style="font-size:6.75px; font-family:Arial;" text-anchor="middle"><textPath startOffset="21.46611528233685" xlink:href="#id35">November</textPath></text><path d="M 81.78341655067845 89.55222093294921 l -29.57225556320161 -16.960611384578872 a55.090770563805314,55.090770563805314 0 0,0 0.4788708186856029,-0.8185454573902596 l 29.275925070045684 17.467136254323023" fill="#79ff26" stroke="none" /><path d="M 82.15384107792192 88.93136811851018 l -32.69329050149308 -20.2771923715166 a59.47097313932296,59.47097313932296 0 0,0 0.5470548016626097,-0.8653093207354683 l 32.3394081035845 20.83694933996628" fill="#48ff2c" stroke="none" /><path d="M 82.34701348167596 88.62581576622439 l -14.295435696213525 -9.210844813258364 a38.0058561654068,38.0058561654068 0 0,0 0.35907093996760187,-0.5468896760118547 l 14.134768120888003 9.455552553247886" fill="#ffad10" stroke="none" /><path d="M 82.54541684631803 88.32363383020206 l -45.889216121505356 -30.697913892412984 a76.21034390032568,76.21034390032568 0 0,0 0.7387886419560883,-1.084081170340319 l 45.35400301388053 31.48327308602372" fill="#43ffdc" stroke="none" /><path d="M 82.95767976084542 87.72973835380427 l -28.289903888068764 -20.36838398651952 a55.85957154381667,55.85957154381667 0 0,0 0.5685370898991982,-0.7754839516876805 l 27.93510418565593 20.8523303818787" fill="#70ff27" stroke="none" /><path d="M 83.17141714833178 87.43820079747576 l -21.958476619110115 -16.391039965390828 a48.40147599270968,48.40147599270968 0 0,0 0.5041222537271806,-0.6633657933586118 l 21.673078425158824 16.766590534630467" fill="#c8ff1d" stroke="none" /><path d="M 83.6137871275137 86.86637796730984 l -29.845634369319807 -23.92140784346088 a59.24912605694822,59.24912605694822 0 0,0 0.6446911736746939,-0.7903151497827364 l 29.42944470356872 24.431607162851698" fill="#4aff2c" stroke="none" /><path d="M 83.84228863543731 86.58626213691792 l -18.17926152192819 -15.091979494966003 a44.62738653679524,44.62738653679524 0 0,0 0.4957664584210445,-0.5868311139799091 l 17.91678445002002 15.402669558575028" fill="#f8ff18" stroke="none" /><path d="M 84.07557802195018 86.31012108654704 l -30.71842022959388 -26.40795715758875 a61.509277241626584,61.509277241626584 0 0,0 0.6971289737596811,-0.7969389279355684 l 30.259299392256356 26.932811641727262" fill="#33ff2f" stroke="none" /><path d="M 84.5562425177563 85.77008943001954 l -28.626419087285726 -26.37644265129167 a59.925423526248174,59.925423526248174 0 0,0 0.7055010924023324,-0.7525793757336783 l 28.16815067291294 26.8652914439034" fill="#43ff2d" stroke="none" /><path d="M 84.80347519578584 85.50635884689758 l -7.567679041619178 -7.217651785799476 a31.457737010367804,31.457737010367804 0 0,0 0.3770969804066001,-0.38863158606940096 l 7.44231779750946 7.346847567419001" fill="#ff4e07" stroke="none" /><path d="M 85.05521093208273 85.24692304244772 l -24.40425757591653 -24.091199178069118 a55.292180824046135,55.292180824046135 0 0,0 0.6744703456093336,-0.6715739555993172 l 23.985951430139885 24.507708984318544" fill="#76ff27" stroke="none" /><path d="M 85.57189188830299 84.74124197986013 l -39.537917088867566 -41.814179988731986 a78.54713316800621,78.54713316800621 0 0,0 0.9904124577811243,-0.9204804404585845 l 38.81229674729158 42.488565015265216" fill="#46fff5" stroke="none" /><path d="M 85.83668400450813 84.49514656593479 l -14.727108865542016 -16.122048292958493 a42.83593773342496,42.83593773342496 0 0,0 0.5486855517292593,-0.4926153058533134 l 14.447412326216785 16.373162607581083" fill="#ffee16" stroke="none" /><path d="M 86.37877921826538 84.01681056812374 l -25.38161174508635 -29.782874465411062 a60.13113627535929,60.13113627535929 0 0,0 0.7935662482285933,-0.6645889111478969 l 24.865187959898645 30.215364533952773" fill="#41ff2d" stroke="none" /><path d="M 86.65592168130627 83.78471172551755 l -25.99122966314034 -31.583693645269076 a61.90322387881323,61.90322387881323 0 0,0 0.8286088500112028,-0.6700107308260711 l 25.443717414564638 32.02641047335928" fill="#2fff31" stroke="none" /><path d="M 87.22198572758235 83.33499621200491 l -33.77338423150287 -44.04702985551748 a76.5047954823867,76.5047954823867 0 0,0 1.0519549500698528,-0.7923106590793603 l 33.01018312767462 44.621857104102695" fill="#43ffdf" stroke="none" /><path d="M 88.09926311788651 82.69761687909137 l -18.53358057907713 -26.94581982258517 a53.70429352535182,53.70429352535182 0 0,0 0.7661692490670801,-0.5173208970759325 l 18.067006635603512 27.26085263195977" fill="#89ff25" stroke="none" /><path d="M 88.70189139769569 82.29822771554957 l -20.970290314329382 -32.85605732337928 a59.97786010935493,59.97786010935493 0 0,0 0.8750508390096782,-0.5479567551105446 l 20.401620322947462 33.21215841981276" fill="#43ff2d" stroke="none" /><line stroke="#e1ed5e" stroke-width="0.3" x1="56.762969772571076" x2="54.21961505331055" y1="26.818313649435495" y2="22.513508569990535" /><path d="M 56.25429882871897 25.957352633546506 a86.0,86.0 0 0,1 42.265352541879196,-11.944610805530505" fill="none" id="id36" stroke="none" /><text fill="#e1ed5e" style="font-size:6.75px; font-family:Arial;" text-anchor="middle"><textPath startOffset="22.20632615414155" xlink:href="#id36">December</textPath></text><path d="M 89.3179101791058 81.91981866633112 l -20.257775883966378 -34.287697214689416 a60.82491260569482,60.82491260569482 0 0,0 0.9060110195510799,-0.5248200614888388 l 19.664568131949977 34.6313214335683" fill="#3aff2e" stroke="none" /><path d="M 89.63071344664047 81.73862282372117 l -28.06815028638019 -49.430891545185716 a77.84394514326691,77.84394514326691 0 0,0 1.1709060515407212,-0.651607949969332 l 27.213120145767423 49.906714892715236" fill="#45ffed" stroke="none" /><path d="M 89.94658935756843 81.56283822128135 l -14.034601250255758 -25.738351187869885 a50.316083539992235,50.316083539992235 0 0,0 0.7639777369534346,-0.4080904488559924 l 13.589478466774018 25.97612036322763" fill="#b1ff20" stroke="none" /><path d="M 90.58718382345135 81.22770947309562 l -20.674744118395974 -41.23232578650491 a67.12536974513729,67.12536974513729 0 0,0 1.0373386283260042,-0.5090175598073685 l 19.961934223059547 41.58209850644711" fill="#36ff73" stroke="none" /><path d="M 90.91171255644093 81.06846463323043 l -14.315382316670874 -29.81993783756812 a54.07807224595895,54.07807224595895 0 0,0 0.842643977609128,-0.3956326461096584 l 13.799960127762137 30.061935466317784" fill="#84ff25" stroke="none" /><path d="M 91.23893434514133 80.91482961587045 l -16.084060511480835 -35.037636678367456 a59.55298933341301,59.55298933341301 0 0,0 0.9353162276627172,-0.4196491275386255 l 15.478562165351343 35.309306136422606" fill="#47ff2c" stroke="none" /><path d="M 91.90106846888425 80.62456947434976 l -11.780081772293837 -28.18200834130446 a51.54498192357107,51.54498192357107 0 0,0 0.821568423409266,-0.33513838826323517 l 11.29322947929619 28.380607615751273" fill="#a2ff22" stroke="none" /><path d="M 92.23578459929587 80.48803036053334 l -12.500200215088562 -31.41380223196062 a54.80949535390959,54.80949535390959 0 0,0 0.879605840578074,-0.3412734006476476 l 11.957611209510812 31.62431833649882" fill="#7cff26" stroke="none" /><path d="M 92.57280143429618 80.3572730644239 l -11.655175803114213 -30.82446681092763 a53.95437569093789,53.95437569093789 0 0,0 0.8715370398225222,-0.32099444697027507 l 11.122856437519122 31.020524525704225" fill="#86ff25" stroke="none" /><path d="M 93.25333710446033 80.11325718540243 l -17.626395819290668 -51.95629392395961 a75.86480026292988,75.86480026292988 0 0,0 1.2402709103529719,-0.40889781912276796 l 16.729442086695286 52.25200546734162" fill="#42ffd8" stroke="none" /><path d="M 93.59665428221793 80.00007090966166 l -5.521544038220166 -17.24574841038467 a39.10810003286623,39.10810003286623 0 0,0 0.6428899131827359,-0.1997490254536163 l 5.223868752326702 17.33823757072081" fill="#ffbc11" stroke="none" /><path d="M 94.63758080256005 79.69619591428918 l -11.965036453612658 -45.30338772256346 a67.85679285308794,67.85679285308794 0 0,0 1.1318872085133316,-0.2885432519700405 l 11.183440356414327 45.50263397070236" fill="#37ff7c" stroke="none" /><path d="M 95.33964822691252 79.52364482259891 l -7.250028430305208 -31.854710634179067 a53.669335803280646,53.669335803280646 0 0,0 0.9025579251798332,-0.1972642042939719 l 6.700627780971853 31.974788336568906" fill="#89ff24" stroke="none" /><path d="M 96.04723909329186 79.375362276772 l -6.195807582156753 -32.328362327189865 a53.91672891332278,53.91672891332278 0 0,0 0.9130024693214418,-0.16684536550357737 l 5.638409991732418 32.43022317404417" fill="#86ff25" stroke="none" /><path d="M 96.75951476605007 79.25152402106235 l -6.118778817902987 -39.17787805159758 a60.652813050882905,60.652813050882905 0 0,0 1.0329203510122766,-0.1522256094730999 l 5.443489486462061 39.27739814523165" fill="#3cff2e" stroke="none" /><path d="M 97.47563105711357 79.15227682838746 l -6.826311341737413 -56.375693234863 a77.78747497684424,77.78747497684424 0 0,0 1.3306595743612895,-0.14951510758904746 l 5.854885063866406 56.48484429592264" fill="#45ffed" stroke="none" /><path d="M 97.83486435360386 79.11191278185805 l -3.384898747265127 -32.65571853437445 a53.83067913591682,53.83067913591682 0 0,0 0.922490895842111,-0.08760162608799946 l 2.8222827243327795 32.70914570497763" fill="#87ff25" stroke="none" /><path d="M 98.19473922651362 79.07773832637324 l -3.0326420722845224 -35.147127733934106 a56.27771968089874,56.27771968089874 0 0,0 0.9658591568243978,-0.07496925965258874 l 2.4271927260977906 35.194122255775156" fill="#6bff28" stroke="none" /><path d="M 98.91598698831166 79.02799685794201 l -1.7072014654185153 -33.02860215775425 a54.07269413487108,54.07269413487108 0 0,0 0.929945200200796,-0.04004539651234337 l 1.1384154328283953 33.053095280790785" fill="#84ff25" stroke="none" /></svg>