<?xml version="1.0" encoding="utf-8" ?>
<svg baseProfile="full" height="200mm" version="1.1" viewBox="0,0,200,200" width="200mm" xmlns="http://www.w3.org/2000/svg" xmlns:ev="http://www.w3.org/2001/xml-events" xmlns:xlink="http://www.w3.org/1999/xlink"><defs /><rect fill="#1a1a1a" height="200" width="200" x="0" y="0" /><rect fill="#1a1a1a" height="200" width="180" x="10" y="0" /><text alignment-baseline="middle" fill="#e1ed5e" style="dominant-baseline: central; font-size:9.0px; font-family:Arial;" text-anchor="middle" x="100.0" y="100.0">2025</text><line stroke="#e1ed5e" stroke-width="0.3" x1="100.0" x2="100.0" y1="15.0" y2="10.0" /><path d="M 100.0 14.0 a86.0,86.0 0 0,1 42.46469731375804,11.215312516191453" fill="none" id="id49" stroke="none" /><text fill="#e1ed5e" style="font-size:6.75px; font-family:Arial;" text-anchor="middle"><textPath startOffset="22.20632615414155" xlink:href="#id49">January</textPath></text><path d="M 100.0 79.0 l 0.0 -28.908644668666483 a49.90864466866648,49.90864466866648 0 0,0 0.8590952759367562,0.007394504266045962 l -0.49761479666422775 28.904361541008996" fill="#cfff1d" stroke="none" /><path d="M 100.72285384407766 79.0124445844662 l 1.1050773520314603 -32.08514743918257 a53.104172347968365,53.104172347968365 0 0,0 0.9132885086593205,0.03932812433628086 l -1.6572066930801124 32.061371588322096" fill="#a6ff21" stroke="none" /><path d="M 101.80526077348638 79.07773832637324 l 1.2324707789536793 -14.283851131694737 a35.336923916007635,35.336923916007635 0 0,0 0.6055652858711884,0.057505720635149395 l -1.4781611919151119 14.26051986654441" fill="#ff5c08" stroke="none" /><path d="M 102.16513564639614 79.11191278185805 l 3.1068840390882047 -29.973579204216772 a51.13416962094355,51.13416962094355 0 0,0 0.8747188722011626,0.09828485722961693 l -3.6223696147990925 29.915658393516555" fill="#bfff1e" stroke="none" /><path d="M 105.01212808612495 79.60689891045804 l 2.2156148425439177 -9.0147850739426 a30.2830651758931,30.2830651758931 0 0,0 0.5051375502136862,0.12877080890619766 l -2.370461281442629 8.975311268867534" fill="#ff0a01" stroke="none" /><path d="M 105.36241919743992 79.69619591428918 l 5.44869755376634 -20.630481053547463 a42.33787837469321,42.33787837469321 0 0,0 0.703014645478349,0.1921604591413175 l -5.8030100884684 20.533634053579853" fill="#ffc612" stroke="none" /><line stroke="#e1ed5e" stroke-width="0.3" x1="143.23703022742887" x2="145.7803849466894" y1="26.81831364943548" y2="22.513508569990506" /><path d="M 143.74570117128098 25.957352633546492 a86.0,86.0 0 0,1 28.547481713284135,27.462654790039103" fill="none" id="id50" stroke="none" /><text fill="#e1ed5e" style="font-size:6.75px; font-family:Arial;" text-anchor="middle"><textPath startOffset="19.985693538727396" xlink:href="#id50">February</textPath></text><path d="M 117.2510076193507 88.02491185347247 l 7.5576066922516745 -5.246244643413273 a30.200027270248157,30.200027270248157 0 0,0 0.2927612708742663,0.42959104016457905 l -7.646792428794674 5.115375579978288" fill="#ff0901" stroke="none" /><line stroke="#e1ed5e" stroke-width="0.3" x1="172.23445277983987" x2="176.4835382374775" y1="55.19839476539836" y2="52.563006222186495" /><path d="M 173.08426987136738 54.67131705675599 a86.0,86.0 0 0,1 12.851231095245387,41.99856678651699" fill="none" id="id51" stroke="none" /><text fill="#e1ed5e" style="font-size:6.75px; font-family:Arial;" text-anchor="middle"><textPath startOffset="22.20632615414155" xlink:href="#id51">March</textPath></text><path d="M 118.21658344932153 89.55222093294921 l 12.424236489433639 -7.1256873320681855 a35.322607035724026,35.322607035724026 0 0,0 0.29795856790517405,0.5300350451928528 l -12.545052698631247 6.9107687769405395" fill="#ff5b08" stroke="none" /><path d="M 118.3937258080291 89.86733742301442 l 18.787482959905372 -10.349573952031502 a42.44955004090537,42.44955004090537 0 0,0 0.3470592349449494,0.6430480531901145 l -18.962850294068783 10.02464491550893" fill="#ffc712" stroke="none" /><line stroke="#e1ed5e" stroke-width="0.3" x1="184.98032266829074" x2="189.97916517819016" y1="98.17113171792111" y2="98.06355123074" /><path d="M 185.9800911702706 98.14961562048488 a86.0,86.0 0 0,1 -9.607161424134198,41.387399972396054" fill="none" id="id52" stroke="none" /><text fill="#e1ed5e" style="font-size:6.75px; font-family:Arial;" text-anchor="middle"><textPath startOffset="21.466115282336823" xlink:href="#id52">April</textPath></text><path d="M 120.81339534386255 102.79330883721812 l 10.284382790649506 1.380238873083545 a31.376588491955275,31.376588491955275 0 0,0 -0.07644823457392748,0.5346787745549322 l -10.259100505058976 -1.5570631196188867" fill="#ff1c02" stroke="none" /><path d="M 120.64145759157962 103.86396538481128 l 14.092143190760728 2.637970368386976 a35.336923916007635,35.336923916007635 0 0,0 -0.11706629358430994,0.5969185088975308 l -14.044646964200755 -2.880152604352452" fill="#ff5c08" stroke="none" /><path d="M 120.5718875245553 104.21870165774334 l 20.423222397912067 4.188214721847455 a41.84824106899373,41.84824106899373 0 0,0 -0.15078511372269762,0.7044178523633338 l -20.348103245464923 -4.539146393626957" fill="#ffbf11" stroke="none" /><path d="M 120.41448212921028 104.9243191809786 l 14.182136139668176 3.4209716699053687 a35.58890100899918,35.58890100899918 0 0,0 -0.14877632596491525,0.5942874671570447 l -14.1211484994082 -3.6645869764598094" fill="#ff6008" stroke="none" /><path d="M 120.23288151984713 105.62410040840565 l 16.56922367169373 4.605719532708533 a38.19743659667303,38.19743659667303 0 0,0 -0.18154216306782572,0.6319720857334165 l -16.487488871739806 -4.890249093946531" fill="#ff880c" stroke="none" /><path d="M 120.13307415673323 105.97154293290107 l 17.725560380423566 5.257465601001124 a39.4888191982547,39.4888191982547 0 0,0 -0.19889808840577092,0.6500104610764358 l -17.63243551951166 -5.561803034629617" fill="#ff9c0e" stroke="none" /><path d="M 119.9155931802556 106.66101706037122 l 22.066281726582634 7.380341509759552 a44.267793836923914,44.267793836923914 0 0,0 -0.24791897376842814,0.7205685860702776 l -21.935971921870973 -7.759082798919131" fill="#ffe115" stroke="none" /><path d="M 119.79798401119884 107.00284435728193 l 15.42482692118764 5.455992999387635 a37.36133078811017,37.36133078811017 0 0,0 -0.21967704423286086,0.6044568781925281 l -15.328625615949553 -5.720697674586294" fill="#ff7b0b" stroke="none" /><path d="M 119.54520255179757 107.68017299344265 l 26.7993669022193 10.530654434423134 a49.7941096263976,49.7941096263976 0 0,0 -0.3203359064717678,0.7950474493064457 l -26.61412838149014 -10.990401251572393" fill="#d1ff1d" stroke="none" /><path d="M 119.26925614724726 108.34839909993367 l 13.144817085448338 5.694987823420802 a35.32547041178075,35.32547041178075 0 0,0 -0.24653631547181434,0.5558743077024424 l -13.04483968524525 -5.920410467615932" fill="#ff5c08" stroke="none" /><path d="M 118.97047184881838 109.00673069616215 l 15.649216619218867 7.42987738093551 a38.323425143168805,38.323425143168805 0 0,0 -0.2880584692485225,0.5934857667522162 l -15.519004893355632 -7.698152103653002" fill="#ff8a0c" stroke="none" /><path d="M 118.81262510543309 109.33194174019688 l 27.177496999190566 13.481309345157612 a51.337469320970825,51.337469320970825 0 0,0 -0.399506548868555,0.7882643221137707 l -26.94141178053574 -13.947127878974078" fill="#bcff1f" stroke="none" /><line stroke="#e1ed5e" stroke-width="0.3" x1="174.80103733775053" x2="179.2010983576182" y1="140.37084112569926" y2="142.7455964860345" /><path d="M 175.68104954172406 140.8457921977663 a86.0,86.0 0 0,1 -30.038265399797805,32.042727171017184" fill="none" id="id53" stroke="none" /><text fill="#e1ed5e" style="font-size:6.75px; font-family:Arial;" text-anchor="middle"><textPath startOffset="22.206326154141568" xlink:href="#id53">May</textPath></text><path d="M 118.48025628344425 109.97397251340804 l 25.369405544275526 13.692112798608157 a49.82847013907826,49.82847013907826 0 0,0 -0.413869555866489,0.7512934604365143 l -25.129959578957525 -14.126776777442476" fill="#d0ff1d" stroke="none" /><path d="M 118.30583269289576 110.29060199501025 l 17.72675535655109 9.965074361680223 a41.33569675484047,41.33569675484047 0 0,0 -0.3540067880480296,0.6172406742827057 l -17.55259657235068 -10.268734881821244" fill="#ffb711" stroke="none" /><path d="M 118.12598468904814 110.60418214915192 l 17.579783077883747 10.284639709151577 a41.36719389146441,41.36719389146441 0 0,0 -0.36485692511422296,0.6115211930225598 l -17.400145277071296 -10.585722996060241" fill="#ffb711" stroke="none" /><path d="M 117.94076556474637 110.91462005526583 l 25.58528320721056 15.565313765752013 a50.94805017725661,50.94805017725661 0 0,0 -0.46225738565420454,0.7453060916304456 l -25.313561181888392 -16.00341618874773" fill="#c1ff1e" stroke="none" /><path d="M 117.75023020441432 111.22182372390056 l 12.432905994010964 7.860172957414389 a35.70916280338151,35.70916280338151 0 0,0 -0.3329371623704398,0.5167258695636161 l -12.295763968263474 -8.073020426899458" fill="#ff6209" stroke="none" /><path d="M 117.35343817320211 111.8261652097733 l 24.60099491229646 16.765290385330367 a50.77052086173984,50.77052086173984 0 0,0 -0.4983709101592805,0.7179404663433264 l -24.308763094975042 -17.18627211386071" fill="#c4ff1e" stroke="none" /><path d="M 116.71984013943494 112.70617746262583 l 6.909985746199521 5.251216783367723 a29.678892827924734,29.678892827924734 0 0,0 -0.3126080364786911,0.4040880271360971 l -6.818570892502761 -5.369382804617072" fill="#ff0000" stroke="none" /><path d="M 116.27256486870786 113.27417163493432 l 23.28392360679305 18.993612917507605 a51.048268339241886,51.048268339241886 0 0,0 -0.561297588478035,0.6761191039236024 l -22.95353001842147 -19.391593278544978" fill="#c0ff1e" stroke="none" /><path d="M 116.0416608686014 113.55231037782055 l 29.591986622758153 24.99989188731037 a59.738614671393506,59.738614671393506 0 0,0 -0.6703739054847072,0.7797963021806711 l -29.157270207702666 -25.505565288652566" fill="#55ff2b" stroke="none" /><path d="M 115.80600337817218 113.82643327865902 l 10.89653028088881 9.531830741328065 a35.47722934278702,35.47722934278702 0 0,0 -0.406030386263579,0.4561794432657028 l -10.730841044976891 -9.717984354334634" fill="#ff5e08" stroke="none" /><path d="M 115.32070863581623 114.36230785411682 l 23.409307468360616 21.9449170729797 a53.086992091628034,53.086992091628034 0 0,0 -0.6307074635170437,0.6612942539624104 l -23.028093453464606 -22.344618443524617" fill="#a6ff21" stroke="none" /><path d="M 114.81725581225074 114.88116024355365 l 21.9450548994638 22.039700377076596 a52.101990728115624,52.101990728115624 0 0,0 -0.6409786564726,0.6273325234825307 l -21.562426290615402 -22.414183003481696" fill="#b2ff20" stroke="none" /><path d="M 114.55890576462653 115.13401014063108 l 25.093963426594488 26.08522255082049 a57.19593673302427,57.19593673302427 0 0,0 -0.7153963332483798,0.6764518858740413 l -24.6412312589553 -26.51330907344045" fill="#73ff27" stroke="none" /><path d="M 114.0293411484842 115.62618273729858 l 21.0363600504337 23.430751508327297 a52.48854649577311,52.48854649577311 0 0,0 -0.6774962815474966,0.5978116973237214 l -20.629921415979616 -23.789386347423306" fill="#aeff20" stroke="none" /><path d="M 113.75828350139079 115.86535959552629 l 18.853388217749856 21.74077773862001 a49.77692937005727,49.77692937005727 0 0,0 -0.6521596066518421,0.5557845650892136 l -18.476363134520966 -22.062086693932173" fill="#d1ff1c" stroke="none" /><path d="M 113.20401910651253 116.32954008644616 l 24.310590400223436 30.065145866823357 a59.66416689391873,59.66416689391873 0 0,0 -0.8041664472659605,0.6388784611228783 l -23.789466460240124 -30.47915824195136" fill="#56ff2b" stroke="none" /><path d="M 112.92097659922987 116.55440617244103 l 23.59566942916359 30.230864721502968 a59.3491955276793,59.3491955276793 0 0,0 -0.8107418659006483,0.6216422909659219 l -23.07179883476945 -30.63254635429626" fill="#5aff2a" stroke="none" /><path d="M 112.63410532772338 116.77436683061366 l 8.742580384264537 11.607569084451095 a35.53163348786474,35.53163348786474 0 0,0 -0.4917155579596449,0.363759414519799 l -8.541479855886328 -11.756338447710663" fill="#ff5f08" stroke="none" /><path d="M 112.34349029814194 116.9893568818739 l 24.737472102821137 34.04820936048303 a63.085901281701666,63.085901281701666 0 0,0 -0.8840217497727536,0.6307260462296375 l -24.1477230251995 -34.468979668556884" fill="#2fff2f" stroke="none" /><path d="M 112.04921762599082 117.19931262002967 l 17.194861149934543 24.54431495517188 a50.968093809653666,50.968093809653666 0 0,0 -0.7228807545285898,0.4972039745434039 l -16.76982351078307 -24.836659719080377" fill="#c1ff1e" stroke="none" /><path d="M 111.7513745106137 117.40417183066458 l 16.335596282479784 24.193554924137633 a50.192118898281976,50.192118898281976 0 0,0 -0.7201978737097312,0.4773078795050831 l -15.91672371003009 -24.471160824734035" fill="#cbff1d" stroke="none" /><path d="M 111.1453310114006 117.79835938074945 l 17.493033170470724 27.93522154783296 a53.960321788928276,53.960321788928276 0 0,0 -0.7914714994921791,0.48618643886272345 l -17.009582471046237 -28.232196453524065" fill="#9bff22" stroke="none" /><line stroke="#e1ed5e" stroke-width="0.3" x1="143.8653032363475" x2="146.44561519142675" y1="172.8068346515853" y2="177.08958963109032" /><path d="M 144.38136562736335 173.6633856474863 a86.0,86.0 0 0,1 -40.68145358897372,12.25698825130547" fill="none" id="id54" stroke="none" /><text fill="#e1ed5e" style="font-size:6.75px; font-family:Arial;" text-anchor="middle"><textPath startOffset="21.466115282336833" xlink:href="#id54">June</textPath></text><path d="M 110.5260780823613 118.17145234162733 l 24.852681766316895 42.90385447881357 a70.58221979820016,70.58221979820016 0 0,0 -1.0565527536668178,0.5999382278650679 l -24.110480245728876 -43.32529587247327" fill="#3aff93" stroke="none" /><path d="M 110.21172684928248 118.3499491758327 l 14.73418237238987 26.476569699844777 a51.30024543223343,51.30024543223343 0 0,0 -0.7753108402728783,0.42276128757457754 l -14.276248720248343 -26.726271639179124" fill="#bdff1f" stroke="none" /><path d="M 109.89434966115114 118.52300852407294 l 6.865604775783766 12.852957510090963 a35.57172075265885,35.57172075265885 0 0,0 -0.5425688461839848,0.2838463769361581 l -6.643345027073286 -12.969233305971837" fill="#ff5f08" stroke="none" /><path d="M 109.57404056367764 118.69057910512821 l 13.234472761734914 25.836527265856258 a50.02890646304881,50.02890646304881 0 0,0 -0.7698402679256625,0.3860138919597319 l -12.78777858612649 -26.06050899872529" fill="#ceff1d" stroke="none" /><path d="M 108.59647513512805 119.15986991738527 l 16.130991383914942 35.95284016949224 a60.40578129260976,60.40578129260976 0 0,0 -0.9523383484346912,0.4174771453095428 l -15.509732360822497 -36.22518186809624" fill="#4dff2c" stroke="none" /><path d="M 108.2653958097858 119.30500536409082 l 11.466067216902202 26.78062783941369 a50.13198800109081,50.13198800109081 0 0,0 -0.79621184716641,0.3328166166902522 l -11.00338391023833 -26.974029499123915" fill="#ccff1d" stroke="none" /><path d="M 107.59598834532513 119.57807347666477 l 15.623872946445266 40.26932620609329 a64.19402781565313,64.19402781565313 0 0,0 -1.0336148787531225,0.39082470423499355 l -14.92838784693187 -40.53229916043492" fill="#31ff3f" stroke="none" /><path d="M 107.2578585660854 119.70592522655815 l 13.275725751845608 36.045130476449074 a59.41218980092719,59.41218980092719 0 0,0 -0.9627050499718616,0.3451917795148442 l -12.653301141244011 -36.26830979700388" fill="#59ff2a" stroke="none" /><path d="M 106.91757812671514 119.82793768551818 l 9.530298526360752 27.31680970472808 a49.93155167712026,49.93155167712026 0 0,0 -0.8139562581184396,0.2761381557772744 l -9.058672535305085 -27.476810847403478" fill="#cfff1d" stroke="none" /><path d="M 105.88484417918355 120.15858648285463 l 10.436089909252969 35.74891952495328 a58.24106899372784,58.24106899372784 0 0,0 -0.964773935199389,0.2726547509537119 l -9.819184805948973 -35.92326306924551" fill="#67ff28" stroke="none" /><path d="M 105.53697534728816 120.25689768951611 l 8.00347363738775 29.280525280414544 a51.35464957731115,51.35464957731115 0 0,0 -0.8547114682541305,0.22573706711756494 l -7.498271726322121 -29.413953696835694" fill="#bcff1f" stroke="none" /><path d="M 104.83641907484287 120.43548508189849 l 9.677454311878792 40.890474990027336 a63.020043632397055,63.020043632397055 0 0,0 -1.0577759792763157,0.24074636906036867 l -8.972158183209613 -41.05099809266539" fill="#30ff2f" stroke="none" /><path d="M 104.48393922423573 120.51570834832081 l 6.11818650353517 27.993004287107503 a49.65380419961822,49.65380419961822 0 0,0 -0.8365685665875588,0.17531107693224018 l -5.6354264755182335 -28.094171344766284" fill="#d3ff1c" stroke="none" /><path d="M 104.13013068566511 120.58985236759428 l 6.765102253462628 33.72591989254295 a55.39773656940278,55.39773656940278 0 0,0 -0.9365709791220664,0.17949605720646128 l -6.183563659768858 -33.83737314809788" fill="#89ff24" stroke="none" /><path d="M 103.41894727170886 120.7198165907248 l 7.683540896142002 46.564496461457075 a68.19416416689393,68.19416416689393 0 0,0 -1.1598337976956037,0.18114218601327095 l -6.8808712348378815 -46.68985695481745" fill="#37ff74" stroke="none" /><path d="M 103.06178313531738 120.77559828337769 l 6.6303844771080716 44.99018979228315 a66.47613853286066,66.47613853286066 0 0,0 -1.1334859322343258,0.1570908218603407 l -5.854969953686916 -45.097655179636085" fill="#34ff5d" stroke="none" /><path d="M 102.70371172650421 120.8252237178851 l 3.7237785859584136 28.68224499241305 a49.9229615489501,49.9229615489501 0 0,0 -0.8531419933323132,0.10330361421782201 l -3.2295091695747202 -28.742094135356222" fill="#cfff1d" stroke="none" /><path d="M 101.62511606390274 120.93702456842531 l 3.2473515021127004 41.8369368762303 a62.96277611126261,62.96277611126261 0 0,0 -1.0812724643076221,0.07457087979702831 l -2.5267162770261478 -41.88663610054361" fill="#31ff2f" stroke="none" /><path d="M 101.26447882468166 120.96189622390904 l 1.2468926724976528 20.670361806832577 a41.707935642214345,41.707935642214345 0 0,0 -0.7170029718420039,0.03706086374444603 l -0.8909016322421693 -20.688762477339225" fill="#ffbc11" stroke="none" /><path d="M 100.90346689309514 120.98055641714683 l 1.6626796640448782 38.61120397630635 a59.6469866375784,59.6469866375784 0 0,0 -1.026154397909097,0.03534283228607041 l -0.9978049144611288 -38.63410360701851" fill="#56ff2a" stroke="none" /><line stroke="#e1ed5e" stroke-width="0.3" x1="102.19456741930631" x2="102.32365962044197" y1="184.97166512339345" y2="189.96999836594603" /><path d="M 102.22038585953345 185.97133177190398 a86.0,86.0 0 0,1 -42.740103519485714,-10.115201625700543" fill="none" id="id55" stroke="none" /><text fill="#e1ed5e" style="font-size:6.75px; font-family:Arial;" text-anchor="middle"><textPath startOffset="22.20632615414155" xlink:href="#id55">July</textPath></text><path d="M 100.18074693466247 120.99922214144158 l 0.3334477810176056 38.740043028866175 a59.74147804745023,59.74147804745023 0 0,0 -1.0283894313600954,0.0 l 0.33344778101757894 -38.740043028866175" fill="#55ff2b" stroke="none" /><path d="M 99.81925306533755 120.99922214144158 l -0.3761083951300274 43.69636338976545 a64.6979820016362,64.6979820016362 0 0,0 -1.113545651332856,-0.019170698237985746 l 1.1282137363555513 -43.683415214248306" fill="#32ff46" stroke="none" /><path d="M 99.09653310690486 120.98055641714683 l -1.2390332711686516 28.773171044949933 a49.799836378511046,49.799836378511046 0 0,0 -0.856111196366594,-0.04425117000160685 l 1.7341325359487345 -28.747580068186124" fill="#d1ff1d" stroke="none" /><path d="M 98.37488393609728 120.93702456842531 l -3.2737203065310556 42.17665680037028 a63.30351786201255,63.30351786201255 0 0,0 -1.0856724602358871,-0.0936763881406203 l 3.999237084508484 -42.114056159951" fill="#30ff32" stroke="none" /><path d="M 98.01472825383883 120.90594882070398 l -3.370955693338578 35.49792482468321 a56.657622034360514,56.657622034360514 0 0,0 -0.9701063827331776,-0.1005554930959725 l 3.981494672677349 -35.43463996313148" fill="#7aff26" stroke="none" /><path d="M 97.2962882734958 120.8252237178851 l -4.759697586705161 36.661366705974146 a57.96904826833924,57.96904826833924 0 0,0 -0.988431370523944,-0.1369875813474521 l 5.390057548415935 -36.57400455913409" fill="#6aff28" stroke="none" /><path d="M 96.93821686468263 120.77559828337769 l -2.7578592026051942 18.71333545950273 a39.9154622307063,39.9154622307063 0 0,0 -0.6788748379189079,-0.1060262879167365 l 3.079569904132619 -18.66309086423889" fill="#ffa20f" stroke="none" /><path d="M 96.58105272829116 120.7198165907248 l -7.091029035991716 42.97370195821038 a64.5548131988001,64.5548131988001 0 0,0 -1.0948220531991593,-0.19034884745621974 l 7.829700060662925 -42.84527453223315" fill="#31ff44" stroke="none" /><path d="M 96.22490169976321 120.6578951692458 l -5.193719914015444 28.42080205313474 a49.89146441232615,49.89146441232615 0 0,0 -0.8434802677533113,-0.16165500081487474 l 5.68216779634045 -28.327189853971397" fill="#cfff1d" stroke="none" /><path d="M 95.51606077576429 120.51570834832081 l -6.126745973011465 28.032167079155016 a49.693891464412324,49.693891464412324 0 0,0 -0.8340997828315883,-0.18983839497671756 l 6.6083659052359165 -27.92255195060061" fill="#d2ff1c" stroke="none" /><path d="M 94.81253420990036 120.34920634021253 l -9.093413920190756 35.67132077325339 a57.81213526043087,57.81213526043087 0 0,0 -0.9621854188093086,-0.254121914274724 l 9.706089781811555 -35.50950750967508" fill="#6cff28" stroke="none" /><path d="M 94.46302465271185 120.25689768951611 l -9.751992168110315 35.67744034026175 a57.986228524679575,57.986228524679575 0 0,0 -0.9605524563285334,-0.2714617188575953 l 10.364675792543462 -35.50428982806563" fill="#6aff28" stroke="none" /><path d="M 94.11515582081647 120.15858648285463 l -11.63006974817101 39.8389081650525 a62.50177256613035,62.50177256613035 0 0,0 -1.030163220332467,-0.3103797277284186 l 12.314107942943723 -39.63281306821836" fill="#36ff2f" stroke="none" /><path d="M 93.42475214034765 119.94407469862007 l -13.568284852465052 41.15538948580803 a64.3343332424325,64.3343332424325 0 0,0 -1.0487423561994016,-0.3557903477465192 l 14.274696941601679 -40.91573615116339" fill="#31ff41" stroke="none" /><path d="M 93.08242187328487 119.8279376855182 l -12.243943504620814 35.09496306186415 a58.16948459230979,58.16948459230979 0 0,0 -0.9425684654768344,-0.33797151674028597 l 12.846231530727374 -34.8790040040839" fill="#67ff28" stroke="none" /><path d="M 92.40401165467489 119.57807347666478 l -13.47578461426576 34.73279438299502 a58.25538587401145,58.25538587401145 0 0,0 -0.9317503010537764,-0.3707626739239945 l 14.071655991361395 -34.49568486466496" fill="#66ff29" stroke="none" /><path d="M 92.06813273071674 119.44442032107085 l -11.320269253829814 27.750851854465306 a50.97095718571039,50.97095718571039 0 0,0 -0.8095366170555869,-0.3383863715846001 l 11.796277330382864 -27.551880439860735" fill="#c1ff1e" stroke="none" /><path d="M 91.7346041902142 119.30500536409082 l -11.292509682854334 26.37525957842788 a49.69102808835561,49.69102808835561 0 0,0 -0.7834129550026621,-0.34342521708863877 l 11.744843312514739 -26.176969808044788" fill="#d2ff1c" stroke="none" /><path d="M 91.40352486487194 119.15986991738527 l -17.907955701457105 39.913347777176476 a64.7466593946005,64.7466593946005 0 0,0 -1.0129214180129686,-0.4649825423515013 l 18.592345115237492 -39.5991781644909" fill="#32ff46" stroke="none" /><path d="M 91.07499286063937 119.00905698771935 l -18.50594267361019 39.41515266051923 a64.54335969457321,64.54335969457321 0 0,0 -1.0016125375792941,-0.4808348859317376 l 19.181667879189725 -39.09076349808794" fill="#31ff43" stroke="none" /><path d="M 90.10565033884886 118.52300852407294 l -14.99532267298812 28.072435198400687 a52.826424870466326,52.826424870466326 0 0,0 -0.7983762944962437,-0.4353384122830761 l 15.476321779353006 -27.810156134357847" fill="#a9ff21" stroke="none" /><line stroke="#e1ed5e" stroke-width="0.3" x1="58.666819895761336" x2="56.23545636021788" y1="174.27360380694188" y2="178.64263932499728" /><path d="M 58.180547188652646 175.14741091055294 a86.0,86.0 0 0,1 -31.652253787137756,-30.449443065178592" fill="none" id="id56" stroke="none" /><text fill="#e1ed5e" style="font-size:6.75px; font-family:Arial;" text-anchor="middle"><textPath startOffset="22.20632615414155" xlink:href="#id56">August</textPath></text><path d="M 89.7882731507175 118.34994917583269 l -14.06444681000852 25.273089258942743 a49.9229615489501,49.9229615489501 0 0,0 -0.7473021200884582,-0.42433764717351674 l 14.497397697018185 -25.027248445974593" fill="#cfff1d" stroke="none" /><path d="M 89.4739219176387 118.17145234162733 l -21.702321609406194 37.46530281670941 a64.29710935369512,64.29710935369512 0 0,0 -0.9529202967081647,-0.5630021078734463 l 22.34400977714274 -37.08618213654222" fill="#31ff40" stroke="none" /><path d="M 88.8546689885994 117.79835938074946 l -19.836379287130075 31.67739091858776 a58.37564766839378,58.37564766839378 0 0,0 -0.8470534362788888,-0.5406295799794251 l 20.378714525455887 -31.331246909784532" fill="#65ff29" stroke="none" /><path d="M 88.24862548938628 117.40417183066458 l -20.9470574007708 31.02328038482111 a58.432915189528224,58.432915189528224 0 0,0 -0.8287543571721677,-0.5700248038487021 l 21.477968642565855 -30.658114791607307" fill="#64ff29" stroke="none" /><path d="M 87.36589467227662 116.77436683061367 l -16.177649731749412 21.47914901912912 a47.8899645486774,47.8899645486774 0 0,0 -0.6542026201181395,-0.5016146724757692 l 16.544981080361037 -21.197495004825985" fill="#eaff1a" stroke="none" /><path d="M 86.79598089348748 116.32954008644616 l -27.61249536904589 34.14864416496111 a64.9155985819471,64.9155985819471 0 0,0 -0.8628515565534988,-0.710068088408625 l 28.196217054144082 -33.66828095769531" fill="#32ff49" stroke="none" /><path d="M 86.51685102203217 116.09983520530335 l -19.607006251708068 23.412154685650417 a51.53790564494137,51.53790564494137 0 0,0 -0.675231290849408,-0.5754467548918866 l 20.007103019134533 -23.07118354053558" fill="#baff1f" stroke="none" /><path d="M 85.97065885151581 115.62618273729859 l -24.87176078710001 27.702703565633517 a58.22961548950096,58.22961548950096 0 0,0 -0.7400719337390298,-0.6760381645344139 l 25.344932270305893 -27.270472634512526" fill="#67ff28" stroke="none" /><path d="M 85.44109423537348 115.13401014063109 l -30.13816571019359 31.32868038656411 a64.47177529315516,64.47177529315516 0 0,0 -0.7931564865430347,-0.7762705593939762 l 30.672972149112418 -30.805259724247566" fill="#31ff42" stroke="none" /><path d="M 85.18274418774928 114.88116024355367 l -20.6863760923964 20.775593091593393 a50.31810744477775,50.31810744477775 0 0,0 -0.6085121483363941,-0.6164195935748269 l 21.040928865788327 -20.416433004037902" fill="#caff1d" stroke="none" /><path d="M 84.9287848128048 114.62390073753433 l -26.301674826958177 25.521039751800085 a57.64835014998636,57.64835014998636 0 0,0 -0.684899318392071,-0.718114197142695 l 26.737080696729205 -25.064518438074888" fill="#6eff28" stroke="none" /><path d="M 84.67929136418377 114.36230785411682 l -27.24261812376323 25.538431514253823 a58.34128715571312,58.34128715571312 0 0,0 -0.6805194214735509,-0.7385694277914663 l 27.67818395323251 -25.06571083166101" fill="#65ff29" stroke="none" /><path d="M 83.95833913139862 113.55231037782056 l -22.872599904958378 19.323221928125122 a50.94232342514317,50.94232342514317 0 0,0 -0.5601326787420363,-0.6747158951035009 l 23.20182858359395 -18.92664477590786" fill="#c2ff1e" stroke="none" /><path d="M 83.72743513129214 113.27417163493432 l -33.79430536068848 27.56734499204864 a64.61208071993455,64.61208071993455 0 0,0 -0.6956016245544128,-0.8678699802708716 l 34.26382489729775 -26.981547178199506" fill="#32ff44" stroke="none" /><path d="M 83.28015986056508 112.70617746262583 l -37.85787637789151 28.76994586097145 a68.54922279792746,68.54922279792746 0 0,0 -0.7058570050885824,-0.9456108078193572 l 38.34749464967517 -28.114022173642788" fill="#37ff79" stroke="none" /><path d="M 83.06392112726016 112.41649034213515 l -21.808607700321115 15.988728496199117 a48.04172347968367,48.04172347968367 0 0,0 -0.48320870514344944,-0.6711346288165808 l 22.08059619784017 -15.610960261931398" fill="#e8ff1a" stroke="none" /><path d="M 82.6465618267979 111.8261652097733 l -30.244293254686283 20.611132221342007 a57.59967275702209,57.59967275702209 0 0,0 -0.5513026358818854,-0.8241226389195129 l 30.5945989959789 -20.087472668216673" fill="#6eff28" stroke="none" /><path d="M 82.44556493220864 111.52570212397912 l -30.230776507527263 19.848598012797417 a57.16443959640033,57.16443959640033 0 0,0 -0.5329771076548487,-0.8271923069495782 l 30.56795847855916 -19.32528410592639" fill="#73ff27" stroke="none" /><path d="M 82.24976979558568 111.22182372390057 l -36.63072459010237 23.158208625747896 a64.33719661848923,64.33719661848923 0 0,0 -0.5837386162122579,-0.9411725157559148 l 37.02392784598258 -22.524239778626715" fill="#31ff41" stroke="none" /><line stroke="#e1ed5e" stroke-width="0.3" x1="26.63291911575756" x2="22.317208475507996" y1="142.92168965132927" y2="145.44649492493687" /><path d="M 25.769776987707644 143.4266507060508 a86.0,86.0 0 0,1 -11.730757126820373,-40.83630448921669" fill="none" id="id57" stroke="none" /><text fill="#e1ed5e" style="font-size:6.75px; font-family:Arial;" text-anchor="middle"><textPath startOffset="21.46611528233685" xlink:href="#id57">September</textPath></text><path d="M 81.87401531095188 110.60418214915194 l -40.09020965926503 23.45383673866834 a67.44682301608944,67.44682301608944 0 0,0 -0.5776274516813137,-1.0071421503691818 l 40.48798910709872 -22.76027474244085" fill="#36ff6a" stroke="none" /><path d="M 81.69416730710424 110.29060199501025 l -33.7087906350637 18.949356414318707 a59.66989364603218,59.66989364603218 0 0,0 -0.49561129035176527,-0.8996784520190586 l 34.02997833486698 -18.366307443901825" fill="#56ff2b" stroke="none" /><path d="M 81.51974371655577 109.97397251340807 l -27.075314121299204 14.612808106977056 a51.76697572947914,51.76697572947914 0 0,0 -0.4164714622037476,-0.7878070551210697 l 27.32283809172784 -14.14458603676986" fill="#b7ff1f" stroke="none" /><path d="M 81.18737489456691 109.33194174019688 l -38.05362604841831 18.876377926891294 a63.478183801472596,63.478183801472596 0 0,0 -0.4771345042416547,-0.9830384013097359 l 38.37291380927468 -18.218550569616273" fill="#30ff35" stroke="none" /><path d="M 80.87730276802145 108.67885076344099 l -13.180424666982754 5.98194581527055 a35.474365966730296,35.474365966730296 0 0,0 -0.24757545694902827,-0.5582172974082343 l 13.281441208663063 -5.7541801813696205" fill="#ff5e08" stroke="none" /><path d="M 80.73074385275274 108.34839909993369 l -39.95204649237003 17.30921144172234 a64.54049631851649,64.54049631851649 0 0,0 -0.43287931332498075,-1.0231988262182683 l 40.24407678688731 -16.618938089837915" fill="#31ff43" stroke="none" /><path d="M 80.45479744820244 107.68017299344265 l -44.14859905550566 17.347933707304474 a68.43468775565859,68.43468775565859 0 0,0 -0.4213807905256522,-1.1000922760686567 l 44.440674125624824 -16.58541786440266" fill="#37ff77" stroke="none" /><path d="M 80.32549172779594 107.34259656027581 l -40.612541687059895 15.156745203983572 a64.34865012271612,64.34865012271612 0 0,0 -0.37835700605803,-1.0410759828035903 l 40.86742295412315 -14.455421424173865" fill="#31ff41" stroke="none" /><path d="M 80.20201598880116 107.00284435728193 l -36.65623464522347 12.965860857312695 a59.881783474229614,59.881783474229614 0 0,0 -0.3353641331448409,-0.974725151389901 l 36.87398960931154 -12.332963002833496" fill="#53ff2b" stroke="none" /><path d="M 80.0844068197444 106.66101706037122 l -19.739084650569676 6.601981594196679 a41.813880556313066,41.813880556313066 0 0,0 -0.22242545110576922,-0.6845551491170081 l 19.849802352691697 -6.2612275451018675" fill="#ffbe11" stroke="none" /><path d="M 79.86692584326677 105.97154293290107 l -27.682290673097604 8.210667975916888 a49.87428415598582,49.87428415598582 0 0,0 -0.23703908518105254,-0.8251641521217544 l 27.81952239516476 -7.732946348290537" fill="#d0ff1d" stroke="none" /><path d="M 79.67330655649465 105.27499134158121 l -37.903989573681365 9.836485081465046 a60.15953095173166,60.15953095173166 0 0,0 -0.25149172166086997,-1.0045844142706295 l 38.06769260963729 -9.182572827797024" fill="#50ff2b" stroke="none" /><path d="M 79.58551787078972 104.9243191809786 l -54.27067876645936 13.091007781775268 a76.8272429779111,76.8272429779111 0 0,0 -0.29903882676810395,-1.2882514391437694 l 54.48797815915802 -12.154887685282924" fill="#43ffde" stroke="none" /><path d="M 79.50377843672027 104.57218783832718 l -28.08658667997836 6.265406023341714 a49.77692937005727,49.77692937005727 0 0,0 -0.17935329572052386,-0.837878887819663 l 28.190274014423327 -5.781013316105887" fill="#d1ff1c" stroke="none" /><path d="M 79.4281124754447 104.21870165774334 l -46.67804476358394 9.5723226461013 a68.64944095991274,68.64944095991274 0 0,0 -0.2274260099411504,-1.159640324999425 l 46.83590070650076 -8.76741859403392" fill="#37ff7a" stroke="none" /><path d="M 79.29508885075956 103.50808413554451 l -44.25837088718875 7.4988048804105905 a65.88914644123261,65.88914644123261 0 0,0 -0.17984048955445028,-1.119866900126733 l 44.38089313110449 -6.735858750590643" fill="#33ff56" stroke="none" /><path d="M 79.23777060512086 103.15116336523772 l -36.67786256341071 5.566740190894456 a58.097900190891735,58.097900190891735 0 0,0 -0.1415540093909471,-0.9900284119876837 l 36.76825062381826 -4.934566306926372" fill="#68ff28" stroke="none" /><path d="M 79.1416061653843 102.43462659150553 l -43.17295042397958 5.039218933604305 a64.46604854104172,64.46604854104172 0 0,0 -0.11916303027070055,-1.103301664724027 l 43.25329575575133 -4.295320946995496" fill="#31ff42" stroke="none" /><path d="M 79.07016306316243 101.71520430193888 l -38.23248233471679 3.1331595354615738 a59.36064903190619,59.36064903190619 0 0,0 -0.07469107749245486,-1.0191004100471306 l 38.28074997087358 -2.4745859889176827" fill="#59ff2a" stroke="none" /><path d="M 79.04373962182676 101.35467743843564 l -43.46409552936911 2.8096534655092085 a64.5548131988001,64.5548131988001 0 0,0 -0.06213754012007081,-1.1095075204823506 l 43.50601942037671 -2.0610742286914205" fill="#31ff44" stroke="none" /><path d="M 79.0235259727143 100.99374915477108 l -47.95644123472857 2.271910564227799 a69.01022634305971,69.01022634305971 0 0,0 -0.04599980858374802,-1.1870506639917728 l 47.98844317616352 -1.446082653222029" fill="#38ff7f" stroke="none" /><path d="M 79.0095281055655 100.63252640178507 l -62.97141568330351 1.8975792053552267 a84.0,84.0 0 0,0 -0.03111174925997018,-1.4456407368394846 l 62.994749495248485 -0.8133486527256131" fill="#4dd2ff" stroke="none" /><line stroke="#e1ed5e" stroke-width="0.3" x1="15.007084014347285" x2="10.007500721073583" y1="101.09737516637583" y2="101.16192664675087" /><path d="M 14.007167355692545 101.11028546245083 a86.0,86.0 0 0,1 10.666146001902534,-42.60595125391555" fill="none" id="id58" stroke="none" /><text fill="#e1ed5e" style="font-size:6.75px; font-family:Arial;" text-anchor="middle"><textPath startOffset="22.20632615414155" xlink:href="#id58">October</textPath></text><path d="M 79.00175016825051 100.2711162175752 l -28.67145811496311 0.37018786512109303 a49.67384783201527,49.67384783201527 0 0,0 -0.0036798923672895726,-0.8550773891631632 l 28.673582304619902 0.12339900224574557" fill="#d2ff1c" stroke="none" /><path d="M 79.00486145842228 99.54816195383935 l -34.93941449413089 -0.7519339178334759 a55.94750477229343,55.94750477229343 0 0,0 0.02900826316214223,-0.9626430310148669 l 34.9212945365131 1.3532470962733372" fill="#82ff25" stroke="none" /><path d="M 79.01574976396665 99.18683210126434 l -43.359057550702126 -1.6802217531279107 a64.39160076356694,64.39160076356694 0 0,0 0.05245275948255779,-1.1071948505947329 l 43.32371118298607 2.4263277103456526" fill="#31ff41" stroke="none" /><path d="M 79.03285615573316 98.82574320788736 l -28.877709295192187 -1.6172849546127388 a49.9229615489501,49.9229615489501 0 0,0 0.05543685517290104,-0.8575836125918652 l 28.845591849014873 2.114127631457616" fill="#cfff1d" stroke="none" /><path d="M 79.08570108090925 98.10471618934814 l -43.16889242394273 -3.912027041948156 a64.3457867466594,64.3457867466594 0 0,0 0.10945792632519188,-1.1022263804213313 l 43.095157371935315 4.654528953073918" fill="#31ff41" stroke="none" /><path d="M 79.12142395522702 97.74499172005258 l -59.30779584684426 -6.405588695956462 a80.65271338969185,80.65271338969185 0 0,0 0.16095841654593826,-1.3789934173171012 l 59.18874707729473 7.425525851598425" fill="#48f5ff" stroke="none" /><path d="M 79.16333360222342 97.38593545837743 l -26.121122288131698 -3.2770260970381564 a47.325879465503135,47.325879465503135 0 0,0 0.10836274441943304,-0.8074283122927883 l 26.060843544654432 3.726172751395604" fill="#f2ff19" stroke="none" /><path d="M 79.21141760316559 97.0276538004421 l -36.66205682037855 -5.241931516918723 a58.03490591764385,58.03490591764385 0 0,0 0.1499072200398449,-0.9877012803432067 l 36.566393706899404 5.872231909654022" fill="#69ff28" stroke="none" /><line stroke="#e1ed5e" stroke-width="0.3" x1="26.266209847984243" x2="21.928928074336255" y1="57.711370442889674" y2="55.22380399835377" /><path d="M 25.398753493254645 57.213857153982495 a86.0,86.0 0 0,1 29.58750427330803,-30.492523968695096" fill="none" id="id59" stroke="none" /><text fill="#e1ed5e" style="font-size:6.75px; font-family:Arial;" text-anchor="middle"><textPath startOffset="21.46611528233685" xlink:href="#id59">November</textPath></text><line stroke="#e1ed5e" stroke-width="0.3" x1="56.762969772571076" x2="54.21961505331055" y1="26.818313649435495" y2="22.513508569990535" /><path d="M 56.25429882871897 25.957352633546506 a86.0,86.0 0 0,1 42.265352541879196,-11.944610805530505" fill="none" id="id60" stroke="none" /><text fill="#e1ed5e" style="font-size:6.75px; font-family:Arial;" text-anchor="middle"><textPath startOffset="22.20632615414155" xlink:href="#id60">December</textPath></text></svg>