<?xml version="1.0" encoding="utf-8" ?>
<svg baseProfile="full" height="200mm" version="1.1" viewBox="0,0,200,200" width="200mm" xmlns="http://www.w3.org/2000/svg" xmlns:ev="http://www.w3.org/2001/xml-events" xmlns:xlink="http://www.w3.org/1999/xlink"><defs /><rect fill="#1a1a1a" height="200" width="200" x="0" y="0" /><rect fill="#1a1a1a" height="200" width="180" x="10" y="0" /><text alignment-baseline="middle" fill="#e1ed5e" style="dominant-baseline: central; font-size:9.0px; font-family:Arial;" text-anchor="middle" x="100.0" y="100.0">2025</text><line stroke="#e1ed5e" stroke-width="0.3" x1="100.0" x2="100.0" y1="15.0" y2="10.0" /><path d="M 100.0 14.0 a86.0,86.0 0 0,1 42.46469731375804,11.215312516191453" fill="none" id="id49" stroke="none" /><text fill="#e1ed5e" style="font-size:6.75px; font-family:Arial;" text-anchor="middle"><textPath startOffset="22.20632615414155" xlink:href="#id49">January</textPath></text><path d="M 100.0 79.0 l 0.0 -28.341859014348103 a49.3418590143481,49.3418590143481 0 0,0 0.849338992604956,0.007310528855240583 l -0.48785851333242763 28.33765986210142" fill="#d5ff1c" stroke="none" /><path d="M 100.72285384407766 79.0124445844662 l 1.083411099696827 -31.456082967511577 a52.47473487211478,52.47473487211478 0 0,0 0.9024634079525472,0.03886197272864298 l -1.6247153400387055 31.43277326825874" fill="#acff20" stroke="none" /><path d="M 101.80526077348638 79.07773832637324 l 1.2083068388975517 -14.003800579250854 a35.05583281347474,35.05583281347474 0 0,0 0.6007482561188032,0.05704828561749749 l -1.4491802221065992 13.98092674911818" fill="#ff5a08" stroke="none" /><path d="M 102.16513564639614 79.11191278185805 l 3.045970173247423 -29.385914341465885 a50.543356207111664,50.543356207111664 0 0,0 0.8646122126649006,0.09714925627123104 l -3.551349089422049 29.329129131724052" fill="#c5ff1e" stroke="none" /><path d="M 105.01212808612495 79.60689891045804 l 2.1721752858769845 -8.838040334947202 a30.10106051154086,30.10106051154086 0 0,0 0.5021016161117599,0.12799688170572404 l -2.323985790673769 8.79934045707261" fill="#ff0a01" stroke="none" /><path d="M 105.36241919743992 79.69619591428918 l 5.341869868013858 -20.225997867398238 a41.919525888958205,41.919525888958205 0 0,0 0.696067960010525,0.1902616675903974 l -5.689235717248094 20.13104965898155" fill="#ffc112" stroke="none" /><line stroke="#e1ed5e" stroke-width="0.3" x1="143.23703022742887" x2="145.7803849466894" y1="26.81831364943548" y2="22.513508569990506" /><path d="M 143.74570117128098 25.957352633546492 a86.0,86.0 0 0,1 28.547481713284135,27.462654790039103" fill="none" id="id50" stroke="none" /><text fill="#e1ed5e" style="font-size:6.75px; font-family:Arial;" text-anchor="middle"><textPath startOffset="19.985693538727396" xlink:href="#id50">February</textPath></text><path d="M 117.2510076193507 88.02491185347247 l 7.409431532079199 -5.143386268798631 a30.019650655021834,30.019650655021834 0 0,0 0.29101268678733466,0.4270252087809505 l -7.496868684535268 5.015083036747274" fill="#ff0801" stroke="none" /><line stroke="#e1ed5e" stroke-width="0.3" x1="172.23445277983987" x2="176.4835382374775" y1="55.19839476539836" y2="52.563006222186495" /><path d="M 173.08426987136738 54.67131705675599 a86.0,86.0 0 0,1 12.851231095245387,41.99856678651699" fill="none" id="id51" stroke="none" /><text fill="#e1ed5e" style="font-size:6.75px; font-family:Arial;" text-anchor="middle"><textPath startOffset="22.20632615414155" xlink:href="#id51">March</textPath></text><path d="M 118.21658344932153 89.55222093294921 l 12.180645719655953 -6.985980424211933 a35.04179663131628,35.04179663131628 0 0,0 0.2955898337439163,0.5258213314304356 l -12.299093194692302 6.775275582846703" fill="#ff5908" stroke="none" /><path d="M 118.3937258080291 89.86733742301442 l 18.419133770779695 -10.146659214535116 a42.029008109794134,42.029008109794134 0 0,0 0.34362096620633864,0.6366774633999918 l -18.5910628362045 9.828100767802667" fill="#ffc312" stroke="none" /><line stroke="#e1ed5e" stroke-width="0.3" x1="184.98032266829074" x2="189.97916517819016" y1="98.17113171792111" y2="98.06355123074" /><path d="M 185.9800911702706 98.14961562048488 a86.0,86.0 0 0,1 -9.607161424134198,41.387399972396054" fill="none" id="id52" stroke="none" /><text fill="#e1ed5e" style="font-size:6.75px; font-family:Arial;" text-anchor="middle"><textPath startOffset="21.466115282336823" xlink:href="#id52">April</textPath></text><path d="M 120.81339534386255 102.79330883721812 l 10.082746197302846 1.3531777776305218 a31.173144104803495,31.173144104803495 0 0,0 -0.0759525476627862,0.5312119414529114 l -10.057959598623459 -1.5265351910638425" fill="#ff1b02" stroke="none" /><path d="M 120.64145759157962 103.86396538481128 l 13.815851282555816 2.586250068855283 a35.05583281347474,35.05583281347474 0 0,0 -0.11613507802035003,0.592170260799108 l -13.769286271559801 -2.823684056722336" fill="#ff5a08" stroke="none" /><path d="M 120.5718875245553 104.21870165774334 l 20.022802744802657 4.106100183142665 a41.43948845913911,41.43948845913911 0 0,0 -0.14931232042990988,0.6975374524175633 l -19.949156385648305 -4.450151454976397" fill="#ffba11" stroke="none" /><path d="M 120.41448212921028 104.9243191809786 l 13.904079821093452 3.3538997719123937 a35.30286961946351,35.30286961946351 0 0,0 -0.1475805964526441,0.5895111221394904 l -13.844287910345749 -3.59273873344928" fill="#ff5e08" stroke="none" /><path d="M 120.23288151984713 105.62410040840565 l 16.244365886489867 4.5154193547212 a37.86026200873363,37.86026200873363 0 0,0 -0.17993966275681395,0.6263935719224941 l -16.16423358684695 -4.794370402148276" fill="#ff850c" stroke="none" /><path d="M 120.13307415673323 105.97154293290107 l 17.378031347031424 5.154387227218016 a39.12632563942607,39.12632563942607 0 0,0 -0.19707227346943557,0.6440435922235466 l -17.286732301055853 -5.452757791993619" fill="#ff980e" stroke="none" /><path d="M 119.9155931802556 106.66101706037122 l 21.633648095012532 7.23564182772167 a43.81160324391766,43.81160324391766 0 0,0 -0.24536410726485763,0.7131429481044006 l -21.505893156804444 -7.606957478915372" fill="#ffdd14" stroke="none" /><path d="M 119.79798401119884 107.00284435728193 l 15.122406288208293 5.349022278430031 a37.04054897067998,37.04054897067998 0 0,0 -0.21779091223460945,0.5992670529948002 l -15.028091114968456 -5.608537128430962" fill="#ff790b" stroke="none" /><path d="M 119.54520255179757 107.68017299344265 l 26.273935949676012 10.324189415657152 a49.229569557080474,49.229569557080474 0 0,0 -0.31670410230454427,0.7860336092054888 l -26.092329233114075 -10.774922392705454" fill="#d7ff1c" stroke="none" /><path d="M 119.26925614724726 108.34839909993367 l 12.887098543535972 5.583331347068198 a35.04460386774797,35.04460386774797 0 0,0 -0.24457614899425625,0.5514546497643862 l -12.789081309810443 -5.804334333325271" fill="#ff5a08" stroke="none" /><path d="M 118.97047184881838 109.00673069616215 l 15.342396580342813 7.284206493866101 a37.983780411728006,37.983780411728006 0 0,0 -0.28550552568824156,0.5882259468611326 l -15.214737798039858 -7.547221396692509" fill="#ff870c" stroke="none" /><path d="M 118.81262510543309 109.33194174019688 l 26.644652391773935 13.21699350379457 a50.742669993761695,50.742669993761695 0 0,0 -0.3948778394750908,0.7791314393546919 l -26.413195882512575 -13.673679154851955" fill="#c3ff1e" stroke="none" /><line stroke="#e1ed5e" stroke-width="0.3" x1="174.80103733775053" x2="179.2010983576182" y1="140.37084112569926" y2="142.7455964860345" /><path d="M 175.68104954172406 140.8457921977663 a86.0,86.0 0 0,1 -30.038265399797805,32.042727171017184" fill="none" id="id53" stroke="none" /><text fill="#e1ed5e" style="font-size:6.75px; font-family:Arial;" text-anchor="middle"><textPath startOffset="22.206326154141568" xlink:href="#id53">May</textPath></text><path d="M 118.48025628344425 109.97397251340804 l 24.87201055098254 13.423663924560055 a49.263256394260765,49.263256394260765 0 0,0 -0.4091749553522782,0.7427713968643239 l -24.637259186178756 -13.849805839822183" fill="#d6ff1c" stroke="none" /><path d="M 118.30583269289576 110.29060199501025 l 17.37920289434262 9.769698159954027 a40.9369931378665,40.9369931378665 0 0,0 -0.35059221425566794,0.6112870770604416 l -17.208458683934573 -10.067405082872783" fill="#ffb310" stroke="none" /><path d="M 118.12598468904814 110.60418214915192 l 17.23511216823805 10.082998078636175 a40.9678727386151,40.9678727386151 0 0,0 -0.3613349291977504,0.6056181252817252 l -17.05899636334207 -10.378178297804004" fill="#ffb410" stroke="none" /><path d="M 117.94076556474637 110.91462005526583 l 25.08365569579568 15.26013873425166 a50.360885839051775,50.360885839051775 0 0,0 -0.45692997761830073,0.7367166135929215 l -24.817261078509418 -15.689651679209854" fill="#c8ff1d" stroke="none" /><path d="M 117.75023020441432 111.22182372390056 l 12.189145249096752 7.70606565408749 a35.420773549594514,35.420773549594514 0 0,0 -0.33024834268730574,0.512552761704538 l -12.054692043032396 -7.91474001571348" fill="#ff5f08" stroke="none" /><path d="M 117.35343817320211 111.8261652097733 l 24.11866545140124 16.436588497372725 a50.18683718028696,50.18683718028696 0 0,0 -0.4926413851783775,0.7096866582801702 l -23.832163159060727 -16.849316417839916" fill="#caff1d" stroke="none" /><path d="M 116.71984013943494 112.70617746262583 l 6.77450790428134 5.148260924501231 a29.50873362445415,29.50873362445415 0 0,0 -0.31081574810748647,0.4017712528134113 l -6.684885338955786 -5.2641101714278955" fill="#ff0000" stroke="none" /><path d="M 116.27256486870786 113.27417163493432 l 22.8274167719749 18.621222324703783 a50.45913911416095,50.45913911416095 0 0,0 -0.5548198601613299,0.6683162628730523 l -22.503500911920025 -19.011399844690608" fill="#c7ff1e" stroke="none" /><path d="M 116.0416608686014 113.55231037782055 l 29.011803300682868 24.509741614143245 a58.979101684341856,58.979101684341856 0 0,0 -0.6618508138429455,0.7698820210742381 l -28.585609977269144 -25.005500734379012" fill="#5dff2a" stroke="none" /><path d="M 115.80600337817218 113.82643327865902 l 10.6828918652578 9.344948755489709 a35.19338739862757,35.19338739862757 0 0,0 -0.4027818672456107,0.45252969771170176 l -10.52045114836385 -9.527452622942278" fill="#ff5c08" stroke="none" /><path d="M 115.32070863581623 114.36230785411682 l 22.950342345551654 21.51466292842435 a52.45789145352464,52.45789145352464 0 0,0 -0.6232333450537051,0.6534576706347317 l -22.576602449118983 -21.90652771564159" fill="#adff20" stroke="none" /><path d="M 114.81725581225074 114.88116024355365 l 21.514798052669217 21.607587901989096 a51.492202121023084,51.492202121023084 0 0,0 -0.6334768033448354,0.6199903812662289 l -21.13967129694859 -21.974728386177897" fill="#b9ff1f" stroke="none" /><path d="M 114.55890576462653 115.13401014063108 l 24.601968777824258 25.573793180783905 a56.486275733000625,56.486275733000625 0 0,0 -0.7065200230371134,0.6680587805379401 l -24.158112920396334 -25.99348659806777" fill="#7bff26" stroke="none" /><path d="M 114.0293411484842 115.62618273729858 l 20.623919161823473 22.971365951618274 a51.87117903930131,51.87117903930131 0 0,0 -0.6695276067787685,0.5907802683422473 l -20.225449202138115 -23.32296936173281" fill="#b4ff20" stroke="none" /><path d="M 113.75828350139079 115.86535959552629 l 18.483746883830868 21.314525969392992 a49.21272613849033,49.21272613849033 0 0,0 -0.6447676167837061,0.5494849509577926 l -18.114113790470114 -21.629535310573733" fill="#d7ff1c" stroke="none" /><path d="M 113.20401910651253 116.32954008644616 l 23.833954637987524 29.47568573932125 a58.9061135371179,58.9061135371179 0 0,0 -0.7939492414201066,0.6307612948695889 l -23.323047903850068 -29.881580948195964" fill="#5eff2a" stroke="none" /><path d="M 112.92097659922987 116.55440617244103 l 23.13305047591379 29.638155494274496 a58.59731752963194,58.59731752963194 0 0,0 -0.8004708088855239,0.6137668824270641 l -22.619450938534772 -30.031961718528933" fill="#61ff29" stroke="none" /><path d="M 112.63410532772338 116.77436683061366 l 8.571172516468604 11.37998997398151 a35.2467248908297,35.2467248908297 0 0,0 -0.48777276175224754,0.3608426281445112 l -8.374014784297792 -11.525842550865791" fill="#ff5d08" stroke="none" /><path d="M 112.34349029814194 116.9893568818739 l 24.252466857065798 33.380656908891694 a62.260761072988146,62.260761072988146 0 0,0 -0.8724590729100176,0.6224763832961869 l -23.674280456306896 -33.793177554032106" fill="#38ff2e" stroke="none" /><path d="M 112.04921762599082 117.19931262002967 l 16.857737056450397 24.06309676694108 a50.38053649407361,50.38053649407361 0 0,0 -0.7145474258935908,0.49147223512090416 l -16.441032745933924 -24.349709791427077" fill="#c8ff1d" stroke="none" /><path d="M 111.7513745106137 117.40417183066458 l 16.015319018230112 23.719213770647723 a49.619775421085464,49.619775421085464 0 0,0 -0.7119854179625666,0.4718651116473869 l -15.604658901527582 -23.991376903386428" fill="#d2ff1c" stroke="none" /><path d="M 111.1453310114006 117.79835938074945 l 17.150063087812896 27.38752092039127 a53.31409856519027,53.31409856519027 0 0,0 -0.7819929188065552,0.4803639204372675 l -16.676090969074032 -27.67867330765692" fill="#a2ff22" stroke="none" /><line stroke="#e1ed5e" stroke-width="0.3" x1="143.8653032363475" x2="146.44561519142675" y1="172.8068346515853" y2="177.08958963109032" /><path d="M 144.38136562736335 173.6633856474863 a86.0,86.0 0 0,1 -40.68145358897372,12.25698825130547" fill="none" id="id54" stroke="none" /><text fill="#e1ed5e" style="font-size:6.75px; font-family:Arial;" text-anchor="middle"><textPath startOffset="21.466115282336833" xlink:href="#id54">June</textPath></text><path d="M 110.5260780823613 118.17145234162733 l 24.36541770887195 42.0626774014284 a69.61010605115408,69.61010605115408 0 0,0 -1.0420010796155421,0.5916754075633895 l -23.637767862335206 -42.47585597478642" fill="#39ff87" stroke="none" /><path d="M 110.21172684928248 118.3499491758327 l 14.445302582538185 25.95746754014726 a50.70617592014972,50.70617592014972 0 0,0 -0.7663325492586073,0.4178656074521681 l -13.996347221410929 -26.202273799359197" fill="#c3ff1e" stroke="none" /><path d="M 109.89434966115114 118.52300852407294 l 6.730997071419414 12.60096119494793 a35.286026200873366,35.286026200873366 0 0,0 -0.5382112002775322,0.28156666255296653 l -6.513094968615386 -12.714957276445613" fill="#ff5d08" stroke="none" /><path d="M 109.57404056367764 118.69057910512821 l 12.974996422052028 25.329973839380152 a49.4597629444791,49.4597629444791 0 0,0 -0.7610823391640679,0.3816224846670497 l -12.537060175205198 -25.549564164956504" fill="#d4ff1c" stroke="none" /><path d="M 108.59647513512805 119.15986991738527 l 15.814725622889965 35.24794534396081 a59.633187772925766,59.633187772925766 0 0,0 -0.9401578845651308,0.4121375878999644 l -15.20564706366708 -35.514947485155226" fill="#55ff2b" stroke="none" /><path d="M 108.2653958097858 119.30500536409082 l 11.241262405591401 26.255564286729342 a49.56082345601996,49.56082345601996 0 0,0 -0.7871404339709682,0.3290247652388441 l -10.78765051212297 -26.44517409498816" fill="#d2ff1c" stroke="none" /><path d="M 107.59598834532513 119.57807347666477 l 15.317549798043343 39.47980194218271 a63.3471615720524,63.3471615720524 0 0,0 -1.019979131324823,0.3856688313221375 l -14.635700445958244 -39.73761902361148" fill="#30ff34" stroke="none" /><path d="M 107.2578585660854 119.70592522655815 l 13.015440602090147 35.33842619832602 a58.65907673112913,58.65907673112913 0 0,0 -0.9505017334820344,0.3408161043947963 l -12.405219307978378 -35.55722984376078" fill="#61ff29" stroke="none" /><path d="M 106.91757812671514 119.82793768551818 l 9.343446581275701 26.7812337190726 a49.36431690580162,49.36431690580162 0 0,0 -0.8047095137968777,0.2730011580597281 l -8.881067334541596 -26.93809786403045" fill="#d5ff1c" stroke="none" /><path d="M 105.88484417918355 120.15858648285463 l 10.231478931618563 35.0480227870966 a57.51091703056768,57.51091703056768 0 0,0 -0.9526788346979294,0.26923655473730596 l -9.626668928816029 -35.218948135172425" fill="#6eff28" stroke="none" /><path d="M 105.53697534728816 120.25689768951611 l 7.846556767213494 28.70644849922827 a50.759513412351836,50.759513412351836 0 0,0 -0.8448064312311879,0.22312105681432523 l -7.351259893170809 -28.837260905346177" fill="#c3ff1e" stroke="none" /><path d="M 104.83641907484287 120.43548508189849 l 9.487717216378094 40.08877242360669 a62.196194635059264,62.196194635059264 0 0,0 -1.0439478758713412,0.23759913774583594 l -8.79624919111389 -40.246148294930215" fill="#38ff2e" stroke="none" /><path d="M 104.48393922423573 120.51570834832081 l 5.99823275335446 27.444170765749007 a49.09201497192764,49.09201497192764 0 0,0 -0.8271035272716577,0.1733275859167396 l -5.524937764653425 -27.543354332392287" fill="#d9ff1c" stroke="none" /><path d="M 104.13013068566511 120.58985236759428 l 6.632465011170339 33.06468627910748 a54.72333125389894,54.72333125389894 0 0,0 -0.9251692777930736,0.17731089401048192 l -6.062328118805562 -33.17395437146643" fill="#90ff24" stroke="none" /><path d="M 103.41894727170886 120.7198165907248 l 7.532896657914461 45.65154848698773 a67.26887086712415,67.26887086712415 0 0,0 -1.144096579489837,0.17868435618176906 l -6.745964214816107 -45.7744511505166" fill="#35ff69" stroke="none" /><path d="M 103.06178313531738 120.77559828337769 l 6.500388524433284 44.108107825051846 a65.5845290081098,65.5845290081098 0 0,0 -1.1182830808705744,0.15498384519002187 l -5.74017685237588 -44.21346623573447" fill="#33ff52" stroke="none" /><path d="M 102.70371172650421 120.8252237178851 l 3.650769826586624 28.119898151816766 a49.35589519650655,49.35589519650655 0 0,0 -0.8434512998464908,0.10213020619291353 l -3.1661911036887527 -28.178573886735034" fill="#d5ff1c" stroke="none" /><path d="M 101.62511606390274 120.93702456842531 l 3.1836836177472434 41.01667788747969 a62.14004990642545,62.14004990642545 0 0,0 -1.0671436211101315,0.07359647204826002 l -2.4771772358581816 -41.06540270404423" fill="#39ff2e" stroke="none" /><path d="M 101.26447882468166 120.96189622390904 l 1.2224459754163333 20.265096714817318 a41.30193387398627,41.30193387398627 0 0,0 -0.7100233774336439,0.036700098437302056 l -0.8734345295692097 -20.283136620016823" fill="#ffb811" stroke="none" /><path d="M 100.90346689309514 120.98055641714683 l 1.6300810074108998 37.854189015537486 a58.88927011852776,58.88927011852776 0 0,0 -1.013118799931339,0.03489385993452633 l -0.9782418558049085 -37.87663967389811" fill="#5eff2a" stroke="none" /><line stroke="#e1ed5e" stroke-width="0.3" x1="102.19456741930631" x2="102.32365962044197" y1="184.97166512339345" y2="189.96999836594603" /><path d="M 102.22038585953345 185.97133177190398 a86.0,86.0 0 0,1 -42.740103519485714,-10.115201625700543" fill="none" id="id55" stroke="none" /><text fill="#e1ed5e" style="font-size:6.75px; font-family:Arial;" text-anchor="middle"><textPath startOffset="22.20632615414155" xlink:href="#id55">July</textPath></text><path d="M 100.18074693466247 120.99922214144158 l 0.32691017190755545 37.9805020373012 a58.98190892077355,58.98190892077355 0 0,0 -1.0153142131399957,0.0 l 0.32691017190752925 -37.9805020373012" fill="#5dff2a" stroke="none" /><path d="M 99.81925306533755 120.99922214144158 l -0.36873437793649694 42.83964830681845 a63.84123518402994,63.84123518402994 0 0,0 -1.0987998020262333,-0.018916835069482763 l 1.1060938698553981 -42.826953994469804" fill="#31ff3b" stroke="none" /><path d="M 99.09653310690486 120.98055641714683 l -1.2147406662620384 28.20904149946477 a49.23518402994385,49.23518402994385 0 0,0 -0.8464042327936844,-0.04374943086177636 l 1.7001329674692118 -28.18395226184079" fill="#d7ff1c" stroke="none" /><path d="M 98.37488393609728 120.93702456842531 l -3.209535432862324 41.34973723027123 a62.47411104179663,62.47411104179663 0 0,0 -1.071447908845188,-0.09244903399284003 l 3.920827659449054 -41.28836394399973" fill="#35ff2f" stroke="none" /><path d="M 98.01472825383883 120.90594882070398 l -3.3048644133693696 34.80194911294359 a55.95851528384279,55.95851528384279 0 0,0 -0.9581360970675035,-0.09931472404318029 l 3.903433107042466 -34.739905020444645" fill="#81ff25" stroke="none" /><path d="M 97.2962882734958 120.8252237178851 l -4.666378500253406 35.94258044135296 a57.24422956955708,57.24422956955708 0 0,0 -0.9760724727807508,-0.1352747507347783 l 5.284379564220988 -35.85693112512558" fill="#72ff27" stroke="none" /><path d="M 96.93821686468263 120.77559828337769 l -2.7037883511148517 18.346440013366863 a39.54460386774797,39.54460386774797 0 0,0 -0.672567347112738,-0.10504118757291285 l 3.0191915618361067 -18.297180518446847" fill="#ff9e0e" stroke="none" /><path d="M 96.58105272829116 120.7198165907248 l -6.952001642005603 42.13115544445882 a63.700873362445414,63.700873362445414 0 0,0 -1.0803395983887443,-0.18783088705028536 l 7.676190211866397 -42.00524597888752" fill="#30ff39" stroke="none" /><path d="M 96.22490169976321 120.6578951692458 l -5.091891344272694 27.86358108782954 a49.325015595757954,49.325015595757954 0 0,0 -0.8339037118214424,-0.15981963107813688 l 5.5707626706658315 -27.771804258402934" fill="#d5ff1c" stroke="none" /><path d="M 95.51606077576429 120.51570834832081 l -6.006624405052949 27.48256572834724 a49.13131628197131,49.13131628197131 0 0,0 -0.8246570963429172,-0.18768927027464388 l 6.478801650788729 -27.37509972449491" fill="#d8ff1c" stroke="none" /><path d="M 94.81253420990036 120.34920634021253 l -8.915127576509981 34.971945443949785 a57.09039301310044,57.09039301310044 0 0,0 -0.9501732372250848,-0.25094938794131105 l 9.515791256546557 -34.8133047067049" fill="#73ff27" stroke="none" /><path d="M 94.46302465271185 120.25689768951611 l -9.560793676266071 34.977945030141655 a57.26107298814723,57.26107298814723 0 0,0 -0.9485401225458676,-0.2680669133426549 l 10.161464966916553 -34.808189323460475" fill="#71ff27" stroke="none" /><path d="M 94.11515582081647 120.15858648285463 l -11.402049487534915 39.05782271845135 a61.68808484092327,61.68808484092327 0 0,0 -1.0167519020141356,-0.30633900753382703 l 12.072676363989297 -38.855768341811796" fill="#3eff2d" stroke="none" /><path d="M 93.42475214034765 119.94407469862007 l -13.30226376098102 40.34849298042725 a63.48471615720524,63.48471615720524 0 0,0 -1.03489237316669,-0.35109168152944215 l 13.994825867084936 -40.11353831199968" fill="#30ff36" stroke="none" /><path d="M 93.08242187328487 119.8279376855182 l -12.003887576359823 34.40688785701519 a57.44073611977542,57.44073611977542 0 0,0 -0.9307599487899577,-0.333737402783272 l 12.594367085779508 -34.195162913191965" fill="#6fff27" stroke="none" /><path d="M 92.40401165467489 119.57807347666478 l -13.211577091305376 34.05181989192837 a57.52495321272614,57.52495321272614 0 0,0 -0.9200675898015673,-0.36611388201305844 l 13.795765757148802 -33.81935916550924" fill="#6eff28" stroke="none" /><path d="M 92.06813273071674 119.44442032107085 l -11.09832297133783 27.206765996878428 a50.3833437305053,50.3833437305053 0 0,0 -0.800203957146339,-0.3344853189856334 l 11.564998387981632 -27.011695634872822" fill="#c8ff1d" stroke="none" /><path d="M 91.7346041902142 119.30500536409082 l -11.071107657167856 25.858143714667595 a49.128509045539616,49.128509045539616 0 0,0 -0.774544458565153,-0.33953752887152083 l 11.514572790390753 -25.663741632501623" fill="#d8ff1c" stroke="none" /><path d="M 91.40352486487194 119.15986991738527 l -17.556850607943105 39.13080286041514 a63.88895820336868,63.88895820336868 0 0,0 -0.9995032136611562,-0.45882290285494776 l 18.22782181737168 -38.822792887226115" fill="#31ff3b" stroke="none" /><path d="M 91.07499286063937 119.00905698771935 l -18.143113390284796 38.64237540489904 a63.68964441671865,63.68964441671865 0 0,0 -0.9883642045227486,-0.47447488096472173 l 18.805590262807787 -38.32434624743476" fill="#30ff39" stroke="none" /><path d="M 90.10565033884886 118.52300852407294 l -14.701322941408277 27.52204434699277 a52.2024329382408,52.2024329382408 0 0,0 -0.7889457799787964,-0.4301961438498326 l 15.172891533255715 -27.264907551383175" fill="#b0ff20" stroke="none" /><line stroke="#e1ed5e" stroke-width="0.3" x1="58.666819895761336" x2="56.23545636021788" y1="174.27360380694188" y2="178.64263932499728" /><path d="M 58.180547188652646 175.14741091055294 a86.0,86.0 0 0,1 -31.652253787137756,-30.449443065178592" fill="none" id="id56" stroke="none" /><text fill="#e1ed5e" style="font-size:6.75px; font-family:Arial;" text-anchor="middle"><textPath startOffset="22.20632615414155" xlink:href="#id56">August</textPath></text><path d="M 89.7882731507175 118.34994917583269 l -13.788697919695545 24.777582651958745 a49.35589519650655,49.35589519650655 0 0,0 -0.7388136435585476,-0.4195176686642045 l 14.2131603301753 -24.53656181749991" fill="#d5ff1c" stroke="none" /><path d="M 89.4739219176387 118.17145234162733 l -21.276823814729305 36.7307545037537 a63.448222083593265,63.448222083593265 0 0,0 -0.9403392970733693,-0.555569031531161 l 21.90593098283106 -36.35906689992879" fill="#30ff35" stroke="none" /><path d="M 88.8546689885994 117.79835938074946 l -19.44746533621941 31.05632096028732 a57.642857142857146,57.642857142857146 0 0,0 -0.8364203596875265,-0.533843047412211 l 19.97916749795386 -30.716963484051302" fill="#6dff28" stroke="none" /><path d="M 88.24862548938628 117.40417183066458 l -20.536367388457318 30.415034980252837 a57.69900187149096,57.69900187149096 0 0,0 -0.8183452605502167,-0.5628653322769138 l 21.056869533630426 -30.05702885861082" fill="#6cff28" stroke="none" /><path d="M 87.36589467227662 116.77436683061367 l -15.86046918269096 21.058026767617807 a47.36275733000624,47.36275733000624 0 0,0 -0.6470006865387296,-0.49609253691328004 l 16.220598597723175 -20.78189488887716" fill="#f0ff19" stroke="none" /><path d="M 86.79598089348748 116.32954008644616 l -27.071122141954717 33.47912257898023 a64.05458515283843,64.05458515283843 0 0,0 -0.8514070533254798,-0.7006500413897785 l 27.643399323824884 -33.008177418733275" fill="#31ff3e" stroke="none" /><path d="M 86.51685102203217 116.09983520530335 l -19.222589410483955 22.953133740026757 a50.93917654398004,50.93917654398004 0 0,0 -0.667386955332625,-0.5687616419852594 l 19.614841842393638 -22.61884770781855" fill="#c0ff1e" stroke="none" /><path d="M 85.97065885151581 115.62618273729859 l -24.384122664547473 27.15956170800591 a57.499688084840926,57.499688084840926 0 0,0 -0.7307948883504464,-0.6675638035285661 l 24.848017102364775 -26.735805137890768" fill="#6eff28" stroke="none" /><path d="M 85.44109423537348 115.13401014063109 l -29.547273948653395 30.714447280330795 a63.61946350592639,63.61946350592639 0 0,0 -0.7826710203134526,-0.7660083237902297 l 30.07159492134264 -30.201288853617996" fill="#30ff38" stroke="none" /><path d="M 85.18274418774928 114.88116024355367 l -20.280797022765597 20.36826482493707 a49.74329382407985,49.74329382407985 0 0,0 -0.6015607527258224,-0.6093778665217827 l 20.628398400546953 -20.016146464434623" fill="#d0ff1d" stroke="none" /><path d="M 84.9287848128048 114.62390073753433 l -25.786001672878253 25.020671803720944 a56.92981908920773,56.92981908920773 0 0,0 -0.6763627092351664,-0.7091635965705941 l 26.212870933492376 -24.57310109056785" fill="#75ff27" stroke="none" /><path d="M 84.67929136418377 114.36230785411682 l -26.70849674534527 25.037722581615387 a57.609170305676855,57.609170305676855 0 0,0 -0.6719796761314921,-0.7293012208428504 l 27.135522829472492 -24.574270105971195" fill="#6dff28" stroke="none" /><path d="M 83.95833913139862 113.55231037782056 l -22.424157522007583 18.944368989511137 a50.3552713661884,50.3552713661884 0 0,0 -0.5536777897571128,-0.6669405654993839 l 22.746931311658233 -18.55556716689799" fill="#c8ff1d" stroke="none" /><path d="M 83.72743513129214 113.27417163493432 l -33.131730975219135 27.026856987570362 a63.757018091079225,63.757018091079225 0 0,0 -0.6863961795803426,-0.8563847722638481 l 33.59204506685434 -26.452544381728256" fill="#30ff3a" stroke="none" /><path d="M 83.28015986056508 112.70617746262583 l -37.115631230120705 28.20587954875207 a67.61696818465377,67.61696818465377 0 0,0 -0.696257502388965,-0.9327507052249088 l 37.59564999920476 -27.56281596401785" fill="#36ff6d" stroke="none" /><path d="M 83.06392112726016 112.41649034213515 l -21.381026050372743 15.675251954967155 a47.51154086088584,47.51154086088584 0 0,0 -0.4778760726281484,-0.6637280686580478 l 21.6476819153765 -15.30489028085797" fill="#eeff19" stroke="none" /><path d="M 82.6465618267979 111.8261652097733 l -29.65132074635093 20.207028390248944 a56.88209606986899,56.88209606986899 0 0,0 -0.5444345079891507,-0.8138557195997042 l 29.99475835975081 -19.693635756443417" fill="#76ff27" stroke="none" /><path d="M 82.44556493220864 111.52570212397912 l -29.638069009830446 19.459444500381817 a56.45539613225203,56.45539613225203 0 0,0 -0.5263662856579664,-0.8169321644033144 l 29.96864015886546 -18.946390736057054" fill="#7bff26" stroke="none" /><path d="M 82.24976979558568 111.22182372390057 l -35.91253909773783 22.704166570880723 a63.487523393636934,63.487523393636934 0 0,0 -0.5760294355426521,-0.9287428618599466 l 36.298033172948436 -22.082627377655513" fill="#30ff36" stroke="none" /><line stroke="#e1ed5e" stroke-width="0.3" x1="26.63291911575756" x2="22.317208475507996" y1="142.92168965132927" y2="145.44649492493687" /><path d="M 25.769776987707644 143.4266507060508 a86.0,86.0 0 0,1 -11.730757126820373,-40.83630448921669" fill="none" id="id57" stroke="none" /><text fill="#e1ed5e" style="font-size:6.75px; font-family:Arial;" text-anchor="middle"><textPath startOffset="21.46611528233685" xlink:href="#id57">September</textPath></text><path d="M 81.87401531095188 110.60418214915194 l -39.30419717151543 22.993998570723683 a66.5361821584529,66.5361821584529 0 0,0 -0.5698285497542651,-0.9935441074879727 l 39.69417771742207 -22.314034617377402" fill="#34ff5f" stroke="none" /><path d="M 81.69416730710424 110.29060199501025 l -33.04789285948986 18.577833518752346 a58.91172800998128,58.91172800998128 0 0,0 -0.48931405356745705,-0.8882471380994691 l 33.36278332250883 -18.006215862255054" fill="#5eff2a" stroke="none" /><path d="M 81.51974371655577 109.97397251340807 l -26.544472921166786 14.326307992590193 a51.16375545851528,51.16375545851528 0 0,0 -0.4116184835481643,-0.7786270483974637 l 26.787143912939836 -13.867265929106603" fill="#bdff1f" stroke="none" /><path d="M 81.18737489456691 109.33194174019688 l -37.30754301387129 18.506285854534454 a62.64535246412976,62.64535246412976 0 0,0 -0.4708745178421892,-0.9701409751801123 l 37.6205707883282 -17.861355923389056" fill="#33ff2f" stroke="none" /><path d="M 80.87730276802145 108.67885076344099 l -12.922007999418707 5.864663213064018 a35.190580162195886,35.190580162195886 0 0,0 -0.24559491696420807,-0.5537517025897508 l 13.021044001114195 -5.6413631739815715" fill="#ff5c08" stroke="none" /><path d="M 80.73074385275274 108.34839909993369 l -39.168742844894645 16.969845385472553 a63.686837180286965,63.686837180286965 0 0,0 -0.4271537394194641,-1.0096652608128167 l 39.45504756550641 -16.293105598993577" fill="#30ff39" stroke="none" /><path d="M 80.45479744820244 107.68017299344265 l -43.28301739681113 17.007808458609436 a67.50467872738615,67.50467872738615 0 0,0 -0.4156543387453994,-1.0851423174697439 l 43.56936601515004 -16.260242574306535" fill="#36ff6c" stroke="none" /><path d="M 80.32549172779594 107.34259656027581 l -39.816288307579164 14.859580606810734 a63.49875233936369,63.49875233936369 0 0,0 -0.37335977954043653,-1.0273257616505613 l 40.06617234812482 -14.172007048154056" fill="#30ff36" stroke="none" /><path d="M 80.20201598880116 107.00284435728193 l -35.937549000276576 12.711650948337667 a59.11946350592639,59.11946350592639 0 0,0 -0.33109480847686346,-0.9623164954781799 l 36.15103463969667 -12.09116174977019" fill="#5bff2a" stroke="none" /><path d="M 80.0844068197444 106.66101706037122 l -19.35207826761581 6.472542511162789 a41.40580162195883,41.40580162195883 0 0,0 -0.22025470924079782,-0.6778742926157285 l 19.460625227872857 -6.138469318569258" fill="#ffba11" stroke="none" /><path d="M 79.86692584326677 105.97154293290107 l -27.139549032594847 8.049688833710158 a49.30817217716781,49.30817217716781 0 0,0 -0.23434850690328993,-0.8157978961661536 l 27.27409017638424 -7.581333462039408" fill="#d6ff1c" stroke="none" /><path d="M 79.67330655649465 105.27499134158121 l -37.16084032618026 9.643630013474464 a59.39176543980037,59.39176543980037 0 0,0 -0.24828214426934475,-0.9917637480370528 l 37.32133378474466 -9.002538426040019" fill="#58ff2a" stroke="none" /><path d="M 79.58551787078972 104.9243191809786 l -53.206642644133275 12.834344230220992 a75.73268870867125,75.73268870867125 0 0,0 -0.2947784340763916,-1.2698977789327084 l 53.419681644140226 -11.916577793939709" fill="#41ffd1" stroke="none" /><path d="M 79.50377843672027 104.57218783832718 l -27.535918373268157 6.142565873164798 a49.21272613849033,49.21272613849033 0 0,0 -0.17732039191712914,-0.8283818380387271 l 27.637572803909727 -5.667670215709907" fill="#d7ff1c" stroke="none" /><path d="M 79.4281124754447 104.21870165774334 l -45.76287055023499 9.384646772102345 a67.71522145976294,67.71522145976294 0 0,0 -0.2243310712153951,-1.1438592991144927 l 45.91763155442606 -8.595523745919897" fill="#36ff6e" stroke="none" /><path d="M 79.29508885075956 103.50808413554451 l -43.39063703145562 7.351782594189191 a65.00904553961323,65.00904553961323 0 0,0 -0.1774383067132184,-1.1049085052813192 l 43.51075709253013 -6.603794859214658" fill="#32ff4b" stroke="none" /><path d="M 79.23777060512086 103.15116336523772 l -35.95875287942976 5.457598149900179 a57.370555208983156,57.370555208983156 0 0,0 -0.13978185242724867,-0.977633950311097 l 36.047368782873605 -4.837818727608681" fill="#70ff27" stroke="none" /><path d="M 79.1416061653843 102.43462659150553 l -42.32649742573741 4.940419524871309 a63.613849033063005,63.613849033063005 0 0,0 -0.11758777200585914,-1.0887167295975735 l 42.40526749924432 -4.211106473388954" fill="#30ff38" stroke="none" /><path d="M 79.07016306316243 101.71520430193888 l -37.48289262670166 3.071730509723979 a58.6085464753587,58.6085464753587 0 0,0 -0.07374473759810553,-1.0061883540592813 l 37.53021392296411 -2.4260690191679375" fill="#61ff29" stroke="none" /><path d="M 79.04373962182676 101.35467743843564 l -42.61193431232418 2.7545671307429647 a63.700873362445414,63.700873362445414 0 0,0 -0.06131557630029784,-1.0948308043162411 l 42.65303623951201 -2.020664610091286" fill="#30ff39" stroke="none" /><path d="M 79.0235259727143 100.99374915477108 l -47.016202657806716 2.227367268253277 a68.06893325015596,68.06893325015596 0 0,0 -0.045372375456959976,-1.1708594029258015 l 47.04757716611488 -1.4177306183134788" fill="#36ff73" stroke="none" /><path d="M 79.0095281055655 100.63252640178507 l -61.73679208020871 1.860375085831285 a82.76481597005615,82.76481597005615 0 0,0 -0.0306542643096186,-1.4243832088492419 l 61.759668407203336 -0.7974020611919143" fill="#4bdfff" stroke="none" /><line stroke="#e1ed5e" stroke-width="0.3" x1="15.007084014347285" x2="10.007500721073583" y1="101.09737516637583" y2="101.16192664675087" /><path d="M 14.007167355692545 101.11028546245083 a86.0,86.0 0 0,1 10.666146001902534,-42.60595125391555" fill="none" id="id58" stroke="none" /><text fill="#e1ed5e" style="font-size:6.75px; font-family:Arial;" text-anchor="middle"><textPath startOffset="22.20632615414155" xlink:href="#id58">October</textPath></text><path d="M 79.00175016825051 100.2711162175752 l -28.109322762918566 0.36292992640559174 a49.111665626949474,49.111665626949474 0 0,0 -0.003638245301565095,-0.8454000777986945 l 28.111405305509635 0.12097962959677813" fill="#d8ff1c" stroke="none" /><path d="M 79.00486145842228 99.54816195383935 l -34.25438898938899 -0.7371914294702849 a55.26232064878353,55.26232064878353 0 0,0 0.028653001538765238,-0.9508536272846495 l 34.236624293394584 1.3267152041799288" fill="#8aff24" stroke="none" /><path d="M 79.01574976396665 99.18683210126434 l -42.508955718320486 -1.6472791646163576 a63.54086088583905,63.54086088583905 0 0,0 0.05175975521399595,-1.092566625785188 l 42.47430235487299 2.3787568970245547" fill="#30ff37" stroke="none" /><path d="M 79.03285615573316 98.82574320788736 l -28.311530162767063 -1.5855763109967684 a49.35589519650655,49.35589519650655 0 0,0 0.054807157449078825,-0.8478424675151455 l 28.280042414313574 2.0726778427649255" fill="#d5ff1c" stroke="none" /><path d="M 79.08570108090925 98.10471618934814 l -42.32251898723768 -3.835327465330333 a63.495945102932005,63.495945102932005 0 0,0 0.10801226983810226,-1.087668816884421 l 42.25022959171734 4.563271812919184" fill="#30ff36" stroke="none" /><path d="M 79.12142395522702 97.74499172005258 l -58.14500152492056 -6.280000110882901 a79.48315658140986,79.48315658140986 0 0,0 0.15862433497558837,-1.3589964318219374 l 58.02828683694138 7.279940281029701" fill="#47fffc" stroke="none" /><path d="M 79.16333360222342 97.38593545837743 l -25.608989064409307 -3.2127764097243348 a46.809731752963195,46.809731752963195 0 0,0 0.10718091360533459,-0.7986222999981053 l 25.54989215174614 3.6531170517870994" fill="#f7ff18" stroke="none" /><path d="M 79.21141760316559 97.0276538004421 l -35.943257025308306 -5.139157705874956 a57.30879600748597,57.30879600748597 0 0,0 0.14803163988073145,-0.9753435505150484 l 35.84946949198827 5.757100368782097" fill="#71ff27" stroke="none" /><path d="M 79.3925641242962 95.95851677861259 l -42.381971430492335 -8.311855364189285 a64.18933250155958,64.18933250155958 0 0,0 0.22197497719094186,-1.0824288215916176 l 42.23261715738639 9.040159841944305" fill="#31ff3f" stroke="none" /><path d="M 79.46518482838121 95.60439243477599 l -41.450277483037674 -8.872695067491648 a63.38927011852776,63.38927011852776 0 0,0 0.2375757791510547,-1.0650056340052876 l 41.29140731688458 9.584878871046895" fill="#30ff35" stroke="none" /><path d="M 79.62865764111835 94.90015583598534 l -58.40989068563218 -14.622568060861367 a81.21241422333125,81.21241422333125 0 0,0 0.35116119567364296,-1.353167334597614 l 58.149533158088225 15.625831821007845" fill="#49efff" stroke="none" /><path d="M 79.71946130924805 94.55025226153421 l -41.46566784712385 -11.142575304317916 a63.93668122270742,63.93668122270742 0 0,0 0.29475793278282986,-1.0604011127035875 l 41.26772314377466 11.854687720440445" fill="#31ff3c" stroke="none" /><path d="M 79.81627453868168 94.20196356495316 l -35.086333557479286 -10.079003538189445 a57.505302557704304,57.505302557704304 0 0,0 0.28148599941614655,-0.949030855845209 l 34.907641660951434 10.681463780781193" fill="#6eff28" stroke="none" /><path d="M 79.91906864156998 93.8553929516997 l -60.24279407529007 -18.433821144900918 a84.0,84.0 0 0,0 0.4349780649271846,-1.378999334294342 l 59.91656052659468 19.468070645621676" fill="#4dd2ff" stroke="none" /><path d="M 80.02781315780177 93.51064311812611 l -25.213973692770704 -8.192516673079542 a47.51154086088584,47.51154086088584 0 0,0 0.2594191358181993,-0.7756301966055617 l 25.069217263180732 8.625319972607427" fill="#eeff19" stroke="none" /><path d="M 80.14247586403 93.16781622104843 l -40.181357657006224 -13.82480605944077 a63.49313786650031,63.49313786650031 0 0,0 0.36447153140593497,-1.030410099548844 l 39.937433044790474 14.514413785416224" fill="#30ff36" stroke="none" /><path d="M 80.38941819471856 92.48833698450439 l -39.54797751285212 -15.148509257432522 a63.34996880848409,63.34996880848409 0 0,0 0.3988225948226322,-1.0149600021636582 l 39.28136136814779 15.827018264491944" fill="#30ff34" stroke="none" /><path d="M 80.52162464483688 92.15188598940014 l -42.92932552543103 -17.296834822131686 a67.28290704928258,67.28290704928258 0 0,0 0.44207533409774435,-1.0705204866186417 l 42.62522850444709 18.03322987920364" fill="#35ff69" stroke="none" /><path d="M 80.65960295795068 91.81776055985345 l -35.12761446533163 -14.861253980029106 a59.14192139737991,59.14192139737991 0 0,0 0.40472588297892564,-0.9341631389668107 l 34.86659787251003 15.463716263582516" fill="#5bff2a" stroke="none" /><path d="M 80.95270993114464 91.15688171328213 l -33.02933518935813 -15.33458654513469 a57.4154709918902,57.4154709918902 0 0,0 0.4238951582861514,-0.892831310093941 l 32.76048183723022 15.900860270869162" fill="#6fff27" stroke="none" /><path d="M 81.10775173730289 90.83032412892265 l -49.30285835050694 -23.929985690715544 a75.80343106674985,75.80343106674985 0 0,0 0.5798601040309316,-1.1689625861831845 l 48.883638233522596 24.77510786539769" fill="#41ffd2" stroke="none" /><line stroke="#e1ed5e" stroke-width="0.3" x1="26.266209847984243" x2="21.928928074336255" y1="57.711370442889674" y2="55.22380399835377" /><path d="M 25.398753493254645 57.213857153982495 a86.0,86.0 0 0,1 29.58750427330803,-30.492523968695096" fill="none" id="id59" stroke="none" /><text fill="#e1ed5e" style="font-size:6.75px; font-family:Arial;" text-anchor="middle"><textPath startOffset="21.46611528233685" xlink:href="#id59">November</textPath></text><line stroke="#e1ed5e" stroke-width="0.3" x1="56.762969772571076" x2="54.21961505331055" y1="26.818313649435495" y2="22.513508569990535" /><path d="M 56.25429882871897 25.957352633546506 a86.0,86.0 0 0,1 42.265352541879196,-11.944610805530505" fill="none" id="id60" stroke="none" /><text fill="#e1ed5e" style="font-size:6.75px; font-family:Arial;" text-anchor="middle"><textPath startOffset="22.20632615414155" xlink:href="#id60">December</textPath></text></svg>