<?xml version="1.0" encoding="utf-8" ?>
<svg baseProfile="full" height="200mm" version="1.1" viewBox="0,0,200,200" width="200mm" xmlns="http://www.w3.org/2000/svg" xmlns:ev="http://www.w3.org/2001/xml-events" xmlns:xlink="http://www.w3.org/1999/xlink"><defs /><rect fill="#1a1a1a" height="200" width="200" x="0" y="0" /><rect fill="#1a1a1a" height="200" width="180" x="10" y="0" /><text alignment-baseline="middle" fill="#e1ed5e" style="dominant-baseline: central; font-size:9.0px; font-family:Arial;" text-anchor="middle" x="100.0" y="100.0">2026</text><line stroke="#e1ed5e" stroke-width="0.3" x1="100.0" x2="100.0" y1="15.0" y2="10.0" /><path d="M 100.0 14.0 a86.0,86.0 0 0,1 42.46469731375804,11.215312516191453" fill="none" id="id61" stroke="none" /><text fill="#e1ed5e" style="font-size:6.75px; font-family:Arial;" text-anchor="middle"><textPath startOffset="22.20632615414155" xlink:href="#id61">January</textPath></text><path d="M 100.36148047927253 79.00311137660856 l 1.084441437817585 -62.990665870174325 a84.0,84.0 0 0,0 1.4454934592205289,0.03733283143056143 l -2.1685615322329816 62.9626662466014" fill="#4dd2ff" stroke="none" /><path d="M 100.72285384407766 79.0124445844662 l 1.3027729943929105 -37.82510204198983 a58.847530460544746,58.847530460544746 0 0,0 1.012063100813038,0.04358156605229384 l -1.95367692759528 37.79707274941334" fill="#bbff1f" stroke="none" /><path d="M 101.44485096284872 79.0497635885617 l 3.1886292938402234 -46.23489844425206 a67.34472128434734,67.34472128434734 0 0,0 1.1557951545494065,0.08971194861526427 l -3.9840146377519714 46.17316123344833" fill="#36ff2e" stroke="none" /><path d="M 102.16513564639614 79.11191278185805 l 3.9033004061762777 -37.656984428910846 a58.858740474824174,58.858740474824174 0 0,0 1.0068580651446022,0.11313223519941112 l -4.550925174830605 37.584216240240835" fill="#bbff1f" stroke="none" /><path d="M 102.52436894288641 79.15227682838746 l 4.993724814312528 -41.24111604897231 a62.542351167042554,62.542351167042554 0 0,0 1.0676434160892798,0.13861075697959868 l -5.702882958909654 41.14904696882857" fill="#7fff26" stroke="none" /><path d="M 102.88285421437855 79.19881850522331 l 4.951862752606906 -35.73007450062985 a57.071583948327174,57.071583948327174 0 0,0 0.9719318455234195,0.14323748913081658 l -5.566163578558982 35.63954252733806" fill="#daff1c" stroke="none" /><path d="M 103.59715602781102 79.31037775812273 l 8.113847156481762 -46.66809871410911 a68.36819558805865,68.36819558805865 0 0,0 1.1577173291668945,0.21156544196231206 l -8.915959606751557 46.52151779079606" fill="#30ff39" stroke="none" /><path d="M 103.95276090670814 79.375362276772 l 5.524834366221502 -28.827371544476875 a50.35202113888407,50.35202113888407 0 0,0 0.8498308401353278,0.17046807173768747 l -6.020231615823955 28.72799951666198" fill="#ffaa0f" stroke="none" /><path d="M 104.307194497241 79.44645832069477 l 7.713093040539965 -36.806180771879546 a58.6056744024662,58.6056744024662 0 0,0 0.985572396243823,0.21540795232660706 l -8.345508160937316 36.66795932145707" fill="#bfff1e" stroke="none" /><path d="M 104.66035177308747 79.52364482259891 l 9.361191568865621 -41.13060403609732 a63.18244298239761,63.18244298239761 0 0,0 1.058385087668972,0.250485555200528 l -10.067800343497115 40.96337256875592" fill="#75ff27" stroke="none" /><path d="M 105.36241919743992 79.69619591428918 l 7.4869055881409405 -28.347777126860883 a50.31979234783073,50.31979234783073 0 0,0 0.8355532288339589,0.22838826064639745 l -7.9737567061986105 28.214702325388192" fill="#ffa90f" stroke="none" /><path d="M 106.0581310904928 79.89281104454417 l 15.837744468181786 -52.5661323423182 a75.90020418240294,75.90020418240294 0 0,0 1.2477076522861246,0.3876688410949375 l -16.74023749317863 52.28572336634074" fill="#3effb7" stroke="none" /><path d="M 106.40334571778207 80.00007090966166 l 8.667456921025446 -27.07155469252315 a49.42523320833277,49.42523320833277 0 0,0 0.8080253130997692,0.2663932416414242 l -9.132165056367631 26.91834772662249" fill="#ff980e" stroke="none" /><path d="M 106.74666289553966 80.11325718540242 l 12.032582743059937 -35.46773895651382 a58.45321820826605,58.45321820826605 0 0,0 0.9500540616617872,0.33145520731329087 l -12.641318808784998 35.25536289602832" fill="#c2ff1e" stroke="none" /><path d="M 107.4271985657038 80.35727306442388 l 12.642879450306044 -33.43664862664614 a56.747054034937875,56.747054034937875 0 0,0 0.9107005974498875,0.35333768322788156 l -13.216563212755599 33.21406823952771" fill="#dfff1b" stroke="none" /><path d="M 108.09893153111575 80.62456947434976 l 16.224127062899573 -38.81369357659284 a63.06810083674749,63.06810083674749 0 0,0 0.9980263939699715,0.4273028170258447 l -16.88983721465986 38.52867123160421" fill="#77ff27" stroke="none" /><path d="M 108.43124777332544 80.76684994638697 l 21.91721609659377 -49.99700130707808 a75.5899670372199,75.5899670372199 0 0,0 1.1871867996848469,0.5326561113540047 l -22.774585014745394 49.61232486520754" fill="#3effb2" stroke="none" /><path d="M 109.08828744355905 81.06846463323043 l 16.236734371293526 -33.82224790973503 a58.517675790372735,58.517675790372735 0 0,0 0.904317484844952,0.4437446624057012 l -16.81652312314891 33.5377480871945" fill="#c1ff1e" stroke="none" /><path d="M 109.41281617654863 81.2277094730956 l 19.03415563193395 -37.96044592342113 a63.46521559259605,63.46521559259605 0 0,0 0.9723460723731601,0.49807342439587954 l -19.684762191895867 37.62717997371275" fill="#71ff27" stroke="none" /><path d="M 109.73455568895987 81.39251694778311 l 17.55072850443448 -33.548000919107075 a58.86154297839403,58.86154297839403 0 0,0 0.8937283117927448,0.47739871238818116 l -18.125601862755538 33.240923480217134" fill="#bbff1f" stroke="none" /><path d="M 110.36928655335952 81.73862282372117 l 17.88723725426454 -31.501259460891433 a57.22544139431225,57.22544139431225 0 0,0 0.8523954787740348,0.4937624796270832 l -18.426829465503907 31.1886928238743" fill="#d7ff1c" stroke="none" /><line stroke="#e1ed5e" stroke-width="0.3" x1="143.23703022742887" x2="145.7803849466894" y1="26.81831364943548" y2="22.513508569990506" /><path d="M 143.74570117128098 25.957352633546492 a86.0,86.0 0 0,1 28.547481713284135,27.462654790039103" fill="none" id="id62" stroke="none" /><text fill="#e1ed5e" style="font-size:6.75px; font-family:Arial;" text-anchor="middle"><textPath startOffset="19.985693538727396" xlink:href="#id62">February</textPath></text><path d="M 110.68208982089419 81.91981866633111 l 21.676233004364786 -36.68853472690299 a63.61346803144142,63.61346803144142 0 0,0 0.9379591810469472,0.5651099116838775 l -22.30455425162937 36.309978205760494" fill="#6eff28" stroke="none" /><path d="M 110.99172775467656 82.1063720568725 l 22.146425222769704 -36.05255716399397 a63.31135814661097,63.31135814661097 0 0,0 0.9236851225438993,0.5784115389979538 l -22.763729497685866 35.66600128367307" fill="#73ff27" stroke="none" /><path d="M 111.2981086023043 82.29822771554956 l 19.426299608157816 -30.436946934904025 a57.108016494735296,57.108016494735296 0 0,0 0.8240767661885726,0.536002451915607 l -19.947343400130666 30.098045558828893" fill="#d9ff1c" stroke="none" /><path d="M 111.90073688211348 82.69761687909136 l 26.103546030201006 -37.951730107371446 a67.06222892450589,67.06222892450589 0 0,0 0.9454779854599419,0.662367750332254 l -26.7529551552446 37.49677751427525" fill="#3bff2e" stroke="none" /><path d="M 112.48926042617603 83.11751280151076 l 22.495769283506316 -30.408889236786113 a58.82539068234289,58.82539068234289 0 0,0 0.8088598960091568,0.6092165042498515 l -23.015875333273858 30.017156143030412" fill="#bcff1f" stroke="none" /><path d="M 112.77801427241765 83.33499621200491 l 25.58382426002625 -33.36625856844269 a63.04568080818864,63.04568080818864 0 0,0 0.8555222175306505,0.6677486608512279 l -26.15437903271633 32.920931518368235" fill="#77ff27" stroke="none" /><path d="M 113.34407831869373 83.78471172551755 l 35.9712956906108 -43.711144022047456 a77.60917085930097,77.60917085930097 0 0,0 1.0242284174527316,0.8577618443842417 l -36.71838164502265 43.0854810202694" fill="#41ffd1" stroke="none" /><path d="M 113.6212207817346 84.01681056812373 l 13.653395605622178 -16.020943485890417 a42.04960431318645,42.04960431318645 0 0,0 0.54685750963719,0.47422944353398727 l -13.927146913906132 15.78354904893676" fill="#ff0000" stroke="none" /><path d="M 114.16331599549186 84.49514656593476 l 23.99634267310349 -26.269256169847548 a56.579464321460506,56.579464321460506 0 0,0 0.7134188614968329,0.6630450805649968 l -24.44496941839517 25.85230650320791" fill="#e2ff1b" stroke="none" /><path d="M 114.42810811169701 84.74124197986012 l 28.891452284734683 -30.55478069961123 a63.051285815328356,63.051285815328356 0 0,0 0.7821864984131279,0.7524627917478786 l -29.41312202676023 30.05293482110105" fill="#77ff27" stroke="none" /><path d="M 114.68862486808459 84.99185889309783 l 22.52505416294023 -23.01503335772129 a53.20356852121228,53.20356852121228 0 0,0 0.6489928361180654,0.6462058546305302 l -22.917882799225616 22.62389165244064" fill="#ffdf14" stroke="none" /><path d="M 115.4437574822437 85.77008943001954 l 41.66638505595393 -38.39149467364313 a77.65681341998851,77.65681341998851 0 0,0 0.897329505993057,0.9908536526387905 l -42.32105820256302 37.66858823373479" fill="#41ffd2" stroke="none" /><path d="M 115.68641384162765 86.03803664274999 l 28.057941542540625 -24.97345509636044 a58.56223559713344,58.56223559713344 0 0,0 0.6637280266280348,0.7587558714265706 l -28.48366143274651 24.486783668730922" fill="#c0ff1e" stroke="none" /><path d="M 115.9244219780498 86.31012108654704 l 34.92075512598085 -30.020612986768235 a67.05101891022646,67.05101891022646 0 0,0 0.7448710031728778,0.8816923233480273 l -35.432336742640835 29.4150617137911" fill="#3bff2e" stroke="none" /><path d="M 116.15771136456269 86.58626213691792 l 29.01500862391144 -24.08755243826249 a58.710488035978805,58.710488035978805 0 0,0 0.6388302403405293,0.7831303385196124 l -29.425337356328377 23.58453793013478" fill="#bdff1f" stroke="none" /><path d="M 116.38621287248628 86.86637796730983 l 24.848840178911317 -19.916455217576363 a52.84540856498472,52.84540856498472 0 0,0 0.5627933326144579,0.7146903798626149 l -25.18798759211974 19.485772443760712" fill="#ffd914" stroke="none" /><path d="M 116.60985879189232 87.15038557335679 l 29.81586358610273 -23.065960745302842 a58.696475518129525,58.696475518129525 0 0,0 0.6113491152314867,0.8044637741068512 l -30.20848864155833 22.549312195314958" fill="#beff1f" stroke="none" /><line stroke="#e1ed5e" stroke-width="0.3" x1="172.23445277983987" x2="176.4835382374775" y1="55.19839476539836" y2="52.563006222186495" /><path d="M 173.08426987136738 54.67131705675599 a86.0,86.0 0 0,1 12.851231095245387,41.99856678651699" fill="none" id="id63" stroke="none" /><text fill="#e1ed5e" style="font-size:6.75px; font-family:Arial;" text-anchor="middle"><textPath startOffset="22.20632615414155" xlink:href="#id63">March</textPath></text><line stroke="#e1ed5e" stroke-width="0.3" x1="184.98032266829074" x2="189.97916517819016" y1="98.17113171792111" y2="98.06355123074" /><path d="M 185.9800911702706 98.14961562048488 a86.0,86.0 0 0,1 -9.607161424134198,41.387399972396054" fill="none" id="id64" stroke="none" /><text fill="#e1ed5e" style="font-size:6.75px; font-family:Arial;" text-anchor="middle"><textPath startOffset="21.466115282336823" xlink:href="#id64">April</textPath></text><line stroke="#e1ed5e" stroke-width="0.3" x1="174.80103733775053" x2="179.2010983576182" y1="140.37084112569926" y2="142.7455964860345" /><path d="M 175.68104954172406 140.8457921977663 a86.0,86.0 0 0,1 -30.038265399797805,32.042727171017184" fill="none" id="id65" stroke="none" /><text fill="#e1ed5e" style="font-size:6.75px; font-family:Arial;" text-anchor="middle"><textPath startOffset="22.206326154141568" xlink:href="#id65">May</textPath></text><line stroke="#e1ed5e" stroke-width="0.3" x1="143.8653032363475" x2="146.44561519142675" y1="172.8068346515853" y2="177.08958963109032" /><path d="M 144.38136562736335 173.6633856474863 a86.0,86.0 0 0,1 -40.68145358897372,12.25698825130547" fill="none" id="id66" stroke="none" /><text fill="#e1ed5e" style="font-size:6.75px; font-family:Arial;" text-anchor="middle"><textPath startOffset="21.466115282336833" xlink:href="#id66">June</textPath></text><line stroke="#e1ed5e" stroke-width="0.3" x1="102.19456741930631" x2="102.32365962044197" y1="184.97166512339345" y2="189.96999836594603" /><path d="M 102.22038585953345 185.97133177190398 a86.0,86.0 0 0,1 -42.740103519485714,-10.115201625700543" fill="none" id="id67" stroke="none" /><text fill="#e1ed5e" style="font-size:6.75px; font-family:Arial;" text-anchor="middle"><textPath startOffset="22.20632615414155" xlink:href="#id67">July</textPath></text><line stroke="#e1ed5e" stroke-width="0.3" x1="58.666819895761336" x2="56.23545636021788" y1="174.27360380694188" y2="178.64263932499728" /><path d="M 58.180547188652646 175.14741091055294 a86.0,86.0 0 0,1 -31.652253787137756,-30.449443065178592" fill="none" id="id68" stroke="none" /><text fill="#e1ed5e" style="font-size:6.75px; font-family:Arial;" text-anchor="middle"><textPath startOffset="22.20632615414155" xlink:href="#id68">August</textPath></text><line stroke="#e1ed5e" stroke-width="0.3" x1="26.63291911575756" x2="22.317208475507996" y1="142.92168965132927" y2="145.44649492493687" /><path d="M 25.769776987707644 143.4266507060508 a86.0,86.0 0 0,1 -11.730757126820373,-40.83630448921669" fill="none" id="id69" stroke="none" /><text fill="#e1ed5e" style="font-size:6.75px; font-family:Arial;" text-anchor="middle"><textPath startOffset="21.46611528233685" xlink:href="#id69">September</textPath></text><line stroke="#e1ed5e" stroke-width="0.3" x1="15.007084014347285" x2="10.007500721073583" y1="101.09737516637583" y2="101.16192664675087" /><path d="M 14.007167355692545 101.11028546245083 a86.0,86.0 0 0,1 10.666146001902534,-42.60595125391555" fill="none" id="id70" stroke="none" /><text fill="#e1ed5e" style="font-size:6.75px; font-family:Arial;" text-anchor="middle"><textPath startOffset="22.20632615414155" xlink:href="#id70">October</textPath></text><line stroke="#e1ed5e" stroke-width="0.3" x1="26.266209847984243" x2="21.928928074336255" y1="57.711370442889674" y2="55.22380399835377" /><path d="M 25.398753493254645 57.213857153982495 a86.0,86.0 0 0,1 29.58750427330803,-30.492523968695096" fill="none" id="id71" stroke="none" /><text fill="#e1ed5e" style="font-size:6.75px; font-family:Arial;" text-anchor="middle"><textPath startOffset="21.46611528233685" xlink:href="#id71">November</textPath></text><line stroke="#e1ed5e" stroke-width="0.3" x1="56.762969772571076" x2="54.21961505331055" y1="26.818313649435495" y2="22.513508569990535" /><path d="M 56.25429882871897 25.957352633546506 a86.0,86.0 0 0,1 42.265352541879196,-11.944610805530505" fill="none" id="id72" stroke="none" /><text fill="#e1ed5e" style="font-size:6.75px; font-family:Arial;" text-anchor="middle"><textPath startOffset="22.20632615414155" xlink:href="#id72">December</textPath></text></svg>