<?xml version="1.0" encoding="utf-8" ?>
<svg baseProfile="full" height="200mm" version="1.1" viewBox="0,0,200,200" width="200mm" xmlns="http://www.w3.org/2000/svg" xmlns:ev="http://www.w3.org/2001/xml-events" xmlns:xlink="http://www.w3.org/1999/xlink"><defs /><rect fill="#1a1a1a" height="200" width="200" x="0" y="0" /><rect fill="#1a1a1a" height="200" width="180" x="10" y="0" /><text alignment-baseline="middle" fill="#e1ed5e" style="dominant-baseline: central; font-size:9.0px; font-family:Arial;" text-anchor="middle" x="100.0" y="100.0">2021</text><line stroke="#e1ed5e" stroke-width="0.3" x1="100.0" x2="100.0" y1="15.0" y2="10.0" /><path d="M 100.0 14.0 a86.0,86.0 0 0,1 42.46469731375804,11.215312516191453" fill="none" id="id1" stroke="none" /><text fill="#e1ed5e" style="font-size:6.75px; font-family:Arial;" text-anchor="middle"><textPath startOffset="22.20632615414155" xlink:href="#id1">January</textPath></text><line stroke="#e1ed5e" stroke-width="0.3" x1="143.23703022742887" x2="145.7803849466894" y1="26.81831364943548" y2="22.513508569990506" /><path d="M 143.74570117128098 25.957352633546492 a86.0,86.0 0 0,1 28.547481713284135,27.462654790039103" fill="none" id="id2" stroke="none" /><text fill="#e1ed5e" style="font-size:6.75px; font-family:Arial;" text-anchor="middle"><textPath startOffset="19.985693538727396" xlink:href="#id2">February</textPath></text><line stroke="#e1ed5e" stroke-width="0.3" x1="172.23445277983987" x2="176.4835382374775" y1="55.19839476539836" y2="52.563006222186495" /><path d="M 173.08426987136738 54.67131705675599 a86.0,86.0 0 0,1 12.851231095245387,41.99856678651699" fill="none" id="id3" stroke="none" /><text fill="#e1ed5e" style="font-size:6.75px; font-family:Arial;" text-anchor="middle"><textPath startOffset="22.20632615414155" xlink:href="#id3">March</textPath></text><path d="M 120.45610955862082 95.25157060432595 l 38.28970844028062 -8.888101453924538 a60.30776157321799,60.30776157321799 0 0,0 0.22602663538833734,1.0132330870765296 l -38.437029462671 8.227690197298044" fill="red" stroke="none" /><path d="M 120.98425023603335 99.18683210126433 l 29.202358945474085 -1.1316306560736422 a50.22427682462093,50.22427682462093 0 0,0 0.026040822467177965,0.8641681209869674 l -29.21751146239691 0.6287923876616758" fill="red" stroke="none" /><line stroke="#e1ed5e" stroke-width="0.3" x1="184.98032266829074" x2="189.97916517819016" y1="98.17113171792111" y2="98.06355123074" /><path d="M 185.9800911702706 98.14961562048488 a86.0,86.0 0 0,1 -9.607161424134198,41.387399972396054" fill="none" id="id4" stroke="none" /><text fill="#e1ed5e" style="font-size:6.75px; font-family:Arial;" text-anchor="middle"><textPath startOffset="21.466115282336823" xlink:href="#id4">April</textPath></text><path d="M 120.9904718944345 100.63252640178507 l 39.80632671540434 1.1995229422284484 a60.82439581289898,60.82439581289898 0 0,0 -0.04054341961879965,1.0462455097259582 l -39.779781162934334 -1.8845456989684128" fill="red" stroke="none" /><path d="M 120.89721153311464 102.0752229133903 l 46.70396235182269 4.637993574646782 a67.93368815423455,67.93368815423455 0 0,0 -0.12557282974726855,1.1626484471696892 l -46.61720722057437 -5.441238343701262" fill="red" stroke="none" /><path d="M 120.41448212921028 104.9243191809786 l 48.12048379559071 11.607476489131194 a70.50065121962984,70.50065121962984 0 0,0 -0.29472188151969614,1.177267413670391 l -47.91355059977595 -12.43407174219898" fill="red" stroke="none" /><path d="M 120.23288151984713 105.62410040840565 l 47.11364940551175 13.096102727784949 a69.89993728996157,69.89993728996157 0 0,0 -0.33221563917800356,1.1564862225759835 l -46.88124112944765 -13.905146425865516" fill="red" stroke="none" /><path d="M 119.41010516605496 108.01547362559984 l 30.071602689369218 12.41817786014326 a53.53478799183161,53.53478799183161 0 0,0 -0.3590629695584402,0.8487187945496149 l -29.85338873861847 -12.933971180359038" fill="red" stroke="none" /><line stroke="#e1ed5e" stroke-width="0.3" x1="174.80103733775053" x2="179.2010983576182" y1="140.37084112569926" y2="142.7455964860345" /><path d="M 175.68104954172406 140.8457921977663 a86.0,86.0 0 0,1 -30.038265399797805,32.042727171017184" fill="none" id="id5" stroke="none" /><text fill="#e1ed5e" style="font-size:6.75px; font-family:Arial;" text-anchor="middle"><textPath startOffset="22.206326154141568" xlink:href="#id5">May</textPath></text><path d="M 114.29624159901734 115.38237550388516 l 25.91143504364997 27.880014542657797 a59.06176134810503,59.06176134810503 0 0,0 -0.7506481291947521,0.6856992683240465 l -25.427687364988355 -28.321906577568427" fill="red" stroke="none" /><path d="M 113.20401910651253 116.32954008644616 l 32.03435884338285 39.61720614434836 a71.94824009904968,71.94824009904968 0 0,0 -0.9697338224861448,0.7704151973948928 l -31.347667528179354 -40.16275525574838" fill="red" stroke="none" /><line stroke="#e1ed5e" stroke-width="0.3" x1="143.8653032363475" x2="146.44561519142675" y1="172.8068346515853" y2="177.08958963109032" /><path d="M 144.38136562736335 173.6633856474863 a86.0,86.0 0 0,1 -40.68145358897372,12.25698825130547" fill="none" id="id6" stroke="none" /><text fill="#e1ed5e" style="font-size:6.75px; font-family:Arial;" text-anchor="middle"><textPath startOffset="21.466115282336833" xlink:href="#id6">June</textPath></text><path d="M 108.92500713936063 119.00905698771935 l 21.044251530218883 44.82140690259306 a70.51584634432635,70.51584634432635 0 0,0 -1.1031767776027726,0.5064143511933386 l -20.269606756848688 -45.17700832412047" fill="red" stroke="none" /><path d="M 101.62511606390274 120.93702456842531 l 3.347073795133914 43.12169932820605 a64.25140293611616,64.25140293611616 0 0,0 -1.1034023129029267,0.07609708372249645 l -2.6043087214520564 -43.17292475644483" fill="red" stroke="none" /><line stroke="#e1ed5e" stroke-width="0.3" x1="102.19456741930631" x2="102.32365962044197" y1="184.97166512339345" y2="189.96999836594603" /><path d="M 102.22038585953345 185.97133177190398 a86.0,86.0 0 0,1 -42.740103519485714,-10.115201625700543" fill="none" id="id7" stroke="none" /><text fill="#e1ed5e" style="font-size:6.75px; font-family:Arial;" text-anchor="middle"><textPath startOffset="22.20632615414155" xlink:href="#id7">July</textPath></text><path d="M 99.81925306533755 120.99922214144158 l -0.4366716435834475 50.732616094442214 a71.73449534498562,71.73449534498562 0 0,0 -1.2346542020421223,-0.02125569176915184 l 1.3098855355182377 -50.717582925393906" fill="red" stroke="none" /><path d="M 98.73552117531835 120.96189622390904 l -3.715360889365851 61.59139075884886 a82.70334935923205,82.70334935923205 0 0,0 -1.4202813136785282,-0.0979509148862918 l 4.775004963823309 -61.518311499446284" fill="red" stroke="none" /><path d="M 94.81253420990036 120.34920634021253 l -13.207681105011135 51.81062178656515 a74.46759177372932,74.46759177372932 0 0,0 -1.2393873821776629,-0.32733347224974557 l 14.097558930000288 -51.575596965011826" fill="red" stroke="none" /><path d="M 94.46302465271185 120.25689768951611 l -10.819497871136424 39.582885543257966 a62.03494074705343,62.03494074705343 0 0,0 -1.0276201130655698,-0.29041570857219773 l 11.499249152306607 -39.390781041347246" fill="red" stroke="none" /><line stroke="#e1ed5e" stroke-width="0.3" x1="58.666819895761336" x2="56.23545636021788" y1="174.27360380694188" y2="178.64263932499728" /><path d="M 58.180547188652646 175.14741091055294 a86.0,86.0 0 0,1 -31.652253787137756,-30.449443065178592" fill="none" id="id8" stroke="none" /><text fill="#e1ed5e" style="font-size:6.75px; font-family:Arial;" text-anchor="middle"><textPath startOffset="22.20632615414155" xlink:href="#id8">August</textPath></text><path d="M 89.7882731507175 118.34994917583269 l -14.785337816462867 26.568493408014906 a51.405444517695486,51.405444517695486 0 0,0 -0.7694935652905258,-0.43693852892039414 l 15.2404801486746 -26.310051713299877" fill="red" stroke="none" /><path d="M 85.70375840098266 115.38237550388516 l -34.40490732421294 37.01876468524352 a71.5379717322442,71.5379717322442 0 0,0 -0.8947838883058689,-0.8460740159875317 l 35.03702704690963 -36.42105603251006" fill="red" stroke="none" /><path d="M 85.44109423537348 115.13401014063109 l -42.904889982757794 44.599714468883015 a82.88670386390314,82.88670386390314 0 0,0 -1.0197039947929911,-0.9979949781464454 l 43.66624392992658 -43.854569387814" fill="red" stroke="none" /><path d="M 85.18274418774928 114.88116024355367 l -44.45176743675218 44.64348073066098 a84.0,84.0 0 0,0 -1.015837499777867,-1.0290380240773414 l 45.21364556158558 -43.871702212602976" fill="red" stroke="none" /><path d="M 84.43433777217949 114.09645910891817 l -28.644712980774926 25.94101165182032 a59.64525413645061,59.64525413645061 0 0,0 -0.6826289996272261,-0.7669409175815349 l 29.08700083005049 -25.444096564497922" fill="red" stroke="none" /><path d="M 83.50135304334701 112.99209946851258 l -34.26935919859084 26.985905244232278 a64.61912495377143,64.61912495377143 0 0,0 -0.6806338055765733,-0.8798109440680332 l 34.72879982138548 -26.392016306050994" fill="red" stroke="none" /><line stroke="#e1ed5e" stroke-width="0.3" x1="26.63291911575756" x2="22.317208475507996" y1="142.92168965132927" y2="145.44649492493687" /><path d="M 25.769776987707644 143.4266507060508 a86.0,86.0 0 0,1 -11.730757126820373,-40.83630448921669" fill="none" id="id9" stroke="none" /><text fill="#e1ed5e" style="font-size:6.75px; font-family:Arial;" text-anchor="middle"><textPath startOffset="21.46611528233685" xlink:href="#id9">September</textPath></text><path d="M 79.58551787078972 104.9243191809786 l -48.114575212703706 11.606051238769286 a70.49457316975125,70.49457316975125 0 0,0 -0.2743898340886923,-1.1820642238049373 l 48.30722561272295 -10.776118357615774" fill="red" stroke="none" /><path d="M 79.1416061653843 102.43462659150553 l -48.11641161414791 5.616227986318893 a69.4430705407535,69.4430705407535 0 0,0 -0.12836286548057882,-1.1884807129505401 l 48.20595678112954 -4.787150951483571" fill="red" stroke="none" /><line stroke="#e1ed5e" stroke-width="0.3" x1="15.007084014347285" x2="10.007500721073583" y1="101.09737516637583" y2="101.16192664675087" /><path d="M 14.007167355692545 101.11028546245083 a86.0,86.0 0 0,1 10.666146001902534,-42.60595125391555" fill="none" id="id10" stroke="none" /><text fill="#e1ed5e" style="font-size:6.75px; font-family:Arial;" text-anchor="middle"><textPath startOffset="22.20632615414155" xlink:href="#id10">October</textPath></text><path d="M 79.05617556472873 98.46500227214037 l -48.33975178503757 -3.5428777291681994 a69.46940875689407,69.46940875689407 0 0,0 0.09767238820484034,-1.1918505311863343 l 48.271604913013235 4.374442177562313" fill="red" stroke="none" /><path d="M 80.38941819471856 92.48833698450439 l -34.023292045895005 -13.032326478846553 a57.43385698895338,57.43385698895338 0 0,0 0.36157744519581675,-0.9201751588860847 l 33.793921050817495 13.616050642628402" fill="red" stroke="none" /><line stroke="#e1ed5e" stroke-width="0.3" x1="26.266209847984243" x2="21.928928074336255" y1="57.711370442889674" y2="55.22380399835377" /><path d="M 25.398753493254645 57.213857153982495 a86.0,86.0 0 0,1 29.58750427330803,-30.492523968695096" fill="none" id="id11" stroke="none" /><text fill="#e1ed5e" style="font-size:6.75px; font-family:Arial;" text-anchor="middle"><textPath startOffset="21.46611528233685" xlink:href="#id11">November</textPath></text><line stroke="#e1ed5e" stroke-width="0.3" x1="56.762969772571076" x2="54.21961505331055" y1="26.818313649435495" y2="22.513508569990535" /><path d="M 56.25429882871897 25.957352633546506 a86.0,86.0 0 0,1 42.265352541879196,-11.944610805530505" fill="none" id="id12" stroke="none" /><text fill="#e1ed5e" style="font-size:6.75px; font-family:Arial;" text-anchor="middle"><textPath startOffset="22.20632615414155" xlink:href="#id12">December</textPath></text><path d="M 97.83486435360386 79.11191278185805 l -3.994731144539872 -38.53905998871989 a59.74554195944751,59.74554195944751 0 0,0 1.0238533009324344,-0.09722720781474056 l 3.330752716517201 38.602112741049815" fill="red" stroke="none" /><path d="M 98.55514903715128 79.0497635885617 l -3.488356387125701 -50.58092002343522 a71.7010660706533,71.7010660706533 0 0,0 1.2320221798547315,-0.07431894239546485 l 2.6171721584313468 50.633472235210995" fill="red" stroke="none" /></svg>