<?xml version="1.0" encoding="utf-8" ?>
<svg baseProfile="full" height="200mm" version="1.1" viewBox="0,0,200,200" width="200mm" xmlns="http://www.w3.org/2000/svg" xmlns:ev="http://www.w3.org/2001/xml-events" xmlns:xlink="http://www.w3.org/1999/xlink"><defs /><rect fill="#1a1a1a" height="200" width="200" x="0" y="0" /><text alignment-baseline="middle" fill="#e1ed5e" style="dominant-baseline: central; font-size:9.0px; font-family:Arial;" text-anchor="middle" x="100.0" y="100.0">2025</text><line stroke="#e1ed5e" stroke-width="0.3" x1="100.0" x2="100.0" y1="15.0" y2="10.0" /><path d="M 100.0 14.0 a86.0,86.0 0 0,1 42.46469731375804,11.215312516191453" fill="none" id="id49" stroke="none" /><text fill="#e1ed5e" style="font-size:6.75px; font-family:Arial;" text-anchor="middle"><textPath startOffset="22.20632615414155" xlink:href="#id49">January</textPath></text><path d="M 100.0 79.0 l 0.0 -36.731808731808734 a57.731808731808734,57.731808731808734 0 0,0 0.9937581852211504,0.008553590440854493 l -0.6322777059486221 36.72636651797644" fill="red" stroke="none" /><path d="M 100.72285384407766 79.0124445844662 l 1.4041298163199463 -40.767926423937105 a61.79209979209979,61.79209979209979 0 0,0 1.0627039678966723,0.04576226831480874 l -2.1056746166059503 40.7377164290981" fill="red" stroke="none" /><path d="M 101.80526077348638 79.07773832637324 l 1.5659980410336598 -18.149300796924674 a39.21673596673597,39.21673596673597 0 0,0 0.6720532319983121,0.06381955226453466 l -1.8781764001222163 18.11965570014496" fill="red" stroke="none" /><path d="M 102.16513564639614 79.11191278185805 l 3.947658964427043 -38.084932412287905 a59.28898128898129,59.28898128898129 0 0,0 1.01421791399957,0.11395919997281515 l -4.602643581936338 38.01133725884449" fill="red" stroke="none" /><path d="M 105.01212808612495 79.60689891045804 l 2.8151973761637366 -11.45433709845721 a32.79521829521829,32.79521829521829 0 0,0 0.5470415934499625,0.13945308255956776 l -3.0119478582987242 11.404181019728773" fill="red" stroke="none" /><path d="M 105.36241919743992 79.69619591428918 l 6.923206489834084 -26.21343521252895 a48.11226611226611,48.11226611226611 0 0,0 0.7988975594084629,0.2183688815164749 l -7.373401938466258 26.09037979018618" fill="red" stroke="none" /><line stroke="#e1ed5e" stroke-width="0.3" x1="143.23703022742887" x2="145.7803849466894" y1="26.81831364943548" y2="22.513508569990506" /><path d="M 143.74570117128098 25.957352633546492 a86.0,86.0 0 0,1 28.547481713284135,27.462654790039103" fill="none" id="id50" stroke="none" /><text fill="#e1ed5e" style="font-size:6.75px; font-family:Arial;" text-anchor="middle"><textPath startOffset="19.985693538727396" xlink:href="#id50">February</textPath></text><path d="M 117.2510076193507 88.02491185347247 l 9.602821808900515 -6.665966426679304 a32.689708939708936,32.689708939708936 0 0,0 0.31689642688261094,0.46500640348499617 l -9.71614270145186 6.499681999923902" fill="red" stroke="none" /><line stroke="#e1ed5e" stroke-width="0.3" x1="172.23445277983987" x2="176.4835382374775" y1="55.19839476539836" y2="52.563006222186495" /><path d="M 173.08426987136738 54.67131705675599 a86.0,86.0 0 0,1 12.851231095245387,41.99856678651699" fill="none" id="id51" stroke="none" /><text fill="#e1ed5e" style="font-size:6.75px; font-family:Arial;" text-anchor="middle"><textPath startOffset="22.20632615414155" xlink:href="#id51">March</textPath></text><path d="M 118.21658344932153 89.55222093294921 l 15.786443245583209 -9.054017826297308 a39.198544698544694,39.198544698544694 0 0,0 0.33065346027639064,0.5881956105271189 l -15.939954347152034 8.780938705835394" fill="red" stroke="none" /><path d="M 118.3937258080291 89.86733742301442 l 23.871690926532565 -13.150342232189713 a48.254158004158,48.254158004158 0 0,0 0.3945165765879246,0.7309792997334719 l -24.094515602338955 12.737481949123783" fill="red" stroke="none" /><line stroke="#e1ed5e" stroke-width="0.3" x1="184.98032266829074" x2="189.97916517819016" y1="98.17113171792111" y2="98.06355123074" /><path d="M 185.9800911702706 98.14961562048488 a86.0,86.0 0 0,1 -9.607161424134198,41.387399972396054" fill="none" id="id52" stroke="none" /><text fill="#e1ed5e" style="font-size:6.75px; font-family:Arial;" text-anchor="middle"><textPath startOffset="21.466115282336823" xlink:href="#id52">April</textPath></text><path d="M 120.81339534386255 102.79330883721812 l 13.067509249241768 1.7537546595971452 a34.18466735966736,34.18466735966736 0 0,0 -0.0832900450542473,0.58253038111907 l -13.03538515317092 -1.9784305126966244" fill="red" stroke="none" /><path d="M 120.64145759157962 103.86396538481128 l 17.905713472113515 3.351849390462593 a39.21673596673597,39.21673596673597 0 0,0 -0.1299195690324526,0.6624570834952567 l -17.845363970105396 -3.6595702010257942" fill="red" stroke="none" /><path d="M 120.5718875245553 104.21870165774334 l 25.950088888823124 5.321615864523429 a47.49012474012474,47.49012474012474 0 0,0 -0.17111361616941173,0.7993858480874473 l -25.85464123392927 -5.767515532027045" fill="red" stroke="none" /><path d="M 120.41448212921028 104.9243191809786 l 18.020060022232578 4.346743975586622 a39.53690228690229,39.53690228690229 0 0,0 -0.16528060421960736,0.6602138546896221 l -17.942568103717907 -4.65628566967364" fill="red" stroke="none" /><path d="M 120.23288151984713 105.62410040840565 l 21.053133473354443 5.852104479016699 a42.851351351351354,42.851351351351354 0 0,0 -0.20366097067836475,0.7089705567406503 l -20.94927986578998 -6.213632511261931" fill="red" stroke="none" /><path d="M 120.13307415673323 105.97154293290107 l 22.522394287946366 6.680223963572808 a44.49220374220374,44.49220374220374 0 0,0 -0.22409923752988622,0.7323692745427743 l -22.404068277910348 -7.066920210667639" fill="red" stroke="none" /><path d="M 119.9155931802556 106.66101706037122 l 28.037787626950283 9.377585695179585 a50.564449064449065,50.564449064449065 0 0,0 -0.28318299229919935,0.8230623306418752 l -27.872213803707854 -9.85882072891076" fill="red" stroke="none" /><path d="M 119.79798401119884 107.00284435728193 l 19.599043769922062 6.932476205389625 a41.78898128898129,41.78898128898129 0 0,0 -0.24571073078551037,0.6760904025619504 l -19.476808778131325 -7.268814404957706" fill="red" stroke="none" /><path d="M 119.54520255179757 107.68017299344265 l 34.05172502787186 13.3804261299479 a57.58627858627859,57.58627858627859 0 0,0 -0.3704645567453209,0.9194626482647172 l -33.816357856869146 -13.96458814605543" fill="red" stroke="none" /><path d="M 119.26925614724726 108.34839909993367 l 16.702025035460515 7.23614703689677 a39.20218295218295,39.20218295218295 0 0,0 -0.27359187664943424,0.6168774556984217 l -16.57499207407981 -7.5225728290878795" fill="red" stroke="none" /><path d="M 118.97047184881838 109.00673069616215 l 19.884157083394175 9.440526803842868 a43.011434511434516,43.011434511434516 0 0,0 -0.3232959459980679,0.6660854058521334 l -19.718707880781395 -9.781401165660277" fill="red" stroke="none" /><path d="M 118.81262510543309 109.33194174019688 l 34.532183470558486 17.129577743829856 a59.5472972972973,59.5472972972973 0 0,0 -0.46339516833127764,0.9143226294286213 l -34.23220963244094 -17.72145458496117" fill="red" stroke="none" /><line stroke="#e1ed5e" stroke-width="0.3" x1="174.80103733775053" x2="179.2010983576182" y1="140.37084112569926" y2="142.7455964860345" /><path d="M 175.68104954172406 140.8457921977663 a86.0,86.0 0 0,1 -30.038265399797805,32.042727171017184" fill="none" id="id53" stroke="none" /><text fill="#e1ed5e" style="font-size:6.75px; font-family:Arial;" text-anchor="middle"><textPath startOffset="22.206326154141568" xlink:href="#id53">May</textPath></text><path d="M 118.48025628344425 109.97397251340804 l 32.23479214513456 17.397428147088053 a57.62993762993763,57.62993762993763 0 0,0 -0.4786676497380611,0.8689208226920943 l -31.930548085944995 -17.94971948817795" fill="red" stroke="none" /><path d="M 118.30583269289576 110.29060199501025 l 22.523912644654484 12.6617906043941 a46.83887733887734,46.83887733887734 0 0,0 -0.4011370758028873,0.6994163036070775 l -22.30262357269922 -13.047626753859493" fill="red" stroke="none" /><path d="M 118.12598468904814 110.60418214915192 l 22.337167202564 13.06783569419918 a46.87889812889813,46.87889812889813 0 0,0 -0.41346992665078697,0.6929993798124651 l -22.108916400214987 -13.45039716789775" fill="red" stroke="none" /><path d="M 117.94076556474637 110.91462005526583 l 32.50908992406138 19.777548710676587 a59.052494802494806,59.052494802494806 0 0,0 -0.5357899226523379,0.8638639545409296 l -32.16383536174108 -20.33420899658279" fill="red" stroke="none" /><path d="M 117.75023020441432 111.22182372390056 l 15.797458863492098 9.987267579639141 a39.689708939708936,39.689708939708936 0 0,0 -0.3700500944940675,0.574325964389617 l -15.623203905620981 -10.257715143950211" fill="red" stroke="none" /><path d="M 117.35343817320211 111.8261652097733 l 31.258436709421737 21.302259127860868 a58.82692307692308,58.82692307692308 0 0,0 -0.5774537408342724,0.8318651822068748 l -30.887122061425327 -21.83716557225476" fill="red" stroke="none" /><path d="M 116.71984013943494 112.70617746262583 l 8.779943773843948 6.67228411109128 a32.027546777546775,32.027546777546775 0 0,0 -0.3373464289725127,0.43606573420322875 l -8.663790527653367 -6.822427839407761" fill="red" stroke="none" /><path d="M 116.27256486870786 113.27417163493432 l 29.584943820550972 24.133603107588492 a59.17983367983368,59.17983367983368 0 0,0 -0.6507076343956382,0.7838192639964326 l -29.16514018626179 -24.639283628698696" fill="red" stroke="none" /><path d="M 116.0416608686014 113.55231037782055 l 37.60007447874365 31.76528189562271 a70.22193347193348,70.22193347193348 0 0,0 -0.7880154578611226,0.9166400050386952 l -37.04771651131175 -32.40779899982294" fill="red" stroke="none" /><path d="M 115.80600337817218 113.82643327865902 l 13.84531411643079 12.111303994611925 a39.395010395010395,39.395010395010395 0 0,0 -0.4508686722120223,0.5065557328561846 l -13.63478659457043 -12.347833897208975" fill="red" stroke="none" /><path d="M 115.32070863581623 114.36230785411682 l 29.74425865782342 27.8835796627223 a61.770270270270274,61.770270270270274 0 0,0 -0.733870369142055,0.7694601480703732 l -29.259881737302397 -28.39144692737518" fill="red" stroke="none" /><path d="M 114.81725581225074 114.88116024355365 l 27.88375478736443 28.004012918482285 a60.518711018711016,60.518711018711016 0 0,0 -0.7445243749447399,0.7286738024923661 l -27.397580460043898 -28.479836823897223" fill="red" stroke="none" /><path d="M 114.55890576462653 115.13401014063108 l 31.884810771074843 33.14432123834329 a66.99116424116424,66.99116424116424 0 0,0 -0.8379132504092272,0.7922992781700188 l -31.309561686274808 -33.68825515325923" fill="red" stroke="none" /><path d="M 114.0293411484842 115.62618273729858 l 26.729151872813716 29.77150581463486 a61.00987525987526,61.00987525987526 0 0,0 -0.7874853922573511,0.6948642993105489 l -26.21272412764978 -30.227193255717697" fill="red" stroke="none" /><path d="M 113.75828350139079 115.86535959552629 l 23.955431252421594 27.624196800942336 a57.564449064449065,57.564449064449065 0 0,0 -0.7541889171167634,0.6427361569460387 l -23.476376858727786 -28.032457348111322" fill="red" stroke="none" /><path d="M 113.20401910651253 116.32954008644616 l 30.889443866118963 38.20127854942524 a70.12733887733887,70.12733887733887 0 0,0 -0.9451913249953322,0.7509171530753979 l -30.22729504840628 -38.72732961650576" fill="red" stroke="none" /><path d="M 112.92097659922987 116.55440617244103 l 29.981053290624697 38.411843705388556 a69.72713097713097,69.72713097713097 0 0,0 -0.9525100343766791,0.7303440772485145 l -29.315414527754523 -38.92222712446444" fill="red" stroke="none" /><path d="M 112.63410532772338 116.77436683061366 l 11.10846925471173 14.748771944796314 a39.46413721413721,39.46413721413721 0 0,0 -0.5461367335186821,0.40401889917181655 l -10.852947550774484 -14.937800792707899" fill="red" stroke="none" /><path d="M 112.34349029814194 116.9893568818739 l 31.43184691650904 43.26222582290063 a74.47505197505197,74.47505197505197 0 0,0 -1.0436177406329403,0.7445935481720082 l -30.682501848027215 -43.79686363291686" fill="red" stroke="none" /><path d="M 112.04921762599082 117.19931262002967 l 21.848078945533604 31.186418205341404 a59.07796257796258,59.07796257796258 0 0,0 -0.8379030678263377,0.576317370459044 l -21.30801899308438 -31.557876365165544" fill="red" stroke="none" /><path d="M 111.7513745106137 117.40417183066458 l 20.756282594543784 30.740736627447227 a58.09199584199584,58.09199584199584 0 0,0 -0.8335518165660071,0.5524326918286415 l -20.224056079237812 -31.093467340367187" fill="red" stroke="none" /><path d="M 111.1453310114006 117.79835938074945 l 22.226941315355564 35.494960989571545 a62.87993762993763,62.87993762993763 0 0,0 -0.9223013665228531,0.5665528287950694 l -21.612660748900403 -35.87230228519499" fill="red" stroke="none" /><line stroke="#e1ed5e" stroke-width="0.3" x1="143.8653032363475" x2="146.44561519142675" y1="172.8068346515853" y2="177.08958963109032" /><path d="M 144.38136562736335 173.6633856474863 a86.0,86.0 0 0,1 -40.68145358897372,12.25698825130547" fill="none" id="id54" stroke="none" /><text fill="#e1ed5e" style="font-size:6.75px; font-family:Arial;" text-anchor="middle"><textPath startOffset="21.466115282336833" xlink:href="#id54">June</textPath></text><path d="M 110.5260780823613 118.17145234162733 l 31.578234247083873 54.514357024881974 a84.0,84.0 0 0,0 -1.2574049323152037,0.7139873368214862 l -30.635180547847472 -55.049847527498095" fill="red" stroke="none" /><path d="M 110.21172684928248 118.3499491758327 l 18.721499223684567 33.64157348902661 a59.5,59.5 0 0,0 -0.899235366372162,0.4903348200139836 l -18.139641045443756 -33.95884896080037" fill="red" stroke="none" /><path d="M 109.89434966115114 118.52300852407294 l 8.723552568537448 16.331183364346348 a39.515072765072766,39.515072765072766 0 0,0 -0.6027160616181101,0.31531255731833524 l -8.441145604392842 -16.4789253406094" fill="red" stroke="none" /><path d="M 109.57404056367764 118.69057910512821 l 16.81594304133123 32.828324838494424 a57.88461538461539,57.88461538461539 0 0,0 -0.8907232031821346,0.4466271051858981 l -16.248365930466335 -33.11291978458962" fill="red" stroke="none" /><path d="M 108.59647513512805 119.15986991738527 l 20.49630817907696 45.682281670661155 a71.06964656964658,71.06964656964658 0 0,0 -1.1204614589804986,0.4911773762900425 l -19.706926045438706 -46.02832360024565" fill="red" stroke="none" /><path d="M 108.2653958097858 119.30500536409082 l 14.568977298815097 34.0279148604054 a58.015592515592516,58.015592515592516 0 0,0 -0.9214217094340758,0.385154349272957 l -13.98108412988356 -34.273654252698336" fill="red" stroke="none" /><path d="M 107.59598834532513 119.57807347666477 l 19.85195498773901 51.16688121889954 a75.88305613305613,75.88305613305613 0 0,0 -1.2218248103955212,0.4619895958984753 l -18.968259956583214 -51.501019064904646" fill="red" stroke="none" /><path d="M 107.2578585660854 119.70592522655815 l 16.868359782403964 45.79954728244586 a69.80717255717255,69.80717255717255 0 0,0 -1.1311435880452665,0.40558784651183033 l -16.077496633728963 -46.08312266999765" fill="red" stroke="none" /><path d="M 106.91757812671514 119.82793768551818 l 12.109357136578266 34.70919653057445 a57.76091476091476,57.76091476091476 0 0,0 -0.941586160756858,0.3194371483030836 l -11.510101242884181 -34.912496665775656" fill="red" stroke="none" /><path d="M 105.88484417918355 120.15858648285463 l 13.260270858361274 45.42317667983495 a68.31912681912682,68.31912681912682 0 0,0 -1.1317188020325213,0.3198350378879573 l -12.476420888224148 -45.64470051106143" fill="red" stroke="none" /><path d="M 105.53697534728816 120.25689768951611 l 10.169347826854082 37.20432647376305 a59.56912681912682,59.56912681912682 0 0,0 -0.9914275779361318,0.261845034277966 l -9.527429806106452 -37.3738628573446" fill="red" stroke="none" /><path d="M 104.83641907484287 120.43548508189849 l 12.296335745550772 51.95612328081436 a74.39137214137214,74.39137214137214 0 0,0 -1.248640939945279,0.28418661270566303 l -11.400174656212632 -52.160086627097705" fill="red" stroke="none" /><path d="M 104.48393922423573 120.51570834832081 l 7.773870377152968 35.56838070714595 a57.40800415800416,57.40800415800416 0 0,0 -0.9672115263523638,0.20268857936866022 l -7.1604673893712265 -35.69692526724115" fill="red" stroke="none" /><path d="M 104.13013068566511 120.58985236759428 l 8.595852378186924 42.85271941994284 a64.70634095634097,64.70634095634097 0 0,0 -1.0939450753364932,0.20965717729946198 l -7.856939688278727 -42.99433379559077" fill="red" stroke="none" /><path d="M 103.41894727170886 120.7198165907248 l 9.762835920357837 59.16563011925262 a80.96569646569647,80.96569646569647 0 0,0 -1.3770496693097818,0.2150668378893812 l -8.742950387439539 -59.32491526448911" fill="red" stroke="none" /><path d="M 103.06178313531738 120.77559828337769 l 8.424677712250622 57.1652896633064 a78.78274428274429,78.78274428274429 0 0,0 -1.3433261064519013,0.18617275793887456 l -7.439423014611891 -57.301836986737875" fill="red" stroke="none" /><path d="M 102.70371172650421 120.8252237178851 l 4.731495521382364 36.444141506298905 a57.75,57.75 0 0,0 -0.9868995866087041,0.11949979600528496 l -4.103468511722279 -36.52018683102954" fill="red" stroke="none" /><path d="M 101.62511606390274 120.93702456842531 l 4.126139278671959 53.15871362617342 a74.31860706860707,74.31860706860707 0 0,0 -1.2762884417132345,0.08802032338285568 l -3.2104880761797934 -53.221862294072565" fill="red" stroke="none" /><path d="M 101.26447882468166 120.96189622390904 l 1.5843227408346818 26.26410836647784 a47.31185031185031,47.31185031185031 0 0,0 -0.8133401175244475,0.042040393774138346 l -1.1319945548967547 -26.28748856701418" fill="red" stroke="none" /><path d="M 100.90346689309514 120.98055641714683 l 2.1126286652988804 49.060043305999784 a70.10550935550935,70.10550935550935 0 0,0 -1.2060806555060855,0.0415398563977129 l -1.2678276581181427 -49.089139960823594" fill="red" stroke="none" /><line stroke="#e1ed5e" stroke-width="0.3" x1="102.19456741930631" x2="102.32365962044197" y1="184.97166512339345" y2="189.96999836594603" /><path d="M 102.22038585953345 185.97133177190398 a86.0,86.0 0 0,1 -42.740103519485714,-10.115201625700543" fill="none" id="id55" stroke="none" /><text fill="#e1ed5e" style="font-size:6.75px; font-family:Arial;" text-anchor="middle"><textPath startOffset="22.20632615414155" xlink:href="#id55">July</textPath></text><path d="M 100.18074693466247 120.99922214144158 l 0.42368434268591815 49.22374836689268 a70.22557172557173,70.22557172557173 0 0,0 -1.2088625546967133,0.0 l 0.4236843426858843 -49.22374836689268" fill="red" stroke="none" /><path d="M 99.81925306533755 120.99922214144158 l -0.4778896344219719 55.52133213800067 a76.52338877338877,76.52338877338877 0 0,0 -1.317077969938932,-0.022674691681814775 l 1.4335272942535717 -55.5048799690397" fill="red" stroke="none" /><path d="M 99.09653310690486 120.98055641714683 l -1.5743364536990454 36.559673673538256 a57.593555093555096,57.593555093555096 0 0,0 -0.9900933605361176,-0.05117651749035759 l 2.203417882648652 -36.5271573492857" fill="red" stroke="none" /><path d="M 98.37488393609728 120.93702456842531 l -4.159643923787034 53.590367459098346 a74.75155925155926,74.75155925155926 0 0,0 -1.2820094677204237,-0.11061717128942855 l 5.081497709249 -53.51082603553026" fill="red" stroke="none" /><path d="M 98.01472825383883 120.90594882070398 l -4.28319283696208 45.10425860433587 a66.30717255717255,66.30717255717255 0 0,0 -1.135328469657495,-0.11768143795803196 l 5.058953903225168 -45.02384779792207" fill="red" stroke="none" /><path d="M 97.2962882734958 120.8252237178851 l -6.047751576731748 46.58254737034206 a67.97349272349273,67.97349272349273 0 0,0 -1.1590173476882253,-0.16062924339945645 l 6.848697515606804 -46.471543561450005" fill="red" stroke="none" /><path d="M 96.93821686468263 120.77559828337769 l -3.5041821538299542 23.777477869021663 a45.03430353430353,45.03430353430353 0 0,0 -0.7659351490391155,-0.11962331802798419 l 3.912953166477587 -23.713636243646572" fill="red" stroke="none" /><path d="M 96.58105272829116 120.7198165907248 l -9.009980414061548 54.60310640358887 a76.3414760914761,76.3414760914761 0 0,0 -1.2947188204438629,-0.22510346273280102 l 9.948548205977461 -54.43992436233506" fill="red" stroke="none" /><path d="M 96.22490169976321 120.6578951692458 l -6.599227624634316 36.11194772309255 a57.70997920997921,57.70997920997921 0 0,0 -0.975662456282705,-0.18698803184279253 l 7.219857695488716 -35.99300249290129" fill="red" stroke="none" /><path d="M 95.51606077576429 120.51570834832081 l -7.784746182617132 35.6181416075057 a57.45893970893971,57.45893970893971 0 0,0 -0.9644342135548372,-0.21950208707685262 l 8.396700545564833 -35.47886278685116" fill="red" stroke="none" /><path d="M 94.81253420990036 120.34920634021253 l -11.554244229154367 45.32457840454615 a67.77411642411643,67.77411642411643 0 0,0 -1.1279857819159764,-0.2979112971072454 l 12.332720453881834 -45.11897575813532" fill="red" stroke="none" /><path d="M 94.46302465271185 120.25689768951611 l -12.391044795724367 45.332354029015875 a67.99532224532224,67.99532224532224 0 0,0 -1.12635492018241,-0.3183191512987481 l 13.16953088401139 -45.11234608437861" fill="red" stroke="none" /><path d="M 94.11515582081647 120.15858648285463 l -14.777361665468847 50.61998483757711 a73.73284823284823,73.73284823284823 0 0,0 -1.215275427580384,-0.3661525172736253 l 15.646512067489477 -50.35811695119776" fill="red" stroke="none" /><path d="M 93.42475214034765 119.94407469862007 l -17.24009028204759 52.2927280819328 a76.06133056133056,76.06133056133056 0 0,0 -1.239909314486202,-0.4206445592355925 l 18.137669329471017 -51.98822053579909" fill="red" stroke="none" /><path d="M 93.08242187328487 119.8279376855182 l -15.557359955455484 44.59224863058068 a68.22817047817048,68.22817047817048 0 0,0 -1.1055577060829411,-0.39641365954221613 l 16.32263722216815 -44.3178474299985" fill="red" stroke="none" /><path d="M 92.40401165467489 119.57807347666478 l -17.122557928105525 44.132071033417446 a68.3373180873181,68.3373180873181 0 0,0 -1.093003088826365,-0.43492848605697365 l 17.87968209297375 -43.83079570295441" fill="red" stroke="none" /><path d="M 92.06813273071674 119.44442032107085 l -14.383723961813558 35.26069776518513 a59.08160083160083,59.08160083160083 0 0,0 -0.9383523855198735,-0.3922313732499403 l 14.988547806830894 -35.00788134891521" fill="red" stroke="none" /><path d="M 91.7346041902142 119.30500536409082 l -14.348452185386982 33.51284714972107 a57.45530145530145,57.45530145530145 0 0,0 -0.905822021102723,-0.3970857543960517 l 14.923194881147449 -33.26089684203057" fill="red" stroke="none" /><path d="M 91.40352486487194 119.15986991738527 l -22.754148841733613 50.71456905714003 a76.5852390852391,76.5852390852391 0 0,0 -1.198128671014522,-0.5500021083623935 l 23.623745508515555 -50.315379878443565" fill="red" stroke="none" /><path d="M 91.07499286063937 119.00905698771935 l -23.513961117161667 50.081553986875974 a76.32692307692308,76.32692307692308 0 0,0 -1.184475110537582,-0.5686200334919752 l 24.37254889569949 -49.66937967688444" fill="red" stroke="none" /><path d="M 90.10565033884886 118.52300852407294 l -19.053308469108604 35.669306955140435 a61.439189189189186,61.439189189189186 0 0,0 -0.9285427193302611,-0.5063155255947391 l 19.664474000307504 -35.33605077778593" fill="red" stroke="none" /><line stroke="#e1ed5e" stroke-width="0.3" x1="58.666819895761336" x2="56.23545636021788" y1="174.27360380694188" y2="178.64263932499728" /><path d="M 58.180547188652646 175.14741091055294 a86.0,86.0 0 0,1 -31.652253787137756,-30.449443065178592" fill="none" id="id56" stroke="none" /><text fill="#e1ed5e" style="font-size:6.75px; font-family:Arial;" text-anchor="middle"><textPath startOffset="22.20632615414155" xlink:href="#id56">August</textPath></text><path d="M 89.7882731507175 118.34994917583269 l -17.870521986244366 32.11241105770721 a57.75,57.75 0 0,0 -0.86446589096668,-0.4908662940647589 l 18.42063664413225 -31.800041597847823" fill="red" stroke="none" /><path d="M 89.4739219176387 118.17145234162733 l -27.57533379823025 47.60404207514671 a76.01403326403326,76.01403326403326 0 0,0 -1.1265718764040216,-0.6655985220143262 l 28.390673545662654 -47.122324980838634" fill="red" stroke="none" /><path d="M 88.8546689885994 117.79835938074946 l -25.204436190542616 40.249824150541 a68.49012474012474,68.49012474012474 0 0,0 -0.993818447066297,-0.6343019538100981 l 25.893536439655836 -39.810007767907095" fill="red" stroke="none" /><path d="M 88.24862548938628 117.40417183066458 l -26.615682428491514 39.4187003365 a68.56288981288981,68.56288981288981 0 0,0 -0.9724278429108857,-0.6688447374245788 l 27.29026715602529 -38.954714809710325" fill="red" stroke="none" /><path d="M 87.36589467227662 116.77436683061367 l -20.5555930583247 27.291766962282214 a55.16683991683992,55.16683991683992 0 0,0 -0.7536086434257209,-0.5778349722577335 l 21.02233043024391 -26.933892648197116" fill="red" stroke="none" /><path d="M 86.79598089348748 116.32954008644616 l -35.084899694487625 43.389839969824116 a76.79989604989605,76.79989604989605 0 0,0 -1.0208164339137498,-0.8400624282820118 l 35.826586256946065 -42.77948242268492" fill="red" stroke="none" /><path d="M 86.51685102203217 116.09983520530335 l -24.912990965008134 29.747876379861424 a59.80197505197505,59.80197505197505 0 0,0 -0.7835041859845671,-0.6677192650563663 l 25.421360627569758 -29.314632724582108" fill="red" stroke="none" /><path d="M 85.97065885151581 115.62618273729859 l -31.602476370857843 35.199519741918955 a68.3045738045738,68.3045738045738 0 0,0 -0.8681200724721537,-0.793007103275056 l 32.20369599279685 -34.650319872057324" fill="red" stroke="none" /><path d="M 85.44109423537348 115.13401014063109 l -38.29405878699928 39.80674670046106 a76.23596673596674,76.23596673596674 0 0,0 -0.9378840779483035,-0.917916968704171 l 38.97359281732338 -39.14167962883432" fill="red" stroke="none" /><path d="M 85.18274418774928 114.88116024355367 l -26.28445638628468 26.397817001688484 a58.252079002079,58.252079002079 0 0,0 -0.7044600748849371,-0.7136143366035305 l 26.73495708622515 -25.941462171104288" fill="red" stroke="none" /><path d="M 84.9287848128048 114.62390073753433 l -33.419349130442015 32.42746111221446 a67.56600831600832,67.56600831600832 0 0,0 -0.802727448777093,-0.8416565207807329 l 33.97258313059806 -31.847397474851224" fill="red" stroke="none" /><line stroke="#e1ed5e" stroke-width="0.3" x1="26.63291911575756" x2="22.317208475507996" y1="142.92168965132927" y2="145.44649492493687" /><path d="M 25.769776987707644 143.4266507060508 a86.0,86.0 0 0,1 -11.730757126820373,-40.83630448921669" fill="none" id="id57" stroke="none" /><text fill="#e1ed5e" style="font-size:6.75px; font-family:Arial;" text-anchor="middle"><textPath startOffset="21.46611528233685" xlink:href="#id57">September</textPath></text><line stroke="#e1ed5e" stroke-width="0.3" x1="15.007084014347285" x2="10.007500721073583" y1="101.09737516637583" y2="101.16192664675087" /><path d="M 14.007167355692545 101.11028546245083 a86.0,86.0 0 0,1 10.666146001902534,-42.60595125391555" fill="none" id="id58" stroke="none" /><text fill="#e1ed5e" style="font-size:6.75px; font-family:Arial;" text-anchor="middle"><textPath startOffset="22.20632615414155" xlink:href="#id58">October</textPath></text><line stroke="#e1ed5e" stroke-width="0.3" x1="26.266209847984243" x2="21.928928074336255" y1="57.711370442889674" y2="55.22380399835377" /><path d="M 25.398753493254645 57.213857153982495 a86.0,86.0 0 0,1 29.58750427330803,-30.492523968695096" fill="none" id="id59" stroke="none" /><text fill="#e1ed5e" style="font-size:6.75px; font-family:Arial;" text-anchor="middle"><textPath startOffset="21.46611528233685" xlink:href="#id59">November</textPath></text><line stroke="#e1ed5e" stroke-width="0.3" x1="56.762969772571076" x2="54.21961505331055" y1="26.818313649435495" y2="22.513508569990535" /><path d="M 56.25429882871897 25.957352633546506 a86.0,86.0 0 0,1 42.265352541879196,-11.944610805530505" fill="none" id="id60" stroke="none" /><text fill="#e1ed5e" style="font-size:6.75px; font-family:Arial;" text-anchor="middle"><textPath startOffset="22.20632615414155" xlink:href="#id60">December</textPath></text></svg>