<?xml version="1.0" encoding="utf-8" ?>
<svg baseProfile="full" height="200mm" version="1.1" viewBox="0,0,200,200" width="200mm" xmlns="http://www.w3.org/2000/svg" xmlns:ev="http://www.w3.org/2001/xml-events" xmlns:xlink="http://www.w3.org/1999/xlink"><defs /><rect fill="#1a1a1a" height="200" width="200" x="0" y="0" /><rect fill="#1a1a1a" height="200" width="180" x="10" y="0" /><text alignment-baseline="middle" fill="#e1ed5e" style="dominant-baseline: central; font-size:9.0px; font-family:Arial;" text-anchor="middle" x="100.0" y="100.0">2024</text><line stroke="#e1ed5e" stroke-width="0.3" x1="100.0" x2="100.0" y1="15.0" y2="10.0" /><path d="M 100.0 14.0 a86.0,86.0 0 0,1 42.35913384403234,11.155469271406648" fill="none" id="id37" stroke="none" /><text fill="#e1ed5e" style="font-size:6.75px; font-family:Arial;" text-anchor="middle"><textPath startOffset="22.145653131862478" xlink:href="#id37">January</textPath></text><path d="M 100.0 79.0 l 0.0 -31.225537729713487 a52.22553772971349,52.22553772971349 0 0,0 0.8965208022851731,0.0076955528406770345 l -0.5360278774363183 31.220936575067245" fill="#88ff25" stroke="none" /><path d="M 100.36049292484886 79.00309439819443 l 0.3226578038173044 -18.793199481732803 a39.79596911091754,39.79596911091754 0 0,0 0.682949401010796,0.017590353981733853 l -0.6452205188988418 18.784891410401023" fill="#ffe215" stroke="none" /><path d="M 101.08105385017728 79.02784411241856 l 1.1437959961245106 -22.189336757258737 a43.21879688479518,43.21879688479518 0 0,0 0.7405965787158804,0.04455245111200903 l -1.5245369269728533 22.166432328322035" fill="#f1ff19" stroke="none" /><path d="M 102.15924093988457 79.11130261209362 l 1.8582477891045073 -17.976861693084242 a39.072648980655586,39.072648980655586 0 0,0 0.6665870171011012,0.0746924656336428 l -2.166570707806405 17.942313466943627" fill="#ffd914" stroke="none" /><path d="M 104.9986988182912 79.60360301121754 l 1.8467361938482918 -7.535313871172427 a28.758311008637953,28.758311008637953 0 0,0 0.4784762686759985,0.1216267964305452 l -1.9758177557496848 7.502501842906614" fill="#ff4d07" stroke="none" /><path d="M 105.3480935250658 79.69241777938227 l 4.246218826083975 -16.12358451348777 a37.67334255278685,37.67334255278685 0 0,0 0.6239756775627499,0.17006734561631712 l -4.522375904581418 16.048316673727314" fill="#ffc712" stroke="none" /><path d="M 105.69591212413111 79.78721728523813 l 5.1988065091879 -18.448730257111297 a40.1672438608066,40.1672438608066 0 0,0 0.6620709186973652,0.19271919530784856 l -5.51473744026687 18.356767367500932" fill="#ffe715" stroke="none" /><path d="M 106.38641147887787 79.99465700312896 l 4.510558395911949 -14.129259931978222 a35.83176062604629,35.83176062604629 0 0,0 0.5843601564033214,0.192090790277315 l -4.752441289963013 14.049748220298886" fill="#ffaf10" stroke="none" /><path d="M 106.72888874123014 80.10723608172694 l 7.349766339229724 -21.728278214039577 a43.93767946824572,43.93767946824572 0 0,0 0.7124060118416083,0.2478117916913278 l -7.721678123116352 21.598907989779658" fill="#e8ff1a" stroke="none" /><path d="M 107.06938296918511 80.22567764915836 l 5.038236876874393 -14.092845233803477 a35.96636621265945,35.96636621265945 0 0,0 0.5795908810449767,0.2128337996899324 l -5.279416909573495 14.004280585104823" fill="#ffb010" stroke="none" /><path d="M 108.07796709384702 80.6158196554323 l 3.9004250485421617 -9.35960021661884 a31.139794464101655,31.139794464101655 0 0,0 0.491660171938006,0.20986049147934355 l -4.060520295650598 9.291265075480096" fill="#ff6f0a" stroke="none" /><path d="M 108.4095320186766 80.7573450057729 l 6.016441231644513 -13.766794948453882 a36.024054321207956,36.024054321207956 0 0,0 0.5645254024719145,0.25250503205245367 l -6.251880036972058 13.661486165491576" fill="#ffb110" stroke="none" /><path d="M 109.3889696526874 81.21577127319529 l 13.607592166464059 -27.224299697547167 a51.43565439728019,51.43565439728019 0 0,0 0.7864089743007108,0.4015460256637296 l -14.072928362478349 26.986695720210605" fill="#91ff24" stroke="none" /><path d="M 109.71004243097381 81.37971332152246 l 8.307924806523351 -15.931541257455198 a38.967627039451905,38.967627039451905 0 0,0 0.5904730831529369,0.31439365825026416 l -8.580186705462848 15.78657713148236" fill="#ffd814" stroke="none" /><line stroke="#e1ed5e" stroke-width="0.3" x1="143.13028292997686" x2="145.6673583964461" y1="26.7553504044142" y2="22.446841604673864" /><path d="M 143.63769802327073 25.89364864446614 a86.0,86.0 0 0,1 29.32050498858742,28.57503671076993" fill="none" id="id38" stroke="none" /><text fill="#e1ed5e" style="font-size:6.75px; font-family:Arial;" text-anchor="middle"><textPath startOffset="20.669276256404974" xlink:href="#id38">February</textPath></text><path d="M 110.96478420261332 82.08984904055464 l 11.274462490267865 -18.415987169102223 a42.59310278438453,42.59310278438453 0 0,0 0.6203094617910268,0.38711898204703377 l -11.588936080848605 18.219732390213643" fill="#f9ff18" stroke="none" /><path d="M 111.8722381534696 82.67804972795209 l 10.97575261716334 -16.01395108278224 a40.41426729997582,40.41426729997582 0 0,0 0.5688883714518388,0.39712826537082646 l -11.24903607978894 15.823178001606285" fill="#ffea16" stroke="none" /><path d="M 112.16784306229584 82.88440491214696 l 10.917350215950592 -15.35662029595892 a39.841823761302244,39.841823761302244 0 0,0 0.5540271009349486,0.4010728957251999 l -11.179358327259507 15.166946628860646" fill="#ffe315" stroke="none" /><path d="M 112.7482090630111 83.31218511350987 l 13.511435612449183 -17.68690293960595 a43.25725562382752,43.25725562382752 0 0,0 0.5862183225196788,0.4558469133011267 l -13.813063879604089 17.452354974684035" fill="#f1ff19" stroke="none" /><path d="M 113.03279911837588 83.53348406188908 l 12.599475094541507 -15.919025189575217 a41.30177666226042,41.30177666226042 0 0,0 0.5521639038518444,0.4447841553111327 l -12.87088976874861 15.700392740470676" fill="#fff517" stroke="none" /><path d="M 113.31354834802062 83.75963576809568 l 12.208824327820633 -14.892780552873425 a40.25747397930554,40.25747397930554 0 0,0 0.5306810494895969,0.4427130058097873 l -12.462679711472124 14.681005363151769" fill="#ffe815" stroke="none" /><path d="M 113.86319453409587 84.22622945171908 l 25.574150339951593 -29.09868850483861 a59.73978366372317,59.73978366372317 0 0,0 0.7644842457356187,0.6836065265805759 l -26.069899612510586 28.655386448374646" fill="#39ff2e" stroke="none" /><path d="M 114.13192950727249 84.46653392183569 l 7.04554217095647 -7.744285043207169 a31.469652110417435,31.469652110417435 0 0,0 0.3964730026439575,0.3669694922490041 l -7.1774449449143916 7.62219780482579" fill="#ff730a" stroke="none" /><path d="M 114.39649973595853 84.71141617570332 l 13.570015294270185 -14.410885988157489 a40.79441714348772,40.79441714348772 0 0,0 0.5057099621684598,0.4844587041352344 l -13.815397742303958 14.175815153716673" fill="#ffef16" stroke="none" /><path d="M 114.91283532996326 85.21462403516908 l 22.47791885341423 -22.285801043275487 a52.65302140588057,52.65302140588057 0 0,0 0.63086643547659,0.647324539098562 l -22.857172090041633 21.896653812109182" fill="#83ff25" stroke="none" /><path d="M 115.41159269507618 85.73525988315684 l 13.774546774407447 -12.749514852348694 a39.769343830049,39.769343830049 0 0,0 0.4594349642466562,0.504999506866734 l -13.991379439495981 12.511177769924288" fill="#ffe215" stroke="none" /><path d="M 115.6541949942343 86.00192230759917 l 13.573479462542004 -12.137489033632907 a39.20873374953922,39.20873374953922 0 0,0 0.4443449918373217,0.5055830334257627 l -13.779835518337915 11.902693722395846" fill="#ffdb14" stroke="none" /><path d="M 116.35404254752997 86.82634096563983 l 16.840120213073202 -13.565208794089239 a42.624165612064495,42.624165612064495 0 0,0 0.454116986348214,0.5737619774194492 l -17.070503630062976 13.27412687275511" fill="#f8ff18" stroke="none" /><path d="M 116.57777611688842 87.10902102172516 l 8.503140258165304 -6.612093295533396 a31.771405293594203,31.771405293594203 0 0,0 0.3311004392941906,0.4334211035029846 l -8.615392674813803 6.46515127878953" fill="#ff780b" stroke="none" /><path d="M 117.01052211995028 87.68569379921539 l 27.15662313361288 -19.659300889677645 a54.5256661603011,54.5256661603011 0 0,0 0.5423613525467978,0.7628991641300676 l -27.490099584689638 19.190224498838074" fill="#6fff28" stroke="none" /><path d="M 117.21940702142032 87.97951657250589 l 12.515788114467787 -8.73699212898787 a36.2636818490248,36.2636818490248 0 0,0 0.35194812103309836,0.5135028266843202 l -12.66392597231621 8.520854567233501" fill="#ffb410" stroke="none" /><path d="M 117.62189284568427 88.57770195909679 l 19.062928428053212 -12.356359895296785 a43.71728130994504,43.71728130994504 0 0,0 0.40278669065183353,0.6332475787957598 l -19.272232810330934 12.027298641822354" fill="#ebff1a" stroke="none" /><path d="M 117.81537515405839 88.88188828441811 l 12.571248098313276 -7.84538857883685 a35.81844798561202,35.81844798561202 0 0,0 0.321056160684764,0.5244211101713764 l -12.704072223453442 7.628430352540919" fill="#ffae10" stroke="none" /><line stroke="#e1ed5e" stroke-width="0.3" x1="172.87174338648825" x2="177.1583165268699" y1="56.24261187166439" y2="53.66864786411523" /><path d="M 173.72905801456457 55.72781907015455 a86.0,86.0 0 0,1 12.242430191666344,42.057860355516425" fill="none" id="id39" stroke="none" /><text fill="#e1ed5e" style="font-size:6.75px; font-family:Arial;" text-anchor="middle"><textPath startOffset="22.145653131862474" xlink:href="#id39">March</textPath></text><path d="M 118.8641267826498 90.77261029715802 l 6.983842894614655 -3.4161475245864095 a28.774582013613173,28.774582013613173 0 0,0 0.213234371659612,0.4455778251966354 l -7.04145652423418 3.295757197324671" fill="#ff4d07" stroke="none" /><path d="M 119.0197475246899 91.09779779509293 l 14.282528159220048 -6.6849443456389475 a36.76956218552702,36.76956218552702 0 0,0 0.2626669308717763,0.5739746477884797 l -14.395179554946877 6.438780715635784" fill="#ffbb11" stroke="none" /><path d="M 119.16976305983485 91.42560881287824 l 15.272852072601461 -6.831352469238944 a37.73103066133535,37.73103066133535 0 0,0 0.2593848773369357,0.5935233606614041 l -15.387870831955366 6.56816703880169" fill="#ffc812" stroke="none" /><path d="M 119.31412917781788 91.75594674310238 l 17.446207722482146 -7.446748661090341 a39.96903343656304,39.96903343656304 0 0,0 0.26393675983373543,0.6333521407972734 l -17.571470326852367 7.14616401085179" fill="#ffe415" stroke="none" /><path d="M 119.4528033332814 92.08871423366111 l 17.857842542877954 -7.262629098052978 a40.27818253109218,40.27818253109218 0 0,0 0.2549826169352235,0.6427227616502539 l -17.979883834779304 6.9550053191891585" fill="#ffe815" stroke="none" /><path d="M 119.58574465831526 92.42381321644754 l 15.20419701857613 -5.881310030137628 a37.30206780289779,37.30206780289779 0 0,0 0.2258894502286611,0.5991986040126498 l -15.302917152619232 5.619443145930821" fill="#ffc212" stroke="none" /><path d="M 119.83427380445688 93.10060997987247 l 42.293552236194174 -14.711892912790743 a65.77928487406993,65.77928487406993 0 0,0 0.36183173149997605,1.0696912208943805 l -42.539869389266514 13.983700017422201" fill="#36ff6d" stroke="none" /><path d="M 120.05942366710727 93.78553927170692 l 17.91737368999067 -5.550848169839554 a39.7575103718852,39.7575103718852 0 0,0 0.1963712039650423,0.6536558717268454 l -18.010021213959337 5.242454694521986" fill="#ffe215" stroke="none" /><path d="M 120.16314734710363 94.1308016681162 l 14.280479718189511 -4.156839520023546 a35.87317772961957,35.87317772961957 0 0,0 0.1670349244037487,0.592748019837947 l -14.349733134667842 3.9110835762825853" fill="#ffaf10" stroke="none" /><path d="M 120.26092885502905 94.47779374421319 l 14.773589001499897 -4.026607377590981 a36.31249486395045,36.31249486395045 0 0,0 0.1587556669873741,0.6028211259255118 l -14.840534149292 3.7724057472926704" fill="#ffb510" stroke="none" /><path d="M 120.43855184770803 95.1765574152323 l 17.56931049557975 -4.146309438204584 a39.051940428868946,39.051940428868946 0 0,0 0.14837717530098993,0.6537772118023228 l -17.637898532438406 3.8440978924632354" fill="#ffd914" stroke="none" /><path d="M 120.51834098615036 95.52812308129327 l 10.202058811904514 -2.2234912342590936 a31.441547647278423,31.441547647278423 0 0,0 0.1104081761302407,0.5283430909928882 l -10.238724698859121 2.0480316919808006" fill="#ff730a" stroke="none" /><path d="M 120.592083275326 95.88100663000786 l 10.196661656464036 -2.039617905457576 a31.398651361434666,31.398651361434666 0 0,0 0.1011839597603898,0.5294372337379639 l -10.230171908506582 1.8642781066862975" fill="#ff720a" stroke="none" /><path d="M 120.65975698304385 96.23510406497455 l 14.604552670522338 -2.661435999815602 a35.845073266480554,35.845073266480554 0 0,0 0.10512025614859226,0.606305702844081 l -14.648087744163165 2.410337264050928" fill="#ffaf10" stroke="none" /><path d="M 120.77682067341334 96.94652285012252 l 62.07889287970881 -9.123459449233502 a83.74572856770546,83.74572856770546 0 0,0 0.19682432951881196,1.4241228004680817 l -62.22636172578283 8.056448340565336" fill="#4dd4ff" stroke="none" /><path d="M 120.86939407059847 97.66154086499901 l 9.468158878877846 -1.0609269510678054 a30.527413004125275,30.527413004125275 0 0,0 0.053884674466047576,0.5212853452228836 l -9.484975945825559 0.8982370835619905" fill="#ff6609" stroke="none" /><path d="M 120.9064616781168 98.02013634271609 l 18.60033087590788 -1.7614706726395748 a39.68355125836149,39.68355125836149 0 0,0 0.05840356228021253,0.6787379227329766 l -18.627828060885832 1.4419117025309363" fill="#ffe115" stroke="none" /><path d="M 120.96210409425399 98.7389718711861 l 7.415048220967071 -0.4460708877843113 a28.428453362322173,28.428453362322173 0 0,0 0.025123186124411997,0.48738309910048117 l -7.421612996548055 0.31871599530709954" fill="#ff4806" stroke="none" /><path d="M 120.98066250479742 99.09900007780936 l 18.889497674607185 -0.8111963066537928 a39.90690778120312,39.90690778120312 0 0,0 0.023517165465728827,0.6846766130564218 l -18.90063952706976 0.48681342903325103" fill="#ffe415" stroke="none" /><path d="M 120.99303781780057 99.45929381324524 l 21.500179840681767 -0.5537683663075786 a42.50731021269702,42.50731021269702 0 0,0 0.012526637943237981,0.7296138600012496 l -21.506517910223668 0.1846075903372626" fill="#faff18" stroke="none" /><line stroke="#e1ed5e" stroke-width="0.3" x1="184.99686870605535" x2="189.99668451229388" y1="99.2704041080226" y2="99.22748670261217" /><path d="M 185.99683186730306 99.26182062694052 a86.0,86.0 0 0,1 -10.086455211305974,41.156179273409016" fill="none" id="id40" stroke="none" /><text fill="#e1ed5e" style="font-size:6.75px; font-family:Arial;" text-anchor="middle"><textPath startOffset="21.40746469413373" xlink:href="#id40">April</textPath></text><path d="M 120.99922638620191 99.81974689727618 l 18.66511344629384 -0.1602175503759227 a39.665801071115794,39.665801071115794 0 0,0 0.0,0.6809413061994969 l -18.66511344629384 -0.16021755037592042" fill="#ffe115" stroke="none" /><path d="M 120.99303781780057 100.54070618675476 l 21.50461591630226 0.5538826238797115 a42.51174775950844,42.51174775950844 0 0,0 -0.025052199277859816,0.7293674476276949 l -21.491939030027556 -0.9229563360715172" fill="#faff18" stroke="none" /><path d="M 120.96210409425399 101.26102812881392 l 18.122720403056523 1.0902178567631715 a39.15548318780215,39.15548318780215 0 0,0 -0.046121502511146474,0.670596524233671 l -18.10133493938031 -1.4011578051511862" fill="#ffda14" stroke="none" /><path d="M 120.93736805541906 101.62068470465957 l 23.68629138515456 1.8334687557872897 a44.7571464460885,44.7571464460885 0 0,0 -0.06587053595406099,0.7655154753790661 l -23.651327226502758 -2.239805278542013" fill="#deff1b" stroke="none" /><path d="M 120.86939407059847 102.33845913500097 l 21.566116893652673 2.4165283805489453 a42.70108309012916,42.70108309012916 0 0,0 -0.08787865360038748,0.7277613161988639 l -21.521456153792624 -2.786383373671218" fill="#f7ff18" stroke="none" /><path d="M 120.82617615685814 102.69636545807757 l 18.64625650404594 2.414131215509157 a39.801885839999436,39.801885839999436 0 0,0 -0.09354482464988122,0.6768437518642513 l -18.60206716284085 -2.7338632755734937" fill="#ffe215" stroke="none" /><path d="M 120.77682067341334 103.0534771498775 l 19.424532881157 2.8547374130034604 a40.63318627600602,40.63318627600602 0 0,0 -0.10734612115526858,0.6892391027282923 l -19.372665267863464 -3.1877646976632033" fill="#ffed16" stroke="none" /><path d="M 120.7213421655516 103.40968896794604 l 15.478574185616818 2.546993491954966 a36.68672797838046,36.68672797838046 0 0,0 -0.10758851610291972,0.6205419703460919 l -15.432570852021664 -2.8123284952216463" fill="#ffba11" stroke="none" /><path d="M 120.592083275326 104.11899336999214 l 30.323102217643978 6.065469691535713 a51.92378454653672,51.92378454653672 0 0,0 -0.18233232072019553,0.8725261596892245 l -30.21451218609942 -6.585112302510347" fill="#8bff24" stroke="none" /><path d="M 120.51834098615036 104.47187691870673 l 17.361854725514792 3.7839354295444747 a38.76941661520834,38.76941661520834 0 0,0 -0.14730373093521223,0.6490474178629269 l -17.29434013302192 -4.081417181346419" fill="#ffd513" stroke="none" /><path d="M 120.43855184770803 104.8234425847677 l 20.94957442901315 4.944042522513368 a42.52506039994272,42.52506039994272 0 0,0 -0.17377050561728577,0.7090429622489858 l -20.86161639687957 -5.302941309370454" fill="#faff18" stroke="none" /><path d="M 120.35273937422433 105.17358676015961 l 17.613099165204947 4.477180932306583 a39.17323337504784,39.17323337504784 0 0,0 -0.17126261403431478,0.6503120410140786 l -17.5336470703659 -4.778873477693464" fill="#ffda14" stroke="none" /><path d="M 120.16314734710363 105.8691983318838 l 20.600532900282335 5.996514891888762 a42.45553883323042,42.45553883323042 0 0,0 -0.2096973678100698,0.6980143370670588 l -20.494559212468634 -6.349266832546545" fill="#faff18" stroke="none" /><path d="M 119.94978838288452 106.5578916946017 l 7.034472505621121 2.312370834975574 a28.404786445994585,28.404786445994585 0 0,0 -0.15624604436362216,0.4619136670583911 l -6.993741039685133 -2.4327861765081256" fill="#ff4806" stroke="none" /><path d="M 119.83427380445688 106.89939002012753 l 28.950120220606344 10.070354604395003 a51.65161500876944,51.65161500876944 0 0,0 -0.29849672449618897,0.8349484639022747 l -28.772983326066214 -10.5658380246782" fill="#8eff24" stroke="none" /><path d="M 119.58574465831526 107.57618678355244 l 17.589466653374977 6.803983566305663 a39.85957394854793,39.85957394854793 0 0,0 -0.25233259885741477,0.6360429849742443 l -17.47007537955144 -7.104927568493472" fill="#ffe315" stroke="none" /><path d="M 119.4528033332814 107.91128576633889 l 20.09264198946999 8.171502577599082 a42.69072881423584,42.69072881423584 0 0,0 -0.2819095602112418,0.6764803189350569 l -19.94940658472226 -8.515215405975416" fill="#f7ff18" stroke="none" /><path d="M 119.16976305983485 108.57439118712176 l 19.72467713522784 8.82259719482296 a42.60789460708928,42.60789460708928 0 0,0 -0.30437362432770804,0.665111299849486 l -19.570319046045075 -9.159897476887135" fill="#f9ff18" stroke="none" /><path d="M 119.0197475246899 108.90220220490707 l 13.959660765319663 6.533826102763139 a36.413079258342705,36.413079258342705 0 0,0 -0.26983954353084905,0.5638608636250257 l -13.845441963828902 -6.772499468453268" fill="#ffb610" stroke="none" /><path d="M 118.70294669586154 109.54985784667822 l 15.964061134400158 8.151363363663773 a38.924730753608145,38.924730753608145 0 0,0 -0.3089732635213867,0.5924969724541209 l -15.821779801903821 -8.424206579222396" fill="#ffd714" stroke="none" /><line stroke="#e1ed5e" stroke-width="0.3" x1="174.33088141563837" x2="178.70328620479359" y1="141.23008692659167" y2="143.65538615756765" /><path d="M 175.20536237346943 141.71514677278685 a86.0,86.0 0 0,1 -30.301960400862466,31.631185727798858" fill="none" id="id41" stroke="none" /><text fill="#e1ed5e" style="font-size:6.75px; font-family:Arial;" text-anchor="middle"><textPath startOffset="22.145653131862474" xlink:href="#id41">May</textPath></text><path d="M 118.36410011445183 110.18625677009912 l 20.98084133936964 11.63771901718958 a44.992336427093925,44.992336427093925 0 0,0 -0.3804351323421491,0.6721924262582545 l -20.777972842006115 -11.996168213546957" fill="#dbff1b" stroke="none" /><path d="M 118.18653347947321 110.5 l 15.483560896506038 8.93943805161172 a38.87887610322345,38.87887610322345 0 0,0 -0.3386651695184376,0.5751274971202953 l -15.327822016857835 -9.203916717025564" fill="#ffd614" stroke="none" /><path d="M 118.00360718960297 110.81064883170644 l 13.198640816700278 7.92540458267577 a36.39532907109701,36.39532907109701 0 0,0 -0.3262269940651417,0.5328672778950111 l -13.060645858179733 -8.150808976695338" fill="#ffb610" stroke="none" /><path d="M 117.423217284605 111.72311816256416 l 17.85393885504954 12.012926857652186 a42.519143670860814,42.519143670860814 0 0,0 -0.41265894580692136,0.6020817343943041 l -17.645090172427302 -12.317643327116533" fill="#faff18" stroke="none" /><path d="M 117.21940702142032 112.02048342749411 l 12.735320787083223 8.89024298424001 a36.53141383998066,36.53141383998066 0 0,0 -0.36337432288217103,0.5111314917469488 l -12.580831365671092 -9.107551702696462" fill="#ffb811" stroke="none" /><path d="M 116.79662413953412 112.60449989151573 l 17.04148806481983 12.78825034601543 a42.30614142391251,42.30614142391251 0 0,0 -0.44088644744725736,0.5771345123535593 l -16.81944964001827 -13.078905771609865" fill="#fcff18" stroke="none" /><path d="M 116.57777611688842 112.89097897827486 l 8.173850838664807 6.356035851240561 a31.354275893320434,31.354275893320434 0 0,0 -0.33404781239341996,0.4220584984780155 l -8.063536595629824 -6.49541429363326" fill="#ff720a" stroke="none" /><path d="M 116.1254893667686 113.45245675266167 l 24.020641575006685 20.038873525592614 a52.28174665599151,52.28174665599151 0 0,0 -0.5808388440088836,0.6842266977439656 l -23.67310816749069 -20.448267005786136" fill="#87ff25" stroke="none" /><path d="M 115.89218393027572 113.72728997021213 l 5.607083355918331 4.843265057309568 a28.40922399280601,28.40922399280601 0 0,0 -0.3219562377052441,0.3663270978171761 l -5.5231160542545 -4.938804432938038" fill="#ff4806" stroke="none" /><path d="M 115.6541949942343 113.99807769240083 l 11.684880305479297 10.44869202170712 a36.67519035667076,36.67519035667076 0 0,0 -0.4236897858376211,0.46570929416160584 l -11.503792818799797 -10.6477388914264" fill="#ffba11" stroke="none" /><path d="M 114.91283532996324 114.78537596483092 l 13.402822823970224 13.288269471081525 a39.87362618011744,39.87362618011744 0 0,0 -0.4860938321822586,0.4819392090087416 l -13.172737071658 -13.516388690318928" fill="#ffe315" stroke="none" /><path d="M 114.65682725009322 115.03919595460226 l 10.325930968354818 10.595314838400402 a35.794781069284426,35.794781069284426 0 0,0 -0.4437317321315334,0.4250849617641424 l -10.142526750357973 -10.771011930470124" fill="#ffae10" stroke="none" /><path d="M 114.39649973595853 115.28858382429668 l 14.762639340570532 15.677411396218472 a42.53408341179261,42.53408341179261 0 0,0 -0.5358691512004172,0.4959924862891971 l -14.491340418056147 -15.928521628640048" fill="#f9ff18" stroke="none" /><path d="M 114.13192950727249 115.5334660781643 l 10.827120965455428 11.900902573462044 a37.08906555594948,37.08906555594948 0 0,0 -0.4746251922535268,0.4244127735972745 l -10.621230746378524 -12.085010876942706" fill="#ffbf11" stroke="none" /><path d="M 113.59037401385872 116.0094264158162 l 12.49139776902986 14.714835162744253 a40.30184944741977,40.30184944741977 0 0,0 -0.5312660146566209,0.44320100455712963 l -12.236957420211343 -14.927098351213251" fill="#ffe915" stroke="none" /><path d="M 113.31354834802062 116.24036423190432 l 9.909412909753488 12.08787250189826 a36.630519052102436,36.630519052102436 0 0,0 -0.4897138097792859,0.39447878013648585 l -9.700448329618949 -12.25619957582815" fill="#ffb911" stroke="none" /><path d="M 112.7482090630111 116.68781488649013 l 11.905903155809378 15.585209415580202 a40.61247772421938,40.61247772421938 0 0,0 -0.5576422173669877,0.418465115961196 l -11.636607949531625 -15.787293558805413" fill="#ffed16" stroke="none" /><path d="M 112.16784306229584 117.11559508785304 l 7.3887954319131754 10.393266099188398 a33.75203035375935,33.75203035375935 0 0,0 -0.47510789787731295,0.3316622114571964 l -7.209292442862104 -10.518573126450718" fill="#ff930d" stroke="none" /><path d="M 111.8722381534696 117.32195027204791 l 9.929606596281713 14.48759277386334 a38.56381027961241,38.56381027961241 0 0,0 -0.549265657131191,0.3695704470653019 l -9.67944465105352 -14.655912894985764" fill="#ffd213" stroke="none" /><path d="M 111.5731344415666 117.5232005979908 l 6.528774819798519 9.885397201948876 a32.84677080422905,32.84677080422905 0 0,0 -0.47317238582096505,0.30670462378256896 l -6.358116801720545 -9.99601566743534" fill="#ff860c" stroke="none" /><line stroke="#e1ed5e" stroke-width="0.3" x1="143.1302829299769" x2="145.66735839644613" y1="173.24464959558577" y2="177.55315839532614" /><path d="M 143.63769802327073 174.10635135553383 a86.0,86.0 0 0,1 -40.68552437913181,11.842963189579606" fill="none" id="id42" stroke="none" /><text fill="#e1ed5e" style="font-size:6.75px; font-family:Arial;" text-anchor="middle"><textPath startOffset="21.407464694133747" xlink:href="#id42">June</textPath></text><path d="M 110.65571695917076 118.09573695890943 l 13.27364316180622 22.541547984319255 a47.15933845333885,47.15933845333885 0 0,0 -0.7011190798025301,0.404791289457975 l -12.884731614143291 -22.766086171053402" fill="#c2ff1e" stroke="none" /><path d="M 110.34350942703117 118.27599006163325 l 7.311912156038566 12.91944816582934 a35.845073266480554,35.845073266480554 0 0,0 -0.5381127463442191,0.29848206943784833 l -7.089055221538252 -13.043063150700332" fill="#ffaf10" stroke="none" /><path d="M 109.71004243097381 118.62028667847754 l 8.903644120467682 17.073911590479273 a40.25599479703506,40.25599479703506 0 0,0 -0.6154811472460772,0.31426905926064636 l -8.609235751508022 -17.224238601412758" fill="#ffe815" stroke="none" /><path d="M 109.3889696526874 118.78422872680471 l 8.808297048266658 17.62249454080631 a40.70122866044784,40.70122866044784 0 0,0 -0.6276512259108069,0.30701566659699764 l -8.504485573093783 -17.771103957500532" fill="#ffee16" stroke="none" /><path d="M 109.06512990194946 118.94263497670748 l 7.607360996909627 15.896458634256426 a38.62297757043138,38.62297757043138 0 0,0 -0.6005160990777866,0.2810718562038134 l -7.333356183960334 -16.024706722030775" fill="#ffd313" stroke="none" /><path d="M 108.4095320186766 119.2426549942271 l 7.534619717093451 17.24068442889961 a39.81519848043371,39.81519848043371 0 0,0 -0.6286344424399698,0.2683266625630357 l -7.237550199483049 -17.36748574112205" fill="#ffe215" stroke="none" /><path d="M 108.07796709384702 119.3841803445677 l 3.908959895475515 9.380080742256956 a31.16198219815877,31.16198219815877 0 0,0 -0.4955430921684772,0.2015330615599633 l -3.7473623421165967 -9.44580106039621" fill="#ff6f0a" stroke="none" /><path d="M 107.407793817531 119.65005319985036 l 5.264285155236908 13.964141808966453 a35.9234699268157,35.9234699268157 0 0,0 -0.5788996158791027,0.2125799575460047 l -5.023796387703678 -14.05245261552118" fill="#ffb010" stroke="none" /><path d="M 106.38641147887787 120.00534299687104 l 4.714786331659834 14.769001031920189 a36.50330937684164,36.50330937684164 0 0,0 -0.5985836435762137,0.18544274288910387 l -4.460562055211995 -14.847760362615936" fill="#ffb711" stroke="none" /><path d="M 105.69591212413111 120.21278271476187 l 5.1354162152805305 18.22378046697211 a39.93353306207165,39.93353306207165 0 0,0 -0.6614107393037046,0.18027043816014088 l -4.821824075042131 -18.30925139927639" fill="#ffe415" stroke="none" /><path d="M 104.29559338865022 120.5559693870025 l 3.854436549749722 18.44487421229025 a39.84330294357272,39.84330294357272 0 0,0 -0.6707022675527455,0.13415923762306736 l -3.537237796666018 -18.508322846576178" fill="#ffe315" stroke="none" /><path d="M 103.2317021107853 120.74984581791261 l 1.6145952843528457 10.36685995805139 a31.491839844474548,31.491839844474548 0 0,0 -0.5348737452736972,0.07860802116623074 l -1.4363964334714632 -10.393049052516503" fill="#ff740a" stroke="none" /><path d="M 101.08105385017728 120.97215588758144 l 0.9397996261346625 18.231861677523955 a39.256067582194405,39.256067582194405 0 0,0 -0.6732868706294906,0.028913835199930897 l -0.6266869949043424 -18.245308081149716" fill="#ffdb14" stroke="none" /><line stroke="#e1ed5e" stroke-width="0.3" x1="101.45913802915013" x2="101.54496967792366" y1="184.9874750549273" y2="189.98673829345242" /><path d="M 101.47630435890484 185.9873277026323 a86.0,86.0 0 0,1 -42.54439059252881,-10.42667462771756" fill="none" id="id43" stroke="none" /><text fill="#e1ed5e" style="font-size:6.75px; font-family:Arial;" text-anchor="middle"><textPath startOffset="22.145653131862474" xlink:href="#id43">July</textPath></text><path d="M 100.0 121.0 l 9.758420311788798e-16 7.968354891045312 a28.968354891045312,28.968354891045312 0 0,0 -0.4972803325110703,-0.004268553574790492 l 0.13678740766221717 -7.967180735664956" fill="#ff5007" stroke="none" /><path d="M 98.55909050195518 120.95050786540614 l -0.725274008398113 10.545324906343737 a31.570236504809692,31.570236504809692 0 0,0 -0.5403486591479659,-0.04182640362181325 l 0.906191662321315 -10.53132073572687" fill="#ff750a" stroke="none" /><path d="M 98.19965949673042 120.92268563240118 l -0.4581682725954255 5.324609826221827 a26.34428554322382,26.34428554322382 0 0,0 -0.4502369325606123,-0.042637905623064076 l 0.5495047685410531 -5.315960165093579" fill="#ff2a04" stroke="none" /><path d="M 96.76829788921471 120.74984581791261 l -1.6999573640979837 10.914945744639471 a32.04653319590243,32.04653319590243 0 0,0 -0.5428415622352047,-0.08932437249036031 l 1.887076429386252 -10.884155373653442" fill="#ff7b0b" stroke="none" /><path d="M 96.41257539226777 120.69131181640829 l -0.4232529484764295 2.441210531717935 a23.477630303044535,23.477630303044535 0 0,0 -0.39650952414376495,-0.07225724372619363 l 0.46509720617125166 -2.4335851140603753" fill="#ff0000" stroke="none" /><path d="M 95.70440661134978 120.55596938700252 l -0.6072575677327643 2.905947291315373 a23.968718816842017,23.968718816842017 0 0,0 -0.40203255203713634,-0.0876211235224695 l 0.657052536389037 -2.8950947096591846" fill="#ff0701" stroke="none" /><path d="M 95.00130118170881 120.39639698878247 l -1.1143794191667937 4.5470483131097685 a25.68161188605131,25.68161188605131 0 0,0 -0.42728663116316795,-0.10861459075030482 l 1.1922713435553403 -4.527248490524201" fill="#ff2103" stroke="none" /><path d="M 94.6519064749342 120.30758222061772 l -1.133128657634902 4.302674078829953 a25.44938026958684,25.44938026958684 0 0,0 -0.4215127520213288,-0.11488517494736161 l 1.206822810590926 -4.282588409738446" fill="#ff1d03" stroke="none" /><path d="M 94.30408787586889 120.21278271476187 l -2.0120400249712405 7.140020237645712 a28.418099086428853,28.418099086428853 0 0,0 -0.46841145075784546,-0.1363477466139818 l 2.1343114881106926 -7.104428796729214" fill="#ff4806" stroke="none" /><path d="M 93.61358852112213 120.00534299687104 l -1.3805628520049629 4.324593470753082 a25.539610388085773,25.539610388085773 0 0,0 -0.41651123082166025,-0.13691551453533596 l 1.4545968204743667 -4.300257034815725" fill="#ff1f03" stroke="none" /><path d="M 92.93061703081489 119.77432235084164 l -1.4978272905354977 4.189689510108804 a25.44938026958684,25.44938026958684 0 0,0 -0.41011173175751486,-0.15059870854075239 l 1.5695281739471314 -4.163359952559332" fill="#ff1d03" stroke="none" /><path d="M 92.25597844496254 119.51999308798841 l -1.6445847833306453 4.145427976287421 a25.45973454548016,25.45973454548016 0 0,0 -0.4048649890827961,-0.16465506644688813 l 1.7155042336038824 -4.116585653261241" fill="#ff1d03" stroke="none" /><path d="M 91.26138138417905 119.09545874513695 l -1.885966371298844 4.1211768840273875 a25.5322144767334,25.5322144767334 0 0,0 -0.3969788660241518,-0.18580615393733116 l 1.9564339511944855 -4.08819449851953" fill="#ff1e03" stroke="none" /><path d="M 90.6110303473126 118.78422872680471 l -2.0197116289065526 4.040776208996355 a25.517422654028657,25.517422654028657 0 0,0 -0.39014046601132163,-0.19920850180625851 l 2.0887793166314568 -4.00550975551726" fill="#ff1e03" stroke="none" /><line stroke="#e1ed5e" stroke-width="0.3" x1="58.13341422392154" x2="55.67067388415222" y1="173.97424548756322" y2="178.32567169271397" /><path d="M 57.64086615596768 174.84453072859336 a86.0,86.0 0 0,1 -31.369924170532247,-30.572349798747897" fill="none" id="id44" stroke="none" /><text fill="#e1ed5e" style="font-size:6.75px; font-family:Arial;" text-anchor="middle"><textPath startOffset="22.145653131862474" xlink:href="#id44">August</textPath></text><path d="M 86.68645165197938 116.24036423190432 l -4.706666356965339 5.741367662252994 a28.424015815510753,28.424015815510753 0 0,0 -0.37469033828198367,-0.3125800065185007 l 4.804531029409215 -5.6597254718226235" fill="#ff4806" stroke="none" /><path d="M 86.40962598614128 116.0094264158162 l -4.83324908696695 5.693555271415106 a28.46839128362498,28.46839128362498 0 0,0 -0.3698457771577598,-0.3194639735845896 l 4.9302743438875725 -5.609747165365794" fill="#ff4906" stroke="none" /><path d="M 86.13680546590413 115.77377054828092 l -4.938086226389276 5.618635653645242 a28.480224741788778,28.480224741788778 0 0,0 -0.3644586872404274,-0.325901205494178 l 5.033809940453075 -5.533038918267682" fill="#ff4906" stroke="none" /><path d="M 85.60350026404147 115.28858382429668 l -7.251470585063973 7.70081046938531 a31.57763241616206,31.57763241616206 0 0,0 -0.3914536451980159,-0.37500373706000184 l 7.382596716127304 -7.575194602019725" fill="#ff750a" stroke="none" /><path d="M 85.08716467003676 114.78537596483092 l -7.447471595434687 7.383818374541953 a31.487402297663127,31.487402297663127 0 0,0 -0.3772688578841129,-0.3871110837614671 l 7.573127254469609 -7.254884598712748" fill="#ff740a" stroke="none" /><path d="M 84.83555147118756 114.52719865689866 l -10.736964056689494 10.285768686355507 a35.868740182808146,35.868740182808146 0 0,0 -0.42213094701957526,-0.44828843723858225 l 10.911950837445321 -10.099938789172436" fill="#ffaf10" stroke="none" /><path d="M 84.58840730492382 114.26474011684316 l -7.73128868526518 7.155965385643264 a31.534736130318308,31.534736130318308 0 0,0 -0.3643047375504696,-0.40043472336474717 l 7.85299112365753 -7.022193086720843" fill="#ff740a" stroke="none" /><path d="M 84.3458050057657 113.99807769240083 l -6.186904408149733 5.532368072113262 a29.299691719631568,29.299691719631568 0 0,0 -0.3320477361283978,-0.37780937055191155 l 6.280963208236724 -5.4253464237500495" fill="#ff5507" stroke="none" /><path d="M 83.8745106332314 113.45245675266167 l -11.583246774253745 9.663156431529863 a36.084700794297405,36.084700794297405 0 0,0 -0.3927272925409052,-0.4790634403353626 l 11.74742088603328 -9.462890709496005" fill="#ffb210" stroke="none" /><path d="M 83.64595745247003 113.17365903436017 l -5.786163474264086 4.660923713845697 a28.42993254459265,28.42993254459265 0 0,0 -0.30289191832482587,-0.38269404410510943 l 5.865321823230473 -4.560909725825907" fill="#ff4806" stroke="none" /><path d="M 83.4222238831116 112.89097897827486 l -2.8269846972010706 2.1982803994076296 a24.581100276818397,24.581100276818397 0 0,0 -0.25616786619226173,-0.33533195994464404 l 2.8643045407476277 -2.149427526222115" fill="#ff1001" stroke="none" /><path d="M 83.20337586046588 112.60449989151573 l -11.836995840636105 8.882702354337983 a35.79921861609585,35.79921861609585 0 0,0 -0.36463716964094495,-0.49470035121405165 l 11.987735029860879 -8.678195693855052" fill="#ffae10" stroke="none" /><path d="M 82.98947788004972 112.3143062007846 l -9.587791675057147 6.940821783331148 a32.83641652833573,32.83641652833573 0 0,0 -0.3266205538643134,-0.4594327128227374 l 9.705527327451422 -6.775211843798906" fill="#ff860c" stroke="none" /><path d="M 82.576782715395 111.72311816256416 l -12.683561868774882 8.53406647469311 a36.287348765352384,36.287348765352384 0 0,0 -0.3433052083826505,-0.5198078414450584 l 12.82819151607826 -8.315078754908992" fill="#ffb510" stroke="none" /><path d="M 82.37810715431573 111.42229804090323 l -6.234736911974949 4.041281140387795 a28.42993254459265,28.42993254459265 0 0,0 -0.2619375702689535,-0.4118093671368034 l 6.3031921738697925 -3.93365809857232" fill="#ff4806" stroke="none" /><line stroke="#e1ed5e" stroke-width="0.3" x1="26.387840678322732" x2="22.057713659400548" y1="142.50000000000003" y2="145.00000000000006" /><path d="M 25.521815274538298 143.00000000000003 a86.0,86.0 0 0,1 -11.493303480769221,-40.785679425670985" fill="none" id="id45" stroke="none" /><text fill="#e1ed5e" style="font-size:6.75px; font-family:Arial;" text-anchor="middle"><textPath startOffset="21.40746469413373" xlink:href="#id45">September</textPath></text><path d="M 81.81346652052679 110.50000000000001 l -9.868896595241369 5.697810105867193 a32.395620211734375,32.395620211734375 0 0,0 -0.2739229175734808,-0.4839955485653201 l 9.965252877836228 -5.527557787202751" fill="#ff800b" stroke="none" /><path d="M 81.4637452351635 109.86951160357371 l -13.09429193210872 6.971972914921719 a35.834718990587234,35.834718990587234 0 0,0 -0.28444564315624016,-0.5454620263159822 l 13.21204564423991 -6.746164645501234" fill="#ffaf10" stroke="none" /><path d="M 81.29705330413844 109.54985784667822 l -13.27396269930814 6.777779934995557 a35.90424055729953,35.90424055729953 0 0,0 -0.2755737432901053,-0.5513320861124994 l 13.388356355809982 -6.548915992719305" fill="#ffb010" stroke="none" /><path d="M 80.9802524753101 108.90220220490708 l -17.099914588151645 8.00362345255938 a39.88028250033457,39.88028250033457 0 0,0 -0.28488866290567777,-0.6225331426666861 l 17.23478771591238 -7.708901327678004" fill="#ffe315" stroke="none" /><path d="M 80.83023694016515 108.57439118712176 l -12.209099853281085 5.460975070891926 a34.374766089629055,34.374766089629055 0 0,0 -0.23631197794926267,-0.5407280515232087 l 12.301045713247316 -5.250584949592867" fill="#ff9b0e" stroke="none" /><path d="M 80.68587082218212 108.24405325689762 l -17.816245815161125 7.604695919029883 a40.371371014132066,40.371371014132066 0 0,0 -0.26659360858518916,-0.6397276106089391 l 17.9441652682828 -7.297735798979662" fill="#ffea15" stroke="none" /><path d="M 80.5471966667186 107.91128576633889 l -6.879784194566883 2.797948338933787 a28.4269741800517,28.4269741800517 0 0,0 -0.17995807686665913,-0.4536119110205509 l 6.926800946399667 -2.679435410699671" fill="#ff4806" stroke="none" /><path d="M 80.28708602549918 107.23885506374661 l -17.071896052214267 6.269036700773017 a39.18654601548211,39.18654601548211 0 0,0 -0.2264605981430525,-0.633450597734603 l 17.176996820401264 -5.975051146657492" fill="#ffda14" stroke="none" /><path d="M 80.16572619554312 106.89939002012753 l -21.111150789189384 7.343554117701616 a43.35192328913787,43.35192328913787 0 0,0 -0.23846567346532538,-0.7049813910269133 l 21.23410188422708 -6.980071052200541" fill="#efff19" stroke="none" /><path d="M 80.05021161711548 106.5578916946017 l -7.044308963379682 2.3156042740176908 a28.41514072188791,28.41514072188791 0 0,0 -0.14834771567968957,-0.46469710647205004 l 7.083021394836627 -2.194338133854249" fill="#ff4806" stroke="none" /><path d="M 79.94057633289273 106.21446072829308 l -17.923025412627688 5.552599087959534 a39.76342710096711,39.76342710096711 0 0,0 -0.1964004280085577,-0.6537531490631179 l 18.015702160639876 -5.244108335305692" fill="#ffe215" stroke="none" /><path d="M 79.64726062577567 105.17358676015961 l -14.543780809946618 3.6969722088759758 a36.00630413396226,36.00630413396226 0 0,0 -0.1471328580353289,-0.6003522699950566 l 14.605101194498241 -3.4467641142728196" fill="#ffb110" stroke="none" /><path d="M 79.56144815229197 104.8234425847677 l -10.130714352457774 2.3908210026749956 a31.409005637327986,31.409005637327986 0 0,0 -0.1193379761491809,-0.5258251422476234 l 10.170263190164622 -2.216561526488346" fill="#ff720a" stroke="none" /><path d="M 79.48165901384964 104.47187691870673 l -18.2579131563663 3.9792271939927906 a39.686509622902435,39.686509622902435 0 0,0 -0.13936066995160099,-0.6668912548488367 l 18.323531537142266 -3.665219487858545" fill="#ffe115" stroke="none" /><path d="M 79.34024301695615 103.76489593502545 l -22.021791108311533 4.013103924393138 a43.384465299088305,43.384465299088305 0 0,0 -0.12723048635458,-0.7338316351071881 l 22.087436412158347 -3.634479256365357" fill="#efff19" stroke="none" /><path d="M 79.2786578344484 103.40968896794605 l -18.54363838078847 3.0513486388767515 a39.793010746376595,39.793010746376595 0 0,0 -0.10512651712070756,-0.6749876525899121 l 18.593286390047446 -2.732572804355389" fill="#ffe215" stroke="none" /><path d="M 79.22317932658666 103.0534771498775 l -16.62492982219118 2.443292172961607 a37.803510592588594,37.803510592588594 0 0,0 -0.08884812100987399,-0.6428607439854903 l 16.664422459756267 -2.157543120776031" fill="#ffc912" stroke="none" /><path d="M 79.17382384314188 102.69636545807758 l -7.415374606872176 0.9600687038312357 a28.47726637724783,28.47726637724783 0 0,0 -0.0586060972310735,-0.4853425571596991 l 7.430762790362912 -0.8326324697481373" fill="#ff4906" stroke="none" /><path d="M 79.13060592940153 102.33845913500099 l -19.61691977000852 2.198116777208485 a40.739687399480175,40.739687399480175 0 0,0 -0.0719106068068355,-0.6956698888124111 l 19.65176276929702 -1.8610423661131426" fill="#ffee16" stroke="none" /><path d="M 79.06263194458094 101.62068470465958 l -16.303589518889467 1.2620009398685361 a37.35236000009392,37.35236000009392 0 0,0 -0.04399759178755978,-0.63971532844705 l 16.32285107184209 -0.9819421872671428" fill="#ffc312" stroke="none" /><path d="M 79.03789590574601 101.26102812881392 l -31.553673138461722 1.8981906213273407 a52.61071679294501,52.61071679294501 0 0,0 -0.04649387053464095,-0.9019686674347003 l 31.581608598452934 -1.3562501605159096" fill="#84ff25" stroke="none" /><path d="M 79.01933749520258 100.90099992219065 l -10.618138068537991 0.4559885356992292 a31.62792461335819,31.62792461335819 0 0,0 -0.01863835555859041,-0.5426353858586304 l 10.624401111093428 -0.273646885276479" fill="#ff760a" stroke="none" /><line stroke="#e1ed5e" stroke-width="0.3" x1="15.003131293944662" x2="10.003315487706104" y1="100.72959589197737" y2="100.7725132973878" /><path d="M 14.003168132696942 100.73817937305945 a86.0,86.0 0 0,1 10.791469493833604,-42.45332614584628" fill="none" id="id46" stroke="none" /><text fill="#e1ed5e" style="font-size:6.75px; font-family:Arial;" text-anchor="middle"><textPath startOffset="22.145653131862435" xlink:href="#id46">October</textPath></text><path d="M 79.00077361379809 100.18025310272382 l -19.247889791316407 0.16521998439193314 a40.24859888568269,40.24859888568269 0 0,0 0.0,-0.6909461742314943 l 19.247889791316407 0.16521998439192606" fill="#ffe815" stroke="none" /><path d="M 79.00077361379809 99.81974689727619 l -15.338555070771628 -0.13166304757890368 a36.33912014481899,36.33912014481899 0 0,0 0.0107089109838336,-0.6237403774843401 l 15.33403472818913 0.39495034103229615" fill="#ffb510" stroke="none" /><path d="M 79.01933749520258 99.09900007780938 l -18.81265102470266 -0.8078961808560914 a39.829990303138445,39.829990303138445 0 0,0 0.0351991100945936,-0.6828533323172327 l 18.796010325151496 1.130721306550036" fill="#ffe315" stroke="none" /><path d="M 79.03789590574601 98.7389718711861 l -19.891582961542895 -1.196628235808491 a40.92754354783042,40.92754354783042 0 0,0 0.048208824124651314,-0.700945722389878 l 19.86811017625318 1.5379173823526942" fill="#fff116" stroke="none" /><path d="M 79.13060592940154 97.66154086499901 l -19.740398320827598 -2.211952806379384 a40.86393871020002,40.86393871020002 0 0,0 0.08409781801274405,-0.6964505738187499 l 19.699518416555186 2.5504970571215697" fill="#fff016" stroke="none" /><path d="M 79.17382384314186 97.30363454192245 l -18.556773249640568 -2.4025458167092015 a39.711655721500506,39.711655721500506 0 0,0 0.09333276031084775,-0.6753093599467398 l 18.512795972774512 2.7207434848560084" fill="#ffe115" stroke="none" /><path d="M 79.22317932658666 96.9465228501225 l -7.323164509704635 -1.076252995906677 a28.401828081453637,28.401828081453637 0 0,0 0.07503290678592855,-0.4817650865411904 l 7.303610110780439 1.2018062643793173" fill="#ff4806" stroke="none" /><path d="M 79.2786578344484 96.59031103205396 l -22.233391850023672 -3.6584961681235297 a43.532383526135746,43.532383526135746 0 0,0 0.1276642754502439,-0.7363336153360112 l 22.16731275708119 4.039622816380134" fill="#edff1a" stroke="none" /><path d="M 79.34024301695615 96.23510406497455 l -15.001826771663493 -2.7338325749401164 a36.248890026320055,36.248890026320055 0 0,0 0.11681413279701602,-0.6112209037480666 l 14.952686346584318 2.9909560437214977" fill="#ffb410" stroke="none" /><path d="M 79.48165901384962 95.52812308129327 l -20.24513951510957 -4.412333929664445 a41.72038524480467,41.72038524480467 0 0,0 0.1585158854364479,-0.6984502393767108 l 20.16641276811546 4.759218502980164" fill="#fffa17" stroke="none" /><path d="M 79.56144815229197 95.17655741523228 l -22.02354244193534 -5.1974960492997235 a43.62853037371657,43.62853037371657 0 0,0 0.17827962408702058,-0.7274417043459372 l 21.93107529133202 5.574793578253779" fill="#ecff1a" stroke="none" /><path d="M 79.73907114497095 94.47779374421319 l -17.614993145818513 -4.80104471228801 a39.25754676446488,39.25754676446488 0 0,0 0.1827934342896185,-0.6486694121083912 l 17.529981219454314 5.102722048299415" fill="#ffdb14" stroke="none" /><path d="M 79.83685265289637 94.1308016681162 l -21.343316678762005 -6.212728424357418 a43.2291511606885,43.2291511606885 0 0,0 0.21351841150028453,-0.7107333487846748 l 21.23352194725809 6.578199376732816" fill="#f1ff19" stroke="none" /><path d="M 79.94057633289273 93.78553927170692 l -9.552824187211337 -2.9594893522817793 a31.00075133067707,31.00075133067707 0 0,0 0.1618464849170168,-0.5069818088470143 l 9.500612986517064 3.1230401948201854" fill="#ff6d0a" stroke="none" /><path d="M 80.05021161711548 93.44210830539832 l -36.76867910149466 -12.086595139426853 a59.70428328923179,59.70428328923179 0 0,0 0.3284150054514145,-0.9709006080949023 l 36.555778674470886 12.715997421995917" fill="#39ff2e" stroke="none" /><path d="M 80.16572619554312 93.10060997987247 l -14.426162600037697 -5.01816820987273 a36.27403612491812,36.27403612491812 0 0,0 0.20962908837809158,-0.5863698693040648 l 14.337893341615663 5.265073035557716" fill="#ffb410" stroke="none" /><path d="M 80.28708602549916 92.7611449362534 l -20.52931949019829 -7.5386504775054055 a42.869709868963234,42.869709868963234 0 0,0 0.25960531852902763,-0.6886339503654956 l 20.396883487854826 7.889952708065046" fill="#f5ff19" stroke="none" /><path d="M 80.41425534168474 92.42381321644754 l -13.810835346426424 -5.342327802532241 a35.8080937097187,35.8080937097187 0 0,0 0.22668454403366373,-0.5713931322689257 l 13.717092127426628 5.578621952014749" fill="#ffae10" stroke="none" /><path d="M 80.68587082218212 91.75594674310238 l -16.940126213377084 -7.230732558320098 a39.41877763194658,39.41877763194658 0 0,0 0.2709874239219112,-0.6200722578525043 l 16.813504907438197 7.520466885948469" fill="#ffdd14" stroke="none" /><path d="M 80.83023694016515 91.42560881287825 l -14.1494312500036 -6.328860624626887 a36.50035101230069,36.50035101230069 0 0,0 0.26074379476613924,-0.569772248326859 l 14.038702990382413 6.570821855168417" fill="#ffb711" stroke="none" /><path d="M 80.9802524753101 91.09779779509293 l -19.776632650446146 -9.256462661131422 a42.83568867674232,42.83568867674232 0 0,0 0.3174343646511017,-0.6633157344337481 l 19.61481902783514 9.594590897630258" fill="#f6ff19" stroke="none" /><path d="M 81.1358732173502 90.77261029715801 l -10.918233840382157 -5.340655291005816 a33.15444071648772,33.15444071648772 0 0,0 0.2544683634333133,-0.509107188465434 l 10.824945563737101 5.52729433563502" fill="#ff8b0c" stroke="none" /><path d="M 81.29705330413844 90.45014215332179 l -14.218527135136243 -7.260081266217448 a36.96481424522964,36.96481424522964 0 0,0 0.2934160126914275,-0.5626638926872595 l 14.091803053469876 7.5030914020091934" fill="#ffbe11" stroke="none" /><path d="M 81.46374523516351 90.13048839642627 l -11.062711690174208 -5.890270865303797 a33.53311137772915,33.53311137772915 0 0,0 0.27489909835916526,-0.5057833784501403 l 10.959967242199692 6.079309077228557" fill="#ff900d" stroke="none" /><line stroke="#e1ed5e" stroke-width="0.3" x1="26.387840678322718" x2="22.05771365940052" y1="57.49999999999999" y2="54.99999999999999" /><path d="M 25.521815274538284 56.99999999999999 a86.0,86.0 0 0,1 29.574782752854787,-30.34633250058573" fill="none" id="id47" stroke="none" /><text fill="#e1ed5e" style="font-size:6.75px; font-family:Arial;" text-anchor="middle"><textPath startOffset="21.40746469413373" xlink:href="#id47">November</textPath></text><path d="M 81.99639281039701 89.18935116829357 l -22.228956079548368 -13.347849435984184 a46.928586019144845,46.928586019144845 0 0,0 0.4206411081720866,-0.6870856377925583 l 21.99654700692089 13.727472189901286" fill="#c4ff1e" stroke="none" /><path d="M 82.18462484594161 88.88188828441811 l -16.189026923172246 -10.103150135313848 a40.08293047138956,40.08293047138956 0 0,0 0.3693018054287337,-0.5806037775334418 l 16.013207426117624 10.379567587525964" fill="#ffe615" stroke="none" /><path d="M 82.37810715431573 88.57770195909679 l -12.735098689401354 -8.25473710937264 a36.176410095066814,36.176410095066814 0 0,0 0.34225564635577155,-0.5182186707644771 l 12.591518604124854 8.472135658476178" fill="#ffb310" stroke="none" /><path d="M 82.576782715395 88.27688183743585 l -14.744103753407012 -9.920491013736138 a38.770895797478815,38.770895797478815 0 0,0 0.3762812607804866,-0.549005604780446 l 14.571632755811214 10.172131353586618" fill="#ffd513" stroke="none" /><path d="M 82.78059297857968 87.97951657250589 l -12.26108169872612 -8.559187269303075 a35.95305357222519,35.95305357222519 0 0,0 0.35762143109432787,-0.503039328992971 l 12.11234516910182 8.768403825005567" fill="#ffb010" stroke="none" /><path d="M 82.98947788004972 87.6856937992154 l -5.995664776554109 -4.340398925742194 a28.401828081453637,28.401828081453637 0 0,0 0.28929017460716744,-0.39247768164134617 l 5.920272582363123 4.442682916652404" fill="#ff4806" stroke="none" /><path d="M 83.64595745247003 86.82634096563983 l -49.06212764258992 -39.520977103080504 a84.0,84.0 0 0,0 0.9142127230454804,-1.1151908732060285 l 48.376468100305814 40.357370257985025" fill="#4dd2ff" stroke="none" /><path d="M 84.10781606972428 86.27271002978789 l -7.928722581347483 -6.84864172507959 a31.477048021769807,31.477048021769807 0 0,0 0.3567232937345374,-0.40588562547806506 l 7.809988223654353 6.983739628368955" fill="#ff730a" stroke="none" /><path d="M 84.34580500576568 86.00192230759919 l -13.03098133942498 -11.652383866732219 a38.48097607246584,38.48097607246584 0 0,0 0.44455110804901715,-0.4886395416376906 l 12.829032530534096 11.874360983927566" fill="#ffd113" stroke="none" /><path d="M 84.83555147118756 85.47280134310135 l -13.875165449303283 -13.292094631492033 a40.21457769346178,40.21457769346178 0 0,0 0.48183421589626196,-0.4944043527871935 l 13.644944432256219 13.528321676346955" fill="#ffe815" stroke="none" /><path d="M 85.08716467003674 85.21462403516908 l -7.79621074489651 -7.729576865423181 a31.97849081146061,31.97849081146061 0 0,0 0.3898453347515819,-0.38651334336511395 l 7.662373490014952 7.862270219016968" fill="#ff7a0b" stroke="none" /><path d="M 85.34317274990677 84.96080404539775 l -20.22651864947089 -20.75418999339537 a49.98013904313343,49.98013904313343 0 0,0 0.6195812072955031,-0.593544781095168 l 19.867264956310088 21.09834690479611" fill="#a1ff22" stroke="none" /><path d="M 85.60350026404147 84.71141617570332 l -10.701268226007572 -11.364376015022119 a36.609810500315795,36.609810500315795 0 0,0 0.4612317112486374,-0.4269091861421105 l 10.504606743444981 11.546402947296595" fill="#ffb911" stroke="none" /><path d="M 85.86807049272753 84.46653392183569 l -15.121338106668505 -16.620999447776235 a43.470257870775825,43.470257870775825 0 0,0 0.5562846944230085,-0.4974332039747002 l 14.833788385422105 16.878128181634334" fill="#eeff19" stroke="none" /><path d="M 86.13680546590413 84.22622945171909 l -10.271844301489839 -11.68747323864445 a36.55981413957376,36.55981413957376 0 0,0 0.4749651196824799,-0.41026355799953296 l 10.069699702044511 11.862080929108693" fill="#ffb811" stroke="none" /><path d="M 86.40962598614128 83.9905735841838 l -12.894407843423414 -15.189580017025449 a40.924585183289466,40.924585183289466 0 0,0 0.5394750258338943,-0.4500492536448108 l 12.63175848342761 15.408691454582142" fill="#fff016" stroke="none" /><path d="M 86.68645165197937 83.75963576809568 l -6.691924910002928 -8.163060298433422 a31.555444682104948,31.555444682104948 0 0,0 0.4218650850285061,-0.3398246502364786 l 6.550809054619177 8.2767332424633" fill="#ff750a" stroke="none" /><path d="M 87.25179093698888 83.31218511350988 l -20.348417785187163 -26.636732073796107 a54.519749431219196,54.519749431219196 0 0,0 0.7486003235155603,-0.5617636388214354 l 19.888164472760852 26.982114739881542" fill="#6fff27" stroke="none" /><path d="M 87.54013794807813 83.09580414077388 l -9.268739464137829 -12.574825196058823 a36.62164395847959,36.62164395847959 0 0,0 0.5092483555809282,-0.368656537327253 l 9.051510098182934 12.732082504759155" fill="#ffb911" stroke="none" /><path d="M 88.12776184653039 82.6780497279521 l -10.227310819650112 -14.92195213275632 a39.090399167901275,39.090399167901275 0 0,0 0.5567658805185538,-0.3746169320846584 l 9.969648651034568 15.095318738898088" fill="#ffd914" stroke="none" /><path d="M 88.4268655584334 82.4767994020092 l -12.268455617176636 -18.576005480001324 a43.261693170638935,43.261693170638935 0 0,0 0.623203988428875,-0.4039532959626162 l 11.947765996490734 18.78387261766785" fill="#f0ff19" stroke="none" /><path d="M 89.03521579738668 82.08984904055464 l -8.147301329622945 -13.308004428473724 a36.6038937712339,36.6038937712339 0 0,0 0.5387173593876078,-0.3234842957053015 l 7.917651213677903 13.44590272471495" fill="#ffb911" stroke="none" /><line stroke="#e1ed5e" stroke-width="0.3" x1="56.869717070023135" x2="54.33264160355391" y1="26.7553504044142" y2="22.446841604673864" /><path d="M 56.362301976729285 25.89364864446614 a86.0,86.0 0 0,1 42.16139366436587,-11.88097634709845" fill="none" id="id48" stroke="none" /><text fill="#e1ed5e" style="font-size:6.75px; font-family:Arial;" text-anchor="middle"><textPath startOffset="22.145653131862474" xlink:href="#id48">December</textPath></text><path d="M 89.34428304082924 81.90426304109057 l -3.767057677642373 -6.397287494107909 a28.424015815510753,28.424015815510753 0 0,0 0.4225805633932181,-0.2439770020293769 l 3.6566846463887552 6.461011393413459" fill="#ff4806" stroke="none" /><path d="M 89.65649057296885 81.72400993836675 l -9.88302993191143 -17.462366916049728 a41.06510749898453,41.06510749898453 0 0,0 0.6164768477642518,-0.3419493155129465 l 9.581808895991076 17.629449146995817" fill="#fff216" stroke="none" /><path d="M 89.97174638481275 81.54914285379989 l -7.101769748639461 -13.06645644849952 a35.8716985473491,35.8716985473491 0 0,0 0.5435607464047345,-0.2894154812797203 l 6.876420186448165 13.186442397501816" fill="#ffaf10" stroke="none" /><path d="M 90.28995756902619 81.37971332152246 l -11.322086708420816 -21.711594136487466 a45.486383305432355,45.486383305432355 0 0,0 0.6954494981940996,-0.35510146905177103 l 10.947709988513134 21.902753557212073" fill="#d5ff1c" stroke="none" /><path d="M 90.61103034731259 81.2157712731953 l -7.8592838893010795 -15.723832504162635 a38.57860210231715,38.57860210231715 0 0,0 0.5949183280301343,-0.29100436597713286 l 7.588205312008892 15.856430620236981" fill="#ffd313" stroke="none" /><path d="M 91.26138138417902 80.90454125486306 l -7.783919951516073 -17.00926986795376 a39.7057389924186,39.7057389924186 0 0,0 0.6222203110532385,-0.2783112308112716 l 7.490786237607216 17.140384849674877" fill="#ffe115" stroke="none" /><path d="M 91.5904679813234 80.7573450057729 l -13.79214508591226 -31.559127063089505 a55.44127998572472,55.44127998572472 0 0,0 0.8753516109962808,-0.37363555111003666 l 13.248358399745548 31.791237263858946" fill="#65ff29" stroke="none" /><path d="M 92.25597844496254 80.48000691201159 l -2.7306107546776834 -6.882922868754501 a28.404786445994585,28.404786445994585 0 0,0 0.4547846229091058,-0.1759204620276726 l 2.6120538692750483 6.9287832189202145" fill="#ff4806" stroke="none" /><path d="M 92.592206182469 80.34994680014964 l -5.219933461491728 -13.846493672009156 a35.79773943382538,35.79773943382538 0 0,0 0.5768734938412075,-0.21183593746897506 l 4.981470815996393 13.934060458486853" fill="#ffae10" stroke="none" /><path d="M 92.93061703081487 80.22567764915836 l -2.500296007725018 -6.993772928244119 a28.427270016505794,28.427270016505794 0 0,0 0.4609200646256351,-0.1603319246929043 l 2.3798701710543786 7.035663285505609" fill="#ff4806" stroke="none" /><path d="M 94.30408787586887 79.78721728523814 l -5.135015010888731 -18.222356734123125 a39.93205387980118,39.93205387980118 0 0,0 0.6613862399177818,-0.18026376074355904 l 4.821447370036272 18.307820989010825" fill="#ffe415" stroke="none" /><path d="M 94.6519064749342 79.69241777938228 l -3.8017069191660315 -14.435700400116975 a35.927907473627116,35.927907473627116 0 0,0 0.5977628903225568,-0.1519489891863959 l 3.5533387356180968 14.498834621138634" fill="#ffb010" stroke="none" /><path d="M 95.00130118170881 79.60360301121753 l -4.59413038271353 -18.74561971230846 a40.3003702651493,40.3003702651493 0 0,0 0.6733382913532033,-0.1589060033542419 l 4.271659937620421 18.821721859308937" fill="#ffe915" stroke="none" /><path d="M 95.35216902796891 79.52079915486377 l -1.6513069225442523 -7.275962987304895 a28.460995372272613,28.460995372272613 0 0,0 0.4773824871687505,-0.10404329118059426 l 1.5261620187563836 7.303237736619204" fill="#ff4906" stroke="none" /><path d="M 96.76829788921471 79.25015418208739 l -1.4604882763862737 -9.377382417997705 a30.490433447363415,30.490433447363415 0 0,0 0.5178653395149646,-0.07610837123631313 l 1.299297831263624 9.401071862532904" fill="#ff6609" stroke="none" /><path d="M 97.12497278360702 79.19773525538626 l -2.0394682759750555 -14.756576484970209 a35.896844645947155,35.896844645947155 0 0,0 0.6111389564317531,-0.07912417333825246 l 1.7858514976525086 14.789412254508857" fill="#ffaf10" stroke="none" /><path d="M 99.63950707515114 79.00309439819443 l -0.29294901098923964 -17.06281123953344 a38.06532585446256,38.06532585446256 0 0,0 0.6534419358380876,-0.005609013123553594 l 4.179799336814828e-15 17.065325854462557" fill="#ffcc13" stroke="none" /></svg>