<?xml version="1.0" encoding="utf-8" ?>
<svg baseProfile="full" height="200mm" version="1.1" viewBox="0,0,200,200" width="200mm" xmlns="http://www.w3.org/2000/svg" xmlns:ev="http://www.w3.org/2001/xml-events" xmlns:xlink="http://www.w3.org/1999/xlink"><defs /><rect fill="#1a1a1a" height="200" width="200" x="0" y="0" /><text alignment-baseline="middle" fill="#e1ed5e" style="dominant-baseline: central; font-size:9.0px; font-family:Arial;" text-anchor="middle" x="100.0" y="100.0">2024</text><line stroke="#e1ed5e" stroke-width="0.3" x1="100.0" x2="100.0" y1="15.0" y2="10.0" /><path d="M 100.0 14.0 a86.0,86.0 0 0,1 42.35913384403234,11.155469271406648" fill="none" id="id37" stroke="none" /><text fill="#e1ed5e" style="font-size:6.75px; font-family:Arial;" text-anchor="middle"><textPath startOffset="22.145653131862478" xlink:href="#id37">January</textPath></text><path d="M 100.0 79.0 l 0.0 -31.352076418225707 a52.35207641822571,52.35207641822571 0 0,0 0.898693007138902,0.007714198606832195 l -0.5382000822900472 31.34745661781331" fill="#a6ff21" stroke="none" /><path d="M 100.36049292484886 79.00309439819443 l 0.32396534560206686 -18.86935723555442 a39.8721380884128,39.8721380884128 0 0,0 0.684256557456993,0.01762402169498476 l -0.6478352171298013 18.861015496509392" fill="#ffb010" stroke="none" /><path d="M 101.08105385017728 79.02784411241856 l 1.1484311267194725 -22.279257052515902 a43.308836564574534,43.308836564574534 0 0,0 0.7421394971587748,0.04464526925412907 l -1.5307149760107097 22.256259805437082" fill="#ffe015" stroke="none" /><path d="M 102.15924093988457 79.11130261209362 l 1.8657781714537043 -18.049711311300545 a39.145886768255885,39.145886768255885 0 0,0 0.6678364680507857,0.07483246921866023 l -2.1753505411052867 18.015023081574913" fill="#ffa50f" stroke="none" /><path d="M 104.9986988182912 79.60360301121754 l 1.8542199264911172 -7.56585005418518 a28.789750867531684,28.789750867531684 0 0,0 0.47899936011786565,0.12175976422953466 l -1.9838245798343772 7.532905058120378" fill="#ff0500" stroke="none" /><path d="M 105.3480935250658 79.69241777938227 l 4.263426246690773 -16.1889238923037 a37.74090977670489,37.74090977670489 0 0,0 0.6250947793325548,0.17037236178010198 l -4.54070242695802 16.113351036379456" fill="#ff900d" stroke="none" /><path d="M 105.69591212413111 79.78721728523813 l 5.219874205866041 -18.523492080323365 a40.244917395896195,40.244917395896195 0 0,0 0.6633512004342315,0.19309186666242434 l -5.537085418681877 18.431156519358424" fill="#ffb510" stroke="none" /><path d="M 106.38641147887787 79.99465700312896 l 4.528837028895533 -14.186517489459431 a35.89186500452625,35.89186500452625 0 0,0 0.5853403651174739,0.19241300435107586 l -4.771700131660749 14.106683563706335" fill="#ff750a" stroke="none" /><path d="M 106.72888874123014 80.10723608172694 l 7.379550607526005 -21.816330110939877 a44.03063235515993,44.03063235515993 0 0,0 0.713913150959039,0.2483360529114894 l -7.752969530530062 21.686435625459797" fill="#ffea16" stroke="none" /><path d="M 107.06938296918511 80.22567764915836 l 5.058653879532028 -14.149955223989311 a36.027016068195536,36.027016068195536 0 0,0 0.5805682414765968,0.2131926999782759 l -5.30081127266275 14.061031675002313" fill="#ff770a" stroke="none" /><path d="M 108.07796709384702 80.6158196554323 l 3.91623117090761 -9.39752915627911 a31.180885070911287,31.180885070911287 0 0,0 0.4923089435550554,0.21013741350431692 l -4.076975189633096 9.328917093115392" fill="#ff2c04" stroke="none" /><path d="M 108.4095320186766 80.7573450057729 l 6.04082231963579 -13.822583649128081 a36.084937952625225,36.084937952625225 0 0,0 0.5654794970950051,0.2529317864417684 l -6.277215219586426 13.71684811177646" fill="#ff780b" stroke="none" /><path d="M 109.3889696526874 81.21577127319529 l 13.66273571215599 -27.334623728127855 a51.55899215449608,51.55899215449608 0 0,0 0.7882947074615166,0.40250889445201776 l -14.129957641331085 27.096056882003005" fill="#b0ff20" stroke="none" /><path d="M 109.71004243097381 81.37971332152246 l 8.34159192599381 -15.996102398215903 a39.04043923506337,39.04043923506337 0 0,0 0.5915764000572561,0.3149811123572424 l -8.614957141837627 15.850550818136089" fill="#ffa40f" stroke="none" /><line stroke="#e1ed5e" stroke-width="0.3" x1="143.13028292997686" x2="145.6673583964461" y1="26.7553504044142" y2="22.446841604673864" /><path d="M 143.63769802327073 25.89364864446614 a86.0,86.0 0 0,1 29.32050498858742,28.57503671076993" fill="none" id="id38" stroke="none" /><text fill="#e1ed5e" style="font-size:6.75px; font-family:Arial;" text-anchor="middle"><textPath startOffset="20.669276256404974" xlink:href="#id38">February</textPath></text><path d="M 110.96478420261332 82.08984904055464 l 11.320151237393626 -18.490616303889507 a42.680606894990945,42.680606894990945 0 0,0 0.6215838377863503,0.38791428692055674 l -11.63589920396969 18.293566220127403" fill="#ffd814" stroke="none" /><path d="M 111.8722381534696 82.67804972795209 l 11.020230869343727 -16.078846181962092 a40.492941875377184,40.492941875377184 0 0,0 0.5699958281512895,0.39790135615646466 l -11.294621788668778 15.887300010000502" fill="#ffb911" stroke="none" /><path d="M 112.16784306229584 82.88440491214696 l 10.961591797642889 -15.418851621134205 a39.91817856065178,39.91817856065178 0 0,0 0.5550888652853843,0.4018415312339835 l -11.224661673302242 15.228409318527147" fill="#ffb010" stroke="none" /><path d="M 112.7482090630111 83.31218511350987 l 13.566189492338008 -17.758577526003577 a43.34745115419433,43.34745115419433 0 0,0 0.5874406439949524,0.45679739787344487 l -13.869040080968187 17.523079076509344" fill="#ffe115" stroke="none" /><path d="M 113.03279911837588 83.53348406188908 l 12.65053333629882 -15.983535610094417 a41.384047789680146,41.384047789680146 0 0,0 0.5532637874539917,0.4456701436843475 l -12.92304789410807 15.764017172616661" fill="#ffc512" stroke="none" /><path d="M 113.31354834802062 83.75963576809568 l 12.25829949241479 -14.95313220912906 a40.33551316385034,40.33551316385034 0 0,0 0.5317097756430768,0.4435712057549337 l -12.51318360221976 14.740498819462257" fill="#ffb610" stroke="none" /><path d="M 113.86319453409587 84.22622945171908 l 25.677787288395642 -29.21660832779571 a59.896773159324084,59.896773159324084 0 0,0 0.7664932251589198,0.6854029683688736 l -26.175545540377936 28.77150982954345" fill="#4dff2c" stroke="none" /><path d="M 114.13192950727249 84.46653392183569 l 7.0740935981212285 -7.775668063135108 a31.512079435727216,31.512079435727216 0 0,0 0.3970075267944216,0.36746423982269144 l -7.206530896229615 7.653086077180042" fill="#ff3104" stroke="none" /><path d="M 114.39649973595853 84.71141617570332 l 13.625006563060854 -14.46928480994961 a40.87463224200362,40.87463224200362 0 0,0 0.5067043525109699,0.48541130758933954 l -13.871383401437136 14.23326137205469" fill="#ffbe11" stroke="none" /><path d="M 114.91283532996326 85.21462403516908 l 22.569008601709857 -22.37611225139207 a52.781292433614965,52.781292433614965 0 0,0 0.6324033251722054,0.6489015233188558 l -22.949798728032874 21.98538803600547" fill="#a1ff22" stroke="none" /><path d="M 115.41159269507618 85.73525988315684 l 13.830366888660437 -12.801181116755345 a39.8454049109837,39.8454049109837 0 0,0 0.46031365915671385,0.5059653464975793 l -14.04807824865903 12.561878194700094" fill="#ffaf10" stroke="none" /><path d="M 115.6541949942343 86.00192230759917 l 13.628484769563613 -12.186675118351184 a39.282523008449004,39.282523008449004 0 0,0 0.4451812312287133,0.5065345203468186 l -13.835677064750916 11.950928320193068" fill="#ffa70f" stroke="none" /><path d="M 116.35404254752997 86.82634096563983 l 16.90836328848781 -13.620180584969404 a42.711795601991554,42.711795601991554 0 0,0 0.4550505944638914,0.5749415607750368 l -17.13968031359326 13.32791908027969" fill="#ffd814" stroke="none" /><path d="M 116.57777611688842 87.10902102172516 l 8.53759847072892 -6.6388882100414985 a31.815055446590222,31.815055446590222 0 0,0 0.33155533213568394,0.43401657283475575 l -8.650305780218911 6.491350723965861" fill="#ff3605" stroke="none" /><path d="M 117.01052211995028 87.68569379921539 l 27.266672910993595 -19.738968441704454 a54.66152591279421,54.66152591279421 0 0,0 0.543712735928382,0.7648000540946431 l -27.601500745451936 19.267991160900305" fill="#8aff24" stroke="none" /><path d="M 117.21940702142032 87.97951657250589 l 12.566507222250983 -8.772398005264957 a36.325536549487026,36.325536549487026 0 0,0 0.35254843640359435,0.5143787047505162 l -12.715245395469902 8.555384565444392" fill="#ff7b0b" stroke="none" /><path d="M 117.62189284568427 88.57770195909679 l 19.140179234216042 -12.406432934533772 a43.80934105310803,43.80934105310803 0 0,0 0.4036348778716194,0.6345810699854157 l -19.35033180371355 12.076038189869683" fill="#ffe715" stroke="none" /><path d="M 117.81537515405839 88.88188828441811 l 12.622191952702325 -7.877181311766797 a35.878498415811706,35.878498415811706 0 0,0 0.3215944185281838,0.5253003139069553 l -12.755554335685911 7.659343881735286" fill="#ff750a" stroke="none" /><line stroke="#e1ed5e" stroke-width="0.3" x1="172.87174338648825" x2="177.1583165268699" y1="56.24261187166439" y2="53.66864786411523" /><path d="M 173.72905801456457 55.72781907015455 a86.0,86.0 0 0,1 12.242430191666344,42.057860355516425" fill="none" id="id39" stroke="none" /><text fill="#e1ed5e" style="font-size:6.75px; font-family:Arial;" text-anchor="middle"><textPath startOffset="22.145653131862474" xlink:href="#id39">March</textPath></text><path d="M 118.8641267826498 90.77261029715802 l 7.012144291000827 -3.4299911557599447 a28.806087809293906,28.806087809293906 0 0,0 0.21346784572163102,0.4460656961903433 l -7.06999139468237 3.309112957504498" fill="#ff0600" stroke="none" /><path d="M 119.0197475246899 91.09779779509293 l 14.340406822433167 -6.712034482487717 a36.83346692063971,36.83346692063971 0 0,0 0.26312344054016795,0.5749722038007935 l -14.453514727828386 6.4648732964722395" fill="#ff830c" stroke="none" /><path d="M 119.16976305983485 91.42560881287824 l 15.334743934571517 -6.859035911865447 a37.798831661134585,37.798831661134585 0 0,0 0.2598509805339063,0.5945898959919187 l -15.450228797122394 6.594783946097679" fill="#ff910d" stroke="none" /><path d="M 119.31412917781788 91.75594674310238 l 17.51690691311975 -7.476925941539794 a40.04590374170187,40.04590374170187 0 0,0 0.2644443752930378,0.6345702331086798 l -17.642677132949274 7.175123198989836" fill="#ffb210" stroke="none" /><path d="M 119.4528033332814 92.08871423366111 l 17.930209846672483 -7.292060250501759 a40.35630563518407,40.35630563518407 0 0,0 0.2554771783149252,0.6439693793985068 l -18.052745699953533 6.983189853889686" fill="#ffb710" stroke="none" /><path d="M 119.58574465831526 92.42381321644754 l 15.265810662102957 -5.90514351106562 a37.368130469221484,37.368130469221484 0 0,0 0.2262895047096982,0.6002597960529323 l -15.364930850627095 5.64221543481853" fill="#ff8b0c" stroke="none" /><path d="M 119.83427380445688 93.10060997987247 l 42.46494305991085 -14.77151153812335 a65.96074890615571,65.96074890615571 0 0,0 0.36282990965074596,1.0726421572324976 l -42.712258391133965 14.040367706416692" fill="#34ff5c" stroke="none" /><path d="M 120.05942366710727 93.78553927170692 l 17.98998223841472 -5.573342483744471 a39.833523498793,39.833523498793 0 0,0 0.19674664973889505,0.654905608600881 l -18.083005208157243 5.263699271552867" fill="#ffaf10" stroke="none" /><path d="M 120.16314734710363 94.1308016681162 l 14.33835008027924 -4.1736847390161715 a35.93344994719372,35.93344994719372 0 0,0 0.16731556765710154,0.5937439237382816 l -14.407884140010923 3.926932891374877" fill="#ff750a" stroke="none" /><path d="M 120.26092885502905 94.47779374421319 l 14.8334576446935 -4.0429248425174285 a36.37454737477369,36.37454737477369 0 0,0 0.15902695618909085,0.6038512552124451 l -14.90067408168732 3.787693082932184" fill="#ff7c0b" stroke="none" /><path d="M 120.43855184770803 95.1765574152323 l 17.640508549154312 -4.163111984985933 a39.12509429692215,39.12509429692215 0 0,0 0.14865512216316562,0.6550018969617066 l -17.709374532875145 3.8596757540851994" fill="#ffa50f" stroke="none" /><path d="M 120.51834098615036 95.52812308129327 l 10.243401739394105 -2.232501732881631 a31.483861081774293,31.483861081774293 0 0,0 0.11055676134560302,0.5290541250368503 l -10.280216211564074 2.0563311565593763" fill="#ff3104" stroke="none" /><path d="M 120.592083275326 95.88100663000786 l 10.237982712465707 -2.0478832739215767 a31.44079096258298,31.44079096258298 0 0,0 0.10131975704855443,0.5301477825321133 l -10.271628761796418 1.871832926356149" fill="#ff3004" stroke="none" /><path d="M 120.65975698304385 96.23510406497455 l 14.663736309159157 -2.6722212302859627 a35.9052315932408,35.9052315932408 0 0,0 0.10529667812634899,0.6073232579294657 l -14.707447804777741 2.420104939435904" fill="#ff750a" stroke="none" /><path d="M 120.77682067341334 96.94652285012252 l 62.330462020240034 -9.160431449632455 a84.0,84.0 0 0,0 0.19742193377914985,1.4284467671996575 l -62.478528470574396 8.089096374232712" fill="#4dd2ff" stroke="none" /><path d="M 120.86939407059847 97.66154086499901 l 9.506527742771532 -1.0652262622968847 a30.566021990042245,30.566021990042245 0 0,0 0.05395282412017382,0.5219446313061725 l -9.523412959373372 0.9018771087077807" fill="#ff2203" stroke="none" /><path d="M 120.9064616781168 98.02013634271609 l 18.675707047018335 -1.768608874412045 a39.75926467260109,39.75926467260109 0 0,0 0.058514992153894975,0.6800329067723192 l -18.703315661869972 1.4477549202640636" fill="#ffae10" stroke="none" /><path d="M 120.96210409425399 98.7389718711861 l 7.445097038228695 -0.44787855001297494 a28.45855650271575,28.45855650271575 0 0,0 0.025149789288129637,0.48789919336951104 l -7.451688416973398 0.32000756326673324" fill="#ff0000" stroke="none" /><path d="M 120.98066250479742 99.09900007780936 l 18.96604566821067 -0.8144836068648715 a39.983526327700666,39.983526327700666 0 0,0 0.02356231682262186,0.6859911455479109 l -18.97723267203014 0.4887861967528407" fill="#ffb110" stroke="none" /><path d="M 120.99303781780057 99.45929381324524 l 21.587307389400582 -0.5560124628998829 a42.59446665660833,42.59446665660833 0 0,0 0.0125523224010838,0.7311098509060593 l -21.593671143400332 0.18535569602475732" fill="#ffd614" stroke="none" /><line stroke="#e1ed5e" stroke-width="0.3" x1="184.99686870605535" x2="189.99668451229388" y1="99.2704041080226" y2="99.22748670261217" /><path d="M 185.99683186730306 99.26182062694052 a86.0,86.0 0 0,1 -10.086455211305974,41.156179273409016" fill="none" id="id40" stroke="none" /><text fill="#e1ed5e" style="font-size:6.75px; font-family:Arial;" text-anchor="middle"><textPath startOffset="21.40746469413373" xlink:href="#id40">April</textPath></text><path d="M 120.99922638620191 99.81974689727618 l 18.740752142955213 -0.16086681761598434 a39.74144255431503,39.74144255431503 0 0,0 0.0,0.6822398406796202 l -18.740752142955213 -0.16086681761598207" fill="#ffae10" stroke="none" /><path d="M 120.99303781780057 100.54070618675476 l 21.59176144181931 0.5561271834905702 a42.59892218617985,42.59892218617985 0 0,0 -0.025103571221475492,0.730863085714358 l -21.579033183600988 -0.9266965337690388" fill="#ffd714" stroke="none" /><path d="M 120.96210409425399 101.26102812881392 l 18.19616110060116 1.0946358667581173 a39.22905665359083,39.22905665359083 0 0,0 -0.04620816518290693,0.6718565804612261 l -18.17468897425319 -1.4068358713736868" fill="#ffa60f" stroke="none" /><line stroke="#e1ed5e" stroke-width="0.3" x1="174.33088141563837" x2="178.70328620479359" y1="141.23008692659167" y2="143.65538615756765" /><path d="M 175.20536237346943 141.71514677278685 a86.0,86.0 0 0,1 -30.301960400862466,31.631185727798858" fill="none" id="id41" stroke="none" /><text fill="#e1ed5e" style="font-size:6.75px; font-family:Arial;" text-anchor="middle"><textPath startOffset="22.145653131862474" xlink:href="#id41">May</textPath></text><line stroke="#e1ed5e" stroke-width="0.3" x1="143.1302829299769" x2="145.66735839644613" y1="173.24464959558577" y2="177.55315839532614" /><path d="M 143.63769802327073 174.10635135553383 a86.0,86.0 0 0,1 -40.68552437913181,11.842963189579606" fill="none" id="id42" stroke="none" /><text fill="#e1ed5e" style="font-size:6.75px; font-family:Arial;" text-anchor="middle"><textPath startOffset="21.407464694133747" xlink:href="#id42">June</textPath></text><line stroke="#e1ed5e" stroke-width="0.3" x1="101.45913802915013" x2="101.54496967792366" y1="184.9874750549273" y2="189.98673829345242" /><path d="M 101.47630435890484 185.9873277026323 a86.0,86.0 0 0,1 -42.54439059252881,-10.42667462771756" fill="none" id="id43" stroke="none" /><text fill="#e1ed5e" style="font-size:6.75px; font-family:Arial;" text-anchor="middle"><textPath startOffset="22.145653131862474" xlink:href="#id43">July</textPath></text><line stroke="#e1ed5e" stroke-width="0.3" x1="58.13341422392154" x2="55.67067388415222" y1="173.97424548756322" y2="178.32567169271397" /><path d="M 57.64086615596768 174.84453072859336 a86.0,86.0 0 0,1 -31.369924170532247,-30.572349798747897" fill="none" id="id44" stroke="none" /><text fill="#e1ed5e" style="font-size:6.75px; font-family:Arial;" text-anchor="middle"><textPath startOffset="22.145653131862474" xlink:href="#id44">August</textPath></text><line stroke="#e1ed5e" stroke-width="0.3" x1="26.387840678322732" x2="22.057713659400548" y1="142.50000000000003" y2="145.00000000000006" /><path d="M 25.521815274538298 143.00000000000003 a86.0,86.0 0 0,1 -11.493303480769221,-40.785679425670985" fill="none" id="id45" stroke="none" /><text fill="#e1ed5e" style="font-size:6.75px; font-family:Arial;" text-anchor="middle"><textPath startOffset="21.40746469413373" xlink:href="#id45">September</textPath></text><line stroke="#e1ed5e" stroke-width="0.3" x1="15.003131293944662" x2="10.003315487706104" y1="100.72959589197737" y2="100.7725132973878" /><path d="M 14.003168132696942 100.73817937305945 a86.0,86.0 0 0,1 10.791469493833604,-42.45332614584628" fill="none" id="id46" stroke="none" /><text fill="#e1ed5e" style="font-size:6.75px; font-family:Arial;" text-anchor="middle"><textPath startOffset="22.145653131862435" xlink:href="#id46">October</textPath></text><line stroke="#e1ed5e" stroke-width="0.3" x1="26.387840678322718" x2="22.05771365940052" y1="57.49999999999999" y2="54.99999999999999" /><path d="M 25.521815274538284 56.99999999999999 a86.0,86.0 0 0,1 29.574782752854787,-30.34633250058573" fill="none" id="id47" stroke="none" /><text fill="#e1ed5e" style="font-size:6.75px; font-family:Arial;" text-anchor="middle"><textPath startOffset="21.40746469413373" xlink:href="#id47">November</textPath></text><line stroke="#e1ed5e" stroke-width="0.3" x1="56.869717070023135" x2="54.33264160355391" y1="26.7553504044142" y2="22.446841604673864" /><path d="M 56.362301976729285 25.89364864446614 a86.0,86.0 0 0,1 42.16139366436587,-11.88097634709845" fill="none" id="id48" stroke="none" /><text fill="#e1ed5e" style="font-size:6.75px; font-family:Arial;" text-anchor="middle"><textPath startOffset="22.145653131862474" xlink:href="#id48">December</textPath></text></svg>