<?xml version="1.0" encoding="utf-8" ?>
<svg baseProfile="full" height="200mm" version="1.1" viewBox="0,0,200,200" width="200mm" xmlns="http://www.w3.org/2000/svg" xmlns:ev="http://www.w3.org/2001/xml-events" xmlns:xlink="http://www.w3.org/1999/xlink"><defs /><rect fill="#1a1a1a" height="200" width="200" x="0" y="0" /><text alignment-baseline="middle" fill="#e1ed5e" style="dominant-baseline: central; font-size:9.0px; font-family:Arial;" text-anchor="middle" x="100.0" y="100.0">2024</text><line stroke="#e1ed5e" stroke-width="0.3" x1="100.0" x2="100.0" y1="15.0" y2="10.0" /><path d="M 100.0 14.0 a86.0,86.0 0 0,1 42.35913384403234,11.155469271406648" fill="none" id="id37" stroke="none" /><text fill="#e1ed5e" style="font-size:6.75px; font-family:Arial;" text-anchor="middle"><textPath startOffset="22.145653131862478" xlink:href="#id37">January</textPath></text><path d="M 100.0 79.0 l 0.0 -31.352076418225707 a52.35207641822571,52.35207641822571 0 0,0 0.898693007138902,0.007714198606832195 l -0.5382000822900472 31.34745661781331" fill="#87ff25" stroke="none" /><path d="M 100.36049292484886 79.00309439819443 l 0.32396534560206686 -18.86935723555442 a39.8721380884128,39.8721380884128 0 0,0 0.684256557456993,0.01762402169498476 l -0.6478352171298013 18.861015496509392" fill="#ffe315" stroke="none" /><path d="M 101.08105385017728 79.02784411241856 l 1.1484311267194725 -22.279257052515902 a43.308836564574534,43.308836564574534 0 0,0 0.7421394971587748,0.04464526925412907 l -1.5307149760107097 22.256259805437082" fill="#f0ff19" stroke="none" /><path d="M 102.15924093988457 79.11130261209362 l 1.8657781714537043 -18.049711311300545 a39.145886768255885,39.145886768255885 0 0,0 0.6678364680507857,0.07483246921866023 l -2.1753505411052867 18.015023081574913" fill="#ffda14" stroke="none" /><path d="M 104.9986988182912 79.60360301121754 l 1.8542199264911172 -7.56585005418518 a28.789750867531684,28.789750867531684 0 0,0 0.47899936011786565,0.12175976422953466 l -1.9838245798343772 7.532905058120378" fill="#ff4e07" stroke="none" /><path d="M 105.3480935250658 79.69241777938227 l 4.263426246690773 -16.1889238923037 a37.74090977670489,37.74090977670489 0 0,0 0.6250947793325548,0.17037236178010198 l -4.54070242695802 16.113351036379456" fill="#ffc812" stroke="none" /><path d="M 105.69591212413111 79.78721728523813 l 5.219874205866041 -18.523492080323365 a40.244917395896195,40.244917395896195 0 0,0 0.6633512004342315,0.19309186666242434 l -5.537085418681877 18.431156519358424" fill="#ffe815" stroke="none" /><path d="M 106.38641147887787 79.99465700312896 l 4.528837028895533 -14.186517489459431 a35.89186500452625,35.89186500452625 0 0,0 0.5853403651174739,0.19241300435107586 l -4.771700131660749 14.106683563706335" fill="#ffaf10" stroke="none" /><path d="M 106.72888874123014 80.10723608172694 l 7.379550607526005 -21.816330110939877 a44.03063235515993,44.03063235515993 0 0,0 0.713913150959039,0.2483360529114894 l -7.752969530530062 21.686435625459797" fill="#e7ff1a" stroke="none" /><path d="M 107.06938296918511 80.22567764915836 l 5.058653879532028 -14.149955223989311 a36.027016068195536,36.027016068195536 0 0,0 0.5805682414765968,0.2131926999782759 l -5.30081127266275 14.061031675002313" fill="#ffb110" stroke="none" /><path d="M 108.07796709384702 80.6158196554323 l 3.91623117090761 -9.39752915627911 a31.180885070911287,31.180885070911287 0 0,0 0.4923089435550554,0.21013741350431692 l -4.076975189633096 9.328917093115392" fill="#ff6f0a" stroke="none" /><path d="M 108.4095320186766 80.7573450057729 l 6.04082231963579 -13.822583649128081 a36.084937952625225,36.084937952625225 0 0,0 0.5654794970950051,0.2529317864417684 l -6.277215219586426 13.71684811177646" fill="#ffb210" stroke="none" /><path d="M 109.3889696526874 81.21577127319529 l 13.66273571215599 -27.334623728127855 a51.55899215449608,51.55899215449608 0 0,0 0.7882947074615166,0.40250889445201776 l -14.129957641331085 27.096056882003005" fill="#8fff24" stroke="none" /><path d="M 109.71004243097381 81.37971332152246 l 8.34159192599381 -15.996102398215903 a39.04043923506337,39.04043923506337 0 0,0 0.5915764000572561,0.3149811123572424 l -8.614957141837627 15.850550818136089" fill="#ffd814" stroke="none" /><line stroke="#e1ed5e" stroke-width="0.3" x1="143.13028292997686" x2="145.6673583964461" y1="26.7553504044142" y2="22.446841604673864" /><path d="M 143.63769802327073 25.89364864446614 a86.0,86.0 0 0,1 29.32050498858742,28.57503671076993" fill="none" id="id38" stroke="none" /><text fill="#e1ed5e" style="font-size:6.75px; font-family:Arial;" text-anchor="middle"><textPath startOffset="20.669276256404974" xlink:href="#id38">February</textPath></text><path d="M 110.96478420261332 82.08984904055464 l 11.320151237393626 -18.490616303889507 a42.680606894990945,42.680606894990945 0 0,0 0.6215838377863503,0.38791428692055674 l -11.63589920396969 18.293566220127403" fill="#f8ff18" stroke="none" /><path d="M 111.8722381534696 82.67804972795209 l 11.020230869343727 -16.078846181962092 a40.492941875377184,40.492941875377184 0 0,0 0.5699958281512895,0.39790135615646466 l -11.294621788668778 15.887300010000502" fill="#ffeb16" stroke="none" /><path d="M 112.16784306229584 82.88440491214696 l 10.961591797642889 -15.418851621134205 a39.91817856065178,39.91817856065178 0 0,0 0.5550888652853843,0.4018415312339835 l -11.224661673302242 15.228409318527147" fill="#ffe415" stroke="none" /><path d="M 112.7482090630111 83.31218511350987 l 13.566189492338008 -17.758577526003577 a43.34745115419433,43.34745115419433 0 0,0 0.5874406439949524,0.45679739787344487 l -13.869040080968187 17.523079076509344" fill="#efff19" stroke="none" /><path d="M 113.03279911837588 83.53348406188908 l 12.65053333629882 -15.983535610094417 a41.384047789680146,41.384047789680146 0 0,0 0.5532637874539917,0.4456701436843475 l -12.92304789410807 15.764017172616661" fill="#fff617" stroke="none" /><path d="M 113.31354834802062 83.75963576809568 l 12.25829949241479 -14.95313220912906 a40.33551316385034,40.33551316385034 0 0,0 0.5317097756430768,0.4435712057549337 l -12.51318360221976 14.740498819462257" fill="#ffe915" stroke="none" /><path d="M 113.86319453409587 84.22622945171908 l 25.677787288395642 -29.21660832779571 a59.896773159324084,59.896773159324084 0 0,0 0.7664932251589198,0.6854029683688736 l -26.175545540377936 28.77150982954345" fill="#37ff2e" stroke="none" /><path d="M 114.13192950727249 84.46653392183569 l 7.0740935981212285 -7.775668063135108 a31.512079435727216,31.512079435727216 0 0,0 0.3970075267944216,0.36746423982269144 l -7.206530896229615 7.653086077180042" fill="#ff740a" stroke="none" /><path d="M 114.39649973595853 84.71141617570332 l 13.625006563060854 -14.46928480994961 a40.87463224200362,40.87463224200362 0 0,0 0.5067043525109699,0.48541130758933954 l -13.871383401437136 14.23326137205469" fill="#fff016" stroke="none" /><path d="M 114.91283532996326 85.21462403516908 l 22.569008601709857 -22.37611225139207 a52.781292433614965,52.781292433614965 0 0,0 0.6324033251722054,0.6489015233188558 l -22.949798728032874 21.98538803600547" fill="#82ff25" stroke="none" /><path d="M 115.41159269507618 85.73525988315684 l 13.830366888660437 -12.801181116755345 a39.8454049109837,39.8454049109837 0 0,0 0.46031365915671385,0.5059653464975793 l -14.04807824865903 12.561878194700094" fill="#ffe315" stroke="none" /><path d="M 115.6541949942343 86.00192230759917 l 13.628484769563613 -12.186675118351184 a39.282523008449004,39.282523008449004 0 0,0 0.4451812312287133,0.5065345203468186 l -13.835677064750916 11.950928320193068" fill="#ffdc14" stroke="none" /><path d="M 116.35404254752997 86.82634096563983 l 16.90836328848781 -13.620180584969404 a42.711795601991554,42.711795601991554 0 0,0 0.4550505944638914,0.5749415607750368 l -17.13968031359326 13.32791908027969" fill="#f7ff18" stroke="none" /><path d="M 116.57777611688842 87.10902102172516 l 8.53759847072892 -6.6388882100414985 a31.815055446590222,31.815055446590222 0 0,0 0.33155533213568394,0.43401657283475575 l -8.650305780218911 6.491350723965861" fill="#ff780b" stroke="none" /><path d="M 117.01052211995028 87.68569379921539 l 27.266672910993595 -19.738968441704454 a54.66152591279421,54.66152591279421 0 0,0 0.543712735928382,0.7648000540946431 l -27.601500745451936 19.267991160900305" fill="#6dff28" stroke="none" /><path d="M 117.21940702142032 87.97951657250589 l 12.566507222250983 -8.772398005264957 a36.325536549487026,36.325536549487026 0 0,0 0.35254843640359435,0.5143787047505162 l -12.715245395469902 8.555384565444392" fill="#ffb510" stroke="none" /><path d="M 117.62189284568427 88.57770195909679 l 19.140179234216042 -12.406432934533772 a43.80934105310803,43.80934105310803 0 0,0 0.4036348778716194,0.6345810699854157 l -19.35033180371355 12.076038189869683" fill="#eaff1a" stroke="none" /><path d="M 117.81537515405839 88.88188828441811 l 12.622191952702325 -7.877181311766797 a35.878498415811706,35.878498415811706 0 0,0 0.3215944185281838,0.5253003139069553 l -12.755554335685911 7.659343881735286" fill="#ffaf10" stroke="none" /><line stroke="#e1ed5e" stroke-width="0.3" x1="172.87174338648825" x2="177.1583165268699" y1="56.24261187166439" y2="53.66864786411523" /><path d="M 173.72905801456457 55.72781907015455 a86.0,86.0 0 0,1 12.242430191666344,42.057860355516425" fill="none" id="id39" stroke="none" /><text fill="#e1ed5e" style="font-size:6.75px; font-family:Arial;" text-anchor="middle"><textPath startOffset="22.145653131862474" xlink:href="#id39">March</textPath></text><path d="M 118.8641267826498 90.77261029715802 l 7.012144291000827 -3.4299911557599447 a28.806087809293906,28.806087809293906 0 0,0 0.21346784572163102,0.4460656961903433 l -7.06999139468237 3.309112957504498" fill="#ff4e07" stroke="none" /><path d="M 119.0197475246899 91.09779779509293 l 14.340406822433167 -6.712034482487717 a36.83346692063971,36.83346692063971 0 0,0 0.26312344054016795,0.5749722038007935 l -14.453514727828386 6.4648732964722395" fill="#ffbc11" stroke="none" /><path d="M 119.16976305983485 91.42560881287824 l 15.334743934571517 -6.859035911865447 a37.798831661134585,37.798831661134585 0 0,0 0.2598509805339063,0.5945898959919187 l -15.450228797122394 6.594783946097679" fill="#ffc812" stroke="none" /><path d="M 119.31412917781788 91.75594674310238 l 17.51690691311975 -7.476925941539794 a40.04590374170187,40.04590374170187 0 0,0 0.2644443752930378,0.6345702331086798 l -17.642677132949274 7.175123198989836" fill="#ffe515" stroke="none" /><path d="M 119.4528033332814 92.08871423366111 l 17.930209846672483 -7.292060250501759 a40.35630563518407,40.35630563518407 0 0,0 0.2554771783149252,0.6439693793985068 l -18.052745699953533 6.983189853889686" fill="#ffe915" stroke="none" /><path d="M 119.58574465831526 92.42381321644754 l 15.265810662102957 -5.90514351106562 a37.368130469221484,37.368130469221484 0 0,0 0.2262895047096982,0.6002597960529323 l -15.364930850627095 5.64221543481853" fill="#ffc312" stroke="none" /><path d="M 119.83427380445688 93.10060997987247 l 42.46494305991085 -14.77151153812335 a65.96074890615571,65.96074890615571 0 0,0 0.36282990965074596,1.0726421572324976 l -42.712258391133965 14.040367706416692" fill="#36ff6f" stroke="none" /><path d="M 120.05942366710727 93.78553927170692 l 17.98998223841472 -5.573342483744471 a39.833523498793,39.833523498793 0 0,0 0.19674664973889505,0.654905608600881 l -18.083005208157243 5.263699271552867" fill="#ffe315" stroke="none" /><path d="M 120.16314734710363 94.1308016681162 l 14.33835008027924 -4.1736847390161715 a35.93344994719372,35.93344994719372 0 0,0 0.16731556765710154,0.5937439237382816 l -14.407884140010923 3.926932891374877" fill="#ffb010" stroke="none" /><path d="M 120.26092885502905 94.47779374421319 l 14.8334576446935 -4.0429248425174285 a36.37454737477369,36.37454737477369 0 0,0 0.15902695618909085,0.6038512552124451 l -14.90067408168732 3.787693082932184" fill="#ffb610" stroke="none" /><path d="M 120.43855184770803 95.1765574152323 l 17.640508549154312 -4.163111984985933 a39.12509429692215,39.12509429692215 0 0,0 0.14865512216316562,0.6550018969617066 l -17.709374532875145 3.8596757540851994" fill="#ffda14" stroke="none" /><path d="M 120.51834098615036 95.52812308129327 l 10.243401739394105 -2.232501732881631 a31.483861081774293,31.483861081774293 0 0,0 0.11055676134560302,0.5290541250368503 l -10.280216211564074 2.0563311565593763" fill="#ff730a" stroke="none" /><path d="M 120.592083275326 95.88100663000786 l 10.237982712465707 -2.0478832739215767 a31.44079096258298,31.44079096258298 0 0,0 0.10131975704855443,0.5301477825321133 l -10.271628761796418 1.871832926356149" fill="#ff730a" stroke="none" /><path d="M 120.65975698304385 96.23510406497455 l 14.663736309159157 -2.6722212302859627 a35.9052315932408,35.9052315932408 0 0,0 0.10529667812634899,0.6073232579294657 l -14.707447804777741 2.420104939435904" fill="#ffaf10" stroke="none" /><path d="M 120.77682067341334 96.94652285012252 l 62.330462020240034 -9.160431449632455 a84.0,84.0 0 0,0 0.19742193377914985,1.4284467671996575 l -62.478528470574396 8.089096374232712" fill="#4dd2ff" stroke="none" /><path d="M 120.86939407059847 97.66154086499901 l 9.506527742771532 -1.0652262622968847 a30.566021990042245,30.566021990042245 0 0,0 0.05395282412017382,0.5219446313061725 l -9.523412959373372 0.9018771087077807" fill="#ff6709" stroke="none" /><path d="M 120.9064616781168 98.02013634271609 l 18.675707047018335 -1.768608874412045 a39.75926467260109,39.75926467260109 0 0,0 0.058514992153894975,0.6800329067723192 l -18.703315661869972 1.4477549202640636" fill="#ffe215" stroke="none" /><path d="M 120.96210409425399 98.7389718711861 l 7.445097038228695 -0.44787855001297494 a28.45855650271575,28.45855650271575 0 0,0 0.025149789288129637,0.48789919336951104 l -7.451688416973398 0.32000756326673324" fill="#ff4906" stroke="none" /><path d="M 120.98066250479742 99.09900007780936 l 18.96604566821067 -0.8144836068648715 a39.983526327700666,39.983526327700666 0 0,0 0.02356231682262186,0.6859911455479109 l -18.97723267203014 0.4887861967528407" fill="#ffe415" stroke="none" /><path d="M 120.99303781780057 99.45929381324524 l 21.587307389400582 -0.5560124628998829 a42.59446665660833,42.59446665660833 0 0,0 0.0125523224010838,0.7311098509060593 l -21.593671143400332 0.18535569602475732" fill="#f9ff18" stroke="none" /><line stroke="#e1ed5e" stroke-width="0.3" x1="184.99686870605535" x2="189.99668451229388" y1="99.2704041080226" y2="99.22748670261217" /><path d="M 185.99683186730306 99.26182062694052 a86.0,86.0 0 0,1 -10.086455211305974,41.156179273409016" fill="none" id="id40" stroke="none" /><text fill="#e1ed5e" style="font-size:6.75px; font-family:Arial;" text-anchor="middle"><textPath startOffset="21.40746469413373" xlink:href="#id40">April</textPath></text><path d="M 120.99922638620191 99.81974689727618 l 18.740752142955213 -0.16086681761598434 a39.74144255431503,39.74144255431503 0 0,0 0.0,0.6822398406796202 l -18.740752142955213 -0.16086681761598207" fill="#ffe115" stroke="none" /><path d="M 120.99303781780057 100.54070618675476 l 21.59176144181931 0.5561271834905702 a42.59892218617985,42.59892218617985 0 0,0 -0.025103571221475492,0.730863085714358 l -21.579033183600988 -0.9266965337690388" fill="#f9ff18" stroke="none" /><path d="M 120.96210409425399 101.26102812881392 l 18.19616110060116 1.0946358667581173 a39.22905665359083,39.22905665359083 0 0,0 -0.04620816518290693,0.6718565804612261 l -18.17468897425319 -1.4068358713736868" fill="#ffdb14" stroke="none" /><path d="M 120.93736805541906 101.62068470465957 l 23.782277954658664 1.8408987233284 a44.85342014936633,44.85342014936633 0 0,0 -0.06601222506824148,0.7671621176604279 l -23.74717210689268 -2.248881888364485" fill="#ddff1b" stroke="none" /><path d="M 120.86939407059847 102.33845913500097 l 21.65351164635944 2.426321144877748 a42.78902478123114,42.78902478123114 0 0,0 -0.08805963723944579,0.7292601203563613 l -21.608669922860333 -2.7976749421575184" fill="#f6ff19" stroke="none" /><path d="M 120.82617615685814 102.69636545807757 l 18.721818784641652 2.423914265541832 a39.87807879450815,39.87807879450815 0 0,0 -0.09372389798820809,0.6781394373351008 l -18.677450370098235 -2.744942011077018" fill="#ffe315" stroke="none" /><path d="M 120.77682067341334 103.0534771498775 l 19.503249056904558 2.866305980097967 a40.71274800090525,40.71274800090525 0 0,0 -0.10755631000195023,0.6905886659032934 l -19.45117125476434 -3.200682827932711" fill="#ffee16" stroke="none" /><path d="M 120.7213421655516 103.40968896794604 l 15.541299717982056 2.557314954435802 a36.75029703530477,36.75029703530477 0 0,0 -0.107774940482564,0.6216172166275292 l -15.495109960007259 -2.823725203983919" fill="#ffbb11" stroke="none" /><path d="M 120.592083275326 104.11899336999214 l 30.445983867255773 6.090049462959383 a52.0491004073627,52.0491004073627 0 0,0 -0.18277237207482996,0.8746319647215338 l -30.33695378435658 -6.611797878966326" fill="#8aff24" stroke="none" /><path d="M 120.51834098615036 104.47187691870673 l 17.432212083204615 3.799269488186286 a38.84142558086904,38.84142558086904 0 0,0 -0.14757732776045943,0.6502529359569681 l -17.364423893886492 -4.097956758082271" fill="#ffd614" stroke="none" /><path d="M 120.43855184770803 104.8234425847677 l 21.034470698729393 4.964077811005843 a42.61228877489439,42.61228877489439 0 0,0 -0.17412694764645562,0.7104973673641395 l -20.94615622456664 -5.324431002978082" fill="#f9ff18" stroke="none" /><path d="M 120.35273937422433 105.17358676015961 l 17.684474668432227 4.495324306115223 a39.24687877187689,39.24687877187689 0 0,0 -0.17158458651618222,0.651534622971117 l -17.604700601111315 -4.798239433459143" fill="#ffdb14" stroke="none" /><path d="M 120.16314734710363 105.8691983318838 l 20.684014710537085 6.020815230176981 a42.54248547827399,42.54248547827399 0 0,0 -0.21012681666660585,0.6994438326397964 l -20.57761157386685 -6.374996666407501" fill="#f9ff18" stroke="none" /><path d="M 119.94978838288452 106.5578916946017 l 7.062979073960843 2.3217415102012344 a28.43479367833434,28.43479367833434 0 0,0 -0.15641110497283678,0.4624016394201859 l -7.022082547415642 -2.4426448240955807" fill="#ff4806" stroke="none" /><path d="M 119.83427380445688 106.89939002012753 l 29.067437983928663 10.111163812406835 a51.77582792697646,51.77582792697646 0 0,0 -0.29921455585961515,0.8369563659830938 l -28.889583258025105 -10.60865513477085" fill="#8dff24" stroke="none" /><path d="M 119.58574465831526 107.57618678355244 l 17.66074638796958 6.8315560989099575 a39.936000678937845,39.936000678937845 0 0,0 -0.2528164212767501,0.6372625335271659 l -17.540871291726706 -7.133719649650687" fill="#ffe415" stroke="none" /><path d="M 119.4528033332814 107.91128576633889 l 20.174065617402384 8.20461685823354 a42.778628545564274,42.778628545564274 0 0,0 -0.28249000883064374,0.6778731843167211 l -20.030249764035254 -8.54972255199154" fill="#f6ff19" stroke="none" /><path d="M 119.16976305983485 108.57439118712176 l 19.804609618620873 8.85834997794452 a42.695458660229335,42.695458660229335 0 0,0 -0.3049991466272921,0.6664781789628788 l -19.649626007138522 -9.197017139122089" fill="#f8ff18" stroke="none" /><path d="M 119.0197475246899 108.90220220490707 l 14.016231037403028 6.560303846498642 a36.47553937839469,36.47553937839469 0 0,0 -0.27030240497039204,0.5648280660136171 l -13.901549374472722 -6.799944414577363" fill="#ffb711" stroke="none" /><path d="M 118.70294669586154 109.54985784667822 l 16.028754059042857 8.184396031941674 a38.99736911587206,38.99736911587206 0 0,0 -0.30954984584863765,0.5936026450918541 l -15.88589614421927 -8.45834492013803" fill="#ffd814" stroke="none" /><line stroke="#e1ed5e" stroke-width="0.3" x1="174.33088141563837" x2="178.70328620479359" y1="141.23008692659167" y2="143.65538615756765" /><path d="M 175.20536237346943 141.71514677278685 a86.0,86.0 0 0,1 -30.301960400862466,31.631185727798858" fill="none" id="id41" stroke="none" /><text fill="#e1ed5e" style="font-size:6.75px; font-family:Arial;" text-anchor="middle"><textPath startOffset="22.145653131862474" xlink:href="#id41">May</textPath></text><path d="M 118.36410011445183 110.18625677009912 l 21.06586431543326 11.684879828780911 a45.089563216656614,45.089563216656614 0 0,0 -0.3812572387160739,0.6736450094482683 l -20.862173711695807 -12.044781608328302" fill="#daff1b" stroke="none" /><path d="M 118.18653347947321 110.5 l 15.546306637069495 8.975664321816534 a38.951328643633076,38.951328643633076 0 0,0 -0.33929628734742845,0.576199273169458 l -15.389936639592301 -9.241214763279542" fill="#ffd714" stroke="none" /><path d="M 118.00360718960297 110.81064883170644 l 13.252127123759132 7.957521573278187 a36.45771726010863,36.45771726010863 0 0,0 -0.3267862062466464,0.533780708967072 l -13.113572953057082 -8.183839398369816" fill="#ffb711" stroke="none" /><path d="M 117.423217284605 111.72311816256416 l 17.92629033949958 12.06160816533433 a42.606348068799036,42.606348068799036 0 0,0 -0.41350528634476186,0.6033165705322068 l -17.7165953163395 -12.367559470936582" fill="#f9ff18" stroke="none" /><path d="M 117.21940702142032 112.02048342749411 l 12.786929531314595 8.92626989585057 a36.59435350030175,36.59435350030175 0 0,0 -0.3640003773938248,0.5120121158205443 l -12.63181405539081 -9.14445923838062" fill="#ffb911" stroke="none" /><path d="M 116.79662413953412 112.60449989151573 l 17.11054716537672 12.84007358253286 a42.39248264936633,42.39248264936633 0 0,0 -0.4417862382312276,0.5783123673734486 l -16.887608949791186 -13.131906863147185" fill="#fbff18" stroke="none" /><path d="M 116.57777611688842 112.89097897827486 l 8.206974635416431 6.381793115942119 a31.396235666867835,31.396235666867835 0 0,0 -0.33449485096033577,0.4226233171037158 l -8.096213353814534 -6.521736376960518" fill="#ff720a" stroke="none" /><path d="M 116.1254893667686 113.45245675266167 l 24.117983068640317 20.120079261651977 a52.40851312613157,52.40851312613157 0 0,0 -0.5822471919445354,0.685885728070923 l -23.769041313188666 -20.531131772172458" fill="#86ff25" stroke="none" /><path d="M 115.89218393027572 113.72728997021213 l 5.629805557866559 4.8628919541711655 a28.439249207905853,28.439249207905853 0 0,0 -0.32229650765743584,0.3667142625602767 l -5.545497986250538 -4.958818494542736" fill="#ff4806" stroke="none" /><path d="M 115.6541949942343 113.99807769240083 l 11.732232233957722 10.49103440813901 a36.738712658418834,36.738712658418834 0 0,0 -0.4244236266210448,0.4665159137325724 l -11.550410906494797 -10.690887897429254" fill="#ffba11" stroke="none" /><path d="M 114.91283532996324 114.78537596483092 l 13.457136560283983 13.342118990216235 a39.950109855914306,39.950109855914306 0 0,0 -0.48702623403855183,0.4828636416662861 l -13.226118406115466 -13.571162642111183" fill="#ffe415" stroke="none" /><path d="M 114.65682725009322 115.03919595460226 l 10.36777587663834 10.638251400634513 a35.8547355914303,35.8547355914303 0 0,0 -0.4444749612606461,0.42579695845730936 l -10.183628429512382 -10.8146604893974" fill="#ffaf10" stroke="none" /><path d="M 114.39649973595853 115.28858382429668 l 14.822463611246171 15.740942698529924 a42.621348351689804,42.621348351689804 0 0,0 -0.5369685657292208,0.4970100879637518 l -14.550065274202982 -15.993070532626055" fill="#f8ff18" stroke="none" /><path d="M 114.13192950727249 115.5334660781643 l 10.870996901210036 11.949129912789004 a37.154265049788776,37.154265049788776 0 0,0 -0.4754595438834331,0.4251588559696042 l -10.664272330503225 -12.133984298641995" fill="#ffc011" stroke="none" /><path d="M 113.59037401385872 116.0094264158162 l 12.542018037127706 14.77446571128066 a40.38006845956548,40.38006845956548 0 0,0 -0.5322971113289274,0.44406118207339157 l -12.286546591636883 -14.987589077265921" fill="#ffea15" stroke="none" /><path d="M 113.31354834802062 116.24036423190432 l 9.94956991599563 12.136857520075793 a36.693860327398916,36.693860327398916 0 0,0 -0.4905606199813908,0.39516091049275254 l -9.739758525658987 -12.30586672436195" fill="#ffba11" stroke="none" /><path d="M 112.7482090630111 116.68781488649013 l 11.954150759547392 15.648367077642149 a40.691955529571516,40.691955529571516 0 0,0 -0.5587335120156172,0.41928404381038725 l -11.683764258621009 -15.851270148716551" fill="#ffed16" stroke="none" /><path d="M 112.16784306229584 117.11559508785304 l 7.41873786210389 10.435383877044902 a33.80370681200966,33.80370681200966 0 0,0 -0.47583531762633885,0.3321700069362811 l -7.238507453303793 -10.561198699786306" fill="#ff930d" stroke="none" /><path d="M 111.8722381534696 117.32195027204791 l 9.969845435625707 14.546302443018511 a38.63498604405552,38.63498604405552 0 0,0 -0.5502794159570229,0.3702525492459404 l -9.718669731571682 -14.715304666321574" fill="#ffd313" stroke="none" /><path d="M 111.5731344415666 117.5232005979908 l 6.555232093663264 9.925456886691046 a32.89477877942064,32.89477877942064 0 0,0 -0.47386396211914145,0.3071528951836591 l -6.383882499287113 -10.0365236235786" fill="#ff870c" stroke="none" /><line stroke="#e1ed5e" stroke-width="0.3" x1="143.1302829299769" x2="145.66735839644613" y1="173.24464959558577" y2="177.55315839532614" /><path d="M 143.63769802327073 174.10635135553383 a86.0,86.0 0 0,1 -40.68552437913181,11.842963189579606" fill="none" id="id42" stroke="none" /><text fill="#e1ed5e" style="font-size:6.75px; font-family:Arial;" text-anchor="middle"><textPath startOffset="21.407464694133747" xlink:href="#id42">June</textPath></text><path d="M 110.65571695917076 118.09573695890943 l 13.3274334091356 22.632895583955843 a47.265346824079664,47.265346824079664 0 0,0 -0.7026951089365838,0.4057012103027717 l -12.936945832338617 -22.858343691534788" fill="#c0ff1e" stroke="none" /><path d="M 110.34350942703117 118.27599006163325 l 7.341543023655662 12.97180306973385 a35.9052315932408,35.9052315932408 0 0,0 -0.5390158540652654,0.29898300806703804 l -7.117782981434302 -13.095918993234033" fill="#ffaf10" stroke="none" /><path d="M 109.71004243097381 118.62028667847754 l 8.93972533897978 17.143102084463216 a40.33402798732649,40.33402798732649 0 0,0 -0.6166742107320498,0.31487824597749786 l -8.64412390653415 -17.294038282113547" fill="#ffe915" stroke="none" /><path d="M 109.3889696526874 118.78422872680471 l 8.843991881328034 17.693908117949793 a40.781066121001814,40.781066121001814 0 0,0 -0.6288823946405854,0.3076178929173841 l -8.53894923742538 -17.8431197609644" fill="#ffef16" stroke="none" /><path d="M 109.06512990194946 118.94263497670748 l 7.638189144431712 15.960877605836012 a38.694393105009055,38.694393105009055 0 0,0 -0.601626478984668,0.28159157006660224 l -7.3630739515755375 -16.08964540747315" fill="#ffd413" stroke="none" /><path d="M 108.4095320186766 119.2426549942271 l 7.56515308710911 17.31055075483993 a39.89144538322269,39.89144538322269 0 0,0 -0.6298382899919562,0.2688405134977784 l -7.266879721946722 -17.43786591799711" fill="#ffe315" stroke="none" /><path d="M 108.07796709384702 119.3841803445677 l 3.9248006045419803 9.418092677408819 a31.20316271876886,31.20316271876886 0 0,0 -0.4961979517467435,0.20179938724946564 l -3.762548191604796 -9.484079321237576" fill="#ff700a" stroke="none" /><path d="M 107.407793817531 119.65005319985036 l 5.285618198250099 14.02073024007692 a35.98394594900422,35.98394594900422 0 0,0 -0.5798741750206933,0.21293782916184742 l -5.044154871575279 -14.10939891824749" fill="#ffb110" stroke="none" /><path d="M 106.38641147887787 120.00534299687104 l 4.733892580019359 14.82885108277893 a36.56613514634883,36.56613514634883 0 0,0 -0.5996138646346351,0.18576190800647052 l -4.4786380825131 -14.907929578592046" fill="#ffb811" stroke="none" /><path d="M 105.69591212413111 120.21278271476187 l 5.156227028483201 18.297630701353533 a40.01025950512975,40.01025950512975 0 0,0 -0.6626815433006442,0.18061680144052114 l -4.841364084247862 -18.383447996938198" fill="#ffe515" stroke="none" /><path d="M 104.29559338865022 120.5559693870025 l 3.8700563078522303 18.51962040922684 a39.91966373717562,39.91966373717562 0 0,0 -0.6719876870244726,0.13441635751768466 l -3.5515721352967993 -18.583326163407385" fill="#ffe415" stroke="none" /><path d="M 103.2317021107853 120.74984581791261 l 1.6211382867993862 10.408870727391434 a31.534357083584794,31.534357083584794 0 0,0 -0.5355958801198639,0.07871415012053806 l -1.4422173010718369 -10.435165950810854" fill="#ff740a" stroke="none" /><path d="M 101.08105385017728 120.97215588758144 l 0.9436080797531313 18.305744660285686 a39.33004865721183,39.33004865721183 0 0,0 -0.6745557314592208,0.02896832554353164 l -0.629226587693081 -18.31924555425505" fill="#ffdc14" stroke="none" /><line stroke="#e1ed5e" stroke-width="0.3" x1="101.45913802915013" x2="101.54496967792366" y1="184.9874750549273" y2="189.98673829345242" /><path d="M 101.47630435890484 185.9873277026323 a86.0,86.0 0 0,1 -42.54439059252881,-10.42667462771756" fill="none" id="id43" stroke="none" /><text fill="#e1ed5e" style="font-size:6.75px; font-family:Arial;" text-anchor="middle"><textPath startOffset="22.145653131862474" xlink:href="#id43">July</textPath></text><path d="M 100.0 121.0 l 9.797965434082391e-16 8.000645933916715 a29.000645933916715,29.000645933916715 0 0,0 -0.4978346512011242,-0.004273311734064668 l 0.13734172635227107 -7.999467020377085" fill="#ff5107" stroke="none" /><path d="M 98.55909050195518 120.95050786540614 l -0.7282131162088125 10.588058888865811 a31.613071439348218,31.613071439348218 0 0,0 -0.5410818116993906,-0.04188315426607433 l 0.9098639226834393 -10.573997967604683" fill="#ff750a" stroke="none" /><path d="M 98.19965949673042 120.92268563240118 l -0.46002495839004576 5.346187329548801 a26.36594278062764,26.36594278062764 0 0,0 -0.4506070655110936,-0.04267295759830043 l 0.5517315872861546 -5.337502616445317" fill="#ff2b04" stroke="none" /><path d="M 96.76829788921471 120.74984581791261 l -1.7068462887096802 10.959177582427635 a32.09129828002414,32.09129828002414 0 0,0 -0.5435998454494817,-0.08944914770470896 l 1.8947236372122254 -10.928262436227259" fill="#ff7c0b" stroke="none" /><path d="M 96.41257539226777 120.69131181640829 l -0.4249681430544295 2.4511033182486166 a23.48767067742909,23.48767067742909 0 0,0 -0.3966790942416862,-0.07228814504671205 l 0.4669819708471728 -2.4434469992705385" fill="#ff0000" stroke="none" /><path d="M 95.70440661134978 120.55596938700252 l -0.6097184245120827 2.917723381844594 a23.980749283343393,23.980749283343393 0 0,0 -0.4022343416774882,-0.08766510263538767 l 0.6597151828087073 -2.9068268210754873" fill="#ff0701" stroke="none" /><path d="M 95.00130118170881 120.39639698878247 l -1.1188953417243799 4.565474818207072 a25.700583697948097,25.700583697948097 0 0,0 -0.4276022811943423,-0.10869482775388949 l 1.197102916144101 -4.545594758617919" fill="#ff2103" stroke="none" /><path d="M 94.6519064749342 120.30758222061772 l -1.1377205597982483 4.320110279280475 a25.46741098370549,25.46741098370549 0 0,0 -0.4218113909606096,-0.11496657031825097 l 1.2117133516935532 -4.29994321481808" fill="#ff1d03" stroke="none" /><path d="M 94.30408787586889 120.21278271476187 l -2.020193636550256 7.168954528694373 a28.448160267048884,28.448160267048884 0 0,0 -0.46890694488582696,-0.13649197773322844 l 2.1429605938176897 -7.133218856658629" fill="#ff4906" stroke="none" /><path d="M 93.61358852112213 120.00534299687104 l -1.3861574590286612 4.342118497571657 a25.558006751659626,25.558006751659626 0 0,0 -0.4168112468328036,-0.13701413575727395 l 1.4604914435092082 -4.317683440412361" fill="#ff1f03" stroke="none" /><path d="M 92.93061703081489 119.77432235084164 l -1.5038971011694329 4.2066678507372846 a25.46741098370549,25.46741098370549 0 0,0 -0.41040229315090415,-0.1507054067090996 l 1.575888545974456 -4.180231595019465" fill="#ff1d03" stroke="none" /><path d="M 92.25597844496254 119.51999308798841 l -1.6512493155296144 4.162226951023478 a25.47780721937236,25.47780721937236 0 0,0 -0.4051523837885418,-0.16477194737175704 l 1.722456160508597 -4.13326774707243" fill="#ff1e03" stroke="none" /><path d="M 91.26138138417905 119.09545874513695 l -1.8936090807140684 4.1378775833891 a25.550580869040434,25.550580869040434 0 0,0 -0.397264429565757,-0.1859398120937509 l 1.9643622241513152 -4.104761539724822" fill="#ff1f03" stroke="none" /><path d="M 90.6110303473126 118.78422872680471 l -2.0278963289718313 4.057151091840126 a25.53572910380205,25.53572910380205 0 0,0 -0.3904203566155742,-0.19935141594308942 l 2.097243907300988 -4.0217417242242" fill="#ff1e03" stroke="none" /><line stroke="#e1ed5e" stroke-width="0.3" x1="58.13341422392154" x2="55.67067388415222" y1="173.97424548756322" y2="178.32567169271397" /><path d="M 57.64086615596768 174.84453072859336 a86.0,86.0 0 0,1 -31.369924170532247,-30.572349798747897" fill="none" id="id44" stroke="none" /><text fill="#e1ed5e" style="font-size:6.75px; font-family:Arial;" text-anchor="middle"><textPath startOffset="22.145653131862474" xlink:href="#id44">August</textPath></text><path d="M 86.68645165197938 116.24036423190432 l -4.725739699856349 5.764634039297852 a28.454100973144236,28.454100973144236 0 0,0 -0.37508692608168526,-0.31291085416614567 l 4.8240009600999265 -5.682661001219837" fill="#ff4906" stroke="none" /><path d="M 86.40962598614128 116.0094264158162 l -4.852835395007877 5.716627893038247 a28.498656268859385,28.498656268859385 0 0,0 -0.3702389633014084,-0.31980359841084466 l 4.950253838072148 -5.63248016216268" fill="#ff4906" stroke="none" /><path d="M 86.13680546590413 115.77377054828092 l -4.958097377526411 5.641404670242954 a28.510537681050092,28.510537681050092 0 0,0 -0.36484659899848904,-0.32624807858021926 l 5.054209003348272 -5.5554610617793525" fill="#ff4a06" stroke="none" /><path d="M 85.60350026404147 115.28858382429668 l -7.280856518640575 7.732017312505582 a31.620497321967413,31.620497321967413 0 0,0 -0.3919850220728695,-0.37551278408588035 l 7.412514026578759 -7.605892398114119" fill="#ff750a" stroke="none" /><path d="M 85.08716467003676 114.78537596483092 l -7.477651805510672 7.413740635654463 a31.52990155401328,31.52990155401328 0 0,0 -0.37777806616215925,-0.3876335763135435 l 7.603816672823641 -7.284284367273182" fill="#ff740a" stroke="none" /><path d="M 84.83555147118756 114.52719865689866 l -10.780474639664769 10.327450840596615 a35.92899441762221,35.92899441762221 0 0,0 -0.4228400652399077,-0.44904149621484224 l 10.95617053864093 -10.140867884437283" fill="#ffb010" stroke="none" /><path d="M 84.58840730492382 114.26474011684316 l -7.762619038619251 7.184964292972775 a31.5774272027761,31.5774272027761 0 0,0 -0.3647979257567452,-0.40097682359730136 l 7.884814665217876 -7.050649893817799" fill="#ff750a" stroke="none" /><path d="M 84.3458050057657 113.99807769240083 l -6.211976282861205 5.5547874970811115 a29.333325475256487,29.333325475256487 0 0,0 -0.33242890097202876,-0.3782430661744984 l 6.306416247791827 -5.447332153095313" fill="#ff5507" stroke="none" /><path d="M 83.8745106332314 113.45245675266167 l -11.630186841970588 9.702315505500613 a36.1458301901026,36.1458301901026 0 0,0 -0.39339259339087185,-0.47987499919591675 l 11.795026254600089 -9.501238224606201" fill="#ffb310" stroke="none" /><path d="M 83.64595745247003 113.17365903436017 l -5.809611382315771 4.679811688781814 a28.46004167923959,28.46004167923959 0 0,0 -0.30321270042791415,-0.38309934181323696 l 5.889090513385248 -4.579392403053896" fill="#ff4906" stroke="none" /><path d="M 83.4222238831116 112.89097897827486 l -2.8384407989061673 2.2071887333851246 a24.595612364212432,24.595612364212432 0 0,0 -0.25631910150800674,-0.33552993182767316 l 2.8759118777684693 -2.1581378883165807" fill="#ff1101" stroke="none" /><path d="M 83.20337586046588 112.60449989151573 l -11.88496420366524 8.9186987082228 a35.859191121001814,35.859191121001814 0 0,0 -0.3652480266733204,-0.4955290960969589 l 12.03631424992239 -8.713363302856962" fill="#ffaf10" stroke="none" /><path d="M 82.98947788004972 112.3143062007846 l -9.626645340117836 6.968948840525877 a32.88438254375377,32.88438254375377 0 0,0 -0.3270976670264328,-0.4601038322357766 l 9.74485810567423 -6.802667781580596" fill="#ff870c" stroke="none" /><path d="M 82.576782715395 111.72311816256416 l -12.734960864636252 8.568650012972943 a36.34929937386844,36.34929937386844 0 0,0 -0.34389130704484716,-0.5206952695208094 l 12.880176610601826 -8.348774865113073" fill="#ffb510" stroke="none" /><path d="M 82.37810715431573 111.42229804090323 l -6.26000262361422 4.057658069420703 a28.46004167923959,28.46004167923959 0 0,0 -0.2622149790725076,-0.4122454998523681 l 6.328735294312618 -3.9495988948896628" fill="#ff4906" stroke="none" /><line stroke="#e1ed5e" stroke-width="0.3" x1="26.387840678322732" x2="22.057713659400548" y1="142.50000000000003" y2="145.00000000000006" /><path d="M 25.521815274538298 143.00000000000003 a86.0,86.0 0 0,1 -11.493303480769221,-40.785679425670985" fill="none" id="id45" stroke="none" /><text fill="#e1ed5e" style="font-size:6.75px; font-family:Arial;" text-anchor="middle"><textPath startOffset="21.40746469413373" xlink:href="#id45">September</textPath></text><path d="M 81.81346652052679 110.50000000000001 l -9.908889412756126 5.720899969824989 a32.44179993964997,32.44179993964997 0 0,0 -0.2743133927587284,-0.4846854808030431 l 10.005636170536233 -5.549957718922824" fill="#ff810b" stroke="none" /><path d="M 81.4637452351635 109.86951160357371 l -13.147355374680235 7.000226209280762 a35.89483535757393,35.89483535757393 0 0,0 -0.28492282950382225,-0.5463770940568492 l 13.265586273159007 -6.77350287211941" fill="#ffaf10" stroke="none" /><path d="M 81.29705330413844 109.54985784667822 l -13.327754241534565 6.805246279736283 a35.96463865419433,35.96463865419433 0 0,0 -0.27603731331388387,-0.5522595366933045 l 13.442611468060187 -6.575454886879226" fill="#ffb010" stroke="none" /><path d="M 80.9802524753101 108.90220220490708 l -17.169210456949347 8.036057418110241 a39.95679315027158,39.95679315027158 0 0,0 -0.28543522414827716,-0.6237274776203655 l 17.304630145952682 -7.7401409582751866" fill="#ffe415" stroke="none" /><path d="M 80.83023694016515 108.57439118712176 l -12.258576134417437 5.483105182131325 a34.42896612854557,34.42896612854557 0 0,0 -0.2366845802927344,-0.5415806386029111 l 12.350894596727139 -5.271862473752565" fill="#ff9c0e" stroke="none" /><path d="M 80.68587082218212 108.24405325689762 l -17.888444551950737 7.635513266563103 a40.44987175618588,40.44987175618588 0 0,0 -0.2671119906855497,-0.6409715389394269 l 18.01688238717277 -7.3273092181823944" fill="#ffea16" stroke="none" /><path d="M 80.5471966667186 107.91128576633889 l -6.907663902412532 2.8092867734036204 a28.457071326191915,28.457071326191915 0 0,0 -0.1801486080327362,-0.4540921740232347 l 6.954871185411393 -2.69029358216682" fill="#ff4906" stroke="none" /><path d="M 80.28708602549918 107.23885506374661 l -17.141078378410317 6.294441409227274 a39.260245360591426,39.260245360591426 0 0,0 -0.2268865095711639,-0.634641947801376 l 17.246605058025423 -5.999264505044977" fill="#ffdb14" stroke="none" /><path d="M 80.16572619554312 106.89939002012753 l -21.196701832600425 7.373313211527829 a43.442502451719974,43.442502451719974 0 0,0 -0.23896392174056344,-0.706454373519738 l 21.320151175913356 -7.008357163533929" fill="#eeff19" stroke="none" /><path d="M 80.05021161711548 106.5578916946017 l -7.072855393081443 2.3249880524648 a28.445189914001208,28.445189914001208 0 0,0 -0.14850459433292792,-0.4651885266189197 l 7.1117247031916255 -2.2032304921544887" fill="#ff4906" stroke="none" /><path d="M 79.94057633289273 106.21446072829308 l -17.995656864150366 5.575100497302951 a39.83946420488836,39.83946420488836 0 0,0 -0.19677599221022335,-0.655003280144826 l 18.08870917636422 -5.2653596135674015" fill="#ffe315" stroke="none" /><line stroke="#e1ed5e" stroke-width="0.3" x1="15.003131293944662" x2="10.003315487706104" y1="100.72959589197737" y2="100.7725132973878" /><path d="M 14.003168132696942 100.73817937305945 a86.0,86.0 0 0,1 10.791469493833604,-42.45332614584628" fill="none" id="id46" stroke="none" /><text fill="#e1ed5e" style="font-size:6.75px; font-family:Arial;" text-anchor="middle"><textPath startOffset="22.145653131862435" xlink:href="#id46">October</textPath></text><line stroke="#e1ed5e" stroke-width="0.3" x1="26.387840678322718" x2="22.05771365940052" y1="57.49999999999999" y2="54.99999999999999" /><path d="M 25.521815274538284 56.99999999999999 a86.0,86.0 0 0,1 29.574782752854787,-30.34633250058573" fill="none" id="id47" stroke="none" /><text fill="#e1ed5e" style="font-size:6.75px; font-family:Arial;" text-anchor="middle"><textPath startOffset="21.40746469413373" xlink:href="#id47">November</textPath></text><line stroke="#e1ed5e" stroke-width="0.3" x1="56.869717070023135" x2="54.33264160355391" y1="26.7553504044142" y2="22.446841604673864" /><path d="M 56.362301976729285 25.89364864446614 a86.0,86.0 0 0,1 42.16139366436587,-11.88097634709845" fill="none" id="id48" stroke="none" /><text fill="#e1ed5e" style="font-size:6.75px; font-family:Arial;" text-anchor="middle"><textPath startOffset="22.145653131862474" xlink:href="#id48">December</textPath></text></svg>