<?xml version="1.0" encoding="utf-8" ?>
<svg baseProfile="full" height="200mm" version="1.1" viewBox="0,0,200,200" width="200mm" xmlns="http://www.w3.org/2000/svg" xmlns:ev="http://www.w3.org/2001/xml-events" xmlns:xlink="http://www.w3.org/1999/xlink"><defs /><rect fill="#1a1a1a" height="200" width="200" x="0" y="0" /><text alignment-baseline="middle" fill="#e1ed5e" style="dominant-baseline: central; font-size:9.0px; font-family:Arial;" text-anchor="middle" x="100.0" y="100.0">2025</text><line stroke="#e1ed5e" stroke-width="0.3" x1="100.0" x2="100.0" y1="15.0" y2="10.0" /><path d="M 100.0 14.0 a86.0,86.0 0 0,1 42.46469731375804,11.215312516191453" fill="none" id="id49" stroke="none" /><text fill="#e1ed5e" style="font-size:6.75px; font-family:Arial;" text-anchor="middle"><textPath startOffset="22.20632615414155" xlink:href="#id49">January</textPath></text><path d="M 100.0 79.0 l 0.0 -47.013674329218716 a68.01367432921872,68.01367432921872 0 0,0 1.1707435996957924,0.010076959779527234 l -0.8092631204232641 47.00670874604775" fill="red" stroke="none" /><path d="M 100.72285384407766 79.0124445844662 l 1.7971699238226173 -52.17957084462228 a73.21051075467514,73.21051075467514 0 0,0 1.2590784345004935,0.05421856593143276 l -2.6950891907124426 52.14090455216666" fill="red" stroke="none" /><path d="M 101.80526077348638 79.07773832637324 l 2.0043478511744293 -23.229602527869588 a44.31591396259886,44.31591396259886 0 0,0 0.759437328817616,0.07211772518971557 l -2.4039103070822896 23.191659258164695" fill="red" stroke="none" /><path d="M 102.16513564639614 79.11191278185805 l 5.0526766670129835 -48.74556062171463 a70.00672629166974,70.00672629166974 0 0,0 1.1975593839166145,0.13455975035275572 l -5.891002754439324 48.65136491789128" fill="red" stroke="none" /><path d="M 105.01212808612495 79.60689891045804 l 3.603219585013769 -14.660603237259599 a36.096902949220194,36.096902949220194 0 0,0 0.6021154404338638,0.15349263242612005 l -3.855043914132658 14.59640760866461" fill="red" stroke="none" /><path d="M 105.36241919743992 79.69619591428918 l 8.861131168450514 -33.55102698944129 a55.70145613127356,55.70145613127356 0 0,0 0.9249150155375221,0.25281421261353043 l -9.437344073211747 33.39352623600147" fill="red" stroke="none" /><line stroke="#e1ed5e" stroke-width="0.3" x1="143.23703022742887" x2="145.7803849466894" y1="26.81831364943548" y2="22.513508569990506" /><path d="M 143.74570117128098 25.957352633546492 a86.0,86.0 0 0,1 28.547481713284135,27.462654790039103" fill="none" id="id50" stroke="none" /><text fill="#e1ed5e" style="font-size:6.75px; font-family:Arial;" text-anchor="middle"><textPath startOffset="19.985693538727396" xlink:href="#id50">February</textPath></text><path d="M 117.2510076193507 88.02491185347247 l 12.290816944557719 -8.531885183264015 a35.961859708773744,35.961859708773744 0 0,0 0.3486168955123649,0.5115522770989152 l -12.435858305738817 8.319054882894694" fill="red" stroke="none" /><line stroke="#e1ed5e" stroke-width="0.3" x1="172.23445277983987" x2="176.4835382374775" y1="55.19839476539836" y2="52.563006222186495" /><path d="M 173.08426987136738 54.67131705675599 a86.0,86.0 0 0,1 12.851231095245387,41.99856678651699" fill="none" id="id51" stroke="none" /><text fill="#e1ed5e" style="font-size:6.75px; font-family:Arial;" text-anchor="middle"><textPath startOffset="22.20632615414155" xlink:href="#id51">March</textPath></text><path d="M 118.21658344932153 89.55222093294921 l 20.205340471617927 -11.588393279633692 a44.29263064528051,44.29263064528051 0 0,0 0.3736238602794312,0.6646351573664466 l -20.401821973189794 11.238874612332452" fill="red" stroke="none" /><path d="M 118.3937258080291 89.86733742301442 l 30.553788164966956 -16.831349404434704 a55.883066006356714,55.883066006356714 0 0,0 0.45688903924435137,0.8465460003004525 l -30.838985303429773 16.302922420801792" fill="red" stroke="none" /><line stroke="#e1ed5e" stroke-width="0.3" x1="184.98032266829074" x2="189.97916517819016" y1="98.17113171792111" y2="98.06355123074" /><path d="M 185.9800911702706 98.14961562048488 a86.0,86.0 0 0,1 -9.607161424134198,41.387399972396054" fill="none" id="id52" stroke="none" /><text fill="#e1ed5e" style="font-size:6.75px; font-family:Arial;" text-anchor="middle"><textPath startOffset="21.466115282336823" xlink:href="#id52">April</textPath></text><path d="M 120.81339534386255 102.79330883721812 l 16.725330043600447 2.2446607794799442 a37.87528272599601,37.87528272599601 0 0,0 -0.092282132556672,0.6454210201676123 l -16.684213860027175 -2.532227271627966" fill="red" stroke="none" /><path d="M 120.64145759157962 103.86396538481128 l 22.917830917519225 4.290089736510478 a44.31591396259886,44.31591396259886 0 0,0 -0.14681243355346216,0.7485934357461876 l -22.8405885509901 -4.683946899324611" fill="red" stroke="none" /><path d="M 120.5718875245553 104.21870165774334 l 33.213965496257025 6.811227755938185 a54.905166678985886,54.905166678985886 0 0,0 -0.19783105789334018,0.924200841127302 l -33.09180039963924 -7.381942416481656" fill="red" stroke="none" /><path d="M 120.41448212921028 104.9243191809786 l 23.064185035477806 5.563472442993416 a44.725700347401876,44.725700347401876 0 0,0 -0.1869719262253024,0.7468599035851454 l -22.96500179495744 -5.959660185975958" fill="red" stroke="none" /><path d="M 120.23288151984713 105.62410040840565 l 26.946267959539174 7.490209265921587 a48.967920762805825,48.967920762805825 0 0,0 -0.23273138326219395,0.8101684766248024 l -26.813343939390883 -7.952935218050971" fill="red" stroke="none" /><path d="M 120.13307415673323 105.97154293290107 l 28.82680016927188 8.550133650175678 a51.06807598492128,51.06807598492128 0 0,0 -0.25722072470605617,0.8406122110309202 l -28.67535267205969 -9.045072833758654" fill="red" stroke="none" /><path d="M 119.9155931802556 106.66101706037122 l 35.88604705065201 12.002533365195482 a58.840047305787564,58.840047305787564 0 0,0 -0.3295299557568889,0.9577683009826218 l -35.67412626395189 -12.618474369267405" fill="red" stroke="none" /><path d="M 119.79798401119884 107.00284435728193 l 25.085153516148306 8.872995636967014 a47.608175031414,47.608175031414 0 0,0 -0.27992640924744555,0.770237254640029 l -24.928702845895632 -9.303480688613174" fill="red" stroke="none" /><path d="M 119.54520255179757 107.68017299344265 l 43.58338905925264 17.125837746040194 a67.82740779067188,67.82740779067188 0 0,0 -0.43634787972464495,1.0829796528474076 l -43.28213856527061 -17.873516766730415" fill="red" stroke="none" /><path d="M 119.26925614724726 108.34839909993367 l 21.377209366104974 9.26166916186743 a44.297287308744174,44.297287308744174 0 0,0 -0.30915058939603324,0.6970529657159936 l -21.21461769197767 -9.62827046407611" fill="red" stroke="none" /><path d="M 118.97047184881838 109.00673069616215 l 25.450074954250386 12.08309277369673 a49.17281395520733,49.17281395520733 0 0,0 -0.3696080259961908,0.76150200783325 l -25.23831367163948 -12.519383737495257" fill="red" stroke="none" /><path d="M 118.81262510543309 109.33194174019688 l 44.198336091077735 21.92444143781194 a70.33734939759036,70.33734939759036 0 0,0 -0.5473630096315326,1.0799991463451926 l -43.81439441165993 -22.681994795859826" fill="red" stroke="none" /><line stroke="#e1ed5e" stroke-width="0.3" x1="174.80103733775053" x2="179.2010983576182" y1="140.37084112569926" y2="142.7455964860345" /><path d="M 175.68104954172406 140.8457921977663 a86.0,86.0 0 0,1 -30.038265399797805,32.042727171017184" fill="none" id="id53" stroke="none" /><text fill="#e1ed5e" style="font-size:6.75px; font-family:Arial;" text-anchor="middle"><textPath startOffset="22.206326154141568" xlink:href="#id53">May</textPath></text><path d="M 118.48025628344425 109.97397251340804 l 41.25786538437062 22.267267779952448 a67.88328775223593,67.88328775223593 0 0,0 -0.5638307994276835,1.0235166766877664 l -40.86845817549142 -22.97415497503802" fill="red" stroke="none" /><path d="M 118.30583269289576 110.29060199501025 l 28.82874354016092 16.20604376566548 a54.07162391898884,54.07162391898884 0 0,0 -0.4630796965061615,0.8074184839622731 l -28.54551184750238 -16.699882095486068" fill="red" stroke="none" /><path d="M 118.12598468904814 110.60418214915192 l 28.589724834030473 16.725747866121147 a54.122847217089216,54.122847217089216 0 0,0 -0.4773612555365669,0.8000849220474034 l -28.29758270279568 -17.215394882054657" fill="red" stroke="none" /><path d="M 117.94076556474637 110.91462005526583 l 41.60894383362014 25.31362506275969 a69.70404316653116,69.70404316653116 0 0,0 -0.632432618158804,1.01968275140151 l -41.16704657579337 -26.026104145526475" fill="red" stroke="none" /><path d="M 117.75023020441432 111.22182372390056 l 20.21943955061196 12.782875704710724 a44.92128021287604,44.92128021287604 0 0,0 -0.41882705697894623,0.6500288933604221 l -19.996407630255963 -13.129026197992598" fill="red" stroke="none" /><path d="M 117.35343817320211 111.8261652097733 l 40.008211254368156 27.265128173408144 a69.41533003178358,69.41533003178358 0 0,0 -0.6813911029425138,0.981594704338568 l -39.53295924426351 -27.94976413993373" fill="red" stroke="none" /><path d="M 116.71984013943494 112.70617746262583 l 11.237601181748971 8.53997129630103 a35.11434695838569,35.11434695838569 0 0,0 -0.36985972214449375,0.47809354846404 l -11.088934642386409 -8.732142838878321" fill="red" stroke="none" /><path d="M 116.27256486870786 113.27417163493432 l 37.86627889693701 30.88901407428505 a69.86702638775964,69.86702638775964 0 0,0 -0.7682178984989075,0.9253679470804996 l -37.328964998544556 -31.53624327847932" fill="red" stroke="none" /><path d="M 116.0416608686014 113.55231037782055 l 48.12498260580419 40.656931133461654 a84.0,84.0 0 0,0 -0.942629961716885,1.096491603353888 l -47.41801013451653 -41.47929983597707" fill="red" stroke="none" /><path d="M 115.80600337817218 113.82643327865902 l 17.720855882926717 15.501466477248877 a44.54409047231872,44.54409047231872 0 0,0 -0.5097989497850274,0.5727645244250391 l -17.451398083493352 -15.804205171414784" fill="red" stroke="none" /><path d="M 115.32070863581623 114.36230785411682 l 38.07018869974649 35.68867362256629 a73.18257077389312,73.18257077389312 0 0,0 -0.869455807682457,0.9116209383165449 l -37.45022634068507 -36.338701677465345" fill="red" stroke="none" /><path d="M 114.81725581225074 114.88116024355365 l 35.6888977676105 35.84281821985655 a71.58067854239042,71.58067854239042 0 0,0 -0.8806129385904538,0.8618651048655179 l -35.06663487664425 -36.45183342764464" fill="red" stroke="none" /><path d="M 114.55890576462653 115.13401014063108 l 40.809918198827106 42.421987328195165 a79.86488284426048,79.86488284426048 0 0,0 -0.99893537208398,0.94455574470758 l -40.07364699235232 -43.11817770964867" fill="red" stroke="none" /><line stroke="#e1ed5e" stroke-width="0.3" x1="143.8653032363475" x2="146.44561519142675" y1="172.8068346515853" y2="177.08958963109032" /><path d="M 144.38136562736335 173.6633856474863 a86.0,86.0 0 0,1 -40.68145358897372,12.25698825130547" fill="none" id="id54" stroke="none" /><text fill="#e1ed5e" style="font-size:6.75px; font-family:Arial;" text-anchor="middle"><textPath startOffset="21.466115282336833" xlink:href="#id54">June</textPath></text><line stroke="#e1ed5e" stroke-width="0.3" x1="102.19456741930631" x2="102.32365962044197" y1="184.97166512339345" y2="189.96999836594603" /><path d="M 102.22038585953345 185.97133177190398 a86.0,86.0 0 0,1 -42.740103519485714,-10.115201625700543" fill="none" id="id55" stroke="none" /><text fill="#e1ed5e" style="font-size:6.75px; font-family:Arial;" text-anchor="middle"><textPath startOffset="22.20632615414155" xlink:href="#id55">July</textPath></text><line stroke="#e1ed5e" stroke-width="0.3" x1="58.666819895761336" x2="56.23545636021788" y1="174.27360380694188" y2="178.64263932499728" /><path d="M 58.180547188652646 175.14741091055294 a86.0,86.0 0 0,1 -31.652253787137756,-30.449443065178592" fill="none" id="id56" stroke="none" /><text fill="#e1ed5e" style="font-size:6.75px; font-family:Arial;" text-anchor="middle"><textPath startOffset="22.20632615414155" xlink:href="#id56">August</textPath></text><line stroke="#e1ed5e" stroke-width="0.3" x1="26.63291911575756" x2="22.317208475507996" y1="142.92168965132927" y2="145.44649492493687" /><path d="M 25.769776987707644 143.4266507060508 a86.0,86.0 0 0,1 -11.730757126820373,-40.83630448921669" fill="none" id="id57" stroke="none" /><text fill="#e1ed5e" style="font-size:6.75px; font-family:Arial;" text-anchor="middle"><textPath startOffset="21.46611528233685" xlink:href="#id57">September</textPath></text><line stroke="#e1ed5e" stroke-width="0.3" x1="15.007084014347285" x2="10.007500721073583" y1="101.09737516637583" y2="101.16192664675087" /><path d="M 14.007167355692545 101.11028546245083 a86.0,86.0 0 0,1 10.666146001902534,-42.60595125391555" fill="none" id="id58" stroke="none" /><text fill="#e1ed5e" style="font-size:6.75px; font-family:Arial;" text-anchor="middle"><textPath startOffset="22.20632615414155" xlink:href="#id58">October</textPath></text><line stroke="#e1ed5e" stroke-width="0.3" x1="26.266209847984243" x2="21.928928074336255" y1="57.711370442889674" y2="55.22380399835377" /><path d="M 25.398753493254645 57.213857153982495 a86.0,86.0 0 0,1 29.58750427330803,-30.492523968695096" fill="none" id="id59" stroke="none" /><text fill="#e1ed5e" style="font-size:6.75px; font-family:Arial;" text-anchor="middle"><textPath startOffset="21.46611528233685" xlink:href="#id59">November</textPath></text><line stroke="#e1ed5e" stroke-width="0.3" x1="56.762969772571076" x2="54.21961505331055" y1="26.818313649435495" y2="22.513508569990535" /><path d="M 56.25429882871897 25.957352633546506 a86.0,86.0 0 0,1 42.265352541879196,-11.944610805530505" fill="none" id="id60" stroke="none" /><text fill="#e1ed5e" style="font-size:6.75px; font-family:Arial;" text-anchor="middle"><textPath startOffset="22.20632615414155" xlink:href="#id60">December</textPath></text></svg>