<?xml version="1.0" encoding="utf-8" ?>
<svg baseProfile="full" height="200mm" version="1.1" viewBox="0,0,200,200" width="200mm" xmlns="http://www.w3.org/2000/svg" xmlns:ev="http://www.w3.org/2001/xml-events" xmlns:xlink="http://www.w3.org/1999/xlink"><defs /><rect fill="#1a1a1a" height="200" width="200" x="0" y="0" /><rect fill="#1a1a1a" height="200" width="180" x="10" y="0" /><text alignment-baseline="middle" fill="#e1ed5e" style="dominant-baseline: central; font-size:9.0px; font-family:Arial;" text-anchor="middle" x="100.0" y="100.0">2022</text><line stroke="#e1ed5e" stroke-width="0.3" x1="100.0" x2="100.0" y1="15.0" y2="10.0" /><path d="M 100.0 14.0 a86.0,86.0 0 0,1 42.46469731375804,11.215312516191453" fill="none" id="id13" stroke="none" /><text fill="#e1ed5e" style="font-size:6.75px; font-family:Arial;" text-anchor="middle"><textPath startOffset="22.20632615414155" xlink:href="#id13">January</textPath></text><path d="M 102.52436894288641 79.15227682838746 l 0.9252187139194168 -7.64100020931661 a28.696811928802937,28.696811928802937 0 0,0 0.4898754483455334,0.06359989271475683 l -1.0566088907727964 7.623941993437717" fill="#ff4c07" stroke="none" /><path d="M 105.01212808612495 79.60689891045804 l 2.4929170436614507 -10.143058678002559 a31.44491621469415,31.44491621469415 0 0,0 0.5245178402881662,0.13371127636634156 l -2.667143772634642 10.09864440546735" fill="#ff730a" stroke="none" /><path d="M 107.08798089147638 80.2323363322302 l 2.623142078019972 -7.315678631897782 a28.771745505784704,28.771745505784704 0 0,0 0.4647564092350292,0.17117370776194307 l -2.7486808130275775 7.269441656329515" fill="#ff4d07" stroke="none" /><line stroke="#e1ed5e" stroke-width="0.3" x1="143.23703022742887" x2="145.7803849466894" y1="26.81831364943548" y2="22.513508569990506" /><path d="M 143.74570117128098 25.957352633546492 a86.0,86.0 0 0,1 28.547481713284135,27.462654790039103" fill="none" id="id14" stroke="none" /><text fill="#e1ed5e" style="font-size:6.75px; font-family:Arial;" text-anchor="middle"><textPath startOffset="19.985693538727396" xlink:href="#id14">February</textPath></text><path d="M 110.68208982089419 81.91981866633111 l 5.250496302291977 -8.88683083824232 a31.321989816305596,31.321989816305596 0 0,0 0.46183220041300305,0.27824873327307403 l -5.402690568922618 8.795135495510632" fill="#ff710a" stroke="none" /><path d="M 115.9244219780498 86.31012108654704 l 5.135911596200576 -4.415231394841206 a27.772876508100452,27.772876508100452 0 0,0 0.3085293962987052,0.36520149003657 l -5.211151605986399 4.326170955175529" fill="#ff3f05" stroke="none" /><line stroke="#e1ed5e" stroke-width="0.3" x1="172.23445277983987" x2="176.4835382374775" y1="55.19839476539836" y2="52.563006222186495" /><path d="M 173.08426987136738 54.67131705675599 a86.0,86.0 0 0,1 12.851231095245387,41.99856678651699" fill="none" id="id15" stroke="none" /><text fill="#e1ed5e" style="font-size:6.75px; font-family:Arial;" text-anchor="middle"><textPath startOffset="22.20632615414155" xlink:href="#id15">March</textPath></text><path d="M 120.28053869075195 94.5502522615342 l 7.116924648945257 -1.912446439507413 a28.369400779083,28.369400779083 0 0,0 0.122668840637249,0.4726930827446843 l -7.148789821452809 1.7896569312138784" fill="#ff4806" stroke="none" /><path d="M 120.67395015179393 96.31383870115 l 4.9560783153025 -0.8836678015474708 a26.034240861431186,26.034240861431186 0 0,0 0.07486473058837975,0.4418558777820285 l -4.9705549074111035 0.7982261354496044" fill="#ff2603" stroke="none" /><path d="M 120.87857604477298 97.74499172005257 l 7.318447354515673 -0.7904351017714073 a28.36100939619899,28.36100939619899 0 0,0 0.048244608294549914,0.4858166216063912 l -7.330969088492452 0.6643429494605811" fill="#ff4806" stroke="none" /><path d="M 120.91429891909075 98.10471618934814 l 7.334341266829591 -0.6646485411055 a28.36439539280131,28.36439539280131 0 0,0 0.03987968643430494,0.486633186040114 l -7.344695437083391 0.5383014378576172" fill="#ff4806" stroke="none" /><line stroke="#e1ed5e" stroke-width="0.3" x1="184.98032266829074" x2="189.97916517819016" y1="98.17113171792111" y2="98.06355123074" /><path d="M 185.9800911702706 98.14961562048488 a86.0,86.0 0 0,1 -9.607161424134198,41.387399972396054" fill="none" id="id16" stroke="none" /><text fill="#e1ed5e" style="font-size:6.75px; font-family:Arial;" text-anchor="middle"><textPath startOffset="21.466115282336823" xlink:href="#id16">April</textPath></text><line stroke="#e1ed5e" stroke-width="0.3" x1="174.80103733775053" x2="179.2010983576182" y1="140.37084112569926" y2="142.7455964860345" /><path d="M 175.68104954172406 140.8457921977663 a86.0,86.0 0 0,1 -30.038265399797805,32.042727171017184" fill="none" id="id17" stroke="none" /><text fill="#e1ed5e" style="font-size:6.75px; font-family:Arial;" text-anchor="middle"><textPath startOffset="22.206326154141568" xlink:href="#id17">May</textPath></text><line stroke="#e1ed5e" stroke-width="0.3" x1="143.8653032363475" x2="146.44561519142675" y1="172.8068346515853" y2="177.08958963109032" /><path d="M 144.38136562736335 173.6633856474863 a86.0,86.0 0 0,1 -40.68145358897372,12.25698825130547" fill="none" id="id18" stroke="none" /><text fill="#e1ed5e" style="font-size:6.75px; font-family:Arial;" text-anchor="middle"><textPath startOffset="21.466115282336833" xlink:href="#id18">June</textPath></text><path d="M 107.59598834532513 119.57807347666477 l 2.615770982539994 6.741947744800498 a28.231605439092952,28.231605439092952 0 0,0 -0.45456888165254883,0.17187905512796148 l -2.4993318801271704 -6.78597505003509" fill="#ff4606" stroke="none" /><path d="M 105.53697534728816 120.25689768951611 l 2.6328965423101587 9.632391791446056 a30.98574563197091,30.98574563197091 0 0,0 -0.5157054397612253,0.13620249381474292 l -2.466700659737436 -9.676285634564382" fill="#ff6d0a" stroke="none" /><path d="M 104.83641907484287 120.43548508189849 l 1.7209143568251501 7.271437632246104 a28.472305632344796,28.472305632344796 0 0,0 -0.4779006683680793,0.10876863620958063 l -1.5954935390642087 -7.299983002033369" fill="#ff4906" stroke="none" /><path d="M 102.70371172650421 120.8252237178851 l 0.9482851625259583 7.3041258298227705 a28.365425913506364,28.365425913506364 0 0,0 -0.4847415949440564,0.05869545645484042 l -0.8224161445305216 -7.319366815002962" fill="#ff4806" stroke="none" /><path d="M 102.34483914955558 120.86867818915974 l 0.7885371560258464 7.017849455651338 a28.06201117448982,28.06201117448982 0 0,0 -0.4804849758112318,0.04980423232737145 l -0.667619583609012 -7.030383056434467" fill="#ff4306" stroke="none" /><line stroke="#e1ed5e" stroke-width="0.3" x1="102.19456741930631" x2="102.32365962044197" y1="184.97166512339345" y2="189.96999836594603" /><path d="M 102.22038585953345 185.97133177190398 a86.0,86.0 0 0,1 -42.740103519485714,-10.115201625700543" fill="none" id="id19" stroke="none" /><text fill="#e1ed5e" style="font-size:6.75px; font-family:Arial;" text-anchor="middle"><textPath startOffset="22.20632615414155" xlink:href="#id19">July</textPath></text><path d="M 100.54218724476979 120.99299961872073 l 0.449264896243705 17.395130347548406 a38.400930973807014,38.400930973807014 0 0,0 -0.6609354475991933,0.01137860311837789 l -0.14976975875184376 -17.400286427945943" fill="#ffd013" stroke="none" /><path d="M 99.81925306533755 120.99922214144158 l -0.061431462565726506 7.137122028102395 a28.137386403202324,28.137386403202324 0 0,0 -0.4842850317706322,-0.008337406009475738 l 0.18427618422902664 -7.13500714481376" fill="#ff4406" stroke="none" /><path d="M 98.01472825383883 120.90594882070398 l -0.6895395511759072 7.261211768418716 a28.29387833312692,28.29387833312692 0 0,0 -0.48445506496189095,-0.050215748300548 l 0.8144272127433915 -7.248266651662407" fill="#ff4706" stroke="none" /><path d="M 97.65516085044442 120.86867818915974 l -0.6687689317439123 5.951932192072527 a26.98938633777244,26.98938633777244 0 0,0 -0.46122622025228677,-0.055848072063581035 l 0.7711225750475884 -5.939538591283598" fill="#ff3404" stroke="none" /><path d="M 96.58105272829116 120.7198165907248 l -1.190898000107941 7.217188853621729 a28.31478318171515,28.31478318171515 0 0,0 -0.4802066263197025,-0.08349007730863378 l 1.3149535978996933 -7.195620197792088" fill="#ff4706" stroke="none" /><path d="M 92.40401165467489 119.57807347666478 l -2.7055513228470307 6.973349640035502 a28.47981371176733,28.47981371176733 0 0,0 -0.4555128182874641,-0.1812579511097656 l 2.8251852171763527 -6.92574484451967" fill="#ff4906" stroke="none" /><path d="M 90.42595943632237 118.69057910512821 l -3.3655312324306803 6.570238272143101 a28.3820614620308,28.3820614620308 0 0,0 -0.43290630911145794,-0.22647612051139346 l 3.4781284440686338 -6.5113327326869905" fill="#ff4806" stroke="none" /><line stroke="#e1ed5e" stroke-width="0.3" x1="58.666819895761336" x2="56.23545636021788" y1="174.27360380694188" y2="178.64263932499728" /><path d="M 58.180547188652646 175.14741091055294 a86.0,86.0 0 0,1 -31.652253787137756,-30.449443065178592" fill="none" id="id20" stroke="none" /><text fill="#e1ed5e" style="font-size:6.75px; font-family:Arial;" text-anchor="middle"><textPath startOffset="22.20632615414155" xlink:href="#id20">August</textPath></text><path d="M 89.4739219176387 118.17145234162733 l -3.1762048719495786 5.4831680903633355 a27.336671815375556,27.336671815375556 0 0,0 -0.40514526514751226,-0.23936696391183218 l 3.270118008125473 -5.427682554157754" fill="#ff3905" stroke="none" /><path d="M 87.65650970185807 116.9893568818739 l -4.341057097765474 5.974952505097464 a28.385447458633124,28.385447458633124 0 0,0 -0.3928208406129978,-0.29059946686553306 l 4.443262908797037 -5.899343089492165" fill="#ff4806" stroke="none" /><path d="M 86.24171649860922 115.8653595955263 l -3.0219812075943713 3.484796526002747 a25.61261067582062,25.61261067582062 0 0,0 -0.3305949517003595,-0.2917116072596338 l 3.0815185122013182 -3.4322617769708246" fill="#ff2003" stroke="none" /><path d="M 85.18274418774928 114.88116024355367 l -4.227674819719197 4.245908098439035 a26.991741813669705,26.991741813669705 0 0,0 -0.32641932760295167,-0.3306610555041003 l 4.300134772377683 -4.172506548954269" fill="#ff3404" stroke="none" /><path d="M 84.67929136418377 114.36230785411682 l -3.855891335455091 3.614682566468456 a26.285246261733565,26.285246261733565 0 0,0 -0.3066031185013559,-0.3327571302818823 l 3.9175408619521757 -3.5477741813852295" fill="#ff2a04" stroke="none" /><path d="M 83.50135304334701 112.99209946851258 l -5.796708326468502 4.564702267119242 a28.378233813697747,28.378233813697747 0 0,0 -0.2989081837610303,-0.3863791207397895 l 5.8744233274476 -4.4642451522662" fill="#ff4806" stroke="none" /><path d="M 83.06392112726016 112.41649034213515 l -14.678074857952277 10.76106081486485 a39.200173389197985,39.200173389197985 0 0,0 -0.3942794648656469,-0.547619692041869 l 14.861134115193531 -10.506807517371843" fill="#ffdb14" stroke="none" /><path d="M 82.6465618267979 111.8261652097733 l -6.090100236636557 4.150332102704787 a28.36984243081374,28.36984243081374 0 0,0 -0.271535725170498,-0.40590906667890153 l 6.160639067217785 -4.044886121820064" fill="#ff4806" stroke="none" /><path d="M 82.05923443525364 110.91462005526583 l -2.5853477501391047 1.572847507631071 a24.026197659012148,24.026197659012148 0 0,0 -0.21191006146206767,-0.3551734520543881 l 2.6120386872994046 -1.5281119616905718" fill="#ff0801" stroke="none" /><line stroke="#e1ed5e" stroke-width="0.3" x1="26.63291911575756" x2="22.317208475507996" y1="142.92168965132927" y2="145.44649492493687" /><path d="M 25.769776987707644 143.4266507060508 a86.0,86.0 0 0,1 -11.730757126820373,-40.83630448921669" fill="none" id="id21" stroke="none" /><text fill="#e1ed5e" style="font-size:6.75px; font-family:Arial;" text-anchor="middle"><textPath startOffset="21.46611528233685" xlink:href="#id21">September</textPath></text><path d="M 81.18737489456691 109.33194174019688 l -6.831011405557889 3.3885010787184933 a28.625264348423492,28.625264348423492 0 0,0 -0.21516213123530653,-0.44329771926288175 l 6.888326793407914 -3.270414403490327" fill="#ff4b07" stroke="none" /><path d="M 80.73074385275274 108.34839909993369 l -6.166185381702035 2.671497856339383 a27.720025517655554,27.720025517655554 0 0,0 -0.1859208759755242,-0.4394620306672217 l 6.211257238869866 -2.5649613000060025" fill="#ff3e05" stroke="none" /><path d="M 79.67330655649465 105.27499134158121 l -5.010056677097935 1.300162550587727 a26.176011066997866,26.176011066997866 0 0,0 -0.10942655278903549,-0.43710468365818683 l 5.031694544182029 -1.2137300275321483" fill="#ff2803" stroke="none" /><path d="M 79.29508885075956 103.50808413554451 l -7.807106078091939 1.3227772280525907 a28.918373880389495,28.918373880389495 0 0,0 -0.07893097416896183,-0.4915032514956318 l 7.8287188066221916 -1.1881947468637453" fill="#ff5007" stroke="none" /><path d="M 79.18660465613746 102.79330883721812 l -9.067811630407782 1.2169661865821626 a30.149110036710837,30.149110036710837 0 0,0 -0.06460306900965196,-0.5149500235334986 l 9.087416208664283 -1.0606984087612552" fill="#ff6108" stroke="none" /><path d="M 79.0095281055655 100.63252640178507 l -6.126608913827301 0.18461909341042732 a27.12938993641617,27.12938993641617 0 0,0 -0.010048128300925455,-0.46689703878198063 l 6.128879104813234 -0.07913223883831784" fill="#ff3605" stroke="none" /><line stroke="#e1ed5e" stroke-width="0.3" x1="15.007084014347285" x2="10.007500721073583" y1="101.09737516637583" y2="101.16192664675087" /><path d="M 14.007167355692545 101.11028546245083 a86.0,86.0 0 0,1 10.666146001902534,-42.60595125391555" fill="none" id="id22" stroke="none" /><text fill="#e1ed5e" style="font-size:6.75px; font-family:Arial;" text-anchor="middle"><textPath startOffset="22.20632615414155" xlink:href="#id22">October</textPath></text><path d="M 79.00019446554 99.90962569577889 l -7.336797826939466 -0.0315744828080729 a28.336865768252018,28.336865768252018 0 0,0 0.006297521468889619,-0.4877499778776425 l 7.335167298352861 0.1578607187461874" fill="#ff4706" stroke="none" /><path d="M 79.08570108090925 98.10471618934814 l -5.964357163254193 -0.5404986137088517 a26.988797468798122,26.988797468798122 0 0,0 0.0459103533316981,-0.4623109926851914 l 5.9541696842402665 0.6430851370984734" fill="#ff3404" stroke="none" /><path d="M 79.16333360222342 97.38593545837743 l -7.347724744467957 -0.9218090048303484 a28.405321786516303,28.405321786516303 0 0,0 0.06504007235930392,-0.4846240849457101 l 7.330768673050819 1.048151431840718" fill="#ff4806" stroke="none" /><path d="M 79.21141760316559 97.0276538004421 l -4.591531108368239 -0.6564959447253322 a25.638226476203386,25.638226476203386 0 0,0 0.06622488995249903,-0.4363392809184598 l 4.579550324976437 0.7354343380358842" fill="#ff2003" stroke="none" /><path d="M 79.3925641242962 95.95851677861259 l -5.777164694052622 -1.1330043348931684 a26.887217570728538,26.887217570728538 0 0,0 0.0929794605177636,-0.4534008704679085 l 5.7568059376198635 1.2322808615244794" fill="#ff3204" stroke="none" /><path d="M 79.81627453868168 94.20196356495316 l -14.291973091992405 -4.105554292981781 a35.86997212219499,35.86997212219499 0 0,0 0.1755819811871007,-0.5919751540844599 l 14.219185213693597 4.35095883381278" fill="#ffaf10" stroke="none" /><path d="M 80.2630227832202 92.82701384747504 l -6.973219391814736 -2.5342688288397612 a28.419454641899897,28.419454641899897 0 0,0 0.1710518411439175,-0.4583338926407418 l 6.928562962169191 2.6539258585098446" fill="#ff4806" stroke="none" /><path d="M 80.38941819471856 92.48833698450439 l -10.328505234033273 -3.956244212547839 a32.06028429285482,32.06028429285482 0 0,0 0.20183697029248154,-0.5136530739836062 l 10.2588747138591 4.133446291427209" fill="#ff7c0b" stroke="none" /><line stroke="#e1ed5e" stroke-width="0.3" x1="26.266209847984243" x2="21.928928074336255" y1="57.711370442889674" y2="55.22380399835377" /><path d="M 25.398753493254645 57.213857153982495 a86.0,86.0 0 0,1 29.58750427330803,-30.492523968695096" fill="none" id="id23" stroke="none" /><text fill="#e1ed5e" style="font-size:6.75px; font-family:Arial;" text-anchor="middle"><textPath startOffset="21.46611528233685" xlink:href="#id23">November</textPath></text><path d="M 82.95767976084542 87.72973835380427 l -7.04541535235058 -5.072612682212712 a29.68154807110359,29.68154807110359 0 0,0 0.3020979305366041,-0.41206123774744874 l 6.957054809300343 5.193136363631662" fill="#ff5a08" stroke="none" /><path d="M 83.17141714833178 87.43820079747576 l -16.654059728756533 -12.431525343724728 a41.78221662433197,41.78221662433197 0 0,0 0.4351798117385533,-0.5726456210437907 l 16.43760397679387 12.716355740649544" fill="#fffb17" stroke="none" /><path d="M 83.39014120810768 87.1503855733568 l -8.402487412564001 -6.500279432169075 a31.62334351391203,31.62334351391203 0 0,0 0.33678246356483516,-0.4276795279326939 l 8.289350868405196 6.643951354054816" fill="#ff760a" stroke="none" /><path d="M 83.84228863543731 86.58626213691792 l -4.021691470037541 -3.3387101630984506 a26.22694823327624,26.22694823327624 0 0,0 0.29135565064028407,-0.344873192055224 l 3.963625205910133 3.4074423047827906" fill="#ff2904" stroke="none" /><path d="M 84.07557802195018 86.31012108654704 l -14.000455268936815 -12.035886616741848 a39.46280895174313,39.46280895174313 0 0,0 0.44726045793276076,-0.5112960202049783 l 13.79120294742621 12.27509819314977" fill="#ffde14" stroke="none" /><path d="M 84.31358615837235 86.03803664274999 l -16.941762418958124 -15.079308023419127 a43.680582980284576,43.680582980284576 0 0,0 0.5047319638935526,-0.5573376409527677 l 16.679686814448527 15.368698451641452" fill="#ebff1a" stroke="none" /><path d="M 84.80347519578584 85.50635884689758 l -7.726084103407426 -7.3687301508844465 a31.676636156087667,31.676636156087667 0 0,0 0.37972101553148335,-0.39133588492479254 l 7.5980988241728245 7.500630231359362" fill="#ff760a" stroke="none" /><path d="M 85.31137513191541 84.99185889309783 l -7.470951234083418 -7.633464080598453 a31.68105267339504,31.68105267339504 0 0,0 0.3930211943531765,-0.37808607757746754 l 7.338446796117814 7.760933244938235" fill="#ff760a" stroke="none" /><path d="M 85.57189188830299 84.74124197986013 l -14.246618446195008 -15.066819696167496 a41.735843192604555,41.735843192604555 0 0,0 0.5262534400274195,-0.4890952193336964 l 13.985157122372732 15.30981950157584" fill="#fffb17" stroke="none" /><path d="M 86.10567301691215 84.25364557470407 l -6.660682020737857 -7.548509542088381 a31.067009550426576,31.067009550426576 0 0,0 0.40402823646292435,-0.35036930530029164 l 6.52975998562816 7.662043840808353" fill="#ff6e0a" stroke="none" /><path d="M 86.65592168130627 83.78471172551755 l -4.7062354877809405 -5.718863701141545 a28.406352307221354,28.406352307221354 0 0,0 0.3802347187018754,-0.3074566989713478 l 4.607097370514564 5.799026497377027" fill="#ff4806" stroke="none" /><path d="M 86.93701828274178 83.55741782278169 l -1.7414093620963438 -2.1919395709340583 a23.79948310390032,23.79948310390032 0 0,0 0.32295608993547126,-0.25207235083924895 l 1.703420717001447 2.2215903109965294" fill="#ff0500" stroke="none" /><path d="M 87.51073957382395 83.11751280151077 l -1.4710827034736949 -1.988551288214087 a23.473544126616176,23.473544126616176 0 0,0 0.32690228198119425,-0.2375084103613389 l 1.436635105138719 2.0135789333920937" fill="#ff0000" stroke="none" /><path d="M 88.09926311788651 82.69761687909137 l -35.70221064634046 -51.907149362725875 a84.0,84.0 0 0,0 1.198381222373842,-0.8091523508053382 l 34.80342472956008 52.51401362582988" fill="#4dd2ff" stroke="none" /><line stroke="#e1ed5e" stroke-width="0.3" x1="56.762969772571076" x2="54.21961505331055" y1="26.818313649435495" y2="22.513508569990535" /><path d="M 56.25429882871897 25.957352633546506 a86.0,86.0 0 0,1 42.265352541879196,-11.944610805530505" fill="none" id="id24" stroke="none" /><text fill="#e1ed5e" style="font-size:6.75px; font-family:Arial;" text-anchor="middle"><textPath startOffset="22.20632615414155" xlink:href="#id24">December</textPath></text><path d="M 90.26544431104013 81.39251694778311 l -4.5250298661039405 -8.649538739584832 a30.76168098724351,30.76168098724351 0 0,0 0.4712975353231297,-0.24141690288809164 l 4.375471843192047 8.726148167785428" fill="#ff6a09" stroke="none" /><path d="M 91.56875222667455 80.76684994638697 l -3.443631156095756 -7.85552465484755 a29.577171045406004,29.577171045406004 0 0,0 0.4680463970001249,-0.2003930408507514 l 3.307901001305323 7.913637223661088" fill="#ff5908" stroke="none" /><path d="M 92.57280143429618 80.3572730644239 l -3.284452546202816 -8.686398233087495 a30.286610942213727,30.286610942213727 0 0,0 0.4892263678118471,-0.18018620001626012 l 3.134443852618399 8.741647700910079" fill="#ff6309" stroke="none" /><path d="M 93.94186890950719 79.89281104454417 l -4.336144995006172 -14.391845513159856 a36.03088056942695,36.03088056942695 0 0,0 0.5953841915062026,-0.1738089720101778 l 4.087770585776548 14.464352814088732" fill="#ffb110" stroke="none" /><path d="M 94.98787191387505 79.60689891045804 l -2.538454267421971 -10.328338302052106 a31.635709762372674,31.635709762372674 0 0,0 0.5299377781205157,-0.12541915047821334 l 2.3602928023389214 10.37050336467119" fill="#ff760a" stroke="none" /></svg>