<?xml version="1.0" encoding="utf-8" ?>
<svg baseProfile="full" height="200mm" version="1.1" viewBox="0,0,200,200" width="200mm" xmlns="http://www.w3.org/2000/svg" xmlns:ev="http://www.w3.org/2001/xml-events" xmlns:xlink="http://www.w3.org/1999/xlink"><defs /><rect fill="#1a1a1a" height="200" width="200" x="0" y="0" /><rect fill="#1a1a1a" height="200" width="180" x="10" y="0" /><text alignment-baseline="middle" fill="#e1ed5e" style="dominant-baseline: central; font-size:9.0px; font-family:Arial;" text-anchor="middle" x="100.0" y="100.0">2025</text><line stroke="#e1ed5e" stroke-width="0.3" x1="100.0" x2="100.0" y1="15.0" y2="10.0" /><path d="M 100.0 14.0 a86.0,86.0 0 0,1 42.46469731375804,11.215312516191453" fill="none" id="id49" stroke="none" /><text fill="#e1ed5e" style="font-size:6.75px; font-family:Arial;" text-anchor="middle"><textPath startOffset="22.20632615414155" xlink:href="#id49">January</textPath></text><path d="M 100.0 79.0 l 0.0 -14.843940348666244 a35.843940348666244,35.843940348666244 0 0,0 0.6169945112500853,0.005310666550448552 l -0.25551403197755695 14.841741058724354" fill="#ff990e" stroke="none" /><path d="M 100.72285384407766 79.0124445844662 l 0.567432423146309 -16.47500324294371 a37.48477210670028,37.48477210670028 0 0,0 0.6446651948634036,0.027760639380078028 l -0.8509384503990441 16.46279487703944" fill="#ffb010" stroke="none" /><path d="M 101.80526077348638 79.07773832637324 l 0.6328460892561985 -7.334437037026477 a28.36168872085696,28.36168872085696 0 0,0 0.4860313868535454,0.04615453660310945 l -0.759002603199988 7.32245695590819" fill="#ff2c04" stroke="none" /><path d="M 102.16513564639614 79.11191278185805 l 1.5953152378823001 -15.390760336324709 a36.47321991178324,36.47321991178324 0 0,0 0.6239235725011724,0.07010508312362987 l -1.8600055138931977 15.361019299730478" fill="#ffa20e" stroke="none" /><path d="M 105.01212808612495 79.60689891045804 l 1.1376685048811241 -4.628889850332216 a25.76664566267591,25.76664566267591 0 0,0 0.42980128304942494,0.10956591697406644 l -1.217178676615574 4.608620937189282" fill="#ff0500" stroke="none" /><path d="M 105.36241919743992 79.69619591428918 l 2.7977839290990927 -10.593289088196956 a31.956521739130437,31.956521739130437 0 0,0 0.5306336468334836,0.1450422204817271 l -2.9797154651562874 10.543560326888935" fill="#ff6209" stroke="none" /><line stroke="#e1ed5e" stroke-width="0.3" x1="143.23703022742887" x2="145.7803849466894" y1="26.81831364943548" y2="22.513508569990506" /><path d="M 143.74570117128098 25.957352633546492 a86.0,86.0 0 0,1 28.547481713284135,27.462654790039103" fill="none" id="id50" stroke="none" /><text fill="#e1ed5e" style="font-size:6.75px; font-family:Arial;" text-anchor="middle"><textPath startOffset="19.985693538727396" xlink:href="#id50">February</textPath></text><path d="M 117.2510076193507 88.02491185347247 l 3.8806614493435396 -2.6938289025269864 a25.72400756143667,25.72400756143667 0 0,0 0.24937040878385777,0.3659203041980654 l -3.9264563237961307 2.6266305750585146" fill="#ff0400" stroke="none" /><line stroke="#e1ed5e" stroke-width="0.3" x1="172.23445277983987" x2="176.4835382374775" y1="55.19839476539836" y2="52.563006222186495" /><path d="M 173.08426987136738 54.67131705675599 a86.0,86.0 0 0,1 12.851231095245387,41.99856678651699" fill="none" id="id51" stroke="none" /><text fill="#e1ed5e" style="font-size:6.75px; font-family:Arial;" text-anchor="middle"><textPath startOffset="22.20632615414155" xlink:href="#id51">March</textPath></text><path d="M 118.21658344932153 89.55222093294921 l 6.379566646608297 -3.6588805498416352 a28.354337324091578,28.354337324091578 0 0,0 0.2391787711037898,0.42547234550917173 l -6.44160305900452 3.5485246943976696" fill="#ff2c04" stroke="none" /><path d="M 118.3937258080291 89.86733742301442 l 9.646950922631522 -5.314273987551569 a32.013862633900445,32.013862633900445 0 0,0 0.2617390917606348,0.4849627857536263 l -9.736998113610621 5.147430218465484" fill="#ff6209" stroke="none" /><line stroke="#e1ed5e" stroke-width="0.3" x1="184.98032266829074" x2="189.97916517819016" y1="98.17113171792111" y2="98.06355123074" /><path d="M 185.9800911702706 98.14961562048488 a86.0,86.0 0 0,1 -9.607161424134198,41.387399972396054" fill="none" id="id52" stroke="none" /><text fill="#e1ed5e" style="font-size:6.75px; font-family:Arial;" text-anchor="middle"><textPath startOffset="21.466115282336823" xlink:href="#id52">April</textPath></text><path d="M 120.81339534386255 102.79330883721812 l 5.2807997890235585 0.7087216897846896 a26.328145347616047,26.328145347616047 0 0,0 -0.06414783531826797,0.4486498108096344 l -5.26781790268869 -0.7995169725747334" fill="#ff0d01" stroke="none" /><path d="M 120.64145759157962 103.86396538481128 l 7.235999311141859 1.3545385900546159 a28.36168872085696,28.36168872085696 0 0,0 -0.09395831358254142,0.4790914167093287 l -7.211611064583653 -1.4788937338318895" fill="#ff2c04" stroke="none" /><path d="M 120.5718875245553 104.21870165774334 l 10.486866419259757 2.1505542792150973 a31.705103969754255,31.705103969754255 0 0,0 -0.11423796043871101,0.5336817193943661 l -10.448294420096602 -2.3307498180256325" fill="#ff5e08" stroke="none" /><path d="M 120.41448212921028 104.9243191809786 l 7.282208671030344 1.7565921884118165 a28.491073303927745,28.491073303927745 0 0,0 -0.11910447046070928,0.47576315397026264 l -7.250892886274573 -1.881683181779475" fill="#ff2e04" stroke="none" /><path d="M 120.23288151984713 105.62410040840565 l 8.507924554239434 2.3649336310918145 a29.83049779458097,29.83049779458097 0 0,0 -0.14177634882153115,0.4935420695573434 l -8.465955568531804 -2.51103317615374" fill="#ff4206" stroke="none" /><path d="M 120.13307415673323 105.97154293290107 l 9.101677506828146 2.699590612458324 a30.493593782818735,30.493593782818735 0 0,0 -0.15359075391884114,0.50194347050832 l -9.053859980403173 -2.8558610555187016" fill="#ff4c07" stroke="none" /><path d="M 119.9155931802556 106.66101706037122 l 11.33054051549094 3.789639755833969 a32.94749002310439,32.94749002310439 0 0,0 -0.18452032972016674,0.5363024502185724 l -11.263629354827541 -3.9841149091418417" fill="#ff700a" stroke="none" /><path d="M 119.79798401119884 107.00284435728193 l 7.920302502274743 2.8015299767212007 a29.401176223482462,29.401176223482462 0 0,0 -0.17287295054809781,0.4756721139304345 l -7.870905290721418 -2.9374498876577664" fill="#ff3c05" stroke="none" /><path d="M 119.54520255179757 107.68017299344265 l 13.760873546235132 5.407254751947019 a35.785129174543165,35.785129174543165 0 0,0 -0.23021320952106178,0.5713703063833762 l -13.665757722456677 -5.643324426173209" fill="#ff980e" stroke="none" /><path d="M 119.26925614724726 108.34839909993367 l 6.749568613364004 2.9242484559944093 a28.355807603444653,28.355807603444653 0 0,0 -0.1978950668537892,0.4462011329834086 l -6.698232461778942 -3.0399979254705056" fill="#ff2c04" stroke="none" /><path d="M 118.97047184881838 109.00673069616215 l 8.035521577074226 3.815075314134357 a29.89519008611636,29.89519008611636 0 0,0 -0.22470754276083554,0.46296409426297375 l -7.968660777698675 -3.952828364362606" fill="#ff4306" stroke="none" /><path d="M 118.81262510543309 109.33194174019688 l 13.955034866069001 6.92234983808625 a36.57760974585171,36.57760974585171 0 0,0 -0.28464579241456267,0.5616331527872556 l -13.83381040386817 -7.161537202576199" fill="#ffa30f" stroke="none" /><line stroke="#e1ed5e" stroke-width="0.3" x1="174.80103733775053" x2="179.2010983576182" y1="140.37084112569926" y2="142.7455964860345" /><path d="M 175.68104954172406 140.8457921977663 a86.0,86.0 0 0,1 -30.038265399797805,32.042727171017184" fill="none" id="id53" stroke="none" /><text fill="#e1ed5e" style="font-size:6.75px; font-family:Arial;" text-anchor="middle"><textPath startOffset="22.206326154141568" xlink:href="#id53">May</textPath></text><path d="M 118.48025628344425 109.97397251340804 l 13.02662047621065 7.030592681158877 a35.80277252678009,35.80277252678009 0 0,0 -0.2973737207481825,0.5398196811940803 l -12.903670346010959 -7.253782880750762" fill="#ff980e" stroke="none" /><path d="M 118.30583269289576 110.29060199501025 l 9.102291100255249 5.1168420757937945 a31.441923965553457,31.441923965553457 0 0,0 -0.269274631539688,0.46950301731568517 l -9.01286447256318 -5.272764938967795" fill="#ff5a08" stroke="none" /><path d="M 118.12598468904814 110.60418214915192 l 9.02682413310925 5.280931710909309 a31.4580970384373,31.4580970384373 0 0,0 -0.27745910407902613,0.4650374178542964 l -8.934584153331995 -5.4355312226497094" fill="#ff5a08" stroke="none" /><path d="M 117.94076556474637 110.91462005526583 l 13.137468811992035 7.99243934453723 a36.37765175383323,36.37765175383323 0 0,0 -0.330058523092856,0.5321594321473362 l -12.997945649231216 -8.217395108049839" fill="#ffa00e" stroke="none" /><path d="M 117.75023020441432 111.22182372390056 l 6.384018242671457 4.036022437140456 a28.552825036756985,28.552825036756985 0 0,0 -0.26621448947823867,0.4131707995186854 l -6.313598889816169 -4.145314836580595" fill="#ff2f04" stroke="none" /><path d="M 117.35343817320211 111.8261652097733 l 12.632058859258018 8.608600412099204 a36.28649443394245,36.28649443394245 0 0,0 -0.356193573565671,0.5131234088933948 l -12.482004378530211 -8.824765083179617" fill="#ff9f0e" stroke="none" /><path d="M 116.71984013943494 112.70617746262583 l 3.54812262568279 2.696381984822438 a25.456416719176644,25.456416719176644 0 0,0 -0.26813265887323134,0.34659760623980557 l -3.50118314959149 -2.7570575851754966" fill="#ff0000" stroke="none" /><path d="M 116.27256486870786 113.27417163493432 l 11.955772297992034 9.752794030455842 a36.42911153119093,36.42911153119093 0 0,0 -0.40055369394648715,0.4824927278927473 l -11.786122604152004 -9.957148015462359" fill="#ffa10e" stroke="none" /><path d="M 116.0416608686014 113.55231037782055 l 15.194821108402179 12.836883504973343 a40.89140936777988,40.89140936777988 0 0,0 -0.45887461484404546,0.5337748454890138 l -14.971603983987356 -13.096535449623884" fill="#ffde14" stroke="none" /><path d="M 115.80600337817218 113.82643327865902 l 5.595123789122631 4.894381198410701 a28.43373240915774,28.43373240915774 0 0,0 -0.32541885504801416,0.36561153338804053 l -5.510046084426278 -4.989966901539608" fill="#ff2d04" stroke="none" /><path d="M 115.32070863581623 114.36230785411682 l 12.020154097385477 11.268222489199266 a37.47595043058181,37.47595043058181 0 0,0 -0.4452382911084208,0.46683056818794905 l -11.824409254898091 -11.473460173969723" fill="#ffb010" stroke="none" /><path d="M 114.81725581225074 114.88116024355365 l 11.268293260006129 11.316891588985492 a36.970174333123296,36.970174333123296 0 0,0 -0.4548212523636949,0.44513832262213315 l -11.07182205526664 -11.509180014530198" fill="#ffa90f" stroke="none" /><path d="M 114.55890576462653 115.13401014063108 l 12.885187129499682 13.394176446665089 a39.585801302247425,39.585801302247425 0 0,0 -0.4951319747155286,0.46817818667316463 l -12.652719320393347 -13.613989270084174" fill="#ffcc13" stroke="none" /><path d="M 114.0293411484842 115.62618273729858 l 10.801698845472295 12.031165130719907 a37.1686620457887,37.1686620457887 0 0,0 -0.4797547657019858,0.4233278006018721 l -10.59300172686372 -12.215316073094067" fill="#ffab0f" stroke="none" /><path d="M 113.75828350139079 115.86535959552629 l 9.680791793669218 11.163401521741873 a35.7763074984247,35.7763074984247 0 0,0 -0.46872844349581383,0.3994605483935472 l -9.487197873596356 -11.328386460358367" fill="#ff980e" stroke="none" /><path d="M 113.20401910651253 116.32954008644616 l 12.482942658771874 15.437777762884723 a40.853182104599874,40.853182104599874 0 0,0 -0.5506279568266949,0.43745215049034303 l -12.215357209227829 -15.650363827380193" fill="#ffdd14" stroke="none" /><path d="M 112.92097659922987 116.55440617244103 l 12.115846782432667 15.522870676153664 a40.691451375761396,40.691451375761396 0 0,0 -0.5558670664576116,0.4262151631719994 l -11.846850987481563 -15.729125181153035" fill="#ffdb14" stroke="none" /><path d="M 112.63410532772338 116.77436683061366 l 4.489118850255278 5.9602262595648225 a28.461667716866206,28.461667716866206 0 0,0 -0.3938756383559079,0.2913797810190822 l -4.385858241480806 -6.036615989323673" fill="#ff2e04" stroke="none" /><path d="M 112.34349029814194 116.9893568818739 l 12.702136834144804 17.482991489867853 a42.61016593152699,42.61016593152699 0 0,0 -0.5970955899748985,0.42601184957590715 l -12.39931391632102 -17.69904760128798" fill="#fff417" stroke="none" /><path d="M 112.04921762599082 117.19931262002967 l 8.829175360471885 12.602954973131032 a36.387943709304764,36.387943709304764 0 0,0 -0.5160904055498328,0.35497168690074105 l -8.610928070299169 -12.753067449396868" fill="#ffa10e" stroke="none" /><path d="M 111.7513745106137 117.40417183066458 l 8.387962132304608 12.422847567991695 a35.98949800462088,35.98949800462088 0 0,0 -0.516406968020945,0.3422463795929922 l -8.172880465543699 -12.565391968676007" fill="#ff9b0e" stroke="none" /><path d="M 111.1453310114006 117.79835938074945 l 8.98228000225669 14.344109419016098 a37.92438563327032,37.92438563327032 0 0,0 -0.5562618859445515,0.3417014833458527 l -8.734038916379829 -14.49659936919033" fill="#ffb610" stroke="none" /><line stroke="#e1ed5e" stroke-width="0.3" x1="143.8653032363475" x2="146.44561519142675" y1="172.8068346515853" y2="177.08958963109032" /><path d="M 144.38136562736335 173.6633856474863 a86.0,86.0 0 0,1 -40.68145358897372,12.25698825130547" fill="none" id="id54" stroke="none" /><text fill="#e1ed5e" style="font-size:6.75px; font-family:Arial;" text-anchor="middle"><textPath startOffset="21.466115282336833" xlink:href="#id54">June</textPath></text><path d="M 110.5260780823613 118.17145234162733 l 12.761294411129885 22.030166543976673 a46.4593572778828,46.4593572778828 0 0,0 -0.6954550594452867,0.3948975330151604 l -12.3801905847634 -22.246567242786462" fill="#d9ff1c" stroke="none" /><path d="M 110.21172684928248 118.3499491758327 l 7.565672024022075 13.595124426147278 a36.55849611426171,36.55849611426171 0 0,0 -0.5525158428121578,0.301275690960814 l -7.330533369341269 -13.723340768867862" fill="#ffa30f" stroke="none" /><path d="M 109.89434966115114 118.52300852407294 l 3.525333993250588 6.599705270531899 a28.482251627809283,28.482251627809283 0 0,0 -0.43443449109127824,0.22727559309689466 l -3.411208599632814 -6.659410282573511" fill="#ff2e04" stroke="none" /><path d="M 109.57404056367764 118.69057910512821 l 6.795604791329825 13.26647699837498 a35.90569208149549,35.90569208149549 0 0,0 -0.5525135280038722,0.2770417529338328 l -6.566237355643192 -13.381486592218115" fill="#ff9a0e" stroke="none" /><path d="M 108.59647513512805 119.15986991738527 l 8.282902108074786 18.460976671781566 a41.23398445704684,41.23398445704684 0 0,0 -0.6500818931053206,0.2849767977915719 l -7.963899540311712 -18.600818022867593" fill="#ffe215" stroke="none" /><path d="M 108.2653958097858 119.30500536409082 l 5.88756822577615 13.751251457975215 a35.95862213820626,35.95862213820626 0 0,0 -0.5711060362018199,0.23872236945043168 l -5.649990730076868 -13.850558870445619" fill="#ff9b0e" stroke="none" /><path d="M 107.59598834532513 119.57807347666477 l 8.022508169798332 20.677395392808805 a43.17916404116782,43.17916404116782 0 0,0 -0.6952457716664742,0.2628824610283879 l -7.665392177371583 -20.812426103943825" fill="#fffb17" stroke="none" /><path d="M 107.2578585660854 119.70592522655815 l 6.816787276064951 18.50836567347739 a40.72379752152909,40.72379752152909 0 0,0 -0.6598815101643637,0.23661003208535913 l -6.497186205270853 -18.62296324660271" fill="#ffdb14" stroke="none" /><path d="M 106.91757812671514 119.82793768551818 l 4.893594440406762 14.026568814288021 a35.85570258349087,35.85570258349087 0 0,0 -0.58449963052999,0.19829400955789916 l -4.651425076939545 -14.108725810744042" fill="#ff990e" stroke="none" /><path d="M 105.88484417918355 120.15858648285463 l 5.358697990230431 18.356267996639872 a40.12245326612056,40.12245326612056 0 0,0 -0.6646357595458526,0.1878327045148186 l -5.041931062579973 -18.44578949449321" fill="#ffd313" stroke="none" /><path d="M 105.53697534728816 120.25689768951611 l 4.109604120745065 15.034892698071856 a36.586431421970175,36.586431421970175 0 0,0 -0.6089194021619196,0.16082114849328688 l -3.8501942757716474 -15.103405195868726" fill="#ffa30f" stroke="none" /><path d="M 104.83641907484287 120.43548508189849 l 4.969155634202832 20.99634135523773 a42.57634950640622,42.57634950640622 0 0,0 -0.7146335863531121,0.1626482776067643 l -4.607001898456859 -21.078766366422176" fill="#fff417" stroke="none" /><path d="M 104.48393922423573 120.51570834832081 l 3.1415514819664585 14.373779559031462 a35.713085486242385,35.713085486242385 0 0,0 -0.6016949801778623,0.12609103326698276 l -2.893665040359218 -14.425726573024985" fill="#ff970d" stroke="none" /><path d="M 104.13013068566511 120.58985236759428 l 3.4737282032412593 17.3175030800189 a38.662465868515014,38.662465868515014 0 0,0 -0.6536394039923308,0.12527154745002322 l -3.175121184677224 -17.374731825817392" fill="#ffc011" stroke="none" /><path d="M 103.41894727170886 120.7198165907248 l 3.9453258371704427 23.909824059954218 a45.23314429741651,45.23314429741651 0 0,0 -0.7693169961551474,0.12015149299630967 l -3.533172977406778 -23.974193860297635" fill="#e8ff1a" stroke="none" /><path d="M 103.06178313531738 120.77559828337769 l 3.404553648050871 23.101452911615524 a44.35097668557026,44.35097668557026 0 0,0 -0.7562293668591514,0.10480649946899415 l -3.006395690004889 -23.15663397657712" fill="#f4ff19" stroke="none" /><path d="M 102.70371172650421 120.8252237178851 l 1.9120767450408878 14.727689195152088 a35.85129174543163,35.85129174543163 0 0,0 -0.6126688312199917,0.07418566320528201 l -1.658280490769516 -14.75842038708272" fill="#ff990e" stroke="none" /><path d="M 101.62511606390274 120.93702456842531 l 1.667442128158968 21.482328295895325 a42.54694391934467,42.54694391934467 0 0,0 -0.73066725677934,0.05039109195461317 l -1.2974121106006977 -21.507847732366226" fill="#fff316" stroke="none" /><path d="M 101.26447882468166 120.96189622390904 l 0.64025140797436 10.613766960114129 a31.633060281453474,31.633060281453474 0 0,0 -0.5438053425809694,0.028108524645468477 l -0.457457996979911 -10.623215291521799" fill="#ff5d08" stroke="none" /><path d="M 100.90346689309514 120.98055641714683 l 0.8537486981800136 19.825986834854774 a40.84436042848141,40.84436042848141 0 0,0 -0.7026779129369292,0.02420164809375584 l -0.5123504335684322 -19.837745281374623" fill="#ffdd14" stroke="none" /><line stroke="#e1ed5e" stroke-width="0.3" x1="102.19456741930631" x2="102.32365962044197" y1="184.97166512339345" y2="189.96999836594603" /><path d="M 102.22038585953345 185.97133177190398 a86.0,86.0 0 0,1 -42.740103519485714,-10.115201625700543" fill="none" id="id55" stroke="none" /><text fill="#e1ed5e" style="font-size:6.75px; font-family:Arial;" text-anchor="middle"><textPath startOffset="22.20632615414155" xlink:href="#id55">July</textPath></text><path d="M 100.18074693466247 120.99922214144158 l 0.17121795322993208 19.892142797290806 a40.89287964713296,40.89287964713296 0 0,0 -0.7039297757847613,0.0 l 0.1712179532299184 -19.892142797290806" fill="#ffde14" stroke="none" /><path d="M 99.81925306533755 120.99922214144158 l -0.19312322130390125 22.437102086434212 a43.437933207309385,43.437933207309385 0 0,0 -0.7476295261367372,-0.01287112030137275 l 0.5793124373333063 -22.43045348885368" fill="#ffff18" stroke="none" /><path d="M 99.09653310690486 120.98055641714683 l -0.6362157817510949 14.77437768281613 a35.788069733249316,35.788069733249316 0 0,0 -0.6152342943882424,-0.03180058556334409 l 0.8904381445528262 -14.761237290490584" fill="#ff980e" stroke="none" /><path d="M 98.37488393609728 120.93702456842531 l -1.6809819175312442 21.65676685387633 a42.72190716236085,42.72190716236085 0 0,0 -0.7326922676877423,-0.06321977186437563 l 2.0535185029605283 -21.624622829733294" fill="#fff617" stroke="none" /><path d="M 98.01472825383883 120.90594882070398 l -1.7309101067664452 18.227387850187405 a39.30938878386894,39.30938878386894 0 0,0 -0.6730654692398557,-0.0697659878853729 l 2.0444081726118943 -18.19489249384627" fill="#ffc812" stroke="none" /><path d="M 97.2962882734958 120.8252237178851 l -2.4439979066649618 18.824789149451405 a39.98277672757824,39.98277672757824 0 0,0 -0.6817471043383965,-0.09448393656753498 l 2.767673602190189 -18.779930647391264" fill="#ffd113" stroke="none" /><path d="M 96.93821686468263 120.77559828337769 l -1.4160988162085344 9.60887784499006 a30.71266540642722,30.71266540642722 0 0,0 -0.5223553626746261,-0.08158116486916667 l 1.5812900424916776 -9.583078372773787" fill="#ff4f07" stroke="none" /><path d="M 96.58105272829116 120.7198165907248 l -3.6410842925130047 22.066031657320934 a43.36441923965553,43.36441923965553 0 0,0 -0.735442024462883,-0.12786602290145233 l 4.020375288447938 -22.000087055898476" fill="#fffe18" stroke="none" /><path d="M 96.22490169976321 120.6578951692458 l -2.666858632597443 14.593444112419675 a35.835118672547786,35.835118672547786 0 0,0 -0.6058394125914778,-0.11611056533310833 l 2.9176656597606154 -14.545376348738099" fill="#ff990e" stroke="none" /><path d="M 95.51606077576429 120.51570834832081 l -3.1459465774743465 14.393888773963656 a35.733669397185466,35.733669397185466 0 0,0 -0.5997808786078461,-0.13650817525225103 l 3.393247605475055 -14.337603865133719" fill="#ff970e" stroke="none" /><path d="M 94.81253420990036 120.34920634021253 l -4.669263998507246 18.316422778900815 a39.90220541902961,39.90220541902961 0 0,0 -0.6641048641357159,-0.17539613057342554 l 4.983859305454451 -18.233335299023807" fill="#ffd013" stroke="none" /><path d="M 94.46302465271185 120.25689768951611 l -5.007429150803126 18.319565039241027 a39.9915984036967,39.9915984036967 0 0,0 -0.6624681248725408,-0.18722010930422311 l 5.3220284437802805 -18.230656136598284" fill="#ffd213" stroke="none" /><path d="M 94.11515582081647 120.15858648285463 l -5.971779845486677 20.45638538699819 a42.31022894349927,42.31022894349927 0 0,0 -0.6973632892622731,-0.2101098384964318 l 6.323018109189196 -20.35056017939603" fill="#fff016" stroke="none" /><path d="M 93.42475214034765 119.94407469862007 l -6.9670098094223 21.132369004334954 a43.251207729468604,43.251207729468604 0 0,0 -0.7050570234674529,-0.2391936227975856 l 7.329736565826979 -21.009312394639245" fill="#fffc17" stroke="none" /><path d="M 93.08242187328487 119.8279376855182 l -6.286990244548699 18.020476027144976 a40.08569628229364,40.08569628229364 0 0,0 -0.6495418258762958,-0.2329025891680033 l 6.596251631054721 -17.909585896937013" fill="#ffd313" stroke="none" /><path d="M 92.40401165467489 119.57807347666478 l -6.919513012744176 17.834510537344077 a40.129804662885945,40.129804662885945 0 0,0 -0.6418455051819313,-0.2554035726934691 l 7.2254795939679655 -17.71276012024454" fill="#ffd313" stroke="none" /><path d="M 92.06813273071674 119.44442032107085 l -5.812704243337383 14.24943971859193 a36.38941398865784,36.38941398865784 0 0,0 -0.5779480065418895,-0.24158231360748186 l 6.057123709376735 -14.147272361964475" fill="#ffa10e" stroke="none" /><path d="M 91.7346041902142 119.30500536409082 l -5.7984503265458 13.543103952124204 a35.73219911783239,35.73219911783239 0 0,0 -0.563342494139387,-0.24695279432086592 l 6.030713495342931 -13.441286604508887" fill="#ff970e" stroke="none" /><path d="M 91.40352486487194 119.15986991738527 l -9.195333411362206 20.494608457453772 a43.4629279563117,43.4629279563117 0 0,0 -0.6799506110144448,-0.31213197604525855 l 9.54675201814407 -20.33328941107444" fill="#ffff18" stroke="none" /><path d="M 91.07499286063937 119.00905698771935 l -9.502386303175603 20.238796444181762 a43.358538122243225,43.358538122243225 0 0,0 -0.6728570622889352,-0.3230122793550308 l 9.84935603346478 -20.07222988832717" fill="#fffe18" stroke="none" /><path d="M 90.10565033884886 118.52300852407294 l -7.6997617085832735 14.414565549609373 a37.3421550094518,37.3421550094518 0 0,0 -0.5643594359840558,-0.30773376227721544 l 7.94674395643597 -14.279891135572392" fill="#ffae10" stroke="none" /><line stroke="#e1ed5e" stroke-width="0.3" x1="58.666819895761336" x2="56.23545636021788" y1="174.27360380694188" y2="178.64263932499728" /><path d="M 58.180547188652646 175.14741091055294 a86.0,86.0 0 0,1 -31.652253787137756,-30.449443065178592" fill="none" id="id56" stroke="none" /><text fill="#e1ed5e" style="font-size:6.75px; font-family:Arial;" text-anchor="middle"><textPath startOffset="22.20632615414155" xlink:href="#id56">August</textPath></text><path d="M 89.7882731507175 118.34994917583269 l -7.221777841111984 12.977164224958765 a35.85129174543163,35.85129174543163 0 0,0 -0.536661798459237,-0.3047305751777404 l 7.444088406492428 -12.85093048398639" fill="#ff990e" stroke="none" /><path d="M 89.4739219176387 118.17145234162733 l -11.143655162317794 19.23759230257977 a43.2320940978786,43.2320940978786 0 0,0 -0.6407246040944797,-0.3785513897832801 l 11.473147637440656 -19.04292234050274" fill="#fffc17" stroke="none" /><path d="M 88.8546689885994 117.79835938074946 l -10.185535650200375 16.265629419374264 a40.19155639571518,40.19155639571518 0 0,0 -0.5831951732300846,-0.3722227524800454 l 10.464012625477382 -16.087892238070413" fill="#ffd413" stroke="none" /><path d="M 88.24862548938628 117.40417183066458 l -10.755843938756078 15.92975833804369 a40.22096198277673,40.22096198277673 0 0,0 -0.5704541247816435,-0.39236354870323414 l 11.028454948160611 -15.742253999975356" fill="#ffd513" stroke="none" /><path d="M 87.36589467227662 116.77436683061367 l -8.306860122708827 11.029061045039064 a34.807393404746904,34.807393404746904 0 0,0 -0.4754876763736747,-0.36458367440866196 l 8.495476527575988 -10.884438028803036" fill="#ff8a0c" stroke="none" /><path d="M 86.79598089348748 116.32954008644616 l -14.178396767946687 17.534562508284306 a43.54967443814324,43.54967443814324 0 0,0 -0.5788578584685512,-0.47636060907724614 l 14.478124754959929 -17.28790678034988" fill="#feff18" stroke="none" /><path d="M 86.51685102203217 116.09983520530335 l -10.067757743473148 12.021616079574331 a36.68052930056711,36.68052930056711 0 0,0 -0.4805752356196592,-0.4095566416521604 l 10.273198455669863 -11.84653504769922" fill="#ffa50f" stroke="none" /><path d="M 85.97065885151581 115.62618273729859 l -12.771091060182838 14.224716652688947 a40.11657214870826,40.11657214870826 0 0,0 -0.5098633895397936,-0.4657481176003133 l 13.014053999189487 -14.002775768502056" fill="#ffd313" stroke="none" /><path d="M 85.44109423537348 115.13401014063109 l -15.475271813943836 16.08657438598762 a43.3217811384163,43.3217811384163 0 0,0 -0.5329611533464415,-0.5216146620028345 l 15.749882919666073 -15.817809621062219" fill="#fffd17" stroke="none" /><path d="M 85.18274418774928 114.88116024355367 l -10.62198993640238 10.667800863526287 a36.05419029615627,36.05419029615627 0 0,0 -0.4360142681781288,-0.44168015169125124 l 10.804044829636043 -10.48338021785437" fill="#ff9c0e" stroke="none" /><path d="M 84.9287848128048 114.62390073753433 l -13.50531983343214 13.104481239214579 a39.818105440033605,39.818105440033605 0 0,0 -0.4730645925614418,-0.4960063340133537 l 13.728890977372538 -12.870067788618725" fill="#ffcf13" stroke="none" /><path d="M 84.67929136418377 114.36230785411682 l -13.988473102267 13.113411518976235 a40.173913043478265,40.173913043478265 0 0,0 -0.46860687166034465,-0.5085802082061244 l 14.212126381923074 -12.870680055968766" fill="#ffd413" stroke="none" /><path d="M 83.95833913139862 113.55231037782056 l -11.744566806900844 9.92204086122451 a36.37471119512708,36.37471119512708 0 0,0 -0.3999555389367717,-0.4817722116506021 l 11.913618345731152 -9.718407392460145" fill="#ffa00e" stroke="none" /><path d="M 83.72743513129214 113.27417163493432 l -17.3526174833921 14.155213062499806 a43.39382482671708,43.39382482671708 0 0,0 -0.4671698343214195,-0.5828661989617899 l 17.59370522976838 -13.854419029959756" fill="#fffe18" stroke="none" /><path d="M 83.28015986056508 112.70617746262583 l -19.43917001718521 14.772721623213936 a45.41545893719807,45.41545893719807 0 0,0 -0.4676467291924328,-0.626489215489532 l 19.690578013072727 -14.435919528215097" fill="#e6ff1a" stroke="none" /><path d="M 83.06392112726016 112.41649034213515 l -11.198230685021004 8.209853307507126 a34.885318210459985,34.885318210459985 0 0,0 -0.35088019787887426,-0.4873419060043999 l 11.337890675275487 -8.015877796051589" fill="#ff8b0c" stroke="none" /><path d="M 82.6465618267979 111.8261652097733 l -15.5297659266169 10.583353897032994 a39.793110691031295,39.793110691031295 0 0,0 -0.3808710321402074,-0.569350515789362 l 15.709640064167838 -10.314466467037812" fill="#ffcf13" stroke="none" /><path d="M 82.44556493220864 111.52570212397912 l -15.522825380256597 10.191809691651352 a39.56962822936358,39.56962822936358 0 0,0 -0.3689305126327501,-0.5725883484781953 l 15.695960756266393 -9.923099743251708" fill="#ffcc13" stroke="none" /><path d="M 82.24976979558568 111.22182372390057 l -18.809055110537752 11.891220476176928 a43.252678008821675,43.252678008821675 0 0,0 -0.3924364090350818,-0.6327324458374751 l 19.01095615924079 -11.565691698974188" fill="#fffc17" stroke="none" /><line stroke="#e1ed5e" stroke-width="0.3" x1="26.63291911575756" x2="22.317208475507996" y1="142.92168965132927" y2="145.44649492493687" /><path d="M 25.769776987707644 143.4266507060508 a86.0,86.0 0 0,1 -11.730757126820373,-40.83630448921669" fill="none" id="id57" stroke="none" /><text fill="#e1ed5e" style="font-size:6.75px; font-family:Arial;" text-anchor="middle"><textPath startOffset="21.46611528233685" xlink:href="#id57">September</textPath></text><path d="M 81.87401531095188 110.60418214915194 l -20.585423065255885 12.04301887848447 a44.849401386263395,44.849401386263395 0 0,0 -0.3840988244323942,-0.6697086761841494 l 20.789673885840656 -11.686890356442012" fill="#edff1a" stroke="none" /><path d="M 81.69416730710424 110.29060199501025 l -17.308707590671226 9.730069309151675 a40.856122663306024,40.856122663306024 0 0,0 -0.33934626718205263,-0.6160120447217886 l 17.473630267304795 -9.430686746032062" fill="#ffdd14" stroke="none" /><path d="M 81.51974371655577 109.97397251340807 l -13.902566251180309 7.503349062281713 a36.798151648813274,36.798151648813274 0 0,0 -0.2960454963346322,-0.5600065114068777 l 14.029664255739826 -7.262927535788709" fill="#ffa60f" stroke="none" /><path d="M 81.18737489456691 109.33194174019688 l -19.539683080522284 9.692596493441204 a42.81159420289855,42.81159420289855 0 0,0 -0.32179384400284344,-0.6629906308340571 l 19.703630181139847 -9.354816906641862" fill="#fff717" stroke="none" /><path d="M 80.87730276802145 108.67885076344099 l -6.767852307474026 3.071594945683275 a28.432262129804663,28.432262129804663 0 0,0 -0.19842864268476576,-0.4474042056223656 l 6.819722034890072 -2.9546424035682137" fill="#ff2d04" stroke="none" /><path d="M 80.73074385275274 108.34839909993369 l -20.514479379335 8.887891669368596 a43.357067842890146,43.357067842890146 0 0,0 -0.29080002209760347,-0.687365351300892 l 20.66443038262491 -8.533451792401545" fill="#fffe18" stroke="none" /><path d="M 80.45479744820244 107.68017299344265 l -22.669314952956558 8.907774683845902 a45.35664776307499,45.35664776307499 0 0,0 -0.27927971496323173,-0.7291112082030327 l 22.8192889475133 -8.51623990880971" fill="#e7ff1a" stroke="none" /><path d="M 80.32549172779594 107.34259656027581 l -20.85362884078255 7.782648556046733 a43.25855912623398,43.25855912623398 0 0,0 -0.25435155028385403,-0.6998662267371015 l 20.98450465207163 -7.422534532303515" fill="#fffc17" stroke="none" /><path d="M 80.20201598880116 107.00284435728193 l -18.822153951415594 6.657678605862304 a40.96492333543373,40.96492333543373 0 0,0 -0.22942145685498624,-0.6668061434240713 l 18.93396623921381 -6.3326997593489365" fill="#ffdf14" stroke="none" /><path d="M 80.0844068197444 106.66101706037122 l -10.135577037546593 3.389969405015643 a31.687460617517328,31.687460617517328 0 0,0 -0.16855880459971959,-0.5187706579624995 l 10.192428093162562 -3.2149998470753403" fill="#ff5e08" stroke="none" /><path d="M 79.86692584326677 105.97154293290107 l -14.214235090422028 4.215993764291427 a35.82629699642932,35.82629699642932 0 0,0 -0.1702727730166143,-0.592741860560072 l 14.284700500324746 -3.9706944282267584" fill="#ff990e" stroke="none" /><path d="M 79.67330655649465 105.27499134158121 l -19.462848108477154 5.0508143658520375 a41.107540432682214,41.107540432682214 0 0,0 -0.17184652129275774,-0.6864414295517974 l 19.546905944064967 -4.715045096902848" fill="#ffe015" stroke="none" /><path d="M 79.58551787078972 104.9243191809786 l -27.86677575251788 6.7219387433690265 a49.666036546943914,49.666036546943914 0 0,0 -0.1933177961818838,-0.8328080063547687 l 27.97835411463032 -6.241262079665684" fill="#b2ff20" stroke="none" /><path d="M 79.50377843672027 104.57218783832718 l -14.421832017850683 3.217145401889528 a35.7763074984247,35.7763074984247 0 0,0 -0.1289070808456335,-0.6022109663338575 l 14.475073137420756 -2.9684206161395066" fill="#ff980e" stroke="none" /><path d="M 79.4281124754447 104.21870165774334 l -23.968128565156103 4.915172882903238 a45.46691871455577,45.46691871455577 0 0,0 -0.15062555154102714,-0.7680364422145602 l 24.049184049672796 -4.501872713620722" fill="#e5ff1a" stroke="none" /><path d="M 79.29508885075956 103.50808413554451 l -22.725680325326774 3.850468038432491 a44.049569418189456,44.049569418189456 0 0,0 -0.12023066858053133,-0.7486764880201161 l 22.788592748268595 -3.4587123207191617" fill="#f7ff18" stroke="none" /><path d="M 79.23777060512086 103.15116336523772 l -18.83325940209019 2.8583961744745454 a40.048939298466706,40.048939298466706 0 0,0 -0.09757818976117479,-0.6824616319208757 l 18.87967164286796 -2.5337890705732695" fill="#ffd213" stroke="none" /><path d="M 79.1416061653843 102.43462659150553 l -22.168341273504602 2.5875258460445267 a43.31884057971014,43.31884057971014 0 0,0 -0.08007322347367557,-0.7413786017159325 l 22.209596798479332 -2.205550922443812" fill="#fffd17" stroke="none" /><path d="M 79.07016306316243 101.71520430193888 l -19.631521770133233 1.6088071156672397 a40.697332493173704,40.697332493173704 0 0,0 -0.05120778941197211,-0.6986896017482087 l 19.65630611820954 -1.2706443774222702" fill="#ffdb14" stroke="none" /><path d="M 79.04373962182676 101.35467743843564 l -22.3178377520404 1.4426940079846347 a43.36441923965553,43.36441923965553 0 0,0 -0.041740626403636634,-0.7453069242037809 l 22.33936472933157 -1.058315367445416" fill="#fffe18" stroke="none" /><path d="M 79.0235259727143 100.99374915477108 l -24.62455646681365 1.1665750947312663 a45.65217391304348,45.65217391304348 0 0,0 -0.030430145975650295,-0.7852668543173983 l 24.640988745640502 -0.7425309933998713" fill="#e3ff1b" stroke="none" /><path d="M 79.0095281055655 100.63252640178507 l -32.33440892118938 0.9743643416701836 a53.349086326402016,53.349086326402016 0 0,0 -0.0197593261551848,-0.9181382436501558 l 32.34639031002958 -0.4176362822298989" fill="#87ff25" stroke="none" /><line stroke="#e1ed5e" stroke-width="0.3" x1="15.007084014347285" x2="10.007500721073583" y1="101.09737516637583" y2="101.16192664675087" /><path d="M 14.007167355692545 101.11028546245083 a86.0,86.0 0 0,1 10.666146001902534,-42.60595125391555" fill="none" id="id58" stroke="none" /><text fill="#e1ed5e" style="font-size:6.75px; font-family:Arial;" text-anchor="middle"><textPath startOffset="22.20632615414155" xlink:href="#id58">October</textPath></text><path d="M 79.00175016825051 100.2711162175752 l -14.722150375631127 0.19008316199664604 a35.72337744171392,35.72337744171392 0 0,0 -0.0026464264340086315,-0.6149363024634389 l 14.723241099354638 0.06336261867046825" fill="#ff970e" stroke="none" /><path d="M 79.00486145842228 99.54816195383935 l -17.94060532800924 -0.3861011939642031 a38.94475950430582,38.94475950430582 0 0,0 0.020192497182585843,-0.6700906766790414 l 17.931301136371008 0.694862018068239" fill="#ffc412" stroke="none" /><path d="M 79.01574976396665 99.18683210126434 l -22.26390310696978 -0.8627561672925923 a43.280613316530136,43.280613316530136 0 0,0 0.035255958442238715,-0.7441975603401583 l 22.245753540294043 1.2458648342557597" fill="#fffd17" stroke="none" /><path d="M 79.03285615573316 98.82574320788736 l -14.828055728554187 -0.8304395335104546 a35.85129174543163,35.85129174543163 0 0,0 0.039810996915801235,-0.6158585015231086 l 14.811564140633973 1.085557099286575" fill="#ff990e" stroke="none" /><path d="M 79.08570108090925 98.10471618934814 l -22.166257581544208 -2.0087381030349207 a43.257088846880904,43.257088846880904 0 0,0 0.07358416896332354,-0.7409825394626448 l 22.128396286898656 2.389996173201996" fill="#fffc17" stroke="none" /><path d="M 79.12142395522702 97.74499172005258 l -30.453222344098283 -3.2891260586812785 a51.63032976265491,51.63032976265491 0 0,0 0.10303851879338878,-0.8827711044587381 l 30.39209347230131 3.8128409014648783" fill="#9bff22" stroke="none" /><path d="M 79.16333360222342 97.38593545837743 l -13.412610156210732 -1.6826793667771365 a34.51774837219072,34.51774837219072 0 0,0 0.07903578310713677,-0.5889083864277807 l 13.381658374045761 1.9133060952695766" fill="#ff860c" stroke="none" /><path d="M 79.21141760316559 97.0276538004421 l -18.82514350771241 -2.6916142088554174 a40.016593152699016,40.016593152699016 0 0,0 0.10336496872243307,-0.6810459958009124 l 18.776022645550675 3.0152593170484217" fill="#ffd213" stroke="none" /><path d="M 79.3925641242962 95.95851677861259 l -22.197395571497797 -4.353302482744894 a43.62024784709095,43.62024784709095 0 0,0 0.15084443385800891,-0.7355710308019447 l 22.119171841724793 4.734749169710241" fill="#fdff18" stroke="none" /><path d="M 79.46518482838121 95.60439243477599 l -21.709424427042208 -4.64704013406725 a43.20121823146398,43.20121823146398 0 0,0 0.16191325538886298,-0.7258253759093712 l 21.62621678465131 5.020043679526581" fill="#fffc17" stroke="none" /><path d="M 79.62865764111835 94.90015583598534 l -30.591957029731322 -7.658514140863283 a52.53602184415039,52.53602184415039 0 0,0 0.22716492820907216,-0.8753591347957711 l 30.455595769651943 8.183969701207918" fill="#90ff24" stroke="none" /><path d="M 79.71946130924805 94.55025226153421 l -21.717485071417144 -5.835881233622783 a43.487922705314006,43.487922705314006 0 0,0 0.20048601135533017,-0.7212548531453137 l 21.613812289495456 6.20884739018704" fill="#ffff18" stroke="none" /><path d="M 79.81627453868168 94.20196356495316 l -18.376333116220916 -5.278839585615709 a40.11951270741441,40.11951270741441 0 0,0 0.19638330081305413,-0.6621068629732678 l 18.282743918296156 5.594375835335517" fill="#ffd313" stroke="none" /><path d="M 79.91906864156998 93.8553929516997 l -31.55193317551541 -9.654643378698836 a53.996009241755935,53.996009241755935 0 0,0 0.2796080906401116,-0.8864340571301498 l 31.381069601107093 10.196327602255401" fill="#80ff26" stroke="none" /><path d="M 80.02781315780177 93.51064311812611 l -13.20572236488973 -4.290799299336066 a34.885318210459985,34.885318210459985 0 0,0 0.19047833303067677,-0.5695059712218764 l 13.129906738087282 4.517478373480264" fill="#ff8b0c" stroke="none" /><path d="M 80.14247586403 93.16781622104843 l -21.04483251741076 -7.240689341314144 a43.25561856752783,43.25561856752783 0 0,0 0.2483015026657847,-0.7019817846761257 l 20.91707793393517 7.601868752416881" fill="#fffc17" stroke="none" /><path d="M 80.38941819471856 92.48833698450439 l -20.713102087409904 -7.933973832651884 a43.180634320520895,43.180634320520895 0 0,0 0.2718456370177563,-0.6918174945891146 l 20.57346290051046 8.289340332136762" fill="#fffb17" stroke="none" /><path d="M 80.52162464483688 92.15188598940014 l -22.48407018697574 -9.059151137209255 a45.240495694181895,45.240495694181895 0 0,0 0.29724796572930295,-0.7198095265106499 l 22.324800534360236 9.444835234173217" fill="#e8ff1a" stroke="none" /><path d="M 80.65960295795068 91.81776055985345 l -18.39795383395115 -7.783524978874963 a40.976685570258354,40.976685570258354 0 0,0 0.280415733157214,-0.6472381740790786 l 18.261247390951254 8.099062297540641" fill="#ffdf14" stroke="none" /><path d="M 80.95270993114464 91.15688171328213 l -17.29898808185897 -8.03143110098048 a40.07246376811594,40.07246376811594 0 0,0 0.2958527218961746,-0.6231412841642018 l 17.158177166121042 8.328014800785215" fill="#ffd313" stroke="none" /><path d="M 81.10775173730289 90.83032412892265 l -12.940059144014972 -6.28067906229431 a35.38374291115312,35.38374291115312 0 0,0 0.27066876204321,-0.5456517078473705 l 12.83003036901835 6.5024903586406415" fill="#ff930d" stroke="none" /><path d="M 81.26839172434947 90.50648371742162 l -16.96638075068899 -8.598867195107225 a40.021003990758246,40.021003990758246 0 0,0 0.3167196827964501,-0.6118016173124461 l 16.815851634732425 8.889641534680006" fill="#ffd213" stroke="none" /><path d="M 81.6062741919709 89.86733742301443 l -13.63270891295919 -7.509932509974742 a36.564377231674015,36.564377231674015 0 0,0 0.30843333464247996,-0.5486684864126473 l 13.50141793702428 7.743484506322173" fill="#ffa30f" stroke="none" /><line stroke="#e1ed5e" stroke-width="0.3" x1="26.266209847984243" x2="21.928928074336255" y1="57.711370442889674" y2="55.22380399835377" /><path d="M 25.398753493254645 57.213857153982495 a86.0,86.0 0 0,1 29.58750427330803,-30.492523968695096" fill="none" id="id59" stroke="none" /><text fill="#e1ed5e" style="font-size:6.75px; font-family:Arial;" text-anchor="middle"><textPath startOffset="21.46611528233685" xlink:href="#id59">November</textPath></text><path d="M 81.96595687620814 89.24020034530311 l -54.1021293713756 -32.27939896409068 a84.0,84.0 0 0,0 0.7515368068551322,-1.2353289071717022 l 53.53847676623425 33.20589564446946" fill="#4dd2ff" stroke="none" /><path d="M 82.34701348167596 88.62581576622439 l -12.41011255551997 -7.996092129898538 a35.763074984247005,35.763074984247005 0 0,0 0.3378816384200761,-0.5146169160405536 l 12.270634281741973 8.208527109916758" fill="#ff980e" stroke="none" /><path d="M 82.54541684631803 88.32363383020206 l -15.773038210780168 -10.551484852872784 a39.97689561016593,39.97689561016593 0 0,0 0.38753894689259605,-0.5686655847705241 l 15.589074798218832 10.821428460913724" fill="#ffd113" stroke="none" /><path d="M 83.17141714833178 87.43820079747576 l -14.199963630071085 -10.599650212757966 a38.71980676328502,38.71980676328502 0 0,0 0.40328349185731943,-0.5306738029246773 l 14.015404197989657 10.84250879156367" fill="#ffc111" stroke="none" /><path d="M 83.39014120810768 87.1503855733568 l -22.195320654068258 -17.170604281097265 a49.06175173282924,49.06175173282924 0 0,0 0.5224981225694728,-0.6635195551481308 l 21.896468450904813 17.550116230198444" fill="#b9ff1f" stroke="none" /><path d="M 83.84228863543731 86.58626213691792 l -14.799413805546344 -12.286112360582415 a40.23463558076034,40.23463558076034 0 0,0 0.446967307200224,-0.5290683109790908 l 14.585735884858995 12.539039621190621" fill="#ffd513" stroke="none" /><path d="M 84.07557802195018 86.31012108654704 l -14.493643379405878 -12.459869699027827 a40.113190506196176,40.113190506196176 0 0,0 0.45463170087269955,-0.5197226251335128 l 14.277019814955334 12.707507880364282" fill="#ffd313" stroke="none" /><path d="M 84.5562425177563 85.77008943001954 l -7.583800758171314 -6.98772994158993 a31.312245326612057,31.312245326612057 0 0,0 0.3686385841531607,-0.39323793899261655 l 7.462394852047698 7.117237297460598" fill="#ff5808" stroke="none" /><path d="M 85.05521093208273 85.24692304244772 l -44.38946597070006 -43.82003684322669 a83.37483721907162,83.37483721907162 0 0,0 1.017030879162095,-1.012663425355624 l 43.62859929137065 44.57763611923242" fill="#4cd8ff" stroke="none" /><path d="M 85.31137513191541 84.99185889309783 l -7.469057249312103 -7.631528896675009 a31.67834488552825,31.67834488552825 0 0,0 0.3929876027287936,-0.37805376246142575 l 7.336586402970881 7.758965745898748" fill="#ff5e08" stroke="none" /><path d="M 85.83668400450813 84.49514656593479 l -12.691354484345185 -13.89346896038837 a39.817517328292375,39.817517328292375 0 0,0 0.5100226029770315,-0.4579033287204299 l 12.450320893772183 14.10987129787808" fill="#ffcf13" stroke="none" /><path d="M 86.37877921826538 84.01681056812374 l -9.645003045449222 -11.317481246112422 a35.8698172652804,35.8698172652804 0 0,0 0.47338330979649706,-0.39644490817938227 l 9.448762198693615 11.481827311685617" fill="#ff990e" stroke="none" /><path d="M 86.93701828274178 83.55741782278169 l -19.438627719441158 -24.46770887438323 a52.24946439823566,52.24946439823566 0 0,0 0.7090188744692273,-0.553400477794262 l 19.014576289812506 24.798687741400713" fill="#94ff23" stroke="none" /><path d="M 87.51073957382395 83.11751280151077 l -11.250477590233762 -15.207949663370583 a39.91705524049569,39.91705524049569 0 0,0 0.5559014172594184,-0.40388602101742205 l 10.987030856620562 15.399354919204674" fill="#ffd113" stroke="none" /><path d="M 87.80319425747018 82.90503203632743 l -8.633917511796984 -12.101245718007718 a35.86555345515648,35.86555345515648 0 0,0 0.5056511209366427,-0.35424092425045256 l 8.42433525127668 12.248071485022113" fill="#ff990e" stroke="none" /><line stroke="#e1ed5e" stroke-width="0.3" x1="56.762969772571076" x2="54.21961505331055" y1="26.818313649435495" y2="22.513508569990535" /><path d="M 56.25429882871897 25.957352633546506 a86.0,86.0 0 0,1 42.265352541879196,-11.944610805530505" fill="none" id="id60" stroke="none" /><text fill="#e1ed5e" style="font-size:6.75px; font-family:Arial;" text-anchor="middle"><textPath startOffset="22.20632615414155" xlink:href="#id60">December</textPath></text></svg>