<?xml version="1.0" encoding="utf-8" ?>
<svg baseProfile="full" height="200mm" version="1.1" viewBox="0,0,200,200" width="200mm" xmlns="http://www.w3.org/2000/svg" xmlns:ev="http://www.w3.org/2001/xml-events" xmlns:xlink="http://www.w3.org/1999/xlink"><defs /><rect fill="#1a1a1a" height="200" width="200" x="0" y="0" /><text alignment-baseline="middle" fill="#e1ed5e" style="dominant-baseline: central; font-size:9.0px; font-family:Arial;" text-anchor="middle" x="100.0" y="100.0">2025</text><line stroke="#e1ed5e" stroke-width="0.3" x1="100.0" x2="100.0" y1="15.0" y2="10.0" /><path d="M 100.0 14.0 a86.0,86.0 0 0,1 42.46469731375804,11.215312516191453" fill="none" id="id49" stroke="none" /><text fill="#e1ed5e" style="font-size:6.75px; font-family:Arial;" text-anchor="middle"><textPath startOffset="22.20632615414155" xlink:href="#id49">January</textPath></text><path d="M 100.0 79.0 l 0.0 -43.274459110083 a64.274459110083,64.274459110083 0 0,0 1.106379156385492,0.009522954695375513 l -0.7448986771129635 43.26804753199618" fill="red" stroke="none" /><path d="M 100.72285384407766 79.0124445844662 l 1.6542326778742815 -48.02948795461253 a69.0579670703497,69.0579670703497 0 0,0 1.1876627573339262,0.051143256645772905 l -2.4807362675975395 47.99389697144256" fill="red" stroke="none" /><path d="M 101.80526077348638 79.07773832637324 l 1.8449327853135702 -21.382044672713814 a42.46149135936862,42.46149135936862 0 0,0 0.7276582765005465,0.06909992125142324 l -2.212716188904361 21.347119206947212" fill="red" stroke="none" /><path d="M 102.16513564639614 79.11191278185805 l 4.650813894952965 -44.86860046612992 a66.10899442100967,66.10899442100967 0 0,0 1.1308834282626898,0.1270679298486393 l -5.42246402672538 44.781896582810674" fill="red" stroke="none" /><path d="M 105.01212808612495 79.60689891045804 l 3.3166388464860037 -13.49457757496837 a34.89617635052388,34.89617635052388 0 0,0 0.5820866854508742,0.14838685682212352 l -3.548434420621903 13.435487721977378" fill="red" stroke="none" /><path d="M 105.36241919743992 79.69619591428918 l 8.156364374606545 -30.88255845286102 a52.94148863790992,52.94148863790992 0 0,0 0.8790861350322914,0.24028744837546032 l -8.686748398862548 30.737584463659264" fill="red" stroke="none" /><line stroke="#e1ed5e" stroke-width="0.3" x1="143.23703022742887" x2="145.7803849466894" y1="26.81831364943548" y2="22.513508569990506" /><path d="M 143.74570117128098 25.957352633546492 a86.0,86.0 0 0,1 28.547481713284135,27.462654790039103" fill="none" id="id50" stroke="none" /><text fill="#e1ed5e" style="font-size:6.75px; font-family:Arial;" text-anchor="middle"><textPath startOffset="19.985693538727396" xlink:href="#id50">February</textPath></text><path d="M 117.2510076193507 88.02491185347247 l 11.313271359567384 -7.853304847215872 a34.77187372431624,34.77187372431624 0 0,0 0.3370810844346194,0.49462489778664576 l -11.446776909670737 7.65740192615882" fill="red" stroke="none" /><line stroke="#e1ed5e" stroke-width="0.3" x1="172.23445277983987" x2="176.4835382374775" y1="55.19839476539836" y2="52.563006222186495" /><path d="M 173.08426987136738 54.67131705675599 a86.0,86.0 0 0,1 12.851231095245387,41.99856678651699" fill="none" id="id51" stroke="none" /><text fill="#e1ed5e" style="font-size:6.75px; font-family:Arial;" text-anchor="middle"><textPath startOffset="22.20632615414155" xlink:href="#id51">March</textPath></text><path d="M 118.21658344932153 89.55222093294921 l 18.598316181828746 -10.66671470133108 a42.44005987209144,42.44005987209144 0 0,0 0.3579967766396496,0.6368363192881263 l -18.77917059976083 10.344994872108158" fill="red" stroke="none" /><path d="M 118.3937258080291 89.86733742301442 l 28.12370391099728 -15.492674247693369 a53.10865423867193,53.10865423867193 0 0,0 0.4342059901993771,0.8045177553782268 l -28.38621800041512 15.006275508982684" fill="red" stroke="none" /><line stroke="#e1ed5e" stroke-width="0.3" x1="184.98032266829074" x2="189.97916517819016" y1="98.17113171792111" y2="98.06355123074" /><path d="M 185.9800911702706 98.14961562048488 a86.0,86.0 0 0,1 -9.607161424134198,41.387399972396054" fill="none" id="id52" stroke="none" /><text fill="#e1ed5e" style="font-size:6.75px; font-family:Arial;" text-anchor="middle"><textPath startOffset="21.466115282336823" xlink:href="#id52">April</textPath></text><path d="M 120.81339534386255 102.79330883721812 l 15.39508709755548 2.066132513647038 a36.53311334875493,36.53311334875493 0 0,0 -0.0890119720860531,0.6225495254526144 l -15.357241074452826 -2.3308275110800616" fill="red" stroke="none" /><path d="M 120.64145759157962 103.86396538481128 l 21.09506970221238 3.94887903423937 a42.46149135936862,42.46149135936862 0 0,0 -0.14066899046783496,0.7172681518075755 l -21.023970778768884 -4.31141091311489" fill="red" stroke="none" /><path d="M 120.5718875245553 104.21870165774334 l 30.572305021013825 6.2694992726961285 a52.208531773030344,52.208531773030344 0 0,0 -0.18811470206627603,0.8788092614446705 l -30.459856280223107 -6.794822353556968" fill="red" stroke="none" /><path d="M 120.41448212921028 104.9243191809786 l 21.2297835994679 5.120983717598172 a42.838685535447,42.838685535447 0 0,0 -0.1790834238325752,0.7153492578138438 l -21.138488861340267 -5.485660814809412" fill="red" stroke="none" /><path d="M 120.23288151984713 105.62410040840565 l 24.803106492353074 6.8944782391245845 a46.7435025173493,46.7435025173493 0 0,0 -0.2221593204268861,0.7733657389707508 l -24.68075453504009 -7.320401453599917" fill="red" stroke="none" /><path d="M 120.13307415673323 105.97154293290107 l 26.534071267524784 7.870101929053391 a48.676622669750984,48.676622669750984 0 0,0 -0.24517540396574805,0.8012474059139996 l -26.3946690910529 -8.325676307519448" fill="red" stroke="none" /><path d="M 119.9155931802556 106.66101706037122 l 33.03186355614854 11.047916308186808 a55.83045312287386,55.83045312287386 0 0,0 -0.3126749142782905,0.9087796607757858 l -32.83679781092701 -11.614868672051895" fill="red" stroke="none" /><path d="M 119.79798401119884 107.00284435728193 l 23.090015098650866 8.167285207002772 a45.491903660361956,45.491903660361956 0 0,0 -0.2674831629877249,0.7359987850948962 l -22.946007674657917 -8.563531789103799" fill="red" stroke="none" /><path d="M 119.54520255179757 107.68017299344265 l 40.117000311785894 15.763740567844456 a64.10300721186556,64.10300721186556 0 0,0 -0.41238803297916926,1.0235132781578669 l -39.83970966454933 -16.451953213845137" fill="red" stroke="none" /><path d="M 119.26925614724726 108.34839909993367 l 19.676980916725693 8.52504572669101 a42.444346169546876,42.444346169546876 0 0,0 -0.29621892066186395,0.667895466581285 l -19.527320911332556 -8.862489529764982" fill="red" stroke="none" /><path d="M 118.97047184881838 109.00673069616215 l 23.42591264498935 11.122068453894617 a46.93209960538849,46.93209960538849 0 0,0 -0.3527656706164012,0.7268017672100036 l -23.230993717758235 -11.523659177069895" fill="red" stroke="none" /><path d="M 118.81262510543309 109.33194174019688 l 40.6830377586196 20.18068908777778 a66.41332154034563,66.41332154034563 0 0,0 -0.5168263500016912,1.0197474198818657 l -40.329632738831634 -20.87799071936234" fill="red" stroke="none" /><line stroke="#e1ed5e" stroke-width="0.3" x1="174.80103733775053" x2="179.2010983576182" y1="140.37084112569926" y2="142.7455964860345" /><path d="M 175.68104954172406 140.8457921977663 a86.0,86.0 0 0,1 -30.038265399797805,32.042727171017184" fill="none" id="id53" stroke="none" /><text fill="#e1ed5e" style="font-size:6.75px; font-family:Arial;" text-anchor="middle"><textPath startOffset="22.206326154141568" xlink:href="#id53">May</textPath></text><path d="M 118.48025628344425 109.97397251340804 l 37.97643630324876 20.496248863449228 a64.1544427813308,64.1544427813308 0 0,0 -0.5328594409313049,0.9672946647776405 l -37.61800045286594 -21.146914046624673" fill="red" stroke="none" /><path d="M 118.30583269289576 110.29060199501025 l 26.53586007312812 14.917102061891976 a51.44128452850728,51.44128452850728 0 0,0 -0.44055296846711983,0.7681412348426468 l -26.27515510850862 -15.371663142592938" fill="red" stroke="none" /><path d="M 118.12598468904814 110.60418214915192 l 26.315851631487153 15.395471688716354 a51.48843380051707,51.48843380051707 0 0,0 -0.45412583905721765,0.7611410275293553 l -26.046944916731707 -15.846174810131814" fill="red" stroke="none" /><path d="M 117.94076556474637 110.91462005526583 l 38.29959185773894 23.30031524520859 a65.83038508640632,65.83038508640632 0 0,0 -0.5972864830111996,0.9630159907705147 l -37.89284073505977 -23.956127567344378" fill="red" stroke="none" /><path d="M 117.75023020441432 111.22182372390056 l 18.611293895783724 11.76619440801683 a43.01871002857531,43.01871002857531 0 0,0 -0.4010882955899028,0.6224979417584007 l -18.40600073681677 -12.084813949696684" fill="red" stroke="none" /><path d="M 117.35343817320211 111.8261652097733 l 36.82617295280628 25.096606276911057 a65.56463464416927,65.56463464416927 0 0,0 -0.6435921098950015,0.9271424356715103 l -36.388719935749144 -25.726789974769588" fill="red" stroke="none" /><path d="M 116.71984013943494 112.70617746262583 l 10.343822723355686 7.860747834239805 a33.991767587426864,33.991767587426864 0 0,0 -0.3580355838593641,0.4628092558206291 l -10.206980322278254 -8.037635084173687" fill="red" stroke="none" /><path d="M 116.27256486870786 113.27417163493432 l 34.85459839411217 28.432267751462945 a65.98040549734658,65.98040549734658 0 0,0 -0.725482836094446,0.8738908114359831 l -34.360019558124186 -29.028019820012698" fill="red" stroke="none" /><path d="M 116.0416608686014 113.55231037782055 l 44.29737989344978 37.42329713597787 a78.98931827459518,78.98931827459518 0 0,0 -0.8864011673955297,1.0310848124135885 l -43.64663621648347 -38.18025904755299" fill="red" stroke="none" /><path d="M 115.80600337817218 113.82643327865902 l 16.311434157036032 14.268563067811954 a42.671519934684994,42.671519934684994 0 0,0 -0.4883677232550503,0.5486863142277373 l -16.063407584132644 -14.547223551780558" fill="red" stroke="none" /><path d="M 115.32070863581623 114.36230785411682 l 35.042290306087246 32.85018815074836 a69.0322492856171,69.0322492856171 0 0,0 -0.8201473304921726,0.8599211971152256 l -34.47163642421611 -33.448516464446094" fill="red" stroke="none" /><path d="M 114.81725581225074 114.88116024355365 l 32.85039446849928 32.99207291444 a67.55776296094706,67.55776296094706 0 0,0 -0.8311214894450227,0.8134273053074639 l -32.27762302667846 -33.55265032267004" fill="red" stroke="none" /><path d="M 114.55890576462653 115.13401014063108 l 37.56411643161873 39.047970238342124 a75.18308613416792,75.18308613416792 0 0,0 -0.9403763136835837,0.8891844999178711 l -36.88640428354434 -39.68878937500591" fill="red" stroke="none" /><path d="M 114.0293411484842 115.62618273729858 l 31.490134292396405 35.07439071208446 a68.13641311743095,68.13641311743095 0 0,0 -0.8794712295712165,0.776031105730121 l -30.881720709918604 -35.61124495958686" fill="red" stroke="none" /><path d="M 113.75828350139079 115.86535959552629 l 28.22236001952186 32.544604150572695 a64.07728942713294,64.07728942713294 0 0,0 -0.8395178327985158,0.7154553100613199 l -27.657976710146297 -33.02558385085696" fill="red" stroke="none" /><path d="M 113.20401910651253 116.32954008644616 l 36.391455299068994 45.0056701157877 a78.87787454075385,78.87787454075385 0 0,0 -1.0631329228162472,0.8446170914082876 l -35.6113648835354 -45.625421121201114" fill="red" stroke="none" /><path d="M 112.92097659922987 116.55440617244103 l 35.32126267386429 45.25374102616058 a78.40638182065587,78.40638182065587 0 0,0 -1.071073259386484,0.8212533023907563 l -34.53706068598431 -45.85503367037871" fill="red" stroke="none" /><path d="M 112.63410532772338 116.77436683061366 l 13.087103933500366 17.375815416797728 a42.75295958633828,42.75295958633828 0 0,0 -0.591650124517982,0.4376886177615928 l -12.78606883856382 -17.598513983299092" fill="red" stroke="none" /><path d="M 112.34349029814194 116.9893568818739 l 37.03047089442582 50.96807064562168 a84.0,84.0 0 0,0 -1.1770906886044616,0.8398229526231229 l -36.14765287797247 -51.597937860089026" fill="red" stroke="none" /><path d="M 112.04921762599082 117.19931262002967 l 25.739647232335003 36.74132655080227 a65.86038916859437,65.86038916859437 0 0,0 -0.9340982614249267,0.6424813017707593 l -25.10339208628719 -37.17894864193812" fill="red" stroke="none" /><path d="M 111.7513745106137 117.40417183066458 l 24.453380691734946 36.21626040555696 a64.69880255817118,64.69880255817118 0 0,0 -0.9283517224764053,0.6152609001851835 l -23.826354270518575 -36.631819326833465" fill="red" stroke="none" /><line stroke="#e1ed5e" stroke-width="0.3" x1="143.8653032363475" x2="146.44561519142675" y1="172.8068346515853" y2="177.08958963109032" /><path d="M 144.38136562736335 173.6633856474863 a86.0,86.0 0 0,1 -40.68145358897372,12.25698825130547" fill="none" id="id54" stroke="none" /><text fill="#e1ed5e" style="font-size:6.75px; font-family:Arial;" text-anchor="middle"><textPath startOffset="21.466115282336833" xlink:href="#id54">June</textPath></text><line stroke="#e1ed5e" stroke-width="0.3" x1="102.19456741930631" x2="102.32365962044197" y1="184.97166512339345" y2="189.96999836594603" /><path d="M 102.22038585953345 185.97133177190398 a86.0,86.0 0 0,1 -42.740103519485714,-10.115201625700543" fill="none" id="id55" stroke="none" /><text fill="#e1ed5e" style="font-size:6.75px; font-family:Arial;" text-anchor="middle"><textPath startOffset="22.20632615414155" xlink:href="#id55">July</textPath></text><line stroke="#e1ed5e" stroke-width="0.3" x1="58.666819895761336" x2="56.23545636021788" y1="174.27360380694188" y2="178.64263932499728" /><path d="M 58.180547188652646 175.14741091055294 a86.0,86.0 0 0,1 -31.652253787137756,-30.449443065178592" fill="none" id="id56" stroke="none" /><text fill="#e1ed5e" style="font-size:6.75px; font-family:Arial;" text-anchor="middle"><textPath startOffset="22.20632615414155" xlink:href="#id56">August</textPath></text><line stroke="#e1ed5e" stroke-width="0.3" x1="26.63291911575756" x2="22.317208475507996" y1="142.92168965132927" y2="145.44649492493687" /><path d="M 25.769776987707644 143.4266507060508 a86.0,86.0 0 0,1 -11.730757126820373,-40.83630448921669" fill="none" id="id57" stroke="none" /><text fill="#e1ed5e" style="font-size:6.75px; font-family:Arial;" text-anchor="middle"><textPath startOffset="21.46611528233685" xlink:href="#id57">September</textPath></text><line stroke="#e1ed5e" stroke-width="0.3" x1="15.007084014347285" x2="10.007500721073583" y1="101.09737516637583" y2="101.16192664675087" /><path d="M 14.007167355692545 101.11028546245083 a86.0,86.0 0 0,1 10.666146001902534,-42.60595125391555" fill="none" id="id58" stroke="none" /><text fill="#e1ed5e" style="font-size:6.75px; font-family:Arial;" text-anchor="middle"><textPath startOffset="22.20632615414155" xlink:href="#id58">October</textPath></text><line stroke="#e1ed5e" stroke-width="0.3" x1="26.266209847984243" x2="21.928928074336255" y1="57.711370442889674" y2="55.22380399835377" /><path d="M 25.398753493254645 57.213857153982495 a86.0,86.0 0 0,1 29.58750427330803,-30.492523968695096" fill="none" id="id59" stroke="none" /><text fill="#e1ed5e" style="font-size:6.75px; font-family:Arial;" text-anchor="middle"><textPath startOffset="21.46611528233685" xlink:href="#id59">November</textPath></text><line stroke="#e1ed5e" stroke-width="0.3" x1="56.762969772571076" x2="54.21961505331055" y1="26.818313649435495" y2="22.513508569990535" /><path d="M 56.25429882871897 25.957352633546506 a86.0,86.0 0 0,1 42.265352541879196,-11.944610805530505" fill="none" id="id60" stroke="none" /><text fill="#e1ed5e" style="font-size:6.75px; font-family:Arial;" text-anchor="middle"><textPath startOffset="22.20632615414155" xlink:href="#id60">December</textPath></text></svg>