<?xml version="1.0" encoding="utf-8" ?>
<svg baseProfile="full" height="200mm" version="1.1" viewBox="0,0,200,200" width="200mm" xmlns="http://www.w3.org/2000/svg" xmlns:ev="http://www.w3.org/2001/xml-events" xmlns:xlink="http://www.w3.org/1999/xlink"><defs /><rect fill="#1a1a1a" height="200" width="200" x="0" y="0" /><text alignment-baseline="middle" fill="#e1ed5e" style="dominant-baseline: central; font-size:9.0px; font-family:Arial;" text-anchor="middle" x="100.0" y="100.0">2025</text><line stroke="#e1ed5e" stroke-width="0.3" x1="100.0" x2="100.0" y1="15.0" y2="10.0" /><path d="M 100.0 14.0 a86.0,86.0 0 0,1 42.46469731375804,11.215312516191453" fill="none" id="id49" stroke="none" /><text fill="#e1ed5e" style="font-size:6.75px; font-family:Arial;" text-anchor="middle"><textPath startOffset="22.20632615414155" xlink:href="#id49">January</textPath></text><path d="M 100.0 79.0 l 0.0 -56.72921869425616 a77.72921869425616,77.72921869425616 0 0,0 1.3379807250989948,0.011516422516517398 l -0.9765002458264663 56.720813648348205" fill="red" stroke="none" /><path d="M 100.72285384407766 79.0124445844662 l 2.1685615322329816 -62.9626662466014 a84.0,84.0 0 0,0 1.4446366704426739,0.062209093903220936 l -3.2520390350649873 62.916009426173986" fill="red" stroke="none" /><path d="M 101.80526077348638 79.07773832637324 l 2.418553521096937 -28.030083178696724 a49.134231180877634,49.134231180877634 0 0,0 0.8420083429398524,0.07995883791770692 l -2.900686991127033 27.98429879626384" fill="red" stroke="none" /><path d="M 102.16513564639614 79.11191278185805 l 6.0968304163413025 -58.819005498677974 a80.13414199072423,80.13414199072423 0 0,0 1.3708024756546482,0.1540256302812892 l -7.108399595505675 58.70534391492609" fill="red" stroke="none" /><path d="M 105.01212808612495 79.60689891045804 l 4.347837831399508 -17.690269461013656 a39.216732072779166,39.216732072779166 0 0,0 0.6541558409483541,0.1667588892451164 l -4.651702561032887 17.61280757559967" fill="red" stroke="none" /><path d="M 105.36241919743992 79.69619591428918 l 10.692315695501874 -40.484467012143355 a62.872636460934714,62.872636460934714 0 0,0 1.0439914782856292,0.2853623080220278 l -11.387605063011213 40.294418163295035" fill="red" stroke="none" /><line stroke="#e1ed5e" stroke-width="0.3" x1="143.23703022742887" x2="145.7803849466894" y1="26.81831364943548" y2="22.513508569990506" /><path d="M 143.74570117128098 25.957352633546492 a86.0,86.0 0 0,1 28.547481713284135,27.462654790039103" fill="none" id="id50" stroke="none" /><text fill="#e1ed5e" style="font-size:6.75px; font-family:Arial;" text-anchor="middle"><textPath startOffset="19.985693538727396" xlink:href="#id50">February</textPath></text><path d="M 117.2510076193507 88.02491185347247 l 14.830758334188495 -10.295029846983489 a39.05378166250446,39.05378166250446 0 0,0 0.37859021283814137,0.5555344217613946 l -15.00577301269537 10.03821740195169" fill="red" stroke="none" /><line stroke="#e1ed5e" stroke-width="0.3" x1="172.23445277983987" x2="176.4835382374775" y1="55.19839476539836" y2="52.563006222186495" /><path d="M 173.08426987136738 54.67131705675599 a86.0,86.0 0 0,1 12.851231095245387,41.99856678651699" fill="none" id="id51" stroke="none" /><text fill="#e1ed5e" style="font-size:6.75px; font-family:Arial;" text-anchor="middle"><textPath startOffset="22.20632615414155" xlink:href="#id51">March</textPath></text><path d="M 118.21658344932153 89.55222093294921 l 24.380846525197903 -13.98317630040708 a49.1061362825544,49.1061362825544 0 0,0 0.41422746705271063,0.7368644431439147 l -24.617931633543048 13.561428347328372" fill="red" stroke="none" /><path d="M 118.3937258080291 89.86733742301442 l 36.867838038158936 -20.30960810672468 a63.09177666785587,63.09177666785587 0 0,0 0.5158260504661089,0.9557473311136396 l -37.21197218784351 19.67197979227858" fill="red" stroke="none" /><line stroke="#e1ed5e" stroke-width="0.3" x1="184.98032266829074" x2="189.97916517819016" y1="98.17113171792111" y2="98.06355123074" /><path d="M 185.9800911702706 98.14961562048488 a86.0,86.0 0 0,1 -9.607161424134198,41.387399972396054" fill="none" id="id52" stroke="none" /><text fill="#e1ed5e" style="font-size:6.75px; font-family:Arial;" text-anchor="middle"><textPath startOffset="21.466115282336823" xlink:href="#id52">April</textPath></text><path d="M 120.81339534386255 102.79330883721812 l 20.18167946484753 2.7085279776653737 a41.3626204067071,41.3626204067071 0 0,0 -0.10077893931186951,0.7048476668236028 l -20.132066474519057 -3.055521116469386" fill="red" stroke="none" /><path d="M 120.64145759157962 103.86396538481128 l 27.653882847227756 5.17665216243759 a49.134231180877634,49.134231180877634 0 0,0 -0.16277484554489863,0.8299854305945952 l -27.560678068707194 -5.65190132010013" fill="red" stroke="none" /><path d="M 120.5718875245553 104.21870165774334 l 40.07775055287738 8.218792392979637 a61.91179093828041,61.91179093828041 0 0,0 -0.22307691312553815,1.0421410719941608 l -39.9303396010274 -8.907447284389967" fill="red" stroke="none" /><path d="M 120.41448212921028 104.9243191809786 l 27.830481568406995 6.713183970857824 a49.62870139136639,49.62870139136639 0 0,0 -0.20746849849480667,0.8287335211815198 l -27.710801755617126 -7.191245331436741" fill="red" stroke="none" /><path d="M 120.23288151984713 105.62410040840565 l 32.51481084771723 9.038087866451406 a54.74759186585801,54.74759186585801 0 0,0 -0.2602006086174915,0.9057924537104057 l -32.35441760221364 -9.596437795666393" fill="red" stroke="none" /><path d="M 120.13307415673323 105.97154293290107 l 34.78396178113444 10.317049425011305 a57.281751694612915,57.281751694612915 0 0,0 -0.2885178930115005,0.9428931678951513 l -34.601217115616805 -10.914269565458513" fill="red" stroke="none" /><path d="M 119.9155931802556 106.66101706037122 l 43.30202734108733 14.482899919526373 a66.65982875490546,66.65982875490546 0 0,0 -0.37332414615861725,1.085054717896165 l -43.046312363985486 -15.22612734051184" fill="red" stroke="none" /><path d="M 119.79798401119884 107.00284435728193 l 30.269090431677707 10.706631998976698 a53.106849803781664,53.106849803781664 0 0,0 -0.3122575012003034,0.8591985340428254 l -30.080308669472178 -11.226078330025654" fill="red" stroke="none" /><path d="M 119.54520255179757 107.68017299344265 l 52.590052674155295 20.664953519994455 a77.50445950767036,77.50445950767036 0 0,0 -0.4986023744228595,1.2374902032344255 l -52.22654768547504 -21.567143091071696" fill="red" stroke="none" /><path d="M 119.26925614724726 108.34839909993367 l 25.7948863284012 11.175626301365007 a49.11175526221905,49.11175526221905 0 0,0 -0.3427507418178107,0.7728124392459182 l -25.598694501852115 -11.617987077103614" fill="red" stroke="none" /><path d="M 118.97047184881838 109.00673069616215 l 30.709424193369024 14.580107218635666 a54.99482697110239,54.99482697110239 0 0,0 -0.4133692543059899,0.8516630997991066 l -30.45390168244832 -15.106559274400048" fill="red" stroke="none" /><path d="M 118.81262510543309 109.33194174019688 l 53.33208071496529 26.455205869796448 a80.53308954691403,80.53308954691403 0 0,0 -0.6267059342846762,1.2365502639510573 l -52.868796110894344 -27.369310345450202" fill="red" stroke="none" /><line stroke="#e1ed5e" stroke-width="0.3" x1="174.80103733775053" x2="179.2010983576182" y1="140.37084112569926" y2="142.7455964860345" /><path d="M 175.68104954172406 140.8457921977663 a86.0,86.0 0 0,1 -30.038265399797805,32.042727171017184" fill="none" id="id53" stroke="none" /><text fill="#e1ed5e" style="font-size:6.75px; font-family:Arial;" text-anchor="middle"><textPath startOffset="22.206326154141568" xlink:href="#id53">May</textPath></text><path d="M 118.48025628344425 109.97397251340804 l 49.78395119382359 26.868878504725 a77.57188726364609,77.57188726364609 0 0,0 -0.6443031953403746,1.16959745005677 l -49.314071589031705 -27.721846473179575" fill="red" stroke="none" /><path d="M 118.30583269289576 110.29060199501025 l 34.78630675658554 19.555080815705338 a60.90599357830895,60.90599357830895 0 0,0 -0.5216105413054692,0.9094719454494568 l -34.444544219127685 -20.15097260701311" fill="red" stroke="none" /><path d="M 118.12598468904814 110.60418214915192 l 34.49789397784501 20.182183631890208 a60.96780235462005,60.96780235462005 0 0,0 -0.5377334744155374,0.9012722334921 l -34.145379627731245 -20.77301795926841" fill="red" stroke="none" /><path d="M 117.94076556474637 110.91462005526583 l 50.20758126338269 30.544776442568303 a79.7689083125223,79.7689083125223 0 0,0 -0.7237522708866507,1.1669191084092372 l -49.67436435282808 -31.40449188234281" fill="red" stroke="none" /><path d="M 117.75023020441432 111.22182372390056 l 24.39785922941752 15.424502801376327 a49.864698537281484,49.864698537281484 0 0,0 -0.4649174029890108,0.7215621339003887 l -24.12873696305146 -15.84218653519817" fill="red" stroke="none" /><path d="M 117.35343817320211 111.8261652097733 l 48.276051557291005 32.899564668037705 a79.4205315733143,79.4205315733143 0 0,0 -0.7796036348201872,1.1230771815451133 l -47.70258701530868 -33.72568311176984" fill="red" stroke="none" /><line stroke="#e1ed5e" stroke-width="0.3" x1="143.8653032363475" x2="146.44561519142675" y1="172.8068346515853" y2="177.08958963109032" /><path d="M 144.38136562736335 173.6633856474863 a86.0,86.0 0 0,1 -40.68145358897372,12.25698825130547" fill="none" id="id54" stroke="none" /><text fill="#e1ed5e" style="font-size:6.75px; font-family:Arial;" text-anchor="middle"><textPath startOffset="21.466115282336833" xlink:href="#id54">June</textPath></text><line stroke="#e1ed5e" stroke-width="0.3" x1="102.19456741930631" x2="102.32365962044197" y1="184.97166512339345" y2="189.96999836594603" /><path d="M 102.22038585953345 185.97133177190398 a86.0,86.0 0 0,1 -42.740103519485714,-10.115201625700543" fill="none" id="id55" stroke="none" /><text fill="#e1ed5e" style="font-size:6.75px; font-family:Arial;" text-anchor="middle"><textPath startOffset="22.20632615414155" xlink:href="#id55">July</textPath></text><line stroke="#e1ed5e" stroke-width="0.3" x1="58.666819895761336" x2="56.23545636021788" y1="174.27360380694188" y2="178.64263932499728" /><path d="M 58.180547188652646 175.14741091055294 a86.0,86.0 0 0,1 -31.652253787137756,-30.449443065178592" fill="none" id="id56" stroke="none" /><text fill="#e1ed5e" style="font-size:6.75px; font-family:Arial;" text-anchor="middle"><textPath startOffset="22.20632615414155" xlink:href="#id56">August</textPath></text><line stroke="#e1ed5e" stroke-width="0.3" x1="26.63291911575756" x2="22.317208475507996" y1="142.92168965132927" y2="145.44649492493687" /><path d="M 25.769776987707644 143.4266507060508 a86.0,86.0 0 0,1 -11.730757126820373,-40.83630448921669" fill="none" id="id57" stroke="none" /><text fill="#e1ed5e" style="font-size:6.75px; font-family:Arial;" text-anchor="middle"><textPath startOffset="21.46611528233685" xlink:href="#id57">September</textPath></text><line stroke="#e1ed5e" stroke-width="0.3" x1="15.007084014347285" x2="10.007500721073583" y1="101.09737516637583" y2="101.16192664675087" /><path d="M 14.007167355692545 101.11028546245083 a86.0,86.0 0 0,1 10.666146001902534,-42.60595125391555" fill="none" id="id58" stroke="none" /><text fill="#e1ed5e" style="font-size:6.75px; font-family:Arial;" text-anchor="middle"><textPath startOffset="22.20632615414155" xlink:href="#id58">October</textPath></text><line stroke="#e1ed5e" stroke-width="0.3" x1="26.266209847984243" x2="21.928928074336255" y1="57.711370442889674" y2="55.22380399835377" /><path d="M 25.398753493254645 57.213857153982495 a86.0,86.0 0 0,1 29.58750427330803,-30.492523968695096" fill="none" id="id59" stroke="none" /><text fill="#e1ed5e" style="font-size:6.75px; font-family:Arial;" text-anchor="middle"><textPath startOffset="21.46611528233685" xlink:href="#id59">November</textPath></text><line stroke="#e1ed5e" stroke-width="0.3" x1="56.762969772571076" x2="54.21961505331055" y1="26.818313649435495" y2="22.513508569990535" /><path d="M 56.25429882871897 25.957352633546506 a86.0,86.0 0 0,1 42.265352541879196,-11.944610805530505" fill="none" id="id60" stroke="none" /><text fill="#e1ed5e" style="font-size:6.75px; font-family:Arial;" text-anchor="middle"><textPath startOffset="22.20632615414155" xlink:href="#id60">December</textPath></text></svg>