<?xml version="1.0" encoding="utf-8" ?>
<svg baseProfile="full" height="200mm" version="1.1" viewBox="0,0,200,200" width="200mm" xmlns="http://www.w3.org/2000/svg" xmlns:ev="http://www.w3.org/2001/xml-events" xmlns:xlink="http://www.w3.org/1999/xlink"><defs /><rect fill="#1a1a1a" height="200" width="200" x="0" y="0" /><text alignment-baseline="middle" fill="#e1ed5e" style="dominant-baseline: central; font-size:9.0px; font-family:Arial;" text-anchor="middle" x="100.0" y="100.0">2025</text><line stroke="#e1ed5e" stroke-width="0.3" x1="100.0" x2="100.0" y1="15.0" y2="10.0" /><path d="M 100.0 14.0 a86.0,86.0 0 0,1 42.46469731375804,11.215312516191453" fill="none" id="id49" stroke="none" /><text fill="#e1ed5e" style="font-size:6.75px; font-family:Arial;" text-anchor="middle"><textPath startOffset="22.20632615414155" xlink:href="#id49">January</textPath></text><path d="M 100.0 79.0 l 0.0 -32.62286505616249 a53.62286505616249,53.62286505616249 0 0,0 0.9230294743079872,0.007944806096173939 l -0.5615489950354589 32.61803162667487" fill="red" stroke="none" /><path d="M 100.72285384407766 79.0124445844662 l 1.2470591321432112 -36.20748904738652 a57.22895830127712,57.22895830127712 0 0,0 0.984226806824519,0.04238287667794838 l -1.8701267713570617 36.180658444184374" fill="red" stroke="none" /><path d="M 101.80526077348638 79.07773832637324 l 1.390820232781395 -16.119058962894172 a37.178950607785815,37.178950607785815 0 0,0 0.6371319107092861,0.06050335202467449 l -1.6680772705809253 16.092730066354317" fill="red" stroke="none" /><path d="M 102.16513564639614 79.11191278185805 l 3.506060554342651 -33.82462377038403 a55.00584705339283,55.00584705339283 0 0,0 0.940949131582389,0.10572659856438871 l -4.087776389434765 33.75926121834904" fill="red" stroke="none" /><path d="M 105.01212808612495 79.60689891045804 l 2.5002799284839345 -10.173016422879677 a31.47576550238498,31.47576550238498 0 0,0 0.5250324227295231,0.13384245488829946 l -2.675021239898483 10.12847097182251" fill="red" stroke="none" /><path d="M 105.36241919743992 79.69619591428918 l 6.14875332502267 -23.281112178291597 a45.07939683028158,45.07939683028158 0 0,0 0.7485371822495784,0.20460348806468343 l -6.548588396495959 23.17182214940062" fill="red" stroke="none" /><line stroke="#e1ed5e" stroke-width="0.3" x1="143.23703022742887" x2="145.7803849466894" y1="26.81831364943548" y2="22.513508569990506" /><path d="M 143.74570117128098 25.957352633546492 a86.0,86.0 0 0,1 28.547481713284135,27.462654790039103" fill="none" id="id50" stroke="none" /><text fill="#e1ed5e" style="font-size:6.75px; font-family:Arial;" text-anchor="middle"><textPath startOffset="19.985693538727396" xlink:href="#id50">February</textPath></text><path d="M 117.2510076193507 88.02491185347247 l 8.528617861359255 -5.9202890005836215 a31.38205877827358,31.38205877827358 0 0,0 0.30421997067629813,0.4464052681947704 l -8.629262297704287 5.772605709118445" fill="red" stroke="none" /><line stroke="#e1ed5e" stroke-width="0.3" x1="172.23445277983987" x2="176.4835382374775" y1="55.19839476539836" y2="52.563006222186495" /><path d="M 173.08426987136738 54.67131705675599 a86.0,86.0 0 0,1 12.851231095245387,41.99856678651699" fill="none" id="id51" stroke="none" /><text fill="#e1ed5e" style="font-size:6.75px; font-family:Arial;" text-anchor="middle"><textPath startOffset="22.20632615414155" xlink:href="#id51">March</textPath></text><path d="M 118.21658344932153 89.55222093294921 l 14.020518604940193 -8.041204938204043 a37.16279427604247,37.16279427604247 0 0,0 0.3134811921058206,0.5576480615848493 l -14.156857438338447 7.798673366684399" fill="red" stroke="none" /><path d="M 118.3937258080291 89.86733742301442 l 21.201323284804737 -11.679300717679494 a45.20541621787967,45.20541621787967 0 0,0 0.3695906588603904,0.6847953597751811 l -21.399222042883594 11.312624374571854" fill="red" stroke="none" /><line stroke="#e1ed5e" stroke-width="0.3" x1="184.98032266829074" x2="189.97916517819016" y1="98.17113171792111" y2="98.06355123074" /><path d="M 185.9800911702706 98.14961562048488 a86.0,86.0 0 0,1 -9.607161424134198,41.387399972396054" fill="none" id="id52" stroke="none" /><text fill="#e1ed5e" style="font-size:6.75px; font-family:Arial;" text-anchor="middle"><textPath startOffset="21.466115282336823" xlink:href="#id52">April</textPath></text><path d="M 120.81339534386255 102.79330883721812 l 11.605733710820665 1.5575737644552585 a32.709786120941686,32.709786120941686 0 0,0 -0.07969653561533256,0.5573973844729212 l -11.577203124188733 -1.7571166209085889" fill="red" stroke="none" /><path d="M 120.64145759157962 103.86396538481128 l 15.90272013556535 2.9769002433836107 a37.178950607785815,37.178950607785815 0 0,0 -0.12316867074657772,0.6280343985776621 l -15.849121531843107 -3.250198369029218" fill="red" stroke="none" /><path d="M 120.5718875245553 104.21870165774334 l 23.047224660145723 4.726322014160521 a44.526850284659176,44.526850284659176 0 0,0 -0.16043652044578768,0.7495060114548685 l -22.962454100975492 -5.122341845031559" fill="red" stroke="none" /><path d="M 120.41448212921028 104.9243191809786 l 16.00427549597267 3.86050257379381 a37.463302046468684,37.463302046468684 0 0,0 -0.15661209756317346,0.6255874796163396 l -15.935452084114436 -4.135417892807546" fill="red" stroke="none" /><path d="M 120.23288151984713 105.62410040840565 l 18.698059148823177 5.197468387888041 a40.40698569010617,40.40698569010617 0 0,0 -0.19204355681479102,0.6685288150200341 l -18.605822955122285 -5.518554678412658" fill="red" stroke="none" /><path d="M 120.13307415673323 105.97154293290107 l 20.002963506697405 5.932951641443646 a41.8642868133559,41.8642868133559 0 0,0 -0.21086289204655254,0.6891121316534157 l -19.897873842144723 -6.276390745649119" fill="red" stroke="none" /><path d="M 119.9155931802556 106.66101706037122 l 24.901386395254196 8.328577416922075 a47.257270349284504,47.257270349284504 0 0,0 -0.2646613475081166,0.7692297610892417 l -24.75433421680285 -8.755979881100616" fill="red" stroke="none" /><path d="M 119.79798401119884 107.00284435728193 l 17.40662881058473 6.156986099016605 a39.46345591629482,39.46345591629482 0 0,0 -0.23203711345486475,0.6384664802529806 l -17.29806743612464 -6.4557003762757175" fill="red" stroke="none" /><path d="M 119.54520255179757 107.68017299344265 l 30.242584530062526 11.883646656725539 a53.49361440221573,53.49361440221573 0 0,0 -0.34413559331725924,0.8541163202588432 l -30.033546322487876 -12.402462344827196" fill="red" stroke="none" /><path d="M 119.26925614724726 108.34839909993367 l 14.833680336156041 6.426687289885853 a37.16602554239114,37.16602554239114 0 0,0 -0.259381542302031,0.5848369031637338 l -14.720857709122736 -6.681072529542275" fill="red" stroke="none" /><path d="M 118.97047184881838 109.00673069616215 l 17.659848389806303 8.38447772146192 a40.549161409447606,40.549161409447606 0 0,0 -0.3047882416897908,0.6279540531761437 l -17.512906891501796 -8.68722073060334" fill="red" stroke="none" /><path d="M 118.81262510543309 109.33194174019688 l 30.6692972752829 15.213405560453287 a55.23526696414833,55.23526696414833 0 0,0 -0.4298390858091271,0.8481132951460445 l -30.402879519687506 -15.739073067302026" fill="red" stroke="none" /><line stroke="#e1ed5e" stroke-width="0.3" x1="174.80103733775053" x2="179.2010983576182" y1="140.37084112569926" y2="142.7455964860345" /><path d="M 175.68104954172406 140.8457921977663 a86.0,86.0 0 0,1 -30.038265399797805,32.042727171017184" fill="none" id="id53" stroke="none" /><text fill="#e1ed5e" style="font-size:6.75px; font-family:Arial;" text-anchor="middle"><textPath startOffset="22.206326154141568" xlink:href="#id53">May</textPath></text><path d="M 118.48025628344425 109.97397251340804 l 28.628899871013495 15.451293316662907 a53.53238959839975,53.53238959839975 0 0,0 -0.4446338859235022,0.8071396555937165 l -28.358689575638483 -15.94180349065443" fill="red" stroke="none" /><path d="M 118.30583269289576 110.29060199501025 l 20.004312014917012 11.245400118258615 a43.94845360824742,43.94845360824742 0 0,0 -0.37638293588728816,0.6562553741315673 l -19.807777082877347 -11.588075338248498" fill="red" stroke="none" /><path d="M 118.12598468904814 110.60418214915192 l 19.8384565461147 11.60602363854711 a43.98399753808278,43.98399753808278 0 0,0 -0.38793702415690584,0.6502047665829128 l -19.635738646259565 -11.945790499016127" fill="red" stroke="none" /><path d="M 117.94076556474637 110.91462005526583 l 28.87251377776308 17.56516558824823 a54.79581474072934,54.79581474072934 0 0,0 -0.4971685860148769,0.8015940625800417 l -28.565880552080237 -18.059555982193547" fill="red" stroke="none" /><path d="M 117.75023020441432 111.22182372390056 l 14.030301978777722 8.870058235063414 a37.59901523311279,37.59901523311279 0 0,0 -0.350557348783604,0.5440727901698682 l -13.875539766617068 -9.110252625154736" fill="red" stroke="none" /><path d="M 117.35343817320211 111.8261652097733 l 27.76176283840318 18.91931676965886 a54.59547622711187,54.59547622711187 0 0,0 -0.5359172353575238,0.7720287481286533 l -27.43198469588352 -19.394386779974532" fill="red" stroke="none" /><path d="M 116.71984013943494 112.70617746262583 l 7.797789731132065 5.925899967567147 a30.79396830281582,30.79396830281582 0 0,0 -0.324353136161226,0.41927015173114357 l -7.694629777752771 -6.059248113411543" fill="red" stroke="none" /><path d="M 116.27256486870786 113.27417163493432 l 26.275472493032808 21.4339370883214 a54.90890906293276,54.90890906293276 0 0,0 -0.6037469878148972,0.7272521400008768 l -25.902629505324366 -21.883050485436048" fill="red" stroke="none" /><path d="M 116.0416608686014 113.55231037782055 l 33.39400367615146 28.21191061725408 a64.71580243114326,64.71580243114326 0 0,0 -0.7262268377160246,0.8447658805959253 l -32.903434328864655 -28.782553597011535" fill="red" stroke="none" /><path d="M 115.80600337817218 113.82643327865902 l 12.296530709345824 10.75649279226035 a37.33728265887059,37.33728265887059 0 0,0 -0.42731835548752894,0.48009670236102286 l -12.109553504209957 -10.966563664362239" fill="red" stroke="none" /><path d="M 115.32070863581623 114.36230785411682 l 26.41696583673746 24.764428652597804 a57.20957070318511,57.20957070318511 0 0,0 -0.6796863375650768,0.7126484075868151 l -25.98677294779342 -25.215484176767127" fill="red" stroke="none" /><path d="M 114.81725581225074 114.88116024355365 l 24.76458418720842 24.871389839279853 a56.09801507924296,56.09801507924296 0 0,0 -0.6901392793974206,0.6754465399540279 l -24.332794955435205 -25.293986482156452" fill="red" stroke="none" /><path d="M 114.55890576462653 115.13401014063108 l 28.31806859065148 29.436685980568928 a61.84643791352516,61.84643791352516 0 0,0 -0.7735639528788955,0.731453000874452 l -27.807168803381778 -29.919773618189303" fill="red" stroke="none" /><path d="M 114.0293411484842 115.62618273729858 l 23.739139038295242 26.441165034939598 a56.53423603631328,56.53423603631328 0 0,0 -0.7297160476298418,0.6438895694032982 l -23.280480637758814 -26.845877746115182" fill="red" stroke="none" /><path d="M 113.75828350139079 115.86535959552629 l 21.275696136171323 24.534061230195285 a53.47422680412371,53.47422680412371 0 0,0 -0.7006002812934982,0.5970667589168261 l -20.85023037830078 -24.89665237933506" fill="red" stroke="none" /><path d="M 113.20401910651253 116.32954008644616 l 27.434046775694522 33.92795503727997 a64.63178950607787,64.63178950607787 0 0,0 -0.8711211310459369,0.6920713112893476 l -26.845968151931235 -34.39516026257445" fill="red" stroke="none" /><path d="M 112.92097659922987 116.55440617244103 l 26.627271825432494 34.114965666641446 a64.27635020772426,64.27635020772426 0 0,0 -0.878049443423207,0.6732508712678762 l -26.036093653515792 -34.5682558797367" fill="red" stroke="none" /><path d="M 112.63410532772338 116.77436683061366 l 9.86583851949471 13.098924706164693 a37.398676719495306,37.398676719495306 0 0,0 -0.5175532162448895,0.38287349642805246 l -9.638900332831255 -13.266808151332514" fill="red" stroke="none" /><path d="M 112.34349029814194 116.9893568818739 l 27.915774796444094 38.42276772577049 a68.49315279273733,68.49315279273733 0 0,0 -0.9597934807796881,0.6847871644388496 l -27.250253987815523 -38.897599152053566" fill="red" stroke="none" /><path d="M 112.04921762599082 117.19931262002967 l 19.404079346610242 27.69780056643031 a54.81843360517003,54.81843360517003 0 0,0 -0.7774901450027366,0.53476481126653 l -18.92443231698462 -28.027706167061936" fill="red" stroke="none" /><path d="M 111.7513745106137 117.40417183066458 l 18.434415007802237 27.301974428931437 a53.94276042468072,53.94276042468072 0 0,0 -0.7740151683697551,0.5129750478383645 l -17.96172514069252 -27.61524749786112" fill="red" stroke="none" /><path d="M 111.1453310114006 117.79835938074945 l 19.740560897404574 31.52437526262609 a58.19510693952916,58.19510693952916 0 0,0 -0.853585876168506,0.5243421622435621 l -19.19499582130376 -31.85950589169803" fill="red" stroke="none" /><line stroke="#e1ed5e" stroke-width="0.3" x1="143.8653032363475" x2="146.44561519142675" y1="172.8068346515853" y2="177.08958963109032" /><path d="M 144.38136562736335 173.6633856474863 a86.0,86.0 0 0,1 -40.68145358897372,12.25698825130547" fill="none" id="id54" stroke="none" /><text fill="#e1ed5e" style="font-size:6.75px; font-family:Arial;" text-anchor="middle"><textPath startOffset="21.466115282336833" xlink:href="#id54">June</textPath></text><path d="M 110.5260780823613 118.17145234162733 l 28.045786747833223 48.41619768389272 a76.95260809355285,76.95260809355285 0 0,0 -1.1519117734684787,0.6540855680259922 l -27.208226207443545 -48.89178641771334" fill="red" stroke="none" /><path d="M 110.21172684928248 118.3499491758327 l 16.627249348993278 29.87831392193593 a55.19326050161563,55.19326050161563 0 0,0 -0.8341467534192355,0.45484331855537163 l -16.110479783705394 -30.16009789225107" fill="red" stroke="none" /><path d="M 109.89434966115114 118.52300852407294 l 7.747706635728289 14.504322261733671 a37.443914448376674,37.443914448376674 0 0,0 -0.5711250687064116,0.29878564290946635 l -7.496890664495382 -14.635537323587855" fill="red" stroke="none" /><path d="M 109.57404056367764 118.69057910512821 l 14.93485509071609 29.156038000890874 a53.758578242806585,53.758578242806585 0 0,0 -0.8272321184615962,0.41479135725372224 l -14.430769064571733 -29.4087971990539" fill="red" stroke="none" /><path d="M 108.59647513512805 119.15986991738527 l 18.20352220489801 40.57210798631422 a65.46868749038313,65.46868749038313 0 0,0 -1.0321585183504,0.4524679621020244 l -17.50244301188986 -40.8794405017107" fill="red" stroke="none" /><path d="M 108.2653958097858 119.30500536409082 l 12.939242494039197 30.221437848016617 a53.87490383135867,53.87490383135867 0 0,0 -0.8556580021232237,0.35766511428342623 l -12.417113032418513 -30.43968800532002" fill="red" stroke="none" /><path d="M 107.59598834532513 119.57807347666477 l 17.631248528885916 45.443181781118355 a69.74365286967226,69.74365286967226 0 0,0 -1.1229717118187765,0.4246118125401568 l -16.846406596306867 -45.73994184376514" fill="red" stroke="none" /><path d="M 107.2578585660854 119.70592522655815 l 14.981408318823773 40.676255872330756 a64.34743806739499,64.34743806739499 0 0,0 -1.0426749760916236,0.37386614982770183 l -14.279013782102414 -40.92810956319841" fill="red" stroke="none" /><path d="M 106.91757812671514 119.82793768551818 l 10.75476371631478 30.82650905900535 a53.64871518695184,53.64871518695184 0 0,0 -0.87455138083447,0.29669531136028054 l -10.222542602543085 -31.00706735726375" fill="red" stroke="none" /><path d="M 105.88484417918355 120.15858648285463 l 11.776932357972191 40.34198735128594 a63.02585013078935,63.02585013078935 0 0,0 -1.044034707819613,0.29505463701064566 l -11.080766482047972 -40.5387307816351" fill="red" stroke="none" /><path d="M 105.53697534728816 120.25689768951611 l 9.031770373380791 33.042525374143764 a55.25465456224035,55.25465456224035 0 0,0 -0.9196204689834427,0.24288012415890356 l -8.461659461585851 -33.19309684760625" fill="red" stroke="none" /><path d="M 104.83641907484287 120.43548508189849 l 10.920826269167419 46.144136571297196 a68.41883366671796,68.41883366671796 0 0,0 -1.1483933461694935,0.26137058674043856 l -10.124912773605065 -46.32528389161532" fill="red" stroke="none" /><path d="M 104.48393922423573 120.51570834832081 l 6.904259088617776 31.589582003638462 a53.33528235113094,53.33528235113094 0 0,0 -0.8985942049002441,0.18830915250464858 l -6.359473422288154 -31.70374713686965" fill="red" stroke="none" /><path d="M 104.13013068566511 120.58985236759428 l 7.634291418202018 38.05907008646099 a59.81720264656101,59.81720264656101 0 0,0 -1.0112878164407768,0.1938157169061637 l -6.9780359871895365 -38.18484300171562" fill="red" stroke="none" /><path d="M 103.41894727170886 120.7198165907248 l 8.670732256086389 52.54716372493093 a74.25773195876289,74.25773195876289 0 0,0 -1.2629618431162746,0.19724866577260539 l -7.764934549361596 -52.688630698050645" fill="red" stroke="none" /><path d="M 103.06178313531738 120.77559828337769 l 7.482264926159498 50.77058808072079 a72.31897214956146,72.31897214956146 0 0,0 -1.2331122019768497,0.17089811505001717 l -6.6072241329958175 -50.891860761263416" fill="red" stroke="none" /><path d="M 102.70371172650421 120.8252237178851 l 4.202214517528698 32.36737725409406 a53.639021387905835,53.639021387905835 0 0,0 -0.916646372879995,0.1109931101952877 l -3.6444407215973222 -32.434915893014704" fill="red" stroke="none" /><path d="M 101.62511606390274 120.93702456842531 l 3.664575460300745 47.21220111559825 a68.35420833974457,68.35420833974457 0 0,0 -1.1738606183232048,0.08095630098515212 l -2.8513520811986104 -47.26828576109968" fill="red" stroke="none" /><path d="M 101.26447882468166 120.96189622390904 l 1.407095070025817 23.32611686279583 a44.36851823357439,44.36851823357439 0 0,0 -0.7627411651968782,0.039425005900631756 l -1.0053658364154592 -23.34688167545866" fill="red" stroke="none" /><path d="M 100.90346689309514 120.98055641714683 l 1.8763029167726013 43.57202184370376 a64.61240190798584,64.61240190798584 0 0,0 -1.1115783732749118,0.038285006719776686 l -1.1260041918230372 -43.59786364884963" fill="red" stroke="none" /><line stroke="#e1ed5e" stroke-width="0.3" x1="102.19456741930631" x2="102.32365962044197" y1="184.97166512339345" y2="189.96999836594603" /><path d="M 102.22038585953345 185.97133177190398 a86.0,86.0 0 0,1 -42.740103519485714,-10.115201625700543" fill="none" id="id55" stroke="none" /><text fill="#e1ed5e" style="font-size:6.75px; font-family:Arial;" text-anchor="middle"><textPath startOffset="22.20632615414155" xlink:href="#id55">July</textPath></text><path d="M 100.18074693466247 120.99922214144158 l 0.3762895870107893 43.717414305847754 a64.71903369749192,64.71903369749192 0 0,0 -1.1140730433464594,0.0 l 0.3762895870107592 -43.717414305847754" fill="red" stroke="none" /><path d="M 99.81925306533755 120.99922214144158 l -0.4244312924886323 49.3105291738021 a70.312355747038,70.312355747038 0 0,0 -1.2101771269326889,-0.0208342967234168 l 1.273168109313989 -49.29591739979952" fill="red" stroke="none" /><path d="M 99.09653310690486 120.98055641714683 l -1.398225882558992 32.46998560450266 a53.50007693491306,53.50007693491306 0 0,0 -0.9197221959190435,-0.047539132087740146 l 1.9569361468915243 -32.44110666565272" fill="red" stroke="none" /><path d="M 98.37488393609728 120.93702456842531 l -3.6943321631172115 47.595568698863765 a68.73872903523619,68.73872903523619 0 0,0 -1.1788878025364184,-0.10171940010401496 l 4.513064283395172 -47.52492504648109" fill="red" stroke="none" /><path d="M 98.01472825383883 120.90594882070398 l -3.8040604792960657 40.05874452442324 a61.23895983997538,61.23895983997538 0 0,0 -1.0485492274397283,-0.10868641468324704 l 4.4930423033413875 -39.98732874128424" fill="red" stroke="none" /><path d="M 97.2962882734958 120.8252237178851 l -5.371229743175204 41.371666936700166 a62.718879827665795,62.718879827665795 0 0,0 -1.0694208409083874,-0.14821198396500057 l 6.082579175270422 -41.273080387242565" fill="red" stroke="none" /><path d="M 96.93821686468263 120.77559828337769 l -3.1121925514550695 21.117649216801514 a42.34574549930758,42.34574549930758 0 0,0 -0.7202086486244627,-0.11248177907619308 l 3.475237063688049 -21.060949130378212" fill="red" stroke="none" /><path d="M 96.58105272829116 120.7198165907248 l -8.002093699024968 48.49501925858055 a70.15079242960456,70.15079242960456 0 0,0 -1.1897274702787808,-0.20684937071995016 l 8.835670140775798 -48.3500913093396" fill="red" stroke="none" /><path d="M 96.22490169976321 120.6578951692458 l -5.861015825417644 32.07234378484231 a53.60347745807047,53.60347745807047 0 0,0 -0.9062366890091015,-0.17368241831008804 l 6.412220128998441 -31.966704168183757" fill="red" stroke="none" /><path d="M 95.51606077576429 120.51570834832081 l -6.913918289900922 31.633776482308495 a53.38052008001231,53.38052008001231 0 0,0 -0.8959789401492397,-0.20392188972097477 l 7.457417379443024 -31.510077859009833" fill="red" stroke="none" /><path d="M 94.81253420990036 120.34920634021253 l -10.261747605889985 40.254418610715554 a62.54180643175874,62.54180643175874 0 0,0 -1.040902812939693,-0.2749118935158204 l 10.953140861641167 -40.07181536789615" fill="red" stroke="none" /><path d="M 94.46302465271185 120.25689768951611 l -11.004940846425766 40.261324427678055 a62.73826742575781,62.73826742575781 0 0,0 -1.039270847835177,-0.2937083225941328 l 11.696342862365558 -40.0659273117454" fill="red" stroke="none" /><path d="M 94.11515582081647 120.15858648285463 l -13.12431628451857 44.95746306854825 a67.83397445760886,67.83397445760886 0 0,0 -1.1180493401409324,-0.3368590946858752 l 13.896240599099748 -44.72488860475665" fill="red" stroke="none" /><path d="M 93.42475214034765 119.94407469862007 l -15.31155579442663 46.443087627160494 a69.90198492075703,69.90198492075703 0 0,0 -1.1395031031495604,-0.38658132088519837 l 16.108728630513415 -46.17264331937717" fill="red" stroke="none" /><path d="M 93.08242187328487 119.8279376855182 l -13.81706134218942 39.60400970852618 a62.94506847207263,62.94506847207263 0 0,0 -1.019951216946134,-0.36571821827075274 l 14.496732119765282 -39.36030394921547" fill="red" stroke="none" /><path d="M 92.40401165467489 119.57807347666478 l -15.207171004927694 39.19530912523241 a63.0420064625327,63.0420064625327 0 0,0 -1.0083086330856053,-0.40122681422336376 l 15.879600714055158 -38.92773546660299" fill="red" stroke="none" /><path d="M 92.06813273071674 119.44442032107085 l -12.774712218431736 31.316317510486005 a54.82166487151869,54.82166487151869 0 0,0 -0.8706947558341367,-0.363950478554106 l 13.311878433763335 -31.091781988911926" fill="red" stroke="none" /><path d="M 91.7346041902142 119.30500536409082 l -12.743386061556189 29.7639873439283 a53.37728881366364,53.37728881366364 0 0,0 -0.8415293699536449,-0.36890174551914817 l 13.253836106167578 -29.5402210451147" fill="red" stroke="none" /><path d="M 91.40352486487194 119.15986991738527 l -20.208793216569685 45.041466779167905 a70.36728727496538,70.36728727496538 0 0,0 -1.1008526628978161,-0.5053474641229209 l 20.981113875234918 -44.68693224471091" fill="red" stroke="none" /><path d="M 91.07499286063937 119.00905698771935 l -20.88361033516805 44.47926290386954 a70.13786736420988,70.13786736420988 0 0,0 -1.0884305936892977,-0.5225128287891213 l 21.646153596857587 -44.113195798580854" fill="red" stroke="none" /><path d="M 90.10565033884886 118.52300852407294 l -16.921941296152465 31.679218302057336 a56.91552546545623,56.91552546545623 0 0,0 -0.8601756872973944,-0.4690363686572526 l 17.4647397953185 -31.383241281640316" fill="red" stroke="none" /><line stroke="#e1ed5e" stroke-width="0.3" x1="58.666819895761336" x2="56.23545636021788" y1="174.27360380694188" y2="178.64263932499728" /><path d="M 58.180547188652646 175.14741091055294 a86.0,86.0 0 0,1 -31.652253787137756,-30.449443065178592" fill="none" id="id56" stroke="none" /><text fill="#e1ed5e" style="font-size:6.75px; font-family:Arial;" text-anchor="middle"><textPath startOffset="22.20632615414155" xlink:href="#id56">August</textPath></text><path d="M 89.7882731507175 118.34994917583269 l -15.87146528767541 28.520208743666114 a53.639021387905835,53.639021387905835 0 0,0 -0.8029282149727589,-0.4559235956007217 l 16.360042269569377 -28.24278198227076" fill="red" stroke="none" /><path d="M 89.4739219176387 118.17145234162733 l -24.490664207321895 42.278893807931496 a69.85997845822433,69.85997845822433 0 0,0 -1.035365229784025,-0.6117120275441045 l 25.2147973081343 -41.85106320809364" fill="red" stroke="none" /><path d="M 88.8546689885994 117.79835938074946 l -22.384983180768113 35.747343436978404 a63.177719649176794,63.177719649176794 0 0,0 -0.9167333753467537,-0.5851026138847485 l 22.99699835816179 -35.35672639426985" fill="red" stroke="none" /><path d="M 88.24862548938628 117.40417183066458 l -23.638362667680113 35.00919192833944 a63.24234497615018,63.24234497615018 0 0,0 -0.8969665262595463,-0.6169417557387661 l 24.237486078562547 -34.597109383235576" fill="red" stroke="none" /><path d="M 87.36589467227662 116.77436683061367 l -18.256175278142816 24.23881811144683 a51.344822280350826,51.344822280350826 0 0,0 -0.7013978310876282,-0.5378019477401357 l 18.670701837723932 -23.92097682187933" fill="red" stroke="none" /><path d="M 86.79598089348748 116.32954008644616 l -31.160184803290136 38.536106524976894 a70.55793198953685,70.55793198953685 0 0,0 -0.9378488803043815,-0.7717857800637947 l 31.818903812139208 -37.994025626055915" fill="red" stroke="none" /><path d="M 86.51685102203217 116.09983520530335 l -22.12613999846545 26.42017886821975 a55.46145560855516,55.46145560855516 0 0,0 -0.7266362455810742,-0.6192551725208895 l 22.577641720623582 -26.03539930547591" fill="red" stroke="none" /><path d="M 85.97065885151581 115.62618273729859 l -28.06731706610116 31.26198306668044 a63.012925065394676,63.012925065394676 0 0,0 -0.8008656233031032,-0.7315717585467275 l 28.60128223887112 -30.77421854154714" fill="red" stroke="none" /><path d="M 85.44109423537348 115.13401014063109 l -34.01035656540388 35.353830120797234 a70.05708570549315,70.05708570549315 0 0,0 -0.8618691156393915,-0.8435203290561266 l 34.61387563341906 -34.76315968881853" fill="red" stroke="none" /><path d="M 85.18274418774928 114.88116024355367 l -23.34418868466459 23.444868400330193 a54.08493614402216,54.08493614402216 0 0,0 -0.654065551287965,-0.6625649502618303 l 23.74429486100809 -23.0395629560877" fill="red" stroke="none" /><path d="M 84.9287848128048 114.62390073753433 l -29.68094832757521 28.80001623937557 a62.356977996614866,62.356977996614866 0 0,0 -0.7408408326648528,-0.7767686512064799 l 30.172295711619018 -28.28484047158659" fill="red" stroke="none" /><path d="M 84.67929136418377 114.36230785411682 l -30.742785246911758 28.81964251816241 a63.13894445299277,63.13894445299277 0 0,0 -0.736481487577082,-0.79930519790456 l 31.23431314248457 -28.28618606545651" fill="red" stroke="none" /><path d="M 83.95833913139862 113.55231037782056 l -25.81130138528462 21.805894694702207 a54.78935220803201,54.78935220803201 0 0,0 -0.6024324089560236,-0.725668645080638 l 26.18282979413418 -21.358364792507807" fill="red" stroke="none" /><path d="M 83.72743513129214 113.27417163493432 l -38.13624180878432 31.109233446943332 a70.21541775657793,70.21541775657793 0 0,0 -0.7559261072546348,-0.9431340477526416 l 38.66608582809381 -30.44817156561243" fill="red" stroke="none" /><path d="M 83.28015986056508 112.70617746262583 l -42.72190573249059 32.46634604467836 a74.65840898599785,74.65840898599785 0 0,0 -0.7687637995091645,-1.0298847390271486 l 43.274430798694844 -31.726148426141904" fill="red" stroke="none" /><path d="M 83.06392112726016 112.41649034213515 l -24.610606073881367 18.042981195741543 a51.51607939683028,51.51607939683028 0 0,0 -0.5181541421996754,-0.7196707844733811 l 24.91754000845665 -17.616676805817026" fill="red" stroke="none" /><path d="M 82.6465618267979 111.8261652097733 l -34.13011951528993 23.259277382877716 a62.30204646868749,62.30204646868749 0 0,0 -0.5963103746077408,-0.891403101584485 l 34.52543299530839 -22.66833736708741" fill="red" stroke="none" /><path d="M 82.44556493220864 111.52570212397912 l -34.114866118819045 22.398771784252386 a61.8108939836898,61.8108939836898 0 0,0 -0.5762986872534995,-0.8944283605327922 l 34.49536966944959 -21.808221823798146" fill="red" stroke="none" /><path d="M 82.24976979558568 111.22182372390057 l -41.33708788179885 26.13360548718804 a69.90521618710571,69.90521618710571 0 0,0 -0.6342578835856966,-1.0226256604468187 l 41.780810405052506 -25.418183495375953" fill="red" stroke="none" /><line stroke="#e1ed5e" stroke-width="0.3" x1="26.63291911575756" x2="22.317208475507996" y1="142.92168965132927" y2="145.44649492493687" /><path d="M 25.769776987707644 143.4266507060508 a86.0,86.0 0 0,1 -11.730757126820373,-40.83630448921669" fill="none" id="id57" stroke="none" /><text fill="#e1ed5e" style="font-size:6.75px; font-family:Arial;" text-anchor="middle"><textPath startOffset="21.46611528233685" xlink:href="#id57">September</textPath></text><path d="M 81.87401531095188 110.60418214915194 l -45.241052106639444 26.467216285796834 a73.41437144176027,73.41437144176027 0 0,0 -0.6287346741680242,-1.0962519006153664 l 45.68993877695984 -25.68454453932316" fill="red" stroke="none" /><path d="M 81.69416730710424 110.29060199501025 l -38.039740039630274 21.38399445185619 a64.63825203877519,64.63825203877519 0 0,0 -0.536877905113381,-0.9745893445099181 l 38.402194354195174 -20.72603458894845" fill="red" stroke="none" /><path d="M 81.51974371655577 109.97397251340807 l -30.553985807910195 16.490280759589126 a55.71995691644869,55.71995691644869 0 0,0 -0.4482736648976865,-0.8479648376449977 l 30.833311981032768 -15.961900906858" fill="red" stroke="none" /><path d="M 81.18737489456691 109.33194174019688 l -42.942805576103986 21.301639593140592 a68.935836282505,68.935836282505 0 0,0 -0.5181570123683006,-1.067556918516174 l 43.30311584508701 -20.559293718659134" fill="red" stroke="none" /><path d="M 80.87730276802145 108.67885076344099 l -14.873862826227349 6.750514018955874 a37.33405139252193,37.33405139252193 0 0,0 -0.2605541940321268,-0.587480923244098 l 14.987858104990755 -6.49348475921908" fill="red" stroke="none" /><path d="M 80.73074385275274 108.34839909993369 l -45.08513755578424 19.53312151309304 a70.1346360978612,70.1346360978612 0 0,0 -0.4703997466103993,-1.11188604714818 l 45.414688283586955 -18.754160940278698" fill="red" stroke="none" /><path d="M 80.45479744820244 107.68017299344265 l -49.82086866796099 19.576818865882593 a74.52915833205108,74.52915833205108 0 0,0 -0.4589069766388233,-1.1980613065076495 l 50.150469924193324 -18.716333992541788" fill="red" stroke="none" /><path d="M 80.32549172779594 107.34259656027581 l -45.83049403491264 17.104103604556933 a69.91814125250039,69.91814125250039 0 0,0 -0.41110448382350434,-1.1311829771321185 l 46.11812277974137 -16.3126728304187" fill="red" stroke="none" /><path d="M 80.20201598880116 107.00284435728193 l -41.36587550208785 14.631731578324558 a64.87736574857671,64.87736574857671 0 0,0 -0.3633415750610647,-1.0560406935487148 l 41.61160790809215 -13.917518181686548" fill="red" stroke="none" /><path d="M 80.0844068197444 106.66101706037122 l -22.27518800235082 7.4502128037911115 a44.48807508847515,44.48807508847515 0 0,0 -0.23665060594064924,-0.7283356739660876 l 22.40013085930772 -7.0656782298472205" fill="red" stroke="none" /><path d="M 79.86692584326677 105.97154293290107 l -31.238947499076446 9.265585310874664 a53.584089859978455,53.584089859978455 0 0,0 -0.2546707958944047,-0.8865424501780712 l 31.393810931856954 -8.726485385191998" fill="red" stroke="none" /><path d="M 79.67330655649465 105.27499134158121 l -42.77394361184476 11.100289519536027 a65.1907985843976,65.1907985843976 0 0,0 -0.2725245013228488,-1.0885999138571503 l 42.95867942746267 -10.362361766281484" fill="red" stroke="none" /><path d="M 79.58551787078972 104.9243191809786 l -61.24344638763086 14.772957542935808 a84.0,84.0 0 0,0 -0.32695773627777935,-1.408525370605703 l 61.4886646898392 -13.716563514981532" fill="red" stroke="none" /><line stroke="#e1ed5e" stroke-width="0.3" x1="15.007084014347285" x2="10.007500721073583" y1="101.09737516637583" y2="101.16192664675087" /><path d="M 14.007167355692545 101.11028546245083 a86.0,86.0 0 0,1 10.666146001902534,-42.60595125391555" fill="none" id="id58" stroke="none" /><text fill="#e1ed5e" style="font-size:6.75px; font-family:Arial;" text-anchor="middle"><textPath startOffset="22.20632615414155" xlink:href="#id58">October</textPath></text><line stroke="#e1ed5e" stroke-width="0.3" x1="26.266209847984243" x2="21.928928074336255" y1="57.711370442889674" y2="55.22380399835377" /><path d="M 25.398753493254645 57.213857153982495 a86.0,86.0 0 0,1 29.58750427330803,-30.492523968695096" fill="none" id="id59" stroke="none" /><text fill="#e1ed5e" style="font-size:6.75px; font-family:Arial;" text-anchor="middle"><textPath startOffset="21.46611528233685" xlink:href="#id59">November</textPath></text><line stroke="#e1ed5e" stroke-width="0.3" x1="56.762969772571076" x2="54.21961505331055" y1="26.818313649435495" y2="22.513508569990535" /><path d="M 56.25429882871897 25.957352633546506 a86.0,86.0 0 0,1 42.265352541879196,-11.944610805530505" fill="none" id="id60" stroke="none" /><text fill="#e1ed5e" style="font-size:6.75px; font-family:Arial;" text-anchor="middle"><textPath startOffset="22.20632615414155" xlink:href="#id60">December</textPath></text></svg>